<svg width="33" height="33" viewBox="0 0 33 33" fill="none" xmlns="http://www.w3.org/2000/svg">
<path d="M32.5 16.5C32.5 25.3366 25.3366 32.5 16.5 32.5C7.66344 32.5 0.5 25.3366 0.5 16.5C0.5 7.66344 7.66344 0.5 16.5 0.5C25.3366 0.5 32.5 7.66344 32.5 16.5Z" stroke="#666674"/>
<path fill-rule="evenodd" clip-rule="evenodd" d="M21.4754 18.9272C21.614 18.732 21.7023 18.5057 21.7324 18.2682C21.7626 18.0308 21.7336 17.7896 21.6481 17.566C21.5627 17.3424 21.4233 17.1434 21.2425 16.9866C21.0616 16.8298 20.8448 16.7201 20.6114 16.6672C19.7334 16.5412 19.3354 17.0972 18.7504 17.3322C17.2868 17.8417 15.694 17.8417 14.2304 17.3322C13.8105 17.067 13.3653 16.8443 12.9014 16.6672C12.6203 16.6204 12.3317 16.6583 12.0722 16.7759C11.8127 16.8936 11.594 17.0857 11.4439 17.3279C11.2939 17.5702 11.2192 17.8515 11.2294 18.1363C11.2397 18.4211 11.3344 18.6964 11.5014 18.9272C12.0714 19.6572 13.4604 19.9012 14.4924 20.3272C14.0704 20.7722 13.5214 21.3642 12.9634 21.9272C12.3894 22.5012 11.6444 22.9182 11.5634 23.6552C11.5247 23.8673 11.5368 24.0855 11.5988 24.292C11.6608 24.4985 11.7709 24.6873 11.92 24.843C12.0691 24.9987 12.2531 25.1167 12.4567 25.1875C12.6603 25.2583 12.8779 25.2798 13.0914 25.2502C13.8814 25.1912 14.3824 24.3582 14.8914 23.8502C15.4083 23.3016 15.9637 22.7906 16.5534 22.3212C17.0454 22.8372 17.5024 23.3382 18.0814 23.9212C18.5704 24.4102 19.1614 25.2212 19.9424 25.2502C20.1577 25.2723 20.3752 25.2426 20.5768 25.1636C20.7783 25.0846 20.9581 24.9587 21.1011 24.7962C21.2442 24.6337 21.3463 24.4394 21.3991 24.2294C21.4518 24.0195 21.4536 23.8 21.4044 23.5892C21.1072 22.8958 20.6245 22.2979 20.0094 21.8612L19.2094 21.0612C18.8967 20.8859 18.6601 20.6009 18.5454 20.2612C19.4864 19.9932 20.9754 19.5582 21.4754 18.9272ZM17.2214 16.5342C18.1817 16.3739 19.0707 15.926 19.771 15.2496C20.4713 14.5732 20.9498 13.7003 21.1434 12.7462C21.2789 12.0184 21.2387 11.2688 21.026 10.5597C20.8134 9.85061 20.4345 9.20255 19.9209 8.66945C19.4072 8.13634 18.7737 7.73361 18.073 7.49475C17.3723 7.25589 16.6247 7.18781 15.8924 7.29618C14.8068 7.41929 13.7971 7.91388 13.0344 8.69618C12.2196 9.55803 11.7674 10.7002 11.7714 11.8862C11.7728 12.5663 11.9214 13.2381 12.207 13.8555C12.4925 14.4728 12.9082 15.021 13.4255 15.4626C13.9429 15.9041 14.5496 16.2285 15.2041 16.4135C15.8587 16.5985 16.5455 16.6396 17.2174 16.5342H17.2214ZM14.6964 11.3502C14.7779 11.0253 14.9539 10.7318 15.2023 10.507C15.4506 10.2822 15.76 10.1361 16.0914 10.0872C16.5407 9.98245 17.0128 10.0469 17.4175 10.2683C17.8223 10.4897 18.1312 10.8524 18.2854 11.2872C19.2044 14.4702 13.8374 14.6182 14.6924 11.3502H14.6964Z" fill="#666674"/>
</svg>
