<svg width="33" height="33" viewBox="0 0 33 33" fill="none" xmlns="http://www.w3.org/2000/svg">
<path d="M32.5 16.5C32.5 25.3366 25.3366 32.5 16.5 32.5C7.66344 32.5 0.5 25.3366 0.5 16.5C0.5 7.66344 7.66344 0.5 16.5 0.5C25.3366 0.5 32.5 7.66344 32.5 16.5Z" stroke="#666674"/>
<path d="M29 16.6339V16.3661C23.4643 16.1875 20.9375 16.0536 18.9107 14.0893C16.9464 12.0625 16.8036 9.53571 16.6339 4H16.3661C16.1875 9.53571 16.0536 12.0625 14.0893 14.0893C12.0625 16.0536 9.53571 16.1964 4 16.3661V16.6339C9.53571 16.8125 12.0625 16.9464 14.0893 18.9107C16.0536 20.9375 16.1964 23.4643 16.3661 29H16.6339C16.8125 23.4643 16.9464 20.9375 18.9107 18.9107C20.9375 16.9464 23.4643 16.8036 29 16.6339Z" fill="#666674"/>
</svg>
