<svg width="33" height="33" viewBox="0 0 33 33" fill="none" xmlns="http://www.w3.org/2000/svg">
<path d="M32.5 16.5C32.5 25.3366 25.3366 32.5 16.5 32.5C7.66344 32.5 0.5 25.3366 0.5 16.5C0.5 7.66344 7.66344 0.5 16.5 0.5C25.3366 0.5 32.5 7.66344 32.5 16.5Z" stroke="#666674"/>
<path d="M23.68 8.13814L5.75364 14.9584C4.77336 15.2424 4.80459 16.2154 5.52902 16.4501L10.0199 17.8581L11.738 23.1522C11.9463 23.7322 12.1173 23.9504 12.4743 23.9549C12.8492 23.9594 12.9935 23.8219 13.3817 23.4766C13.8384 23.0461 14.5316 22.369 15.6294 21.2973L20.3018 24.7665C21.1616 25.2433 21.7819 24.9967 21.9961 23.9639L24.925 9.40563C25.2419 8.14113 24.5026 7.76297 23.68 8.13814ZM10.7265 17.5352L20.9384 11.0976C21.4412 10.7583 21.5989 11.1365 21.3728 11.398L12.8983 19.0583L12.4639 22.8817L10.7265 17.5352Z" fill="#666674"/>
</svg>
