<svg width="33" height="33" viewBox="0 0 33 33" fill="none" xmlns="http://www.w3.org/2000/svg">
<path d="M32.5 16.5C32.5 25.3366 25.3366 32.5 16.5 32.5C7.66344 32.5 0.5 25.3366 0.5 16.5C0.5 7.66344 7.66344 0.5 16.5 0.5C25.3366 0.5 32.5 7.66344 32.5 16.5Z" stroke="#666674"/>
<path fill-rule="evenodd" clip-rule="evenodd" d="M16.7595 22.7367H15.2695C14.8456 22.6999 14.4265 22.6205 14.0185 22.4997C13.9395 22.4697 13.8565 22.4687 13.7845 22.4387C13.6375 22.3777 13.4895 22.3387 13.3525 22.2797C13.0764 22.1717 12.809 22.0426 12.5526 21.8937C12.4266 21.8127 12.2925 21.7587 12.1735 21.6747C11.8236 21.4371 11.4895 21.1769 11.1735 20.8957C11.0685 20.7957 10.9585 20.7097 10.8635 20.6087C10.5805 20.3087 10.2985 19.9887 10.0385 19.6557C9.86754 19.4367 9.72154 19.1907 9.53854 18.9677C9.2796 18.6249 9.03925 18.2683 8.81854 17.8997C8.31114 17.1033 7.84648 16.2805 7.42654 15.4347C7.39554 15.3717 7.34554 15.3157 7.31354 15.2527C7.28154 15.1897 7.26353 15.1047 7.22253 15.0407C7.21053 15.0207 7.19254 15.0197 7.18454 15.0027C7.16254 14.9527 7.15054 14.8967 7.12454 14.8437C6.99154 14.5797 6.86253 14.3227 6.73053 14.0497C6.66653 13.9167 6.61253 13.7757 6.54953 13.6417C6.41037 13.3727 6.2891 13.0947 6.18652 12.8097V12.5507C6.22703 12.4552 6.30305 12.3792 6.39853 12.3387C6.44553 12.3237 6.49854 12.3207 6.56454 12.3007C6.75369 12.2627 6.94702 12.2499 7.13953 12.2627C7.40653 12.2627 7.68555 12.2627 7.94855 12.2707C8.52855 12.2967 9.08355 12.2307 9.56055 12.2707C9.61206 12.2814 9.66257 12.2965 9.71155 12.3157C9.75755 12.3327 9.81153 12.3377 9.84753 12.3537C9.92301 12.4 9.99399 12.4532 10.0595 12.5127C10.1536 12.6542 10.2298 12.8066 10.2865 12.9667C10.3245 13.0447 10.3525 13.1237 10.3925 13.2007C10.4325 13.2777 10.4475 13.3707 10.4825 13.4497C10.5175 13.5287 10.5825 13.6217 10.6265 13.7147C10.7427 13.9915 10.8742 14.2616 11.0205 14.5237C11.1205 14.6927 11.2045 14.8767 11.3075 15.0457C11.4105 15.2147 11.5075 15.3887 11.6075 15.5457C11.6355 15.5867 11.6535 15.6327 11.6825 15.6737C11.9551 16.1265 12.2774 16.5475 12.6435 16.9287C12.7151 17.0163 12.8076 17.0844 12.9125 17.1267C13.0174 17.169 13.1312 17.1841 13.2435 17.1707C13.3159 17.1403 13.3805 17.0939 13.4325 17.0351C13.4844 16.9762 13.5224 16.9063 13.5435 16.8307C13.5645 16.7757 13.6015 16.7307 13.6115 16.6867C13.6215 16.6427 13.6215 16.5817 13.6345 16.5277C13.7343 15.9232 13.7698 15.3097 13.7405 14.6977C13.7483 14.4683 13.7433 14.2386 13.7255 14.0097C13.7185 13.9517 13.6955 13.8987 13.6875 13.8437C13.6711 13.6748 13.6407 13.5076 13.5965 13.3437C13.549 13.174 13.4575 13.0199 13.3312 12.897C13.2049 12.7741 13.0484 12.6867 12.8775 12.6437C12.8355 12.6307 12.8025 12.6067 12.7645 12.5987C12.6948 12.6046 12.625 12.5889 12.5645 12.5537C12.562 12.5073 12.5697 12.4609 12.587 12.4177C12.6042 12.3745 12.6307 12.3356 12.6646 12.3037C12.778 12.1774 12.9209 12.0812 13.0805 12.0237C13.1215 12.0067 13.1735 12.0027 13.2165 11.9857C13.2559 11.9659 13.2963 11.9482 13.3375 11.9327C13.3915 11.9197 13.4515 11.9217 13.5115 11.9097C13.5715 11.8977 13.6485 11.8647 13.7005 11.8567C13.9515 11.8197 14.2195 11.8357 14.4725 11.8037H15.7185C15.9774 11.8195 16.2351 11.8499 16.4905 11.8947C16.613 11.9155 16.7342 11.9433 16.8535 11.9777C16.9762 12.0076 17.0885 12.0702 17.1785 12.1587C17.233 12.2187 17.2788 12.286 17.3145 12.3587C17.4178 12.6813 17.4519 13.0221 17.4146 13.3587C17.3806 14.0897 17.3975 14.7857 17.3615 15.5287C17.2941 16.0039 17.3595 16.4884 17.5505 16.9287C17.6156 17.045 17.7231 17.1317 17.8505 17.1707C17.9697 17.1563 18.0845 17.1173 18.1878 17.0562C18.2911 16.9951 18.3805 16.9132 18.4505 16.8157C18.9102 16.3161 19.3112 15.7656 19.6455 15.1747C19.7695 14.9747 19.8745 14.7747 19.9855 14.5747C20.2653 14.0498 20.5154 13.5097 20.7345 12.9567C20.7575 12.9017 20.7786 12.8457 20.8026 12.7907C20.8266 12.7357 20.8375 12.6697 20.8635 12.6167C20.9202 12.518 20.9917 12.4286 21.0755 12.3517C21.0935 12.3417 21.1425 12.3377 21.1815 12.3217C21.231 12.2962 21.2851 12.2808 21.3405 12.2767C21.5995 12.2577 21.8895 12.2847 22.1795 12.2847H23.8745C24.1567 12.2702 24.4394 12.2702 24.7215 12.2847C24.7645 12.2847 24.8165 12.3187 24.8725 12.3297C24.9285 12.3407 24.9986 12.3397 25.0396 12.3527C25.1107 12.3788 25.178 12.4145 25.2395 12.4587C25.2879 12.5107 25.3286 12.5693 25.3605 12.6327V12.9197H25.3525C25.2912 13.1754 25.1971 13.4221 25.0725 13.6537C24.7391 14.2891 24.3467 14.8918 23.9005 15.4537C23.6285 15.8147 23.3445 16.2047 23.0455 16.5807C22.9075 16.7547 22.7605 16.9467 22.6225 17.1477C22.471 17.3377 22.3484 17.5489 22.2585 17.7747C22.2196 17.9152 22.2145 18.0629 22.2435 18.2057C22.2621 18.2507 22.2849 18.2939 22.3115 18.3347C22.532 18.6824 22.808 18.9915 23.1285 19.2497C23.2635 19.3747 23.4025 19.4927 23.5375 19.6127C23.8115 19.8557 24.0275 20.1267 24.2865 20.3987C24.417 20.526 24.5383 20.6623 24.6495 20.8067C24.7005 20.8797 24.7685 20.9437 24.8235 21.0187C24.8785 21.0937 24.9235 21.1757 24.9825 21.2457C25.0365 21.3225 25.0844 21.4034 25.1255 21.4877C25.1735 21.5697 25.2335 21.6437 25.2695 21.7217C25.2931 21.8025 25.3236 21.8811 25.3605 21.9567V22.2217H25.3525C25.2854 22.3771 25.1746 22.5098 25.0338 22.6036C24.8929 22.6975 24.7278 22.7486 24.5585 22.7507H24.2785C23.5975 22.7377 22.8645 22.7377 22.1785 22.7507H21.5785V22.7287C20.7155 22.4803 19.9703 21.9302 19.4785 21.1787C19.4265 21.1207 19.3875 21.0527 19.3345 20.9967C19.1349 20.7624 18.9091 20.5517 18.6615 20.3687C18.5333 20.2543 18.3717 20.1841 18.2005 20.1687C18.1128 20.1793 18.0282 20.2084 17.9525 20.254C17.8769 20.2997 17.8118 20.361 17.7615 20.4337C17.5287 20.8007 17.4004 21.2242 17.3905 21.6587C17.3965 21.8302 17.3915 22.0019 17.3755 22.1727C17.36 22.2139 17.3423 22.2543 17.3225 22.2937C17.3125 22.3373 17.3001 22.3804 17.2855 22.4227C17.1523 22.5857 16.9662 22.6968 16.7595 22.7367Z" fill="#666674"/>
</svg>
