<svg width="1248" height="700" viewBox="0 0 1248 700" fill="none" xmlns="http://www.w3.org/2000/svg">
<path d="M626.778 419.092C969.377 427.427 1245.66 493.511 1243.88 566.695C1242.1 639.878 962.929 692.448 620.33 684.113C277.731 675.778 1.44338 609.694 3.22389 536.51C5.0044 463.326 284.179 410.757 626.778 419.092Z" fill="url(#paint0_linear_2524_16953)"/>
<path fill-rule="evenodd" clip-rule="evenodd" d="M724.465 95L608.557 96.2353L509.524 523.343C508.714 525.033 508.297 526.754 508.297 528.5C508.297 528.544 508.298 528.588 508.298 528.632L508 529.918L508.389 529.916C511.277 552.18 581.989 570 668.797 570C757.439 570 829.297 551.42 829.297 528.5C829.297 526.491 828.745 524.515 827.678 522.582L724.465 95Z" fill="url(#paint1_linear_2524_16953)" fill-opacity="0.51"/>
<g style="mix-blend-mode:multiply">
<ellipse cx="668.797" cy="528.5" rx="160.5" ry="41.5" fill="url(#paint2_linear_2524_16953)" fill-opacity="0.3"/>
</g>
<path d="M714.874 81.358C716.892 75.8409 718.027 69.8939 718.095 63.6848C718.418 34.3473 694.897 10.3026 665.559 9.97989C636.222 9.65715 612.177 33.1782 611.854 62.516C611.772 70.0292 613.256 77.1935 615.998 83.703L714.874 81.358Z" fill="#CBEBF7" fill-opacity="0.6"/>
<path d="M770.414 68.9333C769.926 47.8969 722.422 31.9362 664.312 33.2842C606.201 34.6321 559.488 52.7783 559.976 73.8147C560.464 94.8512 607.968 110.812 666.079 109.464C724.189 108.116 770.902 89.9698 770.414 68.9333Z" fill="#BED9F1"/>
<path d="M727.731 88.3107C727.478 77.416 699.467 69.2292 665.165 70.0248C630.864 70.8205 603.263 80.2974 603.515 91.1921C603.768 102.087 631.779 110.274 666.081 109.478C700.382 108.682 727.983 99.2054 727.731 88.3107Z" fill="#D4F2F6"/>
<path d="M726.015 174.005L609.261 176.774C606.698 176.834 604.687 174.59 605.027 172.049L617.591 78.1577C628.886 73.5503 645.962 70.3862 665.137 69.9316C684.312 69.477 701.519 71.8278 713.019 75.8946L730.02 169.085C730.48 171.607 728.578 173.944 726.015 174.005Z" fill="url(#paint3_linear_2524_16953)"/>
<path fill-rule="evenodd" clip-rule="evenodd" d="M713.018 75.8942L713.024 75.9278L715.166 87.6544C715.165 87.6541 715.164 87.6537 715.163 87.6533L730.018 169.084C730.479 171.607 728.576 173.944 726.013 174.004C719.719 174.154 714.251 169.702 713.122 163.508L698.476 83.2214C694.717 82.564 690.693 82.0359 686.461 81.6535L688.283 104.168C688.411 105.752 687.337 107.155 685.825 107.48C685.692 107.509 685.555 107.529 685.417 107.54C683.694 107.679 682.185 106.396 682.045 104.673L680.145 81.1994C675.413 80.9463 670.474 80.8698 665.398 80.9901C660.323 81.1106 655.394 81.4209 650.68 81.8979L648.967 133.275C648.918 134.74 647.87 135.936 646.498 136.231C646.253 136.283 645.997 136.307 645.735 136.298C644.008 136.241 642.654 134.794 642.712 133.067L644.394 82.6508C632.975 84.2309 623.138 86.8103 616.002 90.0063L617.59 78.1573C628.885 73.5499 645.961 70.3858 665.136 69.9312C676.51 69.6613 687.193 70.379 696.403 71.8565L696.402 71.8551C702.716 72.8665 708.342 74.2374 713.018 75.894L713.018 75.8942Z" fill="white" fill-opacity="0.51"/>
<path d="M592.776 77.0048C592.696 73.5618 589.416 70.8452 585.449 70.9373C581.482 71.0293 578.331 73.895 578.411 77.338C578.491 80.7811 581.772 83.4976 585.738 83.4056C589.705 83.3136 592.856 80.4479 592.776 77.0048Z" fill="#E0E9EC"/>
<path d="M627.351 57.2633C627.271 53.8203 623.99 51.1037 620.023 51.1957C616.057 51.2878 612.906 54.1535 612.985 57.5965C613.065 61.0396 616.346 63.7561 620.313 63.6641C624.279 63.5721 627.43 60.7063 627.351 57.2633Z" fill="#E0E9EC"/>
<path d="M671.936 52.2102C671.856 48.7672 668.576 46.0506 664.609 46.1426C660.642 46.2347 657.491 49.1004 657.571 52.5434C657.651 55.9865 660.931 58.703 664.898 58.611C668.865 58.519 672.016 55.6532 671.936 52.2102Z" fill="#E0E9EC"/>
<path d="M752.164 73.2962C752.084 69.8531 748.803 67.1366 744.837 67.2286C740.87 67.3206 737.719 70.1863 737.799 73.6294C737.879 77.0724 741.159 79.789 745.126 79.6969C749.093 79.6049 752.244 76.7392 752.164 73.2962Z" fill="#E0E9EC"/>
<path d="M716.708 55.1842C716.628 51.7412 713.348 49.0246 709.381 49.1166C705.414 49.2086 702.263 52.0744 702.343 55.5174C702.423 58.9605 705.703 61.677 709.67 61.585C713.637 61.493 716.788 58.6272 716.708 55.1842Z" fill="#E0E9EC"/>
<path d="M789.772 273.269L786.316 248.476L785.341 248.629L788.797 273.422L789.772 273.269Z" fill="#12181C"/>
<path d="M781.8 275.048L782.721 274.695L773.456 251.773L772.541 252.15L781.8 275.048Z" fill="#12181C"/>
<path d="M781.283 274.809L781.679 274.489L768.508 257.072L768.106 257.366L781.283 274.809Z" fill="#12181C"/>
<path d="M785.414 294.317L786.544 294.844L787.129 297.04L791.225 297.766L793.455 295.701L792.41 291.783L789.402 290.928L789.396 290.903L788.324 286.885L790.046 286.426L790.678 288.797C793.043 288.942 795.16 290.569 795.806 292.99C796.611 296.009 794.824 299.132 791.779 299.944C789.209 300.629 786.565 299.436 785.346 297.168L784.641 294.523L785.414 294.317Z" fill="#1C242B"/>
<path d="M780.032 275.733L782.44 284.767L786.782 288.42L792.372 286.93L794.319 281.6L791.91 272.566L789.172 270.917L781.586 272.94L780.032 275.733ZM785.3 282.561L790.765 281.104L791.337 283.25L785.872 284.707L785.3 282.561Z" fill="#EEAC00"/>
<path d="M783.427 281.969L792.086 279.66L790.483 273.646L781.823 275.955L783.427 281.969Z" fill="#D49900"/>
<path d="M765.324 254.682L777.709 245.112L775.798 242.639L763.413 252.209L765.324 254.682Z" fill="#BF8A00"/>
<path d="M774.331 254.533C776.573 257.435 780.74 257.969 783.642 255.727C786.544 253.485 787.078 249.318 784.836 246.416C782.593 243.514 778.427 242.98 775.525 245.222C772.623 247.465 772.089 251.631 774.331 254.533Z" fill="#1C242B"/>
<path d="M776.742 252.668C777.958 254.242 780.204 254.53 781.778 253.314C783.352 252.098 783.64 249.852 782.424 248.279C781.208 246.705 778.962 246.417 777.388 247.633C775.814 248.849 775.526 251.095 776.742 252.668Z" fill="#323C49"/>
<path d="M770.723 233.854L723.525 278.415L714.226 285.6L705.236 273.29L760.711 220.897L770.723 233.854Z" fill="#323C49"/>
<path d="M565.329 430.444L576.999 421.428L748.553 257.836L743.753 251.623L729.289 248.406L695.071 280.915L695.807 283.642L689.713 289.526L688.023 287.634L554.073 414.989L565.329 430.444Z" fill="#EEAC00"/>
<path d="M616.024 430.361L662.56 394.405L647.196 374.52L600.66 410.476L616.024 430.361Z" fill="#BF8A00"/>
<path d="M560.695 435.158L588.715 413.509L574.108 394.604L546.089 416.254L560.695 435.158Z" fill="#DEA000"/>
<path d="M571.698 403.036L554.878 416.032L563.121 426.7L579.941 413.704L571.698 403.036Z" fill="#EEAC00"/>
<path d="M617.624 435.189L650.651 409.671L646.198 403.908L613.171 429.426L617.624 435.189Z" fill="#323C49"/>
<path d="M707.115 328.268L708.409 319.762L713.334 315.956L738.015 347.9L728.165 355.511L707.115 328.268Z" fill="#1C242B"/>
<path d="M600.17 453.952L617.903 476.903L788.84 344.827L781.75 335.651L795.893 324.724L790.619 317.898L776.476 328.825L771.107 321.876L600.17 453.952ZM734.633 377.148L703.466 401.229L699.234 395.752L730.401 371.671L734.633 377.148ZM612.401 462.812L692.944 400.579L697.176 406.057L616.633 468.289L612.401 462.812Z" fill="#323C49"/>
<path d="M738.015 347.901L709.702 311.257L753.029 277.78L781.323 302.657L792.172 316.697L775.699 329.424L768.236 325.171L738.015 347.901Z" fill="#EEAC00"/>
<path d="M754.415 371.194L755.927 371.038L755.933 372.567C756.686 373.161 757.463 373.703 758.286 374.176L759.719 373.624L760.138 375.095C761.011 375.465 761.926 375.803 762.854 376.033L764.091 375.142L764.864 376.438C765.801 376.595 766.768 376.664 767.729 376.639L768.672 375.453L769.752 376.512C770.685 376.411 771.628 376.237 772.565 375.971L773.185 374.577L774.508 375.318C775.397 374.99 776.264 374.549 777.099 374.067L777.326 372.586L778.788 372.958C778.89 372.879 779.012 372.784 779.135 372.689C779.789 372.184 780.412 371.638 780.946 371.062L780.79 369.55L782.319 369.544C782.912 368.792 783.454 368.014 783.912 367.171L783.375 365.758L784.847 365.339C785.237 364.45 785.539 363.531 785.784 362.624L784.893 361.386L786.189 360.613C786.346 359.676 786.415 358.709 786.391 357.748L785.225 356.789L786.284 355.709C786.167 354.755 786.009 353.833 785.743 352.897L784.349 352.276L785.09 350.953C784.762 350.064 784.321 349.198 783.838 348.362L782.358 348.136L782.729 346.674C782.651 346.571 782.556 346.449 782.461 346.326C781.956 345.672 781.41 345.05 780.834 344.516L779.322 344.672L779.316 343.143C778.563 342.549 777.786 342.007 776.963 341.533L775.53 342.086L775.111 340.615C774.237 340.245 773.323 339.907 772.395 339.677L771.158 340.568L770.385 339.272C769.448 339.115 768.481 339.046 767.52 339.07L766.561 340.236L765.481 339.177C764.548 339.278 763.605 339.452 762.668 339.719L762.048 341.112L760.725 340.372C759.836 340.699 758.969 341.141 758.134 341.623L757.908 343.103L756.445 342.732C756.343 342.811 756.221 342.906 756.098 343C755.444 343.506 754.822 344.052 754.287 344.628L754.443 346.139L752.914 346.146C752.321 346.898 751.779 347.675 751.321 348.519L751.858 349.932L750.387 350.351C749.996 351.24 749.694 352.158 749.449 353.066L750.34 354.303L749.044 355.076C748.903 356.034 748.818 356.98 748.842 357.941L750.008 358.901L748.949 359.98C749.066 360.934 749.224 361.856 749.47 362.809L750.863 363.429L750.123 364.752C750.451 365.641 750.892 366.508 751.374 367.343L752.855 367.57L752.483 369.032C752.562 369.134 752.657 369.256 752.752 369.379C753.314 370.022 753.844 370.624 754.415 371.194Z" fill="#1C242B"/>
<path d="M760.799 363.194C761.036 363.501 761.293 363.792 761.571 364.066C761.817 364.301 762.048 364.514 762.299 364.712C762.649 364.996 763.04 365.249 763.415 365.481C763.707 365.648 763.983 365.794 764.279 365.924C764.716 366.108 765.121 366.252 765.546 366.381C765.847 366.474 766.153 366.532 766.494 366.594C766.945 366.671 767.38 366.726 767.824 366.71C768.154 366.715 768.449 366.716 768.768 366.665C769.197 366.628 769.65 366.539 770.067 366.445C770.371 366.373 770.679 366.266 770.988 366.158C771.394 366.008 771.804 365.821 772.183 365.593C772.46 365.445 772.721 365.276 772.966 365.086C773.028 365.039 773.069 365.007 773.13 364.96C773.416 364.739 773.707 364.481 773.961 364.219C774.175 363.989 774.389 363.759 774.587 363.508C774.871 363.158 775.103 362.782 775.315 362.423C775.481 362.131 775.627 361.855 775.737 361.575C775.901 361.154 776.045 360.749 776.157 360.303C776.236 359.982 776.293 359.676 776.335 359.35C776.391 358.915 776.415 358.44 776.398 357.996C776.404 357.665 776.368 357.366 776.338 357.03C776.285 356.582 776.175 356.144 776.066 355.707C775.978 355.383 775.871 355.074 775.743 354.782C775.576 354.355 775.369 353.96 775.146 353.545C774.998 353.268 774.813 352.987 774.607 352.721C774.56 352.66 774.529 352.619 774.481 352.558C774.244 352.251 773.987 351.96 773.709 351.685C773.463 351.451 773.233 351.238 772.982 351.04C772.632 350.755 772.261 350.487 771.865 350.27C771.574 350.104 771.298 349.958 771.001 349.828C770.581 349.664 770.16 349.499 769.734 349.371C769.433 349.277 769.112 349.199 768.806 349.142C768.356 349.065 767.901 349.026 767.461 349.006C767.131 349 766.816 349.015 766.517 349.051C766.088 349.088 765.635 349.177 765.218 349.271C764.914 349.342 764.606 349.45 764.313 349.578C763.907 349.729 763.497 349.915 763.118 350.143C762.841 350.291 762.58 350.46 762.334 350.65C762.273 350.697 762.232 350.729 762.171 350.776C761.864 351.013 761.574 351.27 761.319 351.532C761.09 351.742 760.876 351.973 760.678 352.223C760.394 352.574 760.162 352.949 759.966 353.329C759.799 353.621 759.674 353.881 759.544 354.177C759.379 354.598 759.235 355.003 759.123 355.449C759.045 355.77 758.987 356.076 758.945 356.402C758.869 356.852 758.85 357.292 758.866 357.736C758.861 358.066 758.912 358.386 758.927 358.701C758.98 359.15 759.089 359.587 759.199 360.025C759.286 360.349 759.394 360.657 759.522 360.95C759.688 361.376 759.896 361.771 760.118 362.186C760.267 362.463 760.452 362.745 760.657 363.01C760.705 363.072 760.752 363.133 760.799 363.194ZM761.69 362.277C761.516 362.053 761.379 361.832 761.246 361.576C761.05 361.238 760.875 360.884 760.735 360.535C760.639 360.283 760.542 360.031 760.466 359.764C760.368 359.383 760.269 359.002 760.243 358.63C760.203 358.367 760.184 358.089 760.185 357.794C760.179 357.407 760.189 357.04 760.24 356.641C760.278 356.352 760.326 356.118 760.399 355.833C760.502 355.46 760.605 355.086 760.761 354.738C760.866 354.494 760.971 354.25 761.112 354.01C761.283 353.682 761.49 353.359 761.729 353.076C761.886 352.857 762.074 352.679 762.267 352.464C762.481 352.234 762.711 352.024 762.976 351.819C763.017 351.787 763.058 351.755 763.099 351.724C763.324 351.55 763.544 351.413 763.764 351.275C764.082 351.095 764.436 350.919 764.785 350.78C765.037 350.683 765.288 350.587 765.572 350.531C765.916 350.428 766.293 350.366 766.685 350.324C766.948 350.284 767.222 350.301 767.5 350.281C767.888 350.276 768.25 350.322 768.628 350.389C768.918 350.426 769.167 350.495 769.432 350.584C769.805 350.687 770.174 350.827 770.522 350.982C770.782 351.107 771.006 351.228 771.246 351.369C771.569 351.576 771.892 351.784 772.19 352.043C772.389 352.216 772.604 352.409 772.798 352.618C773.044 352.852 773.254 353.081 773.475 353.368L773.586 353.511C773.759 353.735 773.897 353.956 774.03 354.212C774.226 354.55 774.401 354.904 774.54 355.253C774.653 355.526 774.749 355.777 774.826 356.045C774.924 356.426 775.007 356.786 775.049 357.178C775.088 357.441 775.108 357.72 775.107 358.014C775.113 358.402 775.102 358.768 775.051 359.167C775.034 359.441 774.966 359.69 774.913 359.959C774.81 360.333 774.691 360.686 774.551 361.055C774.446 361.299 774.341 361.543 774.2 361.783C774.029 362.111 773.822 362.434 773.583 362.716C773.411 362.915 773.238 363.114 773.044 363.328C772.831 363.559 772.565 363.764 772.32 363.954L772.177 364.064C771.952 364.238 771.732 364.375 771.512 364.513C771.194 364.693 770.84 364.869 770.475 364.987C770.223 365.084 769.972 365.181 769.688 365.236C769.328 365.319 768.952 365.381 768.575 365.444C768.312 365.483 768.038 365.467 767.78 365.47C767.393 365.476 767.01 365.445 766.632 365.378C766.363 365.325 766.093 365.272 765.844 365.204C765.471 365.101 765.102 364.961 764.754 364.806C764.509 364.701 764.27 364.56 764.03 364.419C763.707 364.211 763.384 364.004 763.085 363.745C762.887 363.572 762.672 363.379 762.478 363.17C762.232 362.936 762.006 362.686 761.801 362.42L761.69 362.277Z" fill="#D49900"/>
<path d="M759.818 363.951C760.102 364.319 760.391 364.651 760.701 364.967C760.963 365.221 761.24 365.496 761.543 365.719C761.961 366.049 762.384 366.343 762.827 366.62C763.155 366.791 763.478 366.998 763.811 367.133C764.299 367.343 764.772 367.533 765.27 367.67C765.607 367.769 765.965 367.851 766.343 367.918C766.845 368.019 767.357 368.048 767.89 368.061C768.256 368.072 768.608 368.061 768.979 368.035C769.48 368.008 769.99 367.907 770.468 367.766C770.829 367.683 771.173 367.58 771.507 367.421C771.969 367.259 772.441 367.025 772.882 366.75C773.199 366.57 773.481 366.385 773.767 366.164C773.828 366.116 773.89 366.069 773.951 366.022C774.298 365.753 774.61 365.48 774.91 365.15C775.164 364.888 775.419 364.626 775.621 364.339C775.931 363.937 776.224 363.515 776.445 363.083C776.632 362.775 776.787 362.427 776.922 362.094C777.111 361.621 777.265 361.144 777.402 360.646C777.485 360.288 777.547 359.947 777.614 359.569C777.679 359.061 777.708 358.55 777.7 358.033C777.711 357.666 777.685 357.295 777.622 356.918C777.543 356.393 777.442 355.883 777.301 355.404C777.218 355.044 777.079 354.694 776.94 354.345C776.762 353.862 776.508 353.406 776.253 352.95C776.073 352.632 775.873 352.33 775.636 352.024C775.588 351.962 775.541 351.901 775.494 351.84C775.209 351.472 774.921 351.14 774.611 350.824C774.349 350.57 774.087 350.315 773.769 350.072C773.351 349.742 772.928 349.449 772.501 349.191C772.157 349 771.849 348.813 771.517 348.678C771.028 348.468 770.556 348.279 770.073 348.162C769.72 348.043 769.363 347.96 769.001 347.914C768.478 347.828 767.986 347.784 767.454 347.771C767.087 347.76 766.715 347.786 766.36 347.833C765.859 347.861 765.349 347.961 764.855 348.082C764.51 348.185 764.15 348.267 763.816 348.427C763.353 348.589 762.882 348.823 762.462 349.082C762.144 349.262 761.863 349.447 761.561 349.648C761.499 349.695 761.438 349.742 761.377 349.79C761.029 350.058 760.698 350.347 760.418 350.661C760.163 350.923 759.929 351.169 759.691 351.452C759.381 351.854 759.088 352.277 758.867 352.708C758.68 353.016 758.525 353.364 758.374 353.676C758.185 354.149 758.031 354.627 757.91 355.145C757.827 355.503 757.765 355.844 757.698 356.223C757.633 356.73 757.604 357.242 757.611 357.758C757.617 358.145 757.643 358.517 757.689 358.873C757.753 359.378 757.854 359.888 758.011 360.387C758.114 360.732 758.233 361.097 758.372 361.446C758.549 361.929 758.804 362.385 759.074 362.862C759.254 363.179 759.455 363.481 759.692 363.788C759.708 363.808 759.771 363.89 759.818 363.951ZM760.836 362.904C760.647 362.658 760.462 362.377 760.313 362.1C760.086 361.721 759.879 361.326 759.712 360.9C759.584 360.607 759.492 360.319 759.405 359.995C759.275 359.573 759.186 359.12 759.149 358.692C759.098 358.372 759.083 358.057 759.084 357.763C759.067 357.319 759.086 356.879 759.142 356.445C759.184 356.119 759.257 355.833 759.315 355.528C759.407 355.098 759.551 354.693 759.731 354.292C759.861 353.996 759.987 353.736 760.133 353.46C760.329 353.08 760.577 352.725 760.841 352.391C761.038 352.14 761.232 351.925 761.445 351.695C761.7 351.433 761.97 351.192 762.277 350.955C762.318 350.923 762.379 350.876 762.42 350.844C762.665 350.655 762.926 350.486 763.183 350.353C763.562 350.125 763.936 349.934 764.358 349.804C764.65 349.676 764.938 349.584 765.242 349.512C765.643 349.398 766.076 349.325 766.504 349.287C766.803 349.252 767.118 349.237 767.429 349.259C767.868 349.278 768.307 349.298 768.738 349.39C769.064 349.432 769.349 349.505 769.65 349.599C770.059 349.707 770.48 349.871 770.881 350.051C771.177 350.181 771.453 350.327 771.724 350.509C772.099 350.742 772.454 350.99 772.804 351.274C773.055 351.472 773.286 351.685 773.495 351.915C773.757 352.169 774.015 352.46 774.252 352.767L774.378 352.93C774.567 353.175 774.736 353.437 774.885 353.713C775.128 354.113 775.32 354.487 775.486 354.913C775.614 355.206 775.722 355.515 775.793 355.818C775.923 356.24 775.997 356.673 776.05 357.122C776.101 357.441 776.116 357.756 776.115 358.051C776.131 358.495 776.112 358.934 776.056 359.369C776.035 359.679 775.961 359.964 775.883 360.286C775.791 360.716 775.647 361.121 775.467 361.521C775.337 361.817 775.212 362.078 775.066 362.353C774.87 362.733 774.622 363.088 774.358 363.423C774.16 363.673 773.967 363.888 773.753 364.118C773.499 364.38 773.228 364.622 772.922 364.859L772.758 364.985C772.513 365.174 772.252 365.343 771.995 365.476C771.616 365.704 771.226 365.875 770.82 366.025C770.548 366.138 770.24 366.245 769.936 366.317C769.519 366.411 769.102 366.504 768.674 366.542C768.374 366.577 768.06 366.592 767.749 366.57C767.305 366.587 766.871 366.531 766.441 366.439C766.135 366.382 765.829 366.324 765.528 366.23C765.103 366.102 764.698 365.958 764.297 365.778C764.001 365.648 763.725 365.502 763.454 365.32C763.079 365.088 762.724 364.839 762.374 364.555C762.123 364.357 761.893 364.144 761.683 363.914C761.421 363.66 761.163 363.369 760.926 363.062L760.816 362.919L760.836 362.904Z" fill="#EEAC00"/>
<path d="M772.565 363.934C775.899 361.207 776.391 356.293 773.664 352.959C770.937 349.624 766.023 349.132 762.689 351.86C759.354 354.587 758.862 359.501 761.59 362.835C764.317 366.169 769.231 366.661 772.565 363.934Z" fill="#EEAC00"/>
<path d="M771.197 360.73C772.805 358.746 772.5 355.835 770.516 354.228C768.533 352.62 765.622 352.925 764.014 354.908C762.407 356.892 762.711 359.803 764.695 361.41C766.678 363.018 769.59 362.713 771.197 360.73Z" fill="#1C242B"/>
<path d="M763.924 353.761L763.134 353.457L763.039 352.617L763.693 352.111L764.462 352.431L764.578 353.256L763.924 353.761Z" fill="#1C242B"/>
<path d="M761.615 358.123L760.825 357.82L760.731 356.979L761.385 356.474L762.154 356.793L762.269 357.618L761.615 358.123Z" fill="#1C242B"/>
<path d="M762.835 362.533L762.066 362.214L761.935 361.368L762.589 360.863L763.395 361.187L763.489 362.028L762.835 362.533Z" fill="#1C242B"/>
<path d="M770.698 362.529L770.793 363.37L771.582 363.674L772.236 363.168L772.121 362.343L771.352 362.024L770.698 362.529Z" fill="#1C242B"/>
<path d="M765.894 363.662L765.989 364.503L766.779 364.807L767.433 364.302L767.317 363.477L766.548 363.157L765.894 363.662Z" fill="#1C242B"/>
<path d="M769.381 352.124L769.287 351.283L768.497 350.979L767.843 351.485L767.938 352.325L768.727 352.629L769.381 352.124Z" fill="#1C242B"/>
<path d="M773.341 354.417L773.225 353.592L772.44 353.252L771.766 353.773L771.897 354.619L772.666 354.938L773.341 354.417Z" fill="#1C242B"/>
<path d="M773.66 357.663L774.45 357.966L774.545 358.807L773.891 359.312L773.101 359.009L773.006 358.168L773.66 357.663Z" fill="#1C242B"/>
<path d="M659.77 444.325L661.282 444.169L661.288 445.698C662.041 446.292 662.818 446.833 663.641 447.307L665.075 446.754L665.493 448.226C666.367 448.596 667.281 448.934 668.209 449.163L669.446 448.273L670.219 449.568C671.156 449.725 672.123 449.794 673.084 449.77L674.043 448.604L675.123 449.663C676.056 449.562 676.999 449.389 677.936 449.122L678.556 447.729L679.879 448.469C680.768 448.141 681.635 447.7 682.47 447.218L682.697 445.737L684.159 446.109C684.261 446.03 684.383 445.935 684.506 445.84C685.16 445.335 685.782 444.789 686.317 444.213L686.161 442.701L687.69 442.695C688.283 441.943 688.825 441.165 689.283 440.322L688.746 438.909L690.218 438.49C690.608 437.601 690.91 436.682 691.155 435.775L690.264 434.537L691.56 433.765C691.717 432.827 691.786 431.86 691.762 430.9L690.596 429.94L691.655 428.861C691.538 427.907 691.38 426.984 691.114 426.048L689.72 425.427L690.461 424.104C690.133 423.215 689.692 422.349 689.21 421.514L687.729 421.287L688.1 419.825C688.021 419.723 687.927 419.6 687.832 419.477C687.327 418.823 686.78 418.201 686.205 417.667L684.693 417.823L684.687 416.294C683.934 415.7 683.157 415.158 682.334 414.685L680.9 415.237L680.482 413.766C679.608 413.396 678.694 413.058 677.766 412.828L676.529 413.719L675.756 412.423C674.819 412.266 673.852 412.198 672.891 412.222L671.932 413.387L670.852 412.328C669.919 412.43 668.976 412.603 668.039 412.87L667.419 414.263L666.096 413.523C665.207 413.851 664.34 414.292 663.505 414.774L663.279 416.255L661.816 415.883C661.714 415.962 661.592 416.057 661.469 416.151C660.815 416.657 660.193 417.203 659.658 417.779L659.814 419.29L658.285 419.297C657.692 420.049 657.15 420.827 656.692 421.67L657.229 423.083L655.757 423.502C655.367 424.391 655.065 425.31 654.82 426.217L655.711 427.454L654.415 428.227C654.274 429.185 654.189 430.132 654.213 431.092L655.379 432.052L654.32 433.131C654.437 434.085 654.595 435.008 654.841 435.96L656.234 436.58L655.494 437.903C655.822 438.792 656.263 439.659 656.745 440.494L658.226 440.721L657.854 442.183C657.933 442.285 658.028 442.408 658.123 442.53C658.648 443.168 659.179 443.77 659.77 444.325Z" fill="#1C242B"/>
<path d="M666.134 436.339C666.371 436.645 666.628 436.936 666.906 437.211C667.152 437.445 667.382 437.659 667.633 437.857C667.983 438.141 668.374 438.394 668.75 438.626C669.041 438.792 669.317 438.938 669.613 439.068C670.05 439.253 670.455 439.397 670.88 439.525C671.181 439.619 671.487 439.677 671.829 439.739C672.279 439.815 672.714 439.871 673.158 439.854C673.489 439.86 673.783 439.861 674.103 439.81C674.531 439.772 674.984 439.683 675.402 439.589C675.705 439.518 676.014 439.41 676.322 439.303C676.728 439.152 677.139 438.965 677.518 438.738C677.795 438.589 678.056 438.42 678.301 438.231C678.362 438.183 678.403 438.152 678.464 438.104C678.75 437.883 679.041 437.626 679.296 437.364C679.51 437.134 679.723 436.903 679.921 436.652C680.205 436.302 680.438 435.927 680.649 435.567C680.816 435.276 680.961 435 681.071 434.719C681.236 434.299 681.38 433.894 681.492 433.448C681.57 433.126 681.628 432.821 681.669 432.495C681.725 432.06 681.749 431.584 681.733 431.14C681.738 430.81 681.703 430.51 681.672 430.175C681.619 429.726 681.51 429.289 681.4 428.851C681.313 428.527 681.205 428.219 681.077 427.926C680.911 427.5 680.704 427.105 680.481 426.69C680.332 426.413 680.147 426.131 679.942 425.866C679.895 425.804 679.863 425.764 679.816 425.702C679.579 425.396 679.322 425.105 679.044 424.83C678.798 424.596 678.567 424.382 678.316 424.184C677.966 423.9 677.596 423.631 677.2 423.415C676.908 423.249 676.632 423.103 676.336 422.973C675.915 422.808 675.494 422.644 675.069 422.516C674.768 422.422 674.447 422.344 674.141 422.286C673.69 422.21 673.235 422.17 672.796 422.151C672.465 422.145 672.15 422.16 671.851 422.195C671.423 422.232 670.97 422.321 670.552 422.415C670.249 422.487 669.94 422.594 669.648 422.723C669.242 422.873 668.831 423.06 668.452 423.287C668.175 423.436 667.914 423.605 667.669 423.795C667.608 423.842 667.567 423.873 667.505 423.921C667.199 424.158 666.908 424.415 666.654 424.677C666.424 424.887 666.21 425.117 666.013 425.368C665.728 425.718 665.496 426.094 665.3 426.473C665.134 426.765 665.008 427.025 664.878 427.321C664.714 427.742 664.57 428.147 664.457 428.593C664.379 428.915 664.322 429.22 664.28 429.546C664.204 429.997 664.184 430.436 664.201 430.88C664.195 431.211 664.246 431.531 664.261 431.845C664.314 432.294 664.424 432.732 664.533 433.169C664.621 433.493 664.728 433.802 664.857 434.094C665.023 434.521 665.23 434.916 665.453 435.331C665.602 435.608 665.786 435.889 665.992 436.155C666.039 436.216 666.086 436.277 666.134 436.339ZM667.025 435.422C666.851 435.197 666.713 434.977 666.581 434.721C666.385 434.382 666.209 434.029 666.07 433.679C665.973 433.427 665.877 433.176 665.8 432.908C665.702 432.527 665.604 432.146 665.578 431.775C665.538 431.512 665.518 431.233 665.519 430.939C665.513 430.551 665.524 430.185 665.575 429.786C665.612 429.496 665.66 429.263 665.734 428.978C665.837 428.604 665.94 428.231 666.095 427.883C666.2 427.638 666.305 427.394 666.446 427.154C666.617 426.826 666.824 426.503 667.063 426.221C667.22 426.002 667.409 425.823 667.602 425.609C667.816 425.378 668.045 425.168 668.311 424.963C668.352 424.932 668.393 424.9 668.433 424.868C668.658 424.695 668.878 424.557 669.099 424.42C669.416 424.239 669.77 424.064 670.119 423.925C670.371 423.828 670.623 423.731 670.906 423.676C671.251 423.573 671.627 423.51 672.019 423.469C672.282 423.429 672.556 423.445 672.835 423.426C673.222 423.42 673.584 423.467 673.963 423.534C674.252 423.571 674.501 423.64 674.766 423.729C675.14 423.832 675.508 423.971 675.857 424.126C676.117 424.252 676.341 424.373 676.58 424.514C676.903 424.721 677.227 424.928 677.525 425.187C677.724 425.36 677.938 425.553 678.132 425.762C678.379 425.997 678.588 426.226 678.81 426.512L678.92 426.655C679.094 426.88 679.231 427.1 679.364 427.357C679.56 427.695 679.736 428.049 679.875 428.398C679.987 428.67 680.084 428.922 680.16 429.189C680.259 429.57 680.341 429.931 680.383 430.323C680.423 430.586 680.442 430.864 680.441 431.159C680.447 431.546 680.437 431.913 680.386 432.311C680.369 432.586 680.3 432.835 680.247 433.104C680.144 433.477 680.025 433.83 679.886 434.199C679.781 434.443 679.676 434.688 679.535 434.927C679.364 435.255 679.157 435.579 678.918 435.861C678.745 436.06 678.572 436.258 678.379 436.473C678.165 436.703 677.9 436.909 677.654 437.098L677.511 437.209C677.287 437.382 677.066 437.52 676.846 437.657C676.528 437.838 676.175 438.013 675.809 438.132C675.558 438.229 675.306 438.325 675.023 438.381C674.662 438.464 674.286 438.526 673.91 438.588C673.647 438.628 673.373 438.611 673.115 438.615C672.727 438.62 672.345 438.59 671.966 438.523C671.697 438.47 671.428 438.417 671.179 438.348C670.805 438.245 670.437 438.106 670.088 437.951C669.844 437.846 669.604 437.704 669.365 437.563C669.041 437.356 668.718 437.149 668.42 436.89C668.221 436.717 668.006 436.524 667.812 436.315C667.566 436.081 667.34 435.831 667.135 435.565L667.025 435.422Z" fill="#D49900"/>
<path d="M665.153 437.098C665.437 437.466 665.726 437.797 666.036 438.113C666.298 438.368 666.575 438.643 666.878 438.866C667.296 439.195 667.719 439.489 668.162 439.767C668.49 439.938 668.813 440.145 669.146 440.28C669.634 440.49 670.107 440.679 670.605 440.817C670.942 440.915 671.3 440.998 671.678 441.065C672.18 441.166 672.692 441.195 673.224 441.208C673.591 441.218 673.943 441.208 674.314 441.182C674.815 441.154 675.325 441.054 675.803 440.912C676.164 440.83 676.508 440.727 676.842 440.567C677.304 440.405 677.776 440.171 678.217 439.896C678.534 439.716 678.816 439.531 679.102 439.31C679.163 439.263 679.225 439.216 679.286 439.168C679.633 438.9 679.944 438.627 680.245 438.297C680.499 438.035 680.754 437.773 680.956 437.486C681.266 437.084 681.559 436.661 681.78 436.229C681.967 435.922 682.122 435.573 682.257 435.241C682.446 434.768 682.6 434.29 682.737 433.793C682.82 433.435 682.882 433.093 682.949 432.715C683.014 432.208 683.043 431.696 683.035 431.179C683.046 430.813 683.02 430.441 682.957 430.065C682.878 429.539 682.777 429.029 682.636 428.551C682.553 428.19 682.414 427.841 682.275 427.492C682.097 427.008 681.843 426.552 681.588 426.096C681.408 425.779 681.207 425.477 680.971 425.17C680.923 425.109 680.876 425.047 680.829 424.986C680.544 424.618 680.255 424.287 679.946 423.971C679.684 423.716 679.422 423.462 679.104 423.218C678.686 422.888 678.263 422.595 677.836 422.338C677.492 422.146 677.184 421.959 676.852 421.825C676.363 421.615 675.89 421.425 675.408 421.308C675.055 421.189 674.698 421.107 674.335 421.06C673.813 420.975 673.321 420.93 672.789 420.917C672.422 420.907 672.05 420.933 671.694 420.979C671.194 421.007 670.684 421.107 670.19 421.228C669.845 421.331 669.485 421.414 669.151 421.574C668.688 421.735 668.217 421.969 667.797 422.228C667.479 422.409 667.197 422.594 666.896 422.794C666.834 422.842 666.773 422.889 666.712 422.936C666.364 423.205 666.033 423.494 665.753 423.808C665.498 424.07 665.264 424.316 665.025 424.598C664.716 425 664.423 425.423 664.202 425.855C664.015 426.162 663.86 426.511 663.709 426.823C663.52 427.296 663.366 427.773 663.245 428.291C663.162 428.649 663.1 428.991 663.033 429.369C662.968 429.876 662.939 430.388 662.946 430.905C662.952 431.292 662.978 431.663 663.024 432.019C663.088 432.525 663.189 433.035 663.346 433.533C663.449 433.878 663.568 434.243 663.707 434.592C663.884 435.075 664.139 435.532 664.409 436.008C664.589 436.326 664.79 436.628 665.027 436.934C665.043 436.955 665.106 437.036 665.153 437.098ZM666.171 436.05C665.982 435.805 665.797 435.523 665.648 435.246C665.421 434.867 665.214 434.473 665.047 434.046C664.919 433.754 664.827 433.466 664.74 433.141C664.61 432.72 664.521 432.266 664.484 431.838C664.433 431.519 664.418 431.204 664.419 430.909C664.402 430.465 664.421 430.026 664.477 429.591C664.519 429.265 664.592 428.98 664.65 428.674C664.742 428.244 664.886 427.839 665.066 427.439C665.196 427.142 665.322 426.882 665.468 426.606C665.664 426.226 665.912 425.872 666.175 425.537C666.373 425.286 666.567 425.072 666.78 424.842C667.035 424.58 667.305 424.338 667.612 424.101C667.653 424.07 667.714 424.022 667.755 423.991C668 423.801 668.261 423.632 668.517 423.499C668.896 423.272 669.271 423.08 669.693 422.95C669.985 422.822 670.273 422.73 670.577 422.659C670.978 422.544 671.411 422.471 671.839 422.434C672.138 422.399 672.453 422.384 672.764 422.405C673.203 422.425 673.642 422.444 674.073 422.536C674.399 422.578 674.684 422.651 674.985 422.745C675.394 422.853 675.815 423.017 676.216 423.198C676.512 423.328 676.788 423.474 677.059 423.656C677.434 423.888 677.789 424.136 678.139 424.42C678.39 424.618 678.62 424.832 678.83 425.061C679.092 425.316 679.35 425.607 679.586 425.913L679.713 426.077C679.902 426.322 680.071 426.583 680.22 426.86C680.463 427.259 680.655 427.634 680.821 428.06C680.949 428.353 681.057 428.661 681.128 428.965C681.258 429.386 681.332 429.819 681.385 430.268C681.436 430.588 681.451 430.903 681.45 431.197C681.466 431.641 681.447 432.08 681.391 432.515C681.37 432.825 681.296 433.111 681.218 433.432C681.126 433.862 680.982 434.267 680.802 434.668C680.672 434.964 680.547 435.224 680.401 435.5C680.205 435.88 679.957 436.235 679.693 436.569C679.495 436.82 679.302 437.034 679.088 437.265C678.834 437.527 678.563 437.768 678.257 438.005L678.093 438.131C677.848 438.321 677.587 438.49 677.33 438.623C676.951 438.85 676.561 439.021 676.155 439.172C675.883 439.284 675.575 439.392 675.271 439.463C674.854 439.557 674.437 439.651 674.009 439.688C673.709 439.723 673.395 439.738 673.084 439.717C672.64 439.734 672.206 439.678 671.775 439.586C671.47 439.528 671.164 439.471 670.863 439.377C670.438 439.248 670.033 439.105 669.632 438.924C669.336 438.794 669.06 438.648 668.789 438.466C668.414 438.234 668.059 437.986 667.709 437.702C667.458 437.504 667.227 437.29 667.018 437.061C666.756 436.806 666.498 436.515 666.261 436.209L666.151 436.066L666.171 436.05Z" fill="#EEAC00"/>
<path d="M680.714 432.04C681.262 427.767 678.242 423.859 673.969 423.311C669.697 422.763 665.789 425.783 665.241 430.056C664.693 434.328 667.712 438.236 671.985 438.784C676.258 439.332 680.166 436.313 680.714 432.04Z" fill="#D49900"/>
<path d="M677.563 431.636C677.888 429.104 676.098 426.788 673.566 426.463C671.033 426.138 668.717 427.928 668.392 430.46C668.067 432.993 669.857 435.309 672.389 435.634C674.922 435.959 677.238 434.169 677.563 431.636Z" fill="#1C242B"/>
<path d="M670.405 433.038C671.511 434.469 673.539 434.729 674.97 433.623C676.401 432.518 676.661 430.489 675.555 429.059C674.45 427.628 672.421 427.368 670.991 428.473C669.56 429.579 669.3 431.607 670.405 433.038Z" fill="#EEAC00"/>
<path d="M669.259 426.908L668.489 426.589L668.374 425.764L669.028 425.259L669.818 425.562L669.913 426.403L669.259 426.908Z" fill="#1C242B"/>
<path d="M666.95 431.27L666.181 430.951L666.066 430.126L666.72 429.621L667.509 429.924L667.604 430.765L666.95 431.27Z" fill="#1C242B"/>
<path d="M668.17 435.681L667.401 435.361L667.27 434.516L667.945 433.995L668.73 434.335L668.845 435.16L668.17 435.681Z" fill="#1C242B"/>
<path d="M676.033 435.676L676.148 436.501L676.917 436.821L677.571 436.315L677.476 435.475L676.687 435.171L676.033 435.676Z" fill="#1C242B"/>
<path d="M671.229 436.808L671.344 437.633L672.113 437.953L672.767 437.448L672.673 436.607L671.883 436.303L671.229 436.808Z" fill="#1C242B"/>
<path d="M674.737 425.255L674.621 424.43L673.852 424.111L673.178 424.632L673.293 425.456L674.062 425.776L674.737 425.255Z" fill="#1C242B"/>
<path d="M678.675 427.565L678.58 426.724L677.775 426.4L677.121 426.905L677.231 427.766L678.021 428.07L678.675 427.565Z" fill="#1C242B"/>
<path d="M679.016 430.793L679.785 431.113L679.9 431.937L679.226 432.459L678.457 432.139L678.341 431.314L679.016 430.793Z" fill="#1C242B"/>
<path d="M623.74 472.165L625.251 472.009L625.258 473.538C626.01 474.131 626.788 474.673 627.611 475.147L629.044 474.594L629.463 476.066C630.336 476.435 631.25 476.774 632.178 477.003L633.415 476.112L634.188 477.408C635.126 477.565 636.093 477.634 637.053 477.61L638.013 476.444L639.092 477.503C640.026 477.402 640.969 477.228 641.905 476.962L642.526 475.568L643.848 476.309C644.737 475.981 645.604 475.54 646.439 475.058L646.666 473.577L648.128 473.949C648.23 473.87 648.353 473.775 648.475 473.68C649.129 473.175 649.752 472.629 650.286 472.053L650.13 470.541L651.659 470.535C652.253 469.782 652.794 469.005 653.252 468.161L652.715 466.749L654.187 466.33C654.577 465.441 654.879 464.522 655.124 463.614L654.234 462.377L655.529 461.604C655.686 460.667 655.755 459.7 655.731 458.739L654.565 457.78L655.624 456.7C655.507 455.746 655.349 454.824 655.083 453.888L653.69 453.267L654.43 451.944C654.102 451.055 653.661 450.189 653.179 449.353L651.698 449.127L652.07 447.664C651.991 447.562 651.896 447.44 651.801 447.317C651.296 446.663 650.75 446.041 650.174 445.507L648.663 445.663L648.656 444.133C647.904 443.54 647.126 442.998 646.303 442.524L644.87 443.077L644.451 441.606C643.578 441.236 642.664 440.898 641.736 440.668L640.498 441.559L639.725 440.263C638.788 440.106 637.821 440.037 636.861 440.061L635.901 441.227L634.822 440.168C633.888 440.269 632.945 440.443 632.009 440.71L631.388 442.103L630.065 441.363C629.176 441.69 628.31 442.132 627.475 442.614L627.248 444.094L625.786 443.723C625.684 443.802 625.561 443.896 625.438 443.991C624.784 444.497 624.162 445.043 623.628 445.619L623.784 447.13L622.255 447.136C621.661 447.889 621.119 448.666 620.661 449.51L621.198 450.923L619.727 451.342C619.337 452.231 619.035 453.149 618.789 454.057L619.68 455.294L618.384 456.067C618.243 457.025 618.159 457.971 618.183 458.932L619.348 459.891L618.289 460.971C618.406 461.925 618.564 462.847 618.81 463.8L620.204 464.42L619.463 465.743C619.791 466.632 620.232 467.499 620.714 468.334L622.195 468.561L621.824 470.023C621.903 470.125 621.997 470.247 622.092 470.37C622.638 470.992 623.169 471.594 623.74 472.165Z" fill="#1C242B"/>
<path d="M630.124 464.164C630.361 464.471 630.618 464.761 630.896 465.036C631.142 465.27 631.372 465.484 631.623 465.682C631.973 465.966 632.364 466.219 632.74 466.451C633.031 466.618 633.307 466.763 633.603 466.893C634.04 467.078 634.445 467.222 634.871 467.35C635.171 467.444 635.477 467.502 635.819 467.564C636.269 467.64 636.704 467.696 637.148 467.679C637.479 467.685 637.773 467.686 638.093 467.635C638.521 467.598 638.975 467.509 639.392 467.415C639.695 467.343 640.004 467.236 640.312 467.128C640.718 466.977 641.129 466.791 641.508 466.563C641.785 466.414 642.046 466.245 642.291 466.056C642.352 466.009 642.393 465.977 642.454 465.93C642.741 465.709 643.031 465.451 643.286 465.189C643.5 464.959 643.713 464.729 643.911 464.478C644.195 464.128 644.428 463.752 644.639 463.393C644.806 463.101 644.951 462.825 645.061 462.545C645.226 462.124 645.37 461.719 645.482 461.273C645.56 460.952 645.618 460.646 645.659 460.32C645.715 459.885 645.739 459.41 645.723 458.965C645.728 458.635 645.693 458.336 645.662 458C645.609 457.552 645.5 457.114 645.39 456.677C645.303 456.352 645.195 456.044 645.067 455.751C644.901 455.325 644.694 454.93 644.471 454.515C644.322 454.238 644.137 453.957 643.932 453.691C643.885 453.63 643.853 453.589 643.806 453.527C643.569 453.221 643.311 452.93 643.034 452.655C642.788 452.421 642.557 452.207 642.306 452.009C641.956 451.725 641.586 451.457 641.19 451.24C640.898 451.074 640.622 450.928 640.326 450.798C639.905 450.634 639.484 450.469 639.059 450.341C638.758 450.247 638.437 450.169 638.131 450.111C637.68 450.035 637.225 449.995 636.786 449.976C636.455 449.97 636.14 449.985 635.841 450.02C635.413 450.057 634.96 450.147 634.543 450.24C634.239 450.312 633.93 450.42 633.638 450.548C633.232 450.698 632.821 450.885 632.442 451.113C632.165 451.261 631.904 451.43 631.659 451.62C631.598 451.667 631.557 451.699 631.495 451.746C631.189 451.983 630.898 452.24 630.644 452.502C630.414 452.712 630.2 452.943 630.003 453.193C629.718 453.544 629.486 453.919 629.29 454.299C629.124 454.59 628.998 454.85 628.868 455.147C628.704 455.568 628.56 455.973 628.447 456.419C628.369 456.74 628.312 457.046 628.27 457.372C628.194 457.822 628.174 458.261 628.191 458.706C628.185 459.036 628.236 459.356 628.251 459.671C628.304 460.119 628.414 460.557 628.523 460.994C628.611 461.319 628.718 461.627 628.847 461.92C629.013 462.346 629.22 462.741 629.443 463.156C629.592 463.433 629.776 463.714 629.982 463.98C630.029 464.041 630.076 464.103 630.124 464.164ZM631.015 463.247C630.841 463.022 630.704 462.802 630.571 462.546C630.375 462.208 630.199 461.854 630.06 461.505C629.963 461.253 629.867 461.001 629.79 460.733C629.692 460.353 629.594 459.972 629.568 459.6C629.528 459.337 629.508 459.059 629.509 458.764C629.504 458.377 629.514 458.01 629.565 457.611C629.602 457.321 629.65 457.088 629.724 456.803C629.827 456.43 629.93 456.056 630.085 455.708C630.19 455.464 630.295 455.219 630.436 454.98C630.607 454.652 630.814 454.329 631.053 454.046C631.21 453.827 631.399 453.649 631.592 453.434C631.806 453.204 632.035 452.994 632.301 452.788C632.342 452.757 632.383 452.725 632.423 452.694C632.648 452.52 632.868 452.382 633.089 452.245C633.406 452.065 633.76 451.889 634.109 451.75C634.361 451.653 634.613 451.557 634.896 451.501C635.241 451.398 635.617 451.336 636.009 451.294C636.272 451.254 636.546 451.271 636.825 451.251C637.212 451.246 637.574 451.292 637.953 451.359C638.242 451.396 638.491 451.465 638.756 451.554C639.129 451.657 639.498 451.797 639.847 451.952C640.107 452.077 640.331 452.198 640.57 452.339C640.893 452.546 641.217 452.754 641.515 453.013C641.714 453.186 641.928 453.379 642.122 453.588C642.369 453.822 642.578 454.051 642.8 454.337L642.91 454.48C643.084 454.705 643.221 454.925 643.354 455.182C643.55 455.52 643.726 455.874 643.865 456.223C643.977 456.495 644.074 456.747 644.15 457.015C644.249 457.396 644.331 457.756 644.373 458.148C644.413 458.411 644.432 458.69 644.431 458.984C644.437 459.371 644.427 459.738 644.376 460.137C644.359 460.411 644.29 460.66 644.237 460.929C644.134 461.303 644.015 461.656 643.876 462.024C643.771 462.269 643.666 462.513 643.525 462.753C643.354 463.081 643.147 463.404 642.908 463.686C642.735 463.885 642.562 464.084 642.369 464.298C642.155 464.529 641.89 464.734 641.644 464.923L641.501 465.034C641.277 465.208 641.056 465.345 640.836 465.483C640.519 465.663 640.165 465.838 639.799 465.957C639.548 466.054 639.296 466.151 639.013 466.206C638.652 466.289 638.276 466.351 637.9 466.413C637.637 466.453 637.363 466.437 637.105 466.44C636.717 466.446 636.335 466.415 635.956 466.348C635.687 466.295 635.418 466.242 635.169 466.174C634.795 466.07 634.427 465.931 634.078 465.776C633.834 465.671 633.594 465.53 633.355 465.388C633.031 465.181 632.708 464.974 632.41 464.715C632.211 464.542 631.997 464.349 631.802 464.14C631.556 463.906 631.331 463.656 631.125 463.39L631.015 463.247Z" fill="#D49900"/>
<path d="M629.143 464.922C629.427 465.29 629.716 465.622 630.025 465.938C630.287 466.192 630.565 466.467 630.868 466.69C631.286 467.02 631.708 467.313 632.152 467.591C632.479 467.762 632.803 467.969 633.135 468.104C633.624 468.314 634.097 468.503 634.595 468.641C634.932 468.739 635.289 468.822 635.667 468.889C636.17 468.99 636.682 469.019 637.214 469.032C637.581 469.042 637.932 469.032 638.304 469.006C638.804 468.978 639.314 468.878 639.793 468.737C640.153 468.654 640.498 468.551 640.831 468.391C641.294 468.23 641.766 467.996 642.206 467.721C642.524 467.54 642.806 467.356 643.092 467.135C643.153 467.087 643.214 467.04 643.276 466.993C643.623 466.724 643.934 466.451 644.234 466.121C644.489 465.859 644.743 465.597 644.946 465.31C645.255 464.908 645.549 464.485 645.77 464.053C645.957 463.746 646.112 463.398 646.247 463.065C646.436 462.592 646.589 462.115 646.727 461.617C646.809 461.259 646.872 460.917 646.939 460.539C647.004 460.032 647.033 459.52 647.025 459.004C647.035 458.637 647.009 458.265 646.947 457.889C646.867 457.363 646.767 456.853 646.626 456.375C646.543 456.014 646.404 455.665 646.264 455.316C646.087 454.833 645.833 454.377 645.578 453.921C645.398 453.603 645.197 453.301 644.96 452.994C644.913 452.933 644.866 452.872 644.818 452.81C644.534 452.443 644.245 452.111 643.936 451.795C643.674 451.541 643.412 451.286 643.093 451.043C642.675 450.713 642.253 450.419 641.825 450.162C641.482 449.971 641.174 449.784 640.842 449.649C640.353 449.439 639.88 449.25 639.398 449.133C639.045 449.014 638.687 448.931 638.325 448.885C637.802 448.799 637.311 448.754 636.778 448.741C636.412 448.731 636.04 448.757 635.684 448.804C635.183 448.831 634.674 448.932 634.179 449.052C633.835 449.156 633.474 449.238 633.141 449.398C632.678 449.56 632.206 449.794 631.786 450.053C631.469 450.233 631.187 450.418 630.885 450.619C630.824 450.666 630.763 450.713 630.701 450.761C630.354 451.029 630.022 451.318 629.743 451.632C629.488 451.894 629.254 452.14 629.015 452.422C628.706 452.825 628.412 453.247 628.191 453.679C628.004 453.987 627.849 454.335 627.699 454.647C627.509 455.12 627.356 455.597 627.234 456.116C627.152 456.473 627.089 456.815 627.022 457.193C626.957 457.701 626.929 458.212 626.936 458.729C626.942 459.116 626.967 459.488 627.014 459.844C627.078 460.349 627.178 460.859 627.335 461.358C627.438 461.702 627.557 462.067 627.697 462.417C627.874 462.9 628.128 463.356 628.399 463.832C628.579 464.15 628.78 464.452 629.017 464.759C629.032 464.779 629.095 464.861 629.143 464.922ZM630.161 463.874C629.971 463.629 629.787 463.348 629.638 463.071C629.41 462.692 629.203 462.297 629.037 461.871C628.909 461.578 628.817 461.29 628.73 460.966C628.6 460.544 628.51 460.091 628.473 459.663C628.422 459.343 628.407 459.028 628.408 458.734C628.392 458.29 628.411 457.85 628.467 457.415C628.509 457.089 628.582 456.804 628.64 456.499C628.732 456.068 628.876 455.663 629.056 455.263C629.186 454.967 629.311 454.707 629.457 454.431C629.653 454.051 629.901 453.696 630.165 453.362C630.363 453.111 630.556 452.896 630.77 452.666C631.025 452.404 631.295 452.162 631.601 451.925C631.642 451.894 631.704 451.847 631.744 451.815C631.99 451.625 632.251 451.456 632.507 451.324C632.886 451.096 633.26 450.905 633.682 450.775C633.975 450.646 634.263 450.555 634.567 450.483C634.968 450.369 635.401 450.295 635.829 450.258C636.128 450.223 636.443 450.208 636.753 450.23C637.193 450.249 637.632 450.269 638.062 450.361C638.388 450.402 638.673 450.476 638.974 450.57C639.384 450.677 639.805 450.842 640.205 451.022C640.502 451.152 640.777 451.298 641.049 451.48C641.424 451.712 641.779 451.96 642.129 452.245C642.38 452.442 642.61 452.656 642.82 452.886C643.082 453.14 643.339 453.431 643.576 453.737L643.703 453.901C643.892 454.146 644.061 454.407 644.21 454.684C644.453 455.084 644.644 455.458 644.811 455.884C644.939 456.177 645.047 456.485 645.118 456.789C645.248 457.211 645.321 457.644 645.374 458.092C645.425 458.412 645.44 458.727 645.439 459.021C645.456 459.465 645.437 459.905 645.381 460.339C645.359 460.65 645.286 460.935 645.208 461.256C645.116 461.687 644.972 462.091 644.792 462.492C644.662 462.788 644.536 463.048 644.39 463.324C644.194 463.704 643.946 464.059 643.683 464.393C643.485 464.644 643.291 464.859 643.078 465.089C642.823 465.351 642.553 465.593 642.246 465.829L642.083 465.956C641.838 466.145 641.577 466.314 641.32 466.447C640.941 466.675 640.551 466.846 640.145 466.996C639.873 467.108 639.564 467.216 639.261 467.288C638.844 467.382 638.426 467.475 637.998 467.512C637.699 467.548 637.384 467.563 637.074 467.541C636.63 467.558 636.195 467.502 635.765 467.41C635.459 467.353 635.154 467.295 634.853 467.201C634.427 467.073 634.022 466.929 633.622 466.749C633.326 466.619 633.05 466.473 632.779 466.291C632.403 466.058 632.048 465.81 631.698 465.526C631.447 465.328 631.217 465.115 631.007 464.885C630.745 464.631 630.488 464.34 630.251 464.033L630.141 463.89L630.161 463.874Z" fill="#EEAC00"/>
<path d="M630.798 463.642C633.436 467.055 638.326 467.683 641.739 465.046C645.152 462.409 645.78 457.518 643.143 454.105C640.505 450.692 635.615 450.064 632.202 452.701C628.773 455.318 628.161 460.229 630.798 463.642Z" fill="#D49900"/>
<path d="M641.547 459.457C641.872 456.924 640.082 454.608 637.55 454.283C635.017 453.959 632.701 455.748 632.376 458.281C632.051 460.813 633.841 463.129 636.374 463.454C638.906 463.779 641.222 461.989 641.547 459.457Z" fill="#1C242B"/>
<path d="M638.96 461.449C640.382 460.35 640.645 458.306 639.546 456.884C638.447 455.462 636.403 455.2 634.981 456.299C633.559 457.397 633.297 459.441 634.395 460.863C635.494 462.285 637.538 462.548 638.96 461.449Z" fill="#EEAC00"/>
<path d="M633.248 454.734L632.459 454.43L632.364 453.589L633.018 453.084L633.787 453.404L633.902 454.229L633.248 454.734Z" fill="#1C242B"/>
<path d="M630.94 459.094L630.15 458.79L630.056 457.95L630.71 457.444L631.479 457.764L631.594 458.589L630.94 459.094Z" fill="#1C242B"/>
<path d="M632.16 463.504L631.391 463.184L631.26 462.339L631.914 461.834L632.719 462.158L632.814 462.999L632.16 463.504Z" fill="#1C242B"/>
<path d="M640.022 463.5L640.117 464.341L640.907 464.644L641.561 464.139L641.446 463.314L640.676 462.995L640.022 463.5Z" fill="#1C242B"/>
<path d="M635.219 464.632L635.314 465.473L636.103 465.777L636.757 465.271L636.642 464.446L635.873 464.127L635.219 464.632Z" fill="#1C242B"/>
<path d="M638.706 453.094L638.591 452.27L637.822 451.95L637.168 452.455L637.262 453.296L638.052 453.6L638.706 453.094Z" fill="#1C242B"/>
<path d="M642.665 455.389L642.55 454.564L641.765 454.224L641.09 454.745L641.221 455.59L641.99 455.91L642.665 455.389Z" fill="#1C242B"/>
<path d="M642.985 458.634L643.754 458.954L643.869 459.779L643.215 460.284L642.426 459.98L642.331 459.14L642.985 458.634Z" fill="#1C242B"/>
<path d="M789.106 345.15L801.348 335.691L791.005 322.305L778.763 331.763L789.106 345.15Z" fill="#BF8A00"/>
<path d="M779.838 333.155L792.08 323.696L790.848 322.102L778.606 331.561L779.838 333.155Z" fill="#1C242B"/>
<path d="M784.298 339.432L796.54 329.973L795.308 328.379L783.066 337.838L784.298 339.432Z" fill="#1C242B"/>
<path d="M788.858 345.334L801.1 335.876L799.868 334.282L787.626 343.74L788.858 345.334Z" fill="#1C242B"/>
<path d="M788.708 323.029L793.94 318.986L795.661 321.214L797.542 319.761L800.131 323.113L799.295 325.326L802.079 328.886L803.669 327.691L807.395 332.514L801.387 337.157L792.528 325.691L791.424 326.544L788.708 323.029Z" fill="#D49900"/>
<path d="M802.071 328.916L803.338 327.937L800.559 324.34L799.292 325.319L802.071 328.916Z" fill="#FFC600"/>
<path d="M790.938 314.938L792.021 314.101L784.047 303.78L782.964 304.617L790.938 314.938Z" fill="#1C242B"/>
<path d="M777.134 308.047L786.071 319.614L792.857 314.372L791.562 312.696L790.295 313.675L789.3 312.387L790.156 310.877L789.13 309.549L787.863 310.528L786.884 309.261L787.725 307.73L786.714 306.422L785.447 307.401L784.452 306.113L785.308 304.603L783.919 302.804L777.134 308.047Z" fill="#EEAC00"/>
<path d="M770.701 299.342L750.075 315.311L749.033 316.117L746.07 313.38L738.038 319.586L725.753 303.686L752.628 282.921L770.701 299.342Z" fill="#8DC4B7"/>
<path d="M724.762 303.798L752.823 282.117L771.691 299.23L769.014 301.299L752.025 285.605L728.502 303.781L739.935 318.577L738.995 319.304L751.754 335.817L750.957 336.433L738.198 319.92L737.584 320.393L724.762 303.798Z" fill="#BF8A00"/>
<path d="M772.623 310.194L774.093 306.056L769.893 300.62L770.669 300.02L775.201 305.885L773.736 309.987L781.758 320.369L774.38 326.07L773.764 325.273L780.345 320.188L772.623 310.194Z" fill="#BF8A00"/>
<path d="M742.527 319.185L747.564 325.705L750.589 323.368L744.918 317.338L742.527 319.185Z" fill="#EEAC00"/>
<path d="M747.55 325.704L749.021 324.567L743.984 318.047L742.512 319.184L747.55 325.704Z" fill="#BF8A00"/>
<path d="M796.829 340.678L789.819 346.094L767.854 331.015L738.977 353.327L730.292 342.087L770.636 320.379L796.829 340.678Z" fill="#EEAC00"/>
<path d="M707.76 377.449L737.681 354.331L731.727 346.626L701.807 369.744L707.76 377.449Z" fill="#EEAC00"/>
<path d="M597.96 457.061L705.235 374.174L700.182 367.635L592.907 450.521L597.96 457.061Z" fill="#323C49"/>
<path d="M688.136 358.534L721.183 333L731.952 346.938L702.032 370.056L697.042 370.06L688.136 358.534Z" fill="#EEAC00"/>
<path d="M665.798 375.794L688.136 358.534L697.042 370.061L667.633 392.784L662.485 386.121L665.798 375.794Z" fill="#D49900"/>
<path d="M716.111 397.709L750.609 371.053L739.856 357.136L705.358 383.791L716.111 397.709Z" fill="#1C242B"/>
<path d="M743.191 378.515L746.625 375.862L734.182 359.758L730.748 362.411L743.191 378.515Z" fill="#D49900"/>
<path d="M721.517 395.262L724.95 392.609L712.507 376.504L709.074 379.157L721.517 395.262Z" fill="#D49900"/>
<path d="M610.944 431.146L648.365 402.232L645.933 399.085L608.512 427.998L610.944 431.146Z" fill="#1C242B"/>
<path d="M582.796 415.414L598.267 403.46L582.524 383.084L611.668 360.566L635.361 374.799L651.673 395.911L599.109 436.525L582.796 415.414Z" fill="#DEA000"/>
<path d="M591.618 383.24L602.23 396.973L608.892 391.826L616.539 396.231L633.727 382.951L630.205 378.393L612.015 367.48L591.618 383.24Z" fill="#8DC4B7"/>
<path d="M598.267 403.46L608.457 416.606L622.122 414.142L624.349 417.023L599.108 436.525L582.796 415.414L598.267 403.46Z" fill="#EEAC00"/>
<path d="M627.012 409.487L644.404 396.049L635.576 384.624L618.184 398.062L627.012 409.487Z" fill="#323C49"/>
<path d="M595.946 425.927L605.429 418.6L599.113 410.425L589.63 417.752L595.946 425.927Z" fill="#D49900"/>
<path d="M592.04 418.674L599.397 412.989L598.655 412.029L591.298 417.713L592.04 418.674Z" fill="#1C242B"/>
<path d="M593.263 420.259L600.62 414.574L599.878 413.613L592.52 419.298L593.263 420.259Z" fill="#1C242B"/>
<path d="M594.47 421.82L601.827 416.135L601.085 415.174L593.727 420.859L594.47 421.82Z" fill="#1C242B"/>
<path d="M595.676 423.382L603.034 417.697L602.292 416.736L594.934 422.421L595.676 423.382Z" fill="#1C242B"/>
<path d="M623.049 400.488L627.402 397.125L625.744 394.979L621.391 398.342L623.049 400.488Z" fill="#D49900"/>
<path d="M621.646 399.72L627.103 395.504L626.266 394.421L620.809 398.637L621.646 399.72Z" fill="#1C242B"/>
<path d="M691.469 417.679L681.252 404.456L686.954 400.051L697.171 413.274L698.213 412.468L699.745 414.451L691.958 420.467L690.427 418.485L691.469 417.679Z" fill="#1C242B"/>
<path d="M687.278 415.888L696.495 408.766L675.967 382.198L666.75 389.319L687.278 415.888Z" fill="#EEAC00"/>
<path d="M613.685 477.782L603.468 464.559L609.15 460.169L619.366 473.392L620.429 472.571L621.961 474.553L614.154 480.585L612.622 478.603L613.685 477.782Z" fill="#1C242B"/>
<path d="M609.47 476.008L618.688 468.886L598.159 442.318L588.942 449.439L609.47 476.008Z" fill="#EEAC00"/>
<path d="M657.994 370.948L698.558 316.334L693.167 312.33L652.603 366.944L657.994 370.948Z" fill="#323C49"/>
<path d="M650.171 384.253L690.15 330.427L682.064 324.42L642.084 378.247L650.171 384.253Z" fill="#BF8A00"/>
<path d="M689.144 333.656L691.947 329.882L682.077 322.552L679.274 326.325L689.144 333.656Z" fill="#EEAC00"/>
<path d="M637.43 377.477L650.53 367.355L657.699 376.634L655.204 382.74L658.125 386.52L649.541 393.153L637.43 377.477Z" fill="#323C49"/>
<path d="M700.648 295.864L682.85 312.749L693.683 326.769L702.9 319.647L699.281 311.118L705.35 304.568L700.648 295.864Z" fill="#DEA000"/>
<path d="M696.383 319.785C698.121 318.442 698.441 315.945 697.098 314.206C695.755 312.468 693.257 312.148 691.519 313.491C689.781 314.834 689.46 317.332 690.803 319.07C692.147 320.808 694.644 321.128 696.383 319.785Z" fill="#EEAC00"/>
<path d="M752.321 256.883L748.187 261.121L744.003 255.706L729.532 253.831L725.489 248.599L729.966 244.128L733.549 248.639L747.726 250.936L752.321 256.883Z" fill="#DEA000"/>
<path d="M759.143 221.064C763.476 217.716 769.707 218.515 773.055 222.848C775.897 226.527 775.727 231.587 772.961 235.062L777.099 240.416L784.205 243.15L786.037 245.521L773.202 255.438L757.379 234.96C753.996 230.622 754.81 224.412 759.143 221.064Z" fill="#EEAC00"/>
<path d="M771.913 263.189L774.325 261.326L765.814 250.31L763.402 252.174L768.929 259.327L769.163 261.235L770.047 262.379L771.913 263.189Z" fill="#BF8A00"/>
<path d="M770.724 260.975C771.024 261.363 771.604 261.438 771.992 261.138C772.381 260.838 772.455 260.258 772.155 259.87C771.855 259.481 771.275 259.407 770.887 259.707C770.499 260.007 770.424 260.587 770.724 260.975Z" fill="#DEA000"/>
<path d="M774.556 249.807L778.807 246.523L770.438 235.691L766.187 238.976L774.556 249.807Z" fill="#BF8A00"/>
<path d="M573.508 417.205L575.184 415.91L567.565 407.697L565.909 408.976L573.508 417.205Z" fill="#BF8A00"/>
<path d="M570.381 419.623L572.036 418.344L564.438 410.115L562.762 411.41L570.381 419.623Z" fill="#BF8A00"/>
<path d="M567.233 422.052L568.909 420.758L561.291 412.545L559.635 413.824L567.233 422.052Z" fill="#BF8A00"/>
<path d="M564.107 424.469L565.762 423.19L558.164 414.961L556.488 416.256L564.107 424.469Z" fill="#BF8A00"/>
<path d="M598.281 378.09L595.767 380.032L606.363 393.746L608.876 391.803L598.281 378.09Z" fill="#E5EBBC"/>
<path d="M611.801 364.118L587.113 383.193L601.372 401.648L609.363 395.474L616.537 399.69L626.533 412.627L647.563 396.378L632.403 376.758L611.801 364.118ZM602.25 396.955L591.654 383.242L595.803 380.036L606.399 393.75L602.25 396.955ZM643.88 396.089L627.183 408.991L618.703 398.016L635.401 385.115L643.88 396.089ZM633.727 382.948L616.519 396.244L608.892 391.823L598.296 378.11L612.01 367.514L630.221 378.411L633.727 382.948Z" fill="#BF8A00"/>
<path d="M595.767 380.033L606.379 393.767L602.25 396.956L595.767 380.033Z" fill="#E5EBBC"/>
<path d="M602.45 374.869L608.913 391.809L598.301 378.075L602.45 374.869Z" fill="#E5EBBC"/>
<path d="M742.322 293.069L750.096 315.295L750.075 315.311L749.033 316.117L746.07 313.38L739.816 318.212L733.657 299.765L742.322 293.069Z" fill="#E5EBBC"/>
<path d="M748.822 288.048L756.983 309.974L760.457 307.289L752.026 285.605L748.822 288.048Z" fill="#E5EBBC"/>
<path d="M750.18 291.242L756.275 299.131L760.268 297.71L766.538 305.823L767.682 304.939L769.308 307.044L766.12 309.507L764.494 307.402L765.74 306.439L759.914 298.898L756.922 299.969L759.954 303.893L758.47 306.998L748.711 294.368L750.18 291.242Z" fill="#1C242B"/>
<g style="mix-blend-mode:multiply" filter="url(#filter0_f_2524_16953)">
<path d="M669.275 513.463C723.34 513.068 767.219 519.834 767.283 528.576C767.347 537.318 723.571 544.726 669.507 545.121C615.443 545.516 571.563 538.75 571.499 530.008C571.435 521.266 615.211 513.859 669.275 513.463Z" fill="url(#paint4_radial_2524_16953)" fill-opacity="0.28"/>
</g>
<defs>
<filter id="filter0_f_2524_16953" x="559.499" y="501.447" width="219.784" height="55.6906" filterUnits="userSpaceOnUse" color-interpolation-filters="sRGB">
<feFlood flood-opacity="0" result="BackgroundImageFix"/>
<feBlend mode="normal" in="SourceGraphic" in2="BackgroundImageFix" result="shape"/>
<feGaussianBlur stdDeviation="6" result="effect1_foregroundBlur_2524_16953"/>
</filter>
<linearGradient id="paint0_linear_2524_16953" x1="745.119" y1="429.762" x2="742.485" y2="528.227" gradientUnits="userSpaceOnUse">
<stop offset="0.261905" stop-color="#F3F5F9"/>
<stop offset="1" stop-color="#F3F5F9" stop-opacity="0"/>
</linearGradient>
<linearGradient id="paint1_linear_2524_16953" x1="703" y1="718.5" x2="631" y2="212" gradientUnits="userSpaceOnUse">
<stop stop-color="#C5EFFF"/>
<stop offset="0.458139" stop-color="white" stop-opacity="0.89"/>
<stop offset="1" stop-color="#C5EFFF"/>
</linearGradient>
<linearGradient id="paint2_linear_2524_16953" x1="664.5" y1="475.5" x2="669" y2="537" gradientUnits="userSpaceOnUse">
<stop stop-color="#87D2EC"/>
<stop offset="1" stop-color="#87D2EC" stop-opacity="0"/>
</linearGradient>
<linearGradient id="paint3_linear_2524_16953" x1="659.854" y1="48.6903" x2="663.912" y2="166.358" gradientUnits="userSpaceOnUse">
<stop stop-color="#009DD9"/>
<stop offset="1" stop-color="white" stop-opacity="0"/>
</linearGradient>
<radialGradient id="paint4_radial_2524_16953" cx="0" cy="0" r="1" gradientUnits="userSpaceOnUse" gradientTransform="translate(654.5 521.5) rotate(177.78) scale(125.457 34.1412)">
<stop stop-color="#002F61"/>
<stop offset="1" stop-color="white" stop-opacity="0"/>
</radialGradient>
</defs>
</svg>
