<svg width="62" height="56" viewBox="0 0 62 56" fill="none" xmlns="http://www.w3.org/2000/svg">
<path fill-rule="evenodd" clip-rule="evenodd" d="M0.731689 10.5468C0.731689 10.1615 0.885381 9.79198 1.15895 9.51952C1.43252 9.24706 1.80357 9.09399 2.19046 9.09399H60.5412C60.9281 9.09399 61.2991 9.24706 61.5727 9.51952C61.8462 9.79198 61.9999 10.1615 61.9999 10.5468V30.8865C61.9998 31.2406 61.8699 31.5824 61.6346 31.8478C61.3993 32.1132 61.0748 32.2838 60.7221 32.3277L37.3818 35.2334L37.02 32.351L59.0824 29.6051V11.9997H3.64922V29.6051L25.7116 32.351L25.3499 35.2334L2.00957 32.3277C1.65682 32.2838 1.33231 32.1132 1.097 31.8478C0.861697 31.5824 0.73179 31.2406 0.731689 30.8865V10.5468Z" fill="#003B72"/>
<path fill-rule="evenodd" clip-rule="evenodd" d="M24.0723 26.5281C24.0723 26.1428 24.226 25.7733 24.4996 25.5008C24.7732 25.2284 25.1442 25.0753 25.5311 25.0753H37.2012C37.5881 25.0753 37.9592 25.2284 38.2327 25.5008C38.5063 25.7733 38.66 26.1428 38.66 26.5281V41.0565C38.66 41.4418 38.5063 41.8113 38.2327 42.0838C37.9592 42.3563 37.5881 42.5093 37.2012 42.5093H25.5311C25.1442 42.5093 24.7732 42.3563 24.4996 42.0838C24.226 41.8113 24.0723 41.4418 24.0723 41.0565V26.5281ZM26.9899 27.981V39.6036H35.7425V27.981H26.9899ZM21.1548 6.18842C21.1548 4.64715 21.7696 3.16902 22.8638 2.07918C23.9581 0.98934 25.4423 0.377075 26.9899 0.377075H35.7425C37.29 0.377075 38.7742 0.98934 39.8685 2.07918C40.9628 3.16902 41.5775 4.64715 41.5775 6.18842V10.5469H38.66V6.18842C38.66 5.41779 38.3526 4.67872 37.8055 4.1338C37.2583 3.58888 36.5162 3.28275 35.7425 3.28275H26.9899C26.2161 3.28275 25.474 3.58888 24.9268 4.1338C24.3797 4.67872 24.0723 5.41779 24.0723 6.18842V10.5469H21.1548V6.18842Z" fill="#003B72"/>
<path fill-rule="evenodd" clip-rule="evenodd" d="M3.64844 54.1319V32.3394H6.56597V52.6791H56.1641V32.3394H59.0816V54.1319C59.0816 54.5172 58.9279 54.8867 58.6544 55.1592C58.3808 55.4317 58.0098 55.5847 57.6229 55.5847H5.10721C4.72032 55.5847 4.34927 55.4317 4.0757 55.1592C3.80213 54.8867 3.64844 54.5172 3.64844 54.1319Z" fill="#003B72"/>
</svg>
