<svg width="174" height="78" viewBox="0 0 174 78" fill="none" xmlns="http://www.w3.org/2000/svg">
<path d="M17.76 21.0606L21.66 19.1406L45.66 33.5406L45 37.4406L17.76 21.0606Z" fill="#009DD9"/>
<path d="M23.6995 18.1206L27.5995 16.1406L46.6195 27.6006L45.9595 31.5006L23.6995 18.1206Z" fill="#009DD9"/>
<path d="M22.9783 50.46L23.5783 46.5L45.8383 59.94L41.9983 61.86L22.9783 50.46Z" fill="#009DD9"/>
<path d="M11.0996 56.4001L16.6196 22.6201L46.3796 40.5601L48.6596 26.5201L44.5796 24.0601L48.4196 22.0801L52.5596 24.6001L49.0196 46.4401L19.1996 28.5001L14.9996 54.4801L20.8196 57.9601L26.7596 54.9601L29.9996 56.9401L20.1596 61.8601L11.0996 56.4001Z" fill="#003771"/>
<path d="M23.9412 44.4605L24.6012 40.5605L51.7812 56.9405L47.9412 58.9205L23.9412 44.4605Z" fill="#009DD9"/>
<path d="M17.041 53.4006L20.581 31.5606L50.401 49.5006L54.601 23.5806L48.781 20.0406L42.841 23.0406L39.601 21.0606L49.441 16.1406L58.501 21.6006L52.981 55.3806L23.221 37.4406L20.941 51.4806L25.021 53.9406L21.121 55.9206L17.041 53.4006Z" fill="#003771"/>
<path d="M72.4169 29.3418H77.0369L75.7769 37.2018H83.9969L85.2569 29.3418H89.8769L86.7569 48.6018H82.1369L83.3969 40.6818H75.2369L73.9169 48.6018H69.2969L72.4169 29.3418Z" fill="#003771"/>
<path d="M93.1173 29.3418H97.7373L96.0573 39.5418L95.5173 42.1218L97.7373 39.3618L105.897 29.3418H110.517L107.457 48.6018H102.837L104.517 38.4018L105.057 35.8218L102.837 38.5818L94.6173 48.6018H89.9973L93.1173 29.3418Z" fill="#003771"/>
<path d="M117.776 32.9418H111.716L112.316 29.3418H129.056L128.456 32.9418H122.396L119.876 48.6018H115.256L117.776 32.9418Z" fill="#003771"/>
<path d="M127.736 47.941L129.296 44.461C130.736 44.821 131.816 45.001 133.676 45.001C136.976 45.001 139.556 43.501 140.696 40.561H131.876L132.416 37.201H141.296C141.176 34.261 139.196 32.881 136.196 32.881C134.036 32.881 133.256 33.061 131.396 33.541L130.736 30.181C132.296 29.521 134.036 29.041 136.916 29.041C143.936 29.041 146.996 32.341 145.856 39.001C144.836 45.301 140.636 48.781 133.556 48.781C131.036 48.901 129.476 48.661 127.736 47.941Z" fill="#003771"/>
<path d="M149.637 29.3418H154.257L152.937 37.6218L160.857 29.3418H166.797L157.557 38.4018L164.157 48.6618H158.217L152.757 39.0018L151.137 48.6018H146.517L149.637 29.3418Z" fill="#003771"/>
</svg>
