<svg width="220" height="106" viewBox="0 0 220 106" fill="none" xmlns="http://www.w3.org/2000/svg">
<path d="M50.0115 40.2673H51.2611V38.8862H51.2465C51.2465 36.9277 50.1941 35.2688 48.9445 35.2688V33.4053C51.2538 33.4053 53.0661 35.7584 53.11 38.7765V40.2673H54.3596V47.8456H50.0115V40.2673Z" fill="#003771"/>
<path d="M84.0956 83.553H90.7896V87.4408H84.0956V83.553Z" fill="#003771"/>
<path d="M84.0956 78.6633H90.7896V82.5511H84.0956V78.6633Z" fill="#003771"/>
<path d="M97.4905 51.8888L94.7135 54.0227C94.4577 54.22 94.1289 54.2492 93.8439 54.1396C93.705 54.0811 93.5735 53.9935 93.4712 53.8619V53.8473C93.1642 53.46 93.2373 52.9046 93.6246 52.605L100.216 47.5479C100.604 47.2483 101.159 47.3214 101.459 47.7087V47.7233C101.517 47.7891 101.554 47.8622 101.583 47.9279C101.729 48.286 101.627 48.7099 101.305 48.9583L98.4551 51.1507L99.6974 52.7657L99.7705 52.7146L101.386 51.6184C102.372 50.9461 103.731 51.2238 104.469 52.2176C104.491 52.2469 104.513 52.2688 104.528 52.298L105.259 53.3796L104.016 54.2273L106.099 62.814C105.668 63.4863 104.974 63.9759 104.133 64.1221L98.6743 65.0575L98.1263 65.1525L98.6743 58.6997L98.7474 57.8081L97.2055 58.8532L97.0959 58.9262L96.3651 57.8447C95.6416 56.7777 95.8754 55.36 96.8912 54.6658L98.6817 53.4527L97.907 52.4442L97.4832 51.8888H97.4905Z" fill="#003771"/>
<path d="M40.1166 81.8723H41.1543L40.2335 88.2667L35.7611 87.5213L22.0004 85.2997V81.8723H38.0192H40.1166Z" fill="#003771"/>
<path d="M97.6948 74.4181H77.2036C74.3024 74.4181 71.9493 72.1088 71.9493 69.2661V68.3599L74.2294 71.6265C75.2013 73.015 76.5825 73.8115 78.0221 73.8115H94.0848V70.1138H78.0221C77.4229 70.1138 76.8382 69.7776 76.4217 69.1857L73.4839 64.991H77.7517L78.4971 66.0214L79.5641 67.4975C79.7614 67.7752 80.0245 68.0018 80.3387 68.1845C80.8283 68.4768 81.4276 68.6376 82.0634 68.6376H84.5553C86.1411 68.6376 87.4273 67.6218 87.4273 66.3722V64.9836H91.8632C92.4332 66.0067 93.6097 66.6425 94.874 66.4452C94.8886 66.4452 94.9032 66.4452 94.9252 66.4452L98.6229 65.8241L104.63 64.8156C105.47 64.6767 106.165 64.1871 106.596 63.5367C106.61 63.5148 106.632 63.4855 106.647 63.4636H111.09L111.207 70.5668L106.106 72.0211L97.6948 74.4254V74.4181Z" fill="#003771"/>
<path d="M60.4841 85.0953C62.0845 85.2561 63.2903 86.4984 63.4072 88.0988C63.4584 88.7931 63.2903 89.4508 62.9614 89.9989C62.3914 90.9635 61.3464 91.6066 60.1479 91.6066C58.774 91.6066 57.5975 90.7516 57.1152 89.5531C56.969 89.1804 56.8813 88.7712 56.8813 88.34C56.8813 86.4254 58.5256 84.898 60.4841 85.088V85.0953Z" fill="#003771"/>
<path d="M62.7996 79.8617C65.2843 80.5852 67.3232 82.4195 68.3024 84.8091C69.1063 86.7822 69.1794 88.7042 68.7628 90.4362C67.8201 94.3166 64.3196 97.2032 60.1469 97.2032C55.5137 97.2032 51.7063 93.6443 51.319 89.1061C51.2971 88.8504 51.2824 88.5946 51.2824 88.3388C51.2824 82.5802 56.7706 78.1078 62.7996 79.8617ZM56.2737 82.6972C56.2298 82.7702 56.2079 82.8652 56.2079 82.9456C56.186 83.9249 57.3772 84.2391 57.8449 83.3841C57.8887 83.311 57.9107 83.216 57.9107 83.1356C57.9326 82.1564 56.7414 81.8348 56.2737 82.6972ZM60.8119 81.7033C60.768 81.6302 60.7023 81.5644 60.6292 81.5206C59.7961 81.009 58.9191 81.886 59.4307 82.7191C59.4745 82.7922 59.5403 82.8579 59.6134 82.9018C60.4465 83.4133 61.3234 82.5364 60.8119 81.7033ZM63.9762 82.6752C63.5085 81.8202 62.3173 82.1345 62.3392 83.1137C62.3392 83.2014 62.3684 83.2891 62.405 83.3622C62.8727 84.2172 64.0639 83.903 64.0419 82.9237C64.0419 82.836 64.0127 82.7483 63.9762 82.6752ZM66.9651 87.8053C66.9212 87.7323 66.8555 87.6665 66.7824 87.6226C65.9493 87.1111 65.0723 87.988 65.5839 88.8211C65.6277 88.8942 65.6935 88.96 65.7666 89.0038C66.5997 89.5154 67.4766 88.6384 66.9651 87.8053ZM64.6777 91.7224C65.1454 92.5774 66.3366 92.2631 66.3147 91.2839C66.3147 91.1962 66.2854 91.1085 66.2489 91.0354C65.7812 90.1804 64.59 90.4946 64.6119 91.4739C64.6119 91.5616 64.6412 91.6493 64.6777 91.7224ZM66.227 85.5984C66.2708 85.5253 66.2928 85.4303 66.2928 85.3499C66.3147 84.3707 65.1235 84.0564 64.6558 84.9114C64.6119 84.9845 64.59 85.0795 64.59 85.1599C64.5681 86.1392 65.7593 86.4534 66.227 85.5984ZM64.0127 93.9732C64.0566 93.9001 64.0785 93.8124 64.0785 93.7247C64.1004 92.7454 62.9092 92.4312 62.4415 93.2862C62.3977 93.3593 62.3758 93.4543 62.3758 93.5347C62.3538 94.5139 63.545 94.8282 64.0127 93.9732ZM59.4745 94.967C59.5184 95.0401 59.5842 95.1059 59.6572 95.1497C60.4903 95.6613 61.3673 94.7843 60.8557 93.9512C60.8119 93.8782 60.7461 93.8124 60.673 93.7685C59.8399 93.257 58.963 94.1339 59.4745 94.967ZM56.3102 93.9951C56.7779 94.8501 57.9691 94.5359 57.9472 93.5566C57.9472 93.4689 57.918 93.3812 57.8814 93.3081C57.4137 92.4531 56.2225 92.7674 56.2445 93.7466C56.2445 93.8343 56.2737 93.922 56.3102 93.9951ZM56.3322 89.4862C56.8291 91.1231 58.3418 92.3143 60.1396 92.3143C61.7254 92.3143 63.0846 91.3862 63.7277 90.0489C64.2173 89.0258 64.2977 87.7615 63.6765 86.4607C63.2892 85.6568 62.6096 85.0138 61.7838 84.6849C58.9045 83.5156 56.1568 85.6057 56.1568 88.3388C56.1568 88.7408 56.2152 89.1281 56.3249 89.4935L56.3322 89.4862ZM55.6306 91.7662C55.6745 91.6931 55.6964 91.6054 55.6964 91.5177C55.7183 90.5385 54.5271 90.2242 54.0594 91.0793C54.0156 91.1523 53.9937 91.2473 53.9937 91.3277C53.9717 92.307 55.1629 92.6285 55.6306 91.7662ZM53.504 87.6665C53.431 87.7103 53.3652 87.7761 53.3213 87.8492C52.8098 88.6823 53.6867 89.5592 54.5198 89.0477C54.5929 89.0038 54.6587 88.9381 54.7025 88.865C55.2141 88.0319 54.3371 87.1549 53.504 87.6665ZM54.0375 85.6349C54.5052 86.4899 55.6964 86.1757 55.6745 85.1964C55.6745 85.1087 55.6452 85.0211 55.6087 84.948C55.141 84.093 53.9498 84.4072 53.9717 85.3864C53.9717 85.4741 54.001 85.5618 54.0375 85.6349Z" fill="#003771"/>
<path d="M42.7397 87.2269C42.7616 86.9492 42.7908 86.6788 42.8274 86.4157C43.7409 86.3572 44.2889 86.0576 44.3766 85.5607C44.4643 85.0564 44.0259 84.5668 43.1708 84.2087C43.2293 84.0041 43.2951 83.7995 43.3755 83.5876L43.412 83.478C43.412 83.478 43.4193 83.4487 43.4266 83.4341C44.3109 83.5364 44.932 83.3245 45.1001 82.8568C45.2755 82.3818 44.9174 81.8118 44.1282 81.3075C44.2159 81.1248 44.3182 80.9494 44.4351 80.7448L44.4936 80.6425C44.4936 80.6425 44.5374 80.5694 44.552 80.5329C45.4655 80.8106 46.0355 80.7375 46.2767 80.3283C46.5325 79.8898 46.2767 79.2686 45.6117 78.6475C45.7724 78.4136 45.9405 78.1944 46.1086 77.9824L46.1378 77.9386C46.9928 78.3844 47.5702 78.4063 47.8771 78.0336C48.1913 77.6609 48.0598 77.1055 47.4752 76.3382C47.6944 76.1043 47.9209 75.8851 48.1548 75.6586C48.9148 76.2359 49.4994 76.3601 49.8502 76.0532C50.2229 75.7463 50.1937 75.1762 49.7552 74.3212L49.7844 74.2993C50.0183 74.1166 50.2375 73.9485 50.4641 73.7877C51.0925 74.4601 51.721 74.7085 52.1449 74.4528C52.5614 74.2116 52.6272 73.6489 52.3495 72.7354L52.5687 72.6112C52.7734 72.4942 52.9487 72.392 53.1241 72.3043C53.6138 73.0789 54.2057 73.4443 54.6734 73.2689C55.1484 73.1008 55.353 72.4943 55.2507 71.5954L55.5138 71.5077C55.6819 71.4492 55.85 71.3908 56.0253 71.3469C56.3907 72.2239 56.9023 72.6696 57.3919 72.5454C57.8669 72.465 58.1812 71.895 58.2323 71.0035C58.5027 70.9669 58.7731 70.9377 59.0435 70.9158C59.2481 71.8 59.65 72.3043 60.1616 72.3043C60.6731 72.3043 61.0678 71.7854 61.2724 70.9158C61.5428 70.9377 61.8132 70.9669 62.0835 71.0035C62.1347 71.9023 62.4416 72.465 62.9459 72.5454C62.9751 72.5527 63.0189 72.56 63.0701 72.56C63.5305 72.56 63.969 72.1216 64.2978 71.3469C64.4805 71.3981 64.6559 71.4565 64.8313 71.5223L65.0725 71.6027C64.9628 72.5016 65.1748 73.1081 65.6498 73.2762C65.7302 73.3054 65.8105 73.32 65.8982 73.32C66.3221 73.32 66.7825 72.962 67.199 72.3116C67.3963 72.4066 67.5863 72.5162 67.7617 72.6185L67.9737 72.7354C67.6887 73.6562 67.7617 74.2189 68.1856 74.4601C68.5875 74.7085 69.2379 74.4601 69.8591 73.7951C70.1003 73.9631 70.3341 74.1458 70.5606 74.3212C70.1222 75.1762 70.0929 75.7462 70.4656 76.0605C70.8237 76.3601 71.4084 76.2359 72.1611 75.6586C72.3949 75.8851 72.6214 76.1043 72.8407 76.3382C72.2561 77.1055 72.1245 77.6609 72.4388 78.0336C72.7457 78.399 73.3157 78.3771 74.178 77.9386L74.2365 78.019C74.4046 78.2309 74.5653 78.4355 74.7115 78.6475C74.0392 79.2613 73.7907 79.8825 74.0392 80.321C74.273 80.7375 74.8284 80.8106 75.7638 80.5329C75.7784 80.5621 75.7931 80.5913 75.8077 80.6133L75.8807 80.7448C75.9904 80.9421 76.0927 81.1248 76.1877 81.3002C75.3911 81.8045 75.0403 82.3672 75.2157 82.8495C75.3838 83.3099 76.005 83.5218 76.8892 83.4268C76.8892 83.4487 76.9038 83.4633 76.9112 83.4852L76.9477 83.5949C77.0135 83.7922 77.0865 83.9968 77.145 84.2014C76.29 84.5595 75.8515 85.0418 75.9392 85.5534C76.0269 86.0503 76.5823 86.3572 77.4885 86.4084C77.5177 86.6642 77.5542 86.9346 77.5762 87.2196C76.6919 87.4242 76.1877 87.8261 76.1877 88.3377C76.1877 88.8492 76.6992 89.2438 77.5762 89.4485C77.5542 89.7261 77.525 89.9965 77.4885 90.2596C76.7577 90.3035 76.2461 90.5154 76.0415 90.8662C75.9904 90.9539 75.9611 91.0343 75.9465 91.1146C75.8588 91.6116 76.3046 92.1085 77.1523 92.4666C77.1012 92.6493 77.0354 92.832 76.9696 93.022L76.955 93.0585C76.9331 93.117 76.9185 93.1754 76.8965 93.2339C76.0269 93.1316 75.3838 93.3508 75.223 93.8039C75.0477 94.2935 75.3984 94.849 76.195 95.3532C76.1 95.5432 75.9904 95.7405 75.8807 95.9305C75.8442 95.9963 75.8077 96.0621 75.7711 96.1278C74.8577 95.8501 74.2876 95.9232 74.0465 96.3324C73.7907 96.7782 74.0319 97.3848 74.7115 98.0132C74.558 98.2325 74.39 98.4517 74.2219 98.6637L74.178 98.7148C73.323 98.269 72.7457 98.2471 72.4461 98.6198C72.1391 98.9925 72.2707 99.5625 72.848 100.315C72.6215 100.549 72.4022 100.776 72.1684 100.995C71.401 100.41 70.831 100.286 70.4656 100.593C70.0929 100.907 70.1222 101.47 70.5606 102.325L70.5387 102.339C70.2976 102.53 70.0783 102.698 69.8518 102.858C69.2379 102.193 68.6094 101.945 68.171 102.193C67.7544 102.434 67.6887 103.012 67.9664 103.911H67.9444C67.8787 103.955 67.8129 103.991 67.7471 104.028C67.5571 104.137 67.3671 104.24 67.1844 104.335C66.6948 103.553 66.1175 103.195 65.6352 103.363C65.1602 103.538 64.9482 104.145 65.0578 105.036L64.7948 105.124C64.6194 105.182 64.4586 105.241 64.2905 105.285C63.969 104.51 63.5232 104.064 63.0628 104.064C63.0189 104.064 62.9751 104.064 62.9239 104.079C62.4343 104.166 62.1274 104.722 62.0762 105.621C61.8132 105.65 61.5428 105.679 61.2651 105.708C61.0604 104.839 60.6512 104.32 60.1543 104.32C59.6573 104.32 59.2481 104.824 59.0362 105.708C58.7585 105.686 58.4808 105.657 58.225 105.621C58.1738 104.722 57.8669 104.166 57.37 104.071C57.3334 104.064 57.2896 104.057 57.2457 104.057C56.7927 104.057 56.3469 104.51 56.0253 105.27C55.85 105.219 55.6819 105.16 55.5065 105.102L55.258 105.014C55.3603 104.13 55.1484 103.509 54.6807 103.341C54.1692 103.173 53.6211 103.538 53.1314 104.313C52.9561 104.225 52.788 104.13 52.6053 104.02L52.3568 103.881C52.6345 102.983 52.5614 102.405 52.1522 102.164C51.721 101.916 51.0852 102.164 50.4714 102.829C50.2448 102.668 50.0183 102.493 49.7991 102.325L49.7625 102.296C50.201 101.441 50.2302 100.871 49.8575 100.564C49.5067 100.264 48.9294 100.381 48.1621 100.966C47.9283 100.746 47.7017 100.52 47.4825 100.286C48.0671 99.5187 48.1986 98.9633 47.8844 98.5906C47.5775 98.2179 47.0002 98.2471 46.1451 98.6856C45.9697 98.459 45.7797 98.2179 45.6117 97.9767C46.284 97.3555 46.5325 96.7417 46.2767 96.2959C46.0355 95.8867 45.4655 95.8136 44.552 96.0913C44.4278 95.872 44.267 95.5943 44.1282 95.3166C44.9247 94.8124 45.2755 94.2497 45.1001 93.7674C44.932 93.307 44.2962 93.0878 43.4266 93.1901C43.4047 93.1389 43.3901 93.0878 43.3755 93.0366L43.3608 93.0001C43.2951 92.8028 43.2293 92.6127 43.1708 92.4154C44.0186 92.0573 44.4643 91.5604 44.3766 91.0635C44.2889 90.5665 43.7262 90.2523 42.8274 90.2085C42.7908 89.9162 42.7616 89.6531 42.7397 89.3973C43.4705 89.2292 43.9455 88.915 44.0843 88.5204C44.1136 88.44 44.1282 88.3669 44.1282 88.2865C44.1282 87.775 43.6239 87.373 42.7397 87.1684V87.2269ZM50.3325 89.0319C50.6906 94.162 54.9949 98.1886 60.147 98.1886C64.7071 98.1886 68.7483 94.9586 69.7422 90.5154C69.9029 89.7992 69.9833 89.0758 69.9833 88.3523C69.9833 82.9299 65.5694 78.5086 60.1397 78.5086C54.7099 78.5086 50.296 82.9225 50.296 88.3523C50.296 88.5861 50.3033 88.8127 50.3252 89.0392L50.3325 89.0319Z" fill="#003771"/>
<path d="M130.778 85.0953C132.378 85.2561 133.584 86.4984 133.701 88.0988C133.752 88.7931 133.584 89.4508 133.255 89.9989C132.685 90.9635 131.64 91.6066 130.442 91.6066C129.068 91.6066 127.891 90.7516 127.409 89.5531C127.263 89.1804 127.175 88.7712 127.175 88.34C127.175 86.4254 128.819 84.898 130.778 85.088V85.0953Z" fill="#003771"/>
<path d="M123.514 82.8151C125.641 80.1623 129.251 78.7519 133.095 79.8627C135.579 80.5862 137.618 82.4205 138.597 84.8101C139.401 86.7832 139.474 88.7052 139.058 90.4372C138.115 94.3176 134.615 97.2042 130.442 97.2042C125.809 97.2042 122.001 93.6453 121.614 89.1071C121.592 88.8514 121.577 88.5956 121.577 88.3398C121.577 86.3448 122.235 84.5032 123.353 83.0197C123.404 82.9466 123.463 82.8809 123.521 82.8078L123.514 82.8151ZM125.904 84.9563C125.436 84.1013 124.245 84.4155 124.267 85.3948C124.267 85.4825 124.296 85.5701 124.332 85.6432C124.8 86.4982 125.991 86.184 125.969 85.2048C125.969 85.1171 125.94 85.0294 125.904 84.9563ZM126.569 82.7055C126.525 82.7785 126.503 82.8736 126.503 82.9539C126.481 83.9332 127.672 84.2474 128.14 83.3924C128.184 83.3193 128.206 83.2243 128.206 83.1439C128.228 82.1647 127.036 81.8431 126.569 82.7055ZM131.107 81.7116C131.063 81.6385 130.997 81.5728 130.924 81.5289C130.091 81.0174 129.214 81.8943 129.726 82.7274C129.769 82.8005 129.835 82.8663 129.908 82.9101C130.741 83.4217 131.618 82.5447 131.107 81.7116ZM134.264 82.6835C133.796 81.8285 132.605 82.1428 132.627 83.122C132.627 83.2097 132.656 83.2974 132.693 83.3705C133.16 84.2255 134.351 83.9113 134.33 82.932C134.33 82.8443 134.3 82.7566 134.264 82.6835ZM137.253 87.8137C137.209 87.7406 137.143 87.6748 137.07 87.631C136.237 87.1194 135.36 87.9963 135.872 88.8294C135.915 88.9025 135.981 88.9683 136.054 89.0121C136.887 89.5237 137.764 88.6468 137.253 87.8137ZM134.965 91.7307C135.433 92.5857 136.624 92.2714 136.602 91.2922C136.602 91.2045 136.573 91.1168 136.537 91.0437C136.069 90.1887 134.878 90.5029 134.9 91.4822C134.9 91.5699 134.929 91.6576 134.965 91.7307ZM136.515 85.6067C136.558 85.5336 136.58 85.4386 136.58 85.3582C136.602 84.379 135.411 84.0647 134.943 84.9198C134.9 84.9928 134.878 85.0878 134.878 85.1682C134.856 86.1475 136.047 86.4617 136.515 85.6067ZM134.3 93.9815C134.344 93.9084 134.366 93.8207 134.366 93.733C134.388 92.7538 133.197 92.4395 132.729 93.2945C132.685 93.3676 132.663 93.4626 132.663 93.543C132.641 94.5223 133.833 94.8365 134.3 93.9815ZM129.762 94.9753C129.806 95.0484 129.872 95.1142 129.945 95.158C130.778 95.6696 131.655 94.7927 131.143 93.9596C131.099 93.8865 131.034 93.8207 130.961 93.7769C130.128 93.2653 129.251 94.1422 129.762 94.9753ZM126.598 94.0034C127.066 94.8584 128.257 94.5442 128.235 93.5649C128.235 93.4772 128.206 93.3895 128.169 93.3165C127.701 92.4614 126.51 92.7757 126.532 93.7549C126.532 93.8426 126.561 93.9303 126.598 94.0034ZM126.62 89.4945C127.117 91.1314 128.629 92.3226 130.427 92.3226C132.013 92.3226 133.372 91.3945 134.015 90.0572C134.505 89.0341 134.585 87.7698 133.964 86.469C133.577 85.6652 132.897 85.022 132.071 84.6932C129.192 83.5239 126.444 85.614 126.444 88.3471C126.444 88.749 126.503 89.1364 126.612 89.5018L126.62 89.4945ZM125.918 91.7745C125.962 91.7014 125.984 91.6137 125.984 91.526C126.006 90.5468 124.815 90.2325 124.347 91.0876C124.303 91.1606 124.281 91.2557 124.281 91.336C124.259 92.3153 125.451 92.6368 125.918 91.7745ZM124.807 89.0633C124.881 89.0194 124.946 88.9537 124.99 88.8806C125.502 88.0475 124.625 87.1706 123.792 87.6821C123.719 87.726 123.653 87.7917 123.609 87.8648C123.097 88.6979 123.974 89.5748 124.807 89.0633Z" fill="#003771"/>
<path d="M113.033 87.2269C113.055 86.9492 113.084 86.6788 113.121 86.4157C114.034 86.3572 114.582 86.0576 114.67 85.5607C114.758 85.0564 114.319 84.5668 113.464 84.2087C113.523 84.0041 113.589 83.7995 113.669 83.5876L113.705 83.478C113.705 83.478 113.713 83.4487 113.72 83.4341C114.495 83.5218 115.065 83.3683 115.306 83.0248C115.342 82.9737 115.372 82.9225 115.394 82.8641C115.569 82.3891 115.211 81.8191 114.422 81.3148C114.509 81.1321 114.612 80.9567 114.729 80.7521L114.787 80.6498C114.787 80.6498 114.831 80.5767 114.846 80.5402C115.759 80.8179 116.329 80.7448 116.57 80.3356C116.826 79.8971 116.57 79.2759 115.905 78.6548C116.066 78.4209 116.234 78.2017 116.402 77.9898L116.431 77.9459C117.286 78.3917 117.864 78.4136 118.171 78.0409C118.485 77.6682 118.353 77.1128 117.769 76.3455C117.988 76.1116 118.214 75.8924 118.448 75.6659C119.208 76.2432 119.793 76.3674 120.144 76.0605C120.516 75.7535 120.487 75.1835 120.049 74.3285L120.078 74.3066C120.312 74.1239 120.531 73.9558 120.758 73.7951C121.386 74.4674 122.015 74.7158 122.438 74.4601C122.84 74.2262 122.913 73.6854 122.665 72.8158C122.658 72.7866 122.65 72.7646 122.643 72.7354L122.862 72.6112C123.067 72.4942 123.242 72.392 123.418 72.3043C123.907 73.0789 124.499 73.4443 124.967 73.2689C125.442 73.1008 125.646 72.4943 125.544 71.5954L125.807 71.5077C125.975 71.4492 126.143 71.3908 126.319 71.3469C126.684 72.2239 127.196 72.6696 127.685 72.5454C128.16 72.465 128.475 71.895 128.526 71.0035C128.796 70.9669 129.067 70.9377 129.337 70.9158C129.542 71.8 129.944 72.3043 130.455 72.3043C130.967 72.3043 131.361 71.7854 131.566 70.9158C131.836 70.9377 132.107 70.9669 132.377 71.0035C132.428 71.9023 132.735 72.465 133.239 72.5454C133.269 72.5527 133.312 72.56 133.364 72.56C133.824 72.56 134.262 72.1216 134.591 71.3469C134.774 71.3981 134.949 71.4565 135.125 71.5223L135.366 71.6027C135.256 72.5016 135.468 73.1081 135.943 73.2762C136.024 73.3054 136.104 73.32 136.192 73.32C136.616 73.32 137.076 72.962 137.493 72.3116C137.69 72.4066 137.88 72.5162 138.055 72.6185L138.267 72.7354C137.982 73.6562 138.055 74.2189 138.479 74.4601C138.881 74.7085 139.531 74.4601 140.153 73.7951C140.394 73.9631 140.628 74.1458 140.854 74.3212C140.416 75.1762 140.386 75.7462 140.759 76.0605C141.117 76.3601 141.702 76.2359 142.462 75.6586C142.696 75.8851 142.922 76.1043 143.141 76.3382C142.557 77.1055 142.425 77.6609 142.74 78.0336C143.046 78.399 143.616 78.3771 144.479 77.9386L144.537 78.019C144.705 78.2309 144.866 78.4355 145.012 78.6475C144.347 79.2613 144.091 79.8825 144.34 80.321C144.574 80.7375 145.129 80.8106 146.065 80.5329C146.079 80.5621 146.094 80.5913 146.108 80.6133L146.182 80.7448C146.291 80.9421 146.393 81.1248 146.488 81.3002C145.692 81.8045 145.341 82.3672 145.517 82.8495C145.685 83.3099 146.306 83.5218 147.19 83.4268C147.19 83.4487 147.205 83.4633 147.212 83.4852L147.248 83.5949C147.314 83.7922 147.387 83.9968 147.446 84.2014C146.591 84.5595 146.152 85.0418 146.24 85.5534C146.328 86.0503 146.883 86.3572 147.789 86.4084C147.818 86.6642 147.855 86.9346 147.877 87.2196C146.993 87.4242 146.488 87.8261 146.488 88.3377C146.488 88.8492 147 89.2438 147.877 89.4485C147.855 89.7261 147.826 89.9965 147.789 90.2596C147.058 90.3035 146.547 90.5154 146.342 90.8662C146.291 90.9539 146.262 91.0343 146.247 91.1146C146.16 91.6116 146.605 92.1085 147.453 92.4666C147.402 92.6493 147.336 92.832 147.27 93.022L147.256 93.0585C147.234 93.117 147.219 93.1754 147.197 93.2339C146.328 93.1316 145.685 93.3508 145.524 93.8039C145.348 94.2935 145.699 94.849 146.496 95.3532C146.401 95.5432 146.291 95.7405 146.182 95.9305C146.145 95.9963 146.108 96.0621 146.072 96.1278C145.158 95.8501 144.588 95.9232 144.347 96.3324C144.091 96.7782 144.333 97.3848 145.012 98.0132C144.859 98.2325 144.691 98.4517 144.523 98.6637L144.479 98.7148C143.624 98.269 143.046 98.2471 142.747 98.6198C142.44 98.9925 142.571 99.5625 143.149 100.315C142.922 100.549 142.703 100.776 142.469 100.995C141.702 100.41 141.132 100.286 140.766 100.593C140.394 100.907 140.423 101.47 140.861 102.325L140.84 102.339C140.598 102.53 140.379 102.698 140.153 102.858C139.539 102.193 138.91 101.945 138.472 102.193C138.055 102.434 137.989 103.012 138.267 103.911H138.245C138.179 103.955 138.114 103.991 138.048 104.028C137.858 104.137 137.668 104.24 137.485 104.335C136.996 103.553 136.418 103.195 135.936 103.363C135.461 103.538 135.249 104.145 135.359 105.036L135.096 105.124C134.92 105.182 134.759 105.241 134.591 105.285C134.27 104.51 133.824 104.064 133.364 104.064C133.32 104.064 133.276 104.064 133.225 104.079C132.735 104.166 132.428 104.722 132.377 105.621C132.114 105.65 131.844 105.679 131.566 105.708C131.361 104.839 130.952 104.32 130.455 104.32C129.958 104.32 129.549 104.824 129.337 105.708C129.059 105.686 128.782 105.657 128.526 105.621C128.475 104.722 128.168 104.166 127.671 104.071C127.634 104.064 127.59 104.057 127.547 104.057C127.093 104.057 126.648 104.51 126.326 105.27C126.151 105.219 125.983 105.16 125.807 105.102L125.559 105.014C125.661 104.13 125.449 103.509 124.981 103.341C124.47 103.173 123.922 103.538 123.432 104.313C123.257 104.225 123.089 104.13 122.906 104.02L122.658 103.881C122.935 102.983 122.862 102.405 122.453 102.164C122.022 101.916 121.386 102.164 120.772 102.829C120.546 102.668 120.319 102.493 120.1 102.325L120.063 102.296C120.502 101.441 120.531 100.871 120.158 100.564C119.808 100.264 119.23 100.381 118.463 100.966C118.229 100.746 118.002 100.52 117.783 100.286C118.368 99.5187 118.499 98.9633 118.185 98.5906C117.878 98.2179 117.301 98.2471 116.446 98.6856C116.271 98.459 116.081 98.2179 115.912 97.9767C116.585 97.3555 116.833 96.7417 116.577 96.2959C116.336 95.8867 115.766 95.8136 114.853 96.0913C114.729 95.872 114.568 95.5943 114.429 95.3166C115.226 94.8124 115.576 94.2497 115.401 93.7674C115.233 93.307 114.59 93.0878 113.727 93.1901C113.705 93.1389 113.691 93.0878 113.676 93.0366L113.662 93.0001C113.596 92.8028 113.53 92.6127 113.472 92.4154C114.319 92.0573 114.765 91.5604 114.677 91.0635C114.59 90.5665 114.027 90.2523 113.128 90.2085C113.092 89.9162 113.062 89.6531 113.04 89.3973C113.771 89.2292 114.246 88.915 114.385 88.5204C114.414 88.44 114.429 88.3669 114.429 88.2865C114.429 87.775 113.925 87.373 113.04 87.1684L113.033 87.2269ZM120.626 89.0319C120.984 94.162 125.288 98.1886 130.44 98.1886C135.001 98.1886 139.042 94.9586 140.036 90.5154C140.196 89.7992 140.277 89.0758 140.277 88.3523C140.277 82.9299 135.863 78.5086 130.433 78.5086C127.737 78.5086 125.288 79.5975 123.505 81.366C123.001 81.8702 122.548 82.4256 122.153 83.0322C121.167 84.5668 120.589 86.3938 120.589 88.3523C120.589 88.5861 120.597 88.8127 120.619 89.0392L120.626 89.0319Z" fill="#003771"/>
<path d="M50.2526 68.3249L70.6342 68.2007V70.1957C70.6342 70.9192 71.0361 71.5184 71.3576 72.1688C72.3076 74.0616 73.9812 75.0774 75.4866 75.1797H97.812L106.099 72.9142V81.9029V84.8918C106.099 88.173 103.439 90.8331 100.158 90.8331H77.1308C77.3647 90.7454 77.6789 90.6869 78.0443 90.6796H78.2051L78.227 90.5188C78.2709 90.1461 78.322 89.7515 78.3439 89.3496V89.1888L78.1905 89.1596C77.4158 89.0061 76.9116 88.6919 76.9116 88.3557C76.9116 88.0195 77.4012 87.698 78.1905 87.5445L78.3512 87.5153V87.3545C78.3147 86.9453 78.2635 86.536 78.2197 86.1853L78.1978 86.0245H78.037C77.2404 86.0026 76.707 85.7833 76.6485 85.4472C76.59 85.1037 77.0285 84.7091 77.8032 84.4168L77.9639 84.3583L77.9201 84.1975C77.847 83.9198 77.752 83.6494 77.6643 83.3937L77.6278 83.2768C77.6058 83.211 77.5839 83.1452 77.562 83.0794L77.5108 82.926L77.3501 82.9479C76.5827 83.0575 75.9908 82.926 75.8812 82.619C75.7643 82.2975 76.1443 81.8152 76.8604 81.3913L77.0066 81.3036L76.9335 81.1502C76.8166 80.9017 76.6851 80.6605 76.5389 80.4121L76.4585 80.2659C76.4147 80.1928 76.3781 80.1271 76.3416 80.054L76.2685 79.9152L76.1223 79.9663C75.7204 80.0978 75.3843 80.1636 75.1358 80.1636C74.7631 80.1636 74.6754 80.0174 74.6535 79.9663C74.4854 79.6667 74.7704 79.1332 75.3843 78.607L75.5085 78.4974L75.4208 78.3586C75.2381 78.0809 75.0408 77.8251 74.8289 77.5547L74.5731 77.2259L74.4342 77.2989C73.6961 77.7009 73.1846 77.8032 72.98 77.562C72.7827 77.3209 72.9654 76.8312 73.4988 76.1662L73.6011 76.042L73.4915 75.9251C73.1919 75.6035 72.885 75.2966 72.5561 74.9897L72.4392 74.88L72.315 74.9824C71.7011 75.472 71.343 75.5743 71.153 75.5743C71.058 75.5743 70.9776 75.5524 70.9192 75.4939C70.6853 75.2966 70.7803 74.785 71.1822 74.0396L71.2553 73.9008L70.9996 73.7035C70.7219 73.4843 70.4295 73.2577 70.1226 73.0531L69.9838 72.9581L69.8741 73.0823C69.3553 73.6889 68.8072 73.9885 68.5222 73.8131C68.2518 73.6596 68.2518 73.1408 68.5222 72.3369L68.5733 72.1908L68.091 71.9204C67.8572 71.7888 67.6014 71.6427 67.3383 71.5184L67.1849 71.4454L67.0972 71.5915C66.6806 72.3004 66.1983 72.695 65.8767 72.5708C65.5552 72.4538 65.431 71.8911 65.5479 71.1019L65.5698 70.9484L65.029 70.773C64.7952 70.6926 64.5467 70.6123 64.2983 70.5465L64.1375 70.5026L64.079 70.6561C63.8086 71.3723 63.4359 71.8181 63.1144 71.8181C63.0925 71.8181 63.0779 71.8181 63.0632 71.8181C62.7125 71.7596 62.4932 71.2261 62.4713 70.4369V70.2761L62.3105 70.2542C61.9159 70.203 61.5286 70.1592 61.1413 70.1373H60.9805L60.9513 70.2907C60.7978 71.0653 60.4836 71.5696 60.1401 71.5696C59.7966 71.5696 59.4824 71.08 59.3289 70.2907L59.2997 70.1299H59.1389C58.7516 70.1592 58.3643 70.2103 57.9697 70.2615L57.8089 70.2834V70.4442C57.787 71.2261 57.5604 71.7669 57.2316 71.8254C57.195 71.8327 57.1658 71.84 57.1439 71.84C56.8369 71.84 56.4643 71.3796 56.2012 70.6707L56.1427 70.5173L55.9819 70.5611C55.7408 70.6196 55.5069 70.7 55.2731 70.7804L54.7104 70.9703L54.7323 71.1238C54.8565 71.9131 54.7323 72.4685 54.4034 72.5854C54.0673 72.7096 53.585 72.3077 53.1757 71.6134L53.088 71.4673L52.9346 71.5404C52.6861 71.6573 52.4595 71.7815 52.1892 71.935L51.6995 72.2054L51.7507 72.3515C52.0138 73.1481 52.0138 73.667 51.7507 73.8204C51.4438 74.0031 50.9176 73.6962 50.3914 73.0896L50.2818 72.9654L50.143 73.0604C49.8506 73.2577 49.5803 73.4696 49.2953 73.6889L49.0176 73.9008L49.0906 74.0396C49.4926 74.7777 49.5876 75.2966 49.3537 75.4939C49.2879 75.5451 49.2149 75.5743 49.1199 75.5743C48.9299 75.5743 48.5718 75.472 47.9579 74.9824L47.8337 74.88L47.7168 74.9897C47.3879 75.2966 47.081 75.6035 46.7814 75.9251L46.6717 76.042L46.774 76.1662C47.3002 76.8312 47.4829 77.3282 47.2856 77.562C47.081 77.8032 46.5694 77.7082 45.8313 77.2989L45.6925 77.2186L45.4659 77.5109C45.2686 77.7666 45.0494 78.0516 44.8448 78.3513L44.7498 78.4901L44.874 78.5997C45.4879 79.1259 45.7729 79.6594 45.6048 79.959C45.5756 80.0028 45.4952 80.149 45.1152 80.149C44.8594 80.149 44.5305 80.0832 44.1359 79.9517L43.9898 79.9005L43.9167 80.0394C43.8728 80.1198 43.829 80.2002 43.7851 80.2805L43.7267 80.3828C43.5951 80.624 43.4709 80.8359 43.3613 81.0625H41.8193L42.6232 74.997C43.1347 71.175 46.394 68.3249 50.2453 68.3249H50.2526ZM82.4144 90.3727H84.0879V88.4507H90.7819V90.3727H92.4554V75.7351H90.7819V77.657H84.0879V75.7351H82.4144V90.3727Z" fill="#003771"/>
<path d="M23.4471 73.8384H42.2429L41.271 81.0512H22.0002V75.2853C22.0002 74.4815 22.6506 73.8384 23.4471 73.8384Z" fill="#003771"/>
<path d="M37.3916 63.9298V64.4559V73.4665H26.0426L27.9207 53.7646C28.0522 52.3615 29.2361 51.2872 30.6465 51.2872H48.2219V50.3445C48.2219 49.3798 49.0038 48.6052 49.9611 48.6052H54.5359C55.5005 48.6052 56.2751 49.3871 56.2751 50.3445V51.2872H70.6423V56.0008H37.399V63.9298H37.3916Z" fill="#003771"/>
<path d="M42.2952 73.4669H37.9251V64.4563H60.1263V66.2906H69.6631C70.0066 66.2906 70.3427 66.4148 70.6423 66.6487V67.7448L51.2985 67.7229C46.9138 67.7229 43.6033 69.6814 42.3025 73.4669H42.2952Z" fill="#003771"/>
<path d="M69.4 62.6014V61.7244H68.0188V62.6014H67.1784V61.7244H65.9653V62.6014H65.1249V61.7244H63.9118V62.6014H63.0714V61.7244H61.8583V62.6014H61.0179V61.7244H59.8048V62.996H60.1263V63.9314H37.9251V56.5286H70.6423V62.7329C70.3208 62.6452 69.9992 62.6014 69.6631 62.6014H69.4ZM40.4902 57.464H39.109V58.7355H40.4902V57.464ZM40.4902 59.5832H39.109V60.884H40.4902V59.5832ZM40.4902 61.7317H39.109V63.0033H40.4902V61.7317ZM42.5437 57.4713H41.3306V58.7428H42.5437V57.4713ZM42.5437 59.5906H41.3306V60.8913H42.5437V59.5906ZM42.5437 61.7391H41.3306V63.0106H42.5437V61.7391ZM44.5972 57.4786H43.3841V58.7501H44.5972V57.4786ZM44.5972 59.5978H43.3841V60.8986H44.5972V59.5978ZM44.5972 61.7464H43.3841V63.0179H44.5972V61.7464ZM46.6507 57.4859H45.4376V58.7574H46.6507V57.4859ZM46.6507 59.6052H45.4376V60.906H46.6507V59.6052ZM46.6507 61.7537H45.4376V63.0252H46.6507V61.7537ZM48.7042 57.4932H47.4911V58.7648H48.7042V57.4932ZM48.7042 59.6125H47.4911V60.9133H48.7042V59.6125ZM48.7042 61.761H47.4911V63.0325H48.7042V61.761ZM50.7577 57.5005H49.5446V58.7721H50.7577V57.5005ZM50.7577 59.6198H49.5446V60.9206H50.7577V59.6198ZM50.7577 61.7683H49.5446V63.0399H50.7577V61.7683ZM52.8112 57.5078H51.5981V58.7794H52.8112V57.5078ZM52.8112 59.6271H51.5981V60.9279H52.8112V59.6271ZM52.8112 61.7756H51.5981V63.0471H52.8112V61.7756ZM54.8647 57.5151H53.6516V58.7867H54.8647V57.5151ZM54.8647 59.6344H53.6516V60.9352H54.8647V59.6344ZM54.8647 61.7829H53.6516V63.0545H54.8647V61.7829ZM56.9182 57.5224H55.7051V58.794H56.9182V57.5224ZM56.9182 59.6417H55.7051V60.9425H56.9182V59.6417ZM56.9182 61.7902H55.7051V63.0618H56.9182V61.7902ZM58.9717 57.5297H57.7586V58.8013H58.9717V57.5297ZM58.9717 59.649H57.7586V60.9498H58.9717V59.649ZM58.9717 61.7975H57.7586V63.0691H58.9717V61.7975ZM61.0252 57.5371H59.8121V58.8086H61.0252V57.5371ZM61.0252 59.6563H59.8121V60.9571H61.0252V59.6563ZM63.0787 57.5371H61.8656V58.8086H63.0787V57.5371ZM63.0787 59.6563H61.8656V60.9571H63.0787V59.6563ZM65.1322 57.5371H63.9191V58.8086H65.1322V57.5371ZM65.1322 59.6563H63.9191V60.9571H65.1322V59.6563ZM67.1857 57.5371H65.9726V58.8086H67.1857V57.5371ZM67.1857 59.6563H65.9726V60.9571H67.1857V59.6563ZM69.4146 57.5371H68.0334V58.8086H69.4146V57.5371ZM69.4146 59.6563H68.0334V60.9571H69.4146V59.6563Z" fill="#003771"/>
<path d="M63.6407 47.8389H70.6343V50.7401H61.8064L63.6407 47.8389Z" fill="#003771"/>
<path d="M60.681 65.7357V63.1633H69.6551C70.8462 63.1633 72.0082 63.8357 72.8267 65.0122L75.969 69.4992C76.4952 70.2446 77.2406 70.6758 78.0298 70.6758H93.5298V73.2482H78.0298C76.7729 73.2482 75.5598 72.5393 74.6902 71.3043L71.5478 66.8173C71.0655 66.1303 70.3785 65.7357 69.6551 65.7357H60.681Z" fill="#003771"/>
<path d="M107.05 61.4097C107.064 61.227 107.071 61.0443 107.05 60.8616L105.676 46.4213C105.566 45.3032 105.34 44.1924 104.989 43.1255L101.481 32.4268C101.145 31.3964 100.268 30.6583 99.2375 30.4683H93.8881C92.5362 30.724 91.5131 31.9152 91.5131 33.3403V62.8055C91.5131 63.317 91.4692 63.7847 91.6885 64.2013H87.428V57.9677C87.428 56.6961 86.1418 55.6584 84.556 55.6584H78.8047C77.2189 55.6584 75.9328 56.6888 75.9328 57.9677V61.015V61.6143C75.9328 62.0162 76.0643 62.4108 76.3128 62.7543L77.3286 64.1866H72.8927C72.6004 63.8578 72.2788 63.5728 71.9427 63.3389V47.8317L75.7939 31.9298C75.8816 31.4037 76.0424 30.914 76.2689 30.4536H75.5966V28.3563C75.5966 27.4794 76.3055 26.7705 77.1824 26.7705H109.461V30.4536V31.2941C109.461 32.1052 108.803 32.7629 107.992 32.7629H105.478L108.043 40.8893C108.957 43.7759 109.563 46.7575 109.848 49.7683L111.083 62.6228H106.911C107.042 62.0308 107.006 61.8335 107.042 61.3951L107.05 61.4097ZM87.4426 35.0649V34.4657C87.4426 32.4414 86.3757 30.7679 84.9799 30.4683H80.3102C79.0678 30.7387 78.074 32.1052 77.884 33.881L76.2689 49.286C76.2397 49.6002 76.2324 49.9071 76.247 50.2068C76.3712 52.253 77.599 53.9191 79.1482 53.9191H84.5195C86.1272 53.9191 87.4353 52.1068 87.4353 49.8706V35.0722L87.4426 35.0649Z" fill="#003771"/>
<path d="M113.81 72.9197L112.925 73.8405H108.146V77.3848H114.438L118.742 72.9197H122.097V73.4166C122.097 73.6212 122.046 73.7893 121.914 73.8624C121.658 74.0159 121.256 73.8185 120.84 73.4166C120.789 73.3728 120.745 73.3216 120.694 73.2705L120.474 73.0293L120.211 73.2193C120.124 73.2851 120.036 73.3508 119.948 73.4166C119.802 73.5262 119.663 73.6285 119.517 73.7382L119.276 73.9282L119.393 74.2205C119.627 74.6809 119.853 75.2728 119.583 75.4993C119.546 75.5359 119.48 75.5724 119.364 75.5724C119.225 75.5724 118.903 75.5067 118.348 75.0901L118.092 74.9001L117.865 75.1193C117.624 75.3459 117.398 75.5724 117.171 75.8136L116.952 76.0401L117.142 76.2886C117.456 76.6978 117.778 77.2532 117.551 77.5236C117.5 77.5821 117.427 77.6479 117.237 77.6479C117.069 77.6479 116.769 77.5967 116.272 77.3336L115.995 77.1875L115.768 77.4725C115.593 77.699 115.417 77.9256 115.257 78.1594L115.067 78.4298L115.308 78.649C115.819 79.124 116.053 79.5991 115.907 79.8694C115.878 79.9206 115.797 80.0521 115.439 80.0521C115.22 80.0521 114.942 80.001 114.613 79.906L114.328 79.8183L114.065 80.286C113.941 80.4979 113.839 80.6879 113.751 80.8706L113.598 81.1702L113.883 81.3529C114.431 81.7037 114.745 82.091 114.723 82.376H106.918V72.9197H113.824H113.81Z" fill="#003771"/>
<path d="M146.014 54.5551C145.883 55.1397 145.371 55.5563 144.772 55.5709H144.75C144.501 55.5782 144.26 55.5124 144.056 55.3955C144.019 55.3736 143.99 55.3517 143.961 55.3297C143.683 55.1324 143.478 54.8328 143.42 54.4747L143.369 54.1532L143.171 52.9401L120.824 57.6829L120.181 54.7817C119.83 53.2178 118.383 52.0851 116.688 52.0339C116.753 52.012 116.812 51.9828 116.878 51.9608L144.406 43.206C146.058 42.6799 147.856 42.9576 149.273 43.9514L163.641 54.0509C165 55.0009 165.373 56.8498 164.503 58.2602L164.474 58.3114C163.648 59.6487 161.96 60.1676 160.527 59.5245L146.321 53.1812L146.007 54.5478L146.014 54.5551ZM145.539 53.9705C145.444 53.532 145.013 53.247 144.574 53.342C144.319 53.3932 144.129 53.5612 144.019 53.7732C144.004 53.8024 143.99 53.8243 143.982 53.8536C143.931 53.9924 143.917 54.1459 143.946 54.3067C144.019 54.6501 144.304 54.8986 144.633 54.9424C144.721 54.9571 144.816 54.957 144.911 54.9351C144.925 54.9351 144.94 54.9278 144.954 54.9205C145.371 54.8109 145.627 54.3944 145.539 53.9705ZM160.929 57.1494C161.061 57.7633 161.66 58.1579 162.274 58.0263C162.34 58.0117 162.406 57.9898 162.471 57.9606C162.968 57.756 163.268 57.2225 163.151 56.6744C163.019 56.0605 162.42 55.6659 161.806 55.7975C161.507 55.8632 161.258 56.0386 161.097 56.2798C160.937 56.5282 160.864 56.8352 160.929 57.1421V57.1494Z" fill="#003771"/>
<path d="M112.742 52.4561H116.059C116.096 52.4561 116.14 52.4561 116.176 52.4561C117.872 52.5072 119.319 53.6326 119.669 55.2038L120.312 58.105L122.271 66.8964H119.289L114.912 71.4418H112.742V52.4561ZM116.198 57.06C116.922 57.06 117.506 56.4754 117.506 55.7519C117.506 55.0284 116.922 54.4438 116.198 54.4438C115.475 54.4438 114.89 55.0284 114.89 55.7519C114.89 56.4754 115.475 57.06 116.198 57.06Z" fill="#003771"/>
<path d="M130.521 67.3145C130.521 67.3145 130.507 67.3145 130.499 67.3145H127.321H125.64H124.799L132.378 61.4974C132.392 61.4901 132.414 61.4901 132.421 61.4974L134.49 64.1575C134.49 64.1575 134.497 64.194 134.49 64.2013L130.521 67.3072V67.3145Z" fill="#003771"/>
<path d="M126.876 70.1652H125.195H124.99H123.105H120.613L118.574 72.2845L114.197 76.83H108.701V74.4038H113.166L115.205 72.2845L119.582 67.739H122.564H124.267H125.195H127H129.982H133.497V70.1652H127H126.876Z" fill="#003771"/>
<path d="M135.141 63.7642L134.885 63.9615C134.885 63.9615 134.848 63.9688 134.841 63.9615L132.714 61.2357C132.714 61.2357 132.707 61.1992 132.714 61.1919L132.97 60.9946C133.409 60.6511 134.052 60.7315 134.395 61.17C134.395 61.17 134.424 61.1919 134.439 61.1846L143.084 54.4321L143.135 54.7537C143.194 55.1117 143.398 55.4114 143.676 55.6087C143.705 55.6306 143.742 55.6525 143.771 55.6744L135.301 62.2881C135.301 62.2881 135.287 62.3173 135.301 62.3319C135.645 62.785 135.564 63.4208 135.126 63.7642H135.141Z" fill="#003771"/>
<path d="M140.423 41.8471L140.606 42.4317L140.694 42.7094L129.228 46.3049C129.228 46.3049 129.198 46.3268 129.206 46.3414C129.374 46.8895 129.074 47.4522 128.541 47.6203L128.234 47.7153C128.234 47.7153 128.197 47.7153 128.197 47.6934L127.167 44.3975C127.167 44.3975 127.167 44.361 127.189 44.361L127.496 44.266C128.029 44.0979 128.599 44.3975 128.767 44.931C128.767 44.931 128.789 44.9675 128.804 44.9602L140.284 41.3794L140.423 41.8471Z" fill="#003771"/>
<path d="M118.56 50.7384L114.533 52.0099H114.014L113.225 49.5107C112.838 48.2976 113.51 46.9968 114.73 46.6095L115.907 46.2367C116.747 45.9737 117.639 46.4194 117.931 47.2452L126.81 44.4683L127.862 47.8226L118.574 50.7311L118.56 50.7384ZM115.709 48.4072C115.066 48.4072 114.54 48.926 114.54 49.5764C114.54 50.2268 115.059 50.7457 115.709 50.7457C116.36 50.7457 116.879 50.2268 116.879 49.5764C116.879 48.926 116.36 48.4072 115.709 48.4072Z" fill="#003771"/>
<path d="M159.687 27.8817L161.653 22.9708C161.916 22.3131 162.727 21.9697 163.473 22.2035H163.502C164.248 22.4447 164.635 23.1608 164.372 23.8186L163.765 25.3313L192.602 34.3053L195.372 30.3956C195.803 29.7891 196.577 29.526 197.286 29.7452L197.345 29.7671L193.603 38.4342L162.406 28.7221L159.687 27.8744V27.8817Z" fill="#003771"/>
<path d="M157.43 36.2917L155.778 36.0797C155.347 36.0213 154.996 35.7728 154.784 35.4366C154.616 35.1736 154.536 34.852 154.58 34.5232V34.4939C154.601 34.3332 154.653 34.1943 154.726 34.0555C154.981 33.5366 155.544 33.2151 156.151 33.2881L157.846 33.5074C158.131 32.1408 158.548 30.7669 159.096 29.3931L193.011 39.9529C188.678 50.7685 177.57 57.1775 168.201 54.2617C160.842 51.967 156.75 44.6007 157.437 36.299L157.43 36.2917ZM156.385 33.997C155.975 33.807 155.486 33.9824 155.288 34.3916C155.098 34.8009 155.274 35.2905 155.683 35.4878C156.092 35.6778 156.582 35.5024 156.779 35.0932C156.969 34.6839 156.794 34.1943 156.385 33.997Z" fill="#003771"/>
<path d="M141.688 35.433L140.365 34.0518H154.389C154.323 34.1833 154.272 34.3295 154.25 34.4902V34.5195C154.206 34.8556 154.286 35.1699 154.447 35.433H141.68H141.688Z" fill="#003771"/>
<path d="M143.654 37.8913C144.487 38.7536 144.553 40.0544 143.691 40.8875L143.662 40.9167C143.662 40.9167 143.625 40.9387 143.61 40.9533L143.26 39.9229C143.026 39.1921 142.193 38.8852 141.462 39.1117H141.433C140.702 39.3529 140.256 40.186 140.49 40.924L140.519 41.0263C140.519 41.0263 140.49 41.0044 140.475 40.9898L136.595 36.9047C135.762 36.0424 135.784 34.6758 136.639 33.8427L136.668 33.8135C137.53 32.9804 138.897 33.0023 139.73 33.8574L139.905 34.04L141.25 35.4212L143.647 37.8913H143.654ZM138.495 34.3105C138.356 34.2081 138.188 34.1424 138.005 34.1424C137.552 34.1424 137.187 34.5078 137.187 34.9608C137.187 35.4139 137.552 35.7793 138.005 35.7793C138.283 35.7793 138.524 35.6405 138.678 35.4286C138.773 35.297 138.824 35.1362 138.824 34.9608C138.824 34.6978 138.692 34.4639 138.495 34.3105Z" fill="#003771"/>
<path d="M141.535 39.4044H141.556C142.2 39.1925 142.879 39.5505 143.084 40.1863L143.362 41.0633L144.041 43.0437L141.637 43.7964L140.767 41.0194L140.738 40.9317C140.533 40.2887 140.891 39.609 141.527 39.4044H141.535ZM141.9 41.3629C142.295 41.3629 142.616 41.0413 142.616 40.6467C142.616 40.2521 142.295 39.9305 141.9 39.9305C141.505 39.9305 141.184 40.2521 141.184 40.6467C141.184 41.0413 141.505 41.3629 141.9 41.3629Z" fill="#003771"/>
</svg>
