<svg width="176" height="84" viewBox="0 0 176 84" fill="none" xmlns="http://www.w3.org/2000/svg">
<path d="M28.0115 18.2673H29.2611V16.8862H29.2465C29.2465 14.9277 28.1941 13.2688 26.9445 13.2688V11.4053C29.2538 11.4053 31.0661 13.7584 31.11 16.7765V18.2673H32.3596V25.8456H28.0115V18.2673V18.2673Z" fill="#003771"/>
<path d="M62.0956 61.553H68.7896V65.4408H62.0956V61.553Z" fill="#003771"/>
<path d="M62.0956 56.6633H68.7896V60.5511H62.0956V56.6633Z" fill="#003771"/>
<path d="M75.4905 29.8888L72.7135 32.0227C72.4577 32.22 72.1289 32.2492 71.8439 32.1396C71.705 32.0811 71.5735 31.9935 71.4712 31.8619V31.8473C71.1642 31.46 71.2373 30.9046 71.6246 30.605L78.2163 25.5479C78.6036 25.2483 79.159 25.3214 79.4586 25.7087V25.7233C79.5171 25.7891 79.5536 25.8622 79.5829 25.9279C79.729 26.286 79.6267 26.7099 79.3052 26.9583L76.4551 29.1507L77.6974 30.7657L77.7705 30.7146L79.3856 29.6184C80.3721 28.9461 81.7314 29.2238 82.4695 30.2176C82.4914 30.2469 82.5133 30.2688 82.5279 30.298L83.2587 31.3796L82.0164 32.2273L84.0991 40.814C83.668 41.4863 82.9737 41.9759 82.1333 42.1221L76.6743 43.0575L76.1263 43.1525L76.6743 36.6997L76.7474 35.8081L75.2055 36.8532L75.0959 36.9262L74.3651 35.8447C73.6416 34.7777 73.8754 33.36 74.8912 32.6658L76.6817 31.4527L75.907 30.4442L75.4832 29.8888H75.4905Z" fill="#003771"/>
<path d="M18.1166 59.8723H19.1543L18.2335 66.2667L13.7611 65.5213L0.000435545 63.2997V59.8723H16.0192H18.1166Z" fill="#003771"/>
<path d="M75.6948 52.4181H55.2036C52.3024 52.4181 49.9493 50.1088 49.9493 47.2661V46.3599L52.2293 49.6265C53.2013 51.015 54.5825 51.8115 56.0221 51.8115H72.0848V48.1138H56.0221C55.4229 48.1138 54.8382 47.7776 54.4217 47.1857L51.4839 42.991H55.7517L56.4971 44.0214L57.5641 45.4975C57.7614 45.7752 58.0245 46.0018 58.3387 46.1845C58.8283 46.4768 59.4276 46.6376 60.0634 46.6376H62.5553C64.1411 46.6376 65.4273 45.6218 65.4273 44.3722V42.9836H69.8632C70.4332 44.0067 71.6097 44.6425 72.874 44.4452C72.8886 44.4452 72.9032 44.4452 72.9252 44.4452L76.6229 43.8241L82.63 42.8156C83.4704 42.6767 84.1646 42.1871 84.5958 41.5367C84.6104 41.5148 84.6323 41.4855 84.6469 41.4636H89.0901L89.207 48.5668L84.1062 50.0211L75.6948 52.4254V52.4181Z" fill="#003771"/>
<path d="M38.4841 63.0953C40.0845 63.2561 41.2903 64.4984 41.4072 66.0988C41.4584 66.7931 41.2903 67.4508 40.9614 67.9989C40.3914 68.9635 39.3464 69.6066 38.1479 69.6066C36.774 69.6066 35.5975 68.7516 35.1152 67.5531C34.969 67.1804 34.8813 66.7712 34.8813 66.34C34.8813 64.4254 36.5256 62.898 38.4841 63.088V63.0953Z" fill="#003771"/>
<path d="M40.7996 57.8617C43.2843 58.5852 45.3232 60.4195 46.3024 62.8091C47.1063 64.7822 47.1794 66.7042 46.7628 68.4362C45.8201 72.3166 42.3196 75.2032 38.1469 75.2032C33.5137 75.2032 29.7063 71.6443 29.319 67.1061C29.2971 66.8504 29.2824 66.5946 29.2824 66.3388C29.2824 60.5802 34.7706 56.1078 40.7996 57.8617V57.8617ZM34.2737 60.6972C34.2298 60.7702 34.2079 60.8652 34.2079 60.9456C34.186 61.9249 35.3772 62.2391 35.8449 61.3841C35.8887 61.311 35.9107 61.216 35.9107 61.1356C35.9326 60.1564 34.7414 59.8348 34.2737 60.6972ZM38.8119 59.7033C38.768 59.6302 38.7023 59.5644 38.6292 59.5206C37.7961 59.009 36.9191 59.886 37.4307 60.7191C37.4745 60.7922 37.5403 60.8579 37.6134 60.9018C38.4465 61.4133 39.3234 60.5364 38.8119 59.7033ZM41.9762 60.6752C41.5085 59.8202 40.3173 60.1345 40.3392 61.1137C40.3392 61.2014 40.3684 61.2891 40.405 61.3622C40.8727 62.2172 42.0639 61.903 42.0419 60.9237C42.0419 60.836 42.0127 60.7483 41.9762 60.6752ZM44.9651 65.8053C44.9212 65.7323 44.8555 65.6665 44.7824 65.6226C43.9493 65.1111 43.0723 65.988 43.5839 66.8211C43.6277 66.8942 43.6935 66.96 43.7666 67.0038C44.5997 67.5154 45.4766 66.6384 44.9651 65.8053ZM42.6777 69.7224C43.1454 70.5774 44.3366 70.2631 44.3147 69.2839C44.3147 69.1962 44.2854 69.1085 44.2489 69.0354C43.7812 68.1804 42.59 68.4946 42.6119 69.4739C42.6119 69.5616 42.6412 69.6493 42.6777 69.7224ZM44.227 63.5984C44.2708 63.5253 44.2928 63.4303 44.2928 63.3499C44.3147 62.3707 43.1235 62.0564 42.6558 62.9114C42.6119 62.9845 42.59 63.0795 42.59 63.1599C42.5681 64.1392 43.7593 64.4534 44.227 63.5984ZM42.0127 71.9732C42.0566 71.9001 42.0785 71.8124 42.0785 71.7247C42.1004 70.7454 40.9092 70.4312 40.4415 71.2862C40.3977 71.3593 40.3757 71.4543 40.3757 71.5347C40.3538 72.5139 41.545 72.8282 42.0127 71.9732ZM37.4745 72.967C37.5184 73.0401 37.5842 73.1059 37.6572 73.1497C38.4903 73.6613 39.3673 72.7843 38.8557 71.9512C38.8119 71.8782 38.7461 71.8124 38.673 71.7685C37.8399 71.257 36.963 72.1339 37.4745 72.967ZM34.3102 71.9951C34.7779 72.8501 35.9691 72.5359 35.9472 71.5566C35.9472 71.4689 35.918 71.3812 35.8814 71.3081C35.4137 70.4531 34.2225 70.7674 34.2445 71.7466C34.2445 71.8343 34.2737 71.922 34.3102 71.9951ZM34.3322 67.4862C34.8291 69.1231 36.3418 70.3143 38.1396 70.3143C39.7254 70.3143 41.0846 69.3862 41.7277 68.0489C42.2173 67.0258 42.2977 65.7615 41.6765 64.4607C41.2892 63.6568 40.6096 63.0138 39.7838 62.6849C36.9045 61.5156 34.1568 63.6057 34.1568 66.3388C34.1568 66.7408 34.2152 67.1281 34.3249 67.4935L34.3322 67.4862ZM33.6306 69.7662C33.6745 69.6931 33.6964 69.6054 33.6964 69.5177C33.7183 68.5385 32.5271 68.2242 32.0594 69.0793C32.0156 69.1523 31.9937 69.2473 31.9937 69.3277C31.9717 70.307 33.1629 70.6285 33.6306 69.7662ZM31.504 65.6665C31.4309 65.7103 31.3652 65.7761 31.3213 65.8492C30.8098 66.6823 31.6867 67.5592 32.5198 67.0477C32.5929 67.0038 32.6587 66.9381 32.7025 66.865C33.2141 66.0319 32.3371 65.1549 31.504 65.6665ZM32.0375 63.6349C32.5052 64.4899 33.6964 64.1757 33.6745 63.1964C33.6745 63.1087 33.6452 63.0211 33.6087 62.948C33.141 62.093 31.9498 62.4072 31.9717 63.3864C31.9717 63.4741 32.001 63.5618 32.0375 63.6349Z" fill="#003771"/>
<path d="M20.7397 65.2269C20.7616 64.9492 20.7908 64.6788 20.8274 64.4157C21.7409 64.3572 22.2889 64.0576 22.3766 63.5607C22.4643 63.0564 22.0259 62.5668 21.1708 62.2087C21.2293 62.0041 21.2951 61.7995 21.3755 61.5876L21.412 61.478C21.412 61.478 21.4193 61.4487 21.4266 61.4341C22.3109 61.5364 22.932 61.3245 23.1001 60.8568C23.2755 60.3818 22.9174 59.8118 22.1282 59.3075C22.2159 59.1248 22.3182 58.9494 22.4351 58.7448L22.4936 58.6425C22.4936 58.6425 22.5374 58.5694 22.552 58.5329C23.4655 58.8106 24.0355 58.7375 24.2767 58.3283C24.5325 57.8898 24.2767 57.2686 23.6117 56.6475C23.7724 56.4136 23.9405 56.1944 24.1086 55.9824L24.1378 55.9386C24.9928 56.3844 25.5702 56.4063 25.8771 56.0336C26.1913 55.6609 26.0598 55.1055 25.4752 54.3382C25.6944 54.1043 25.9209 53.8851 26.1548 53.6586C26.9148 54.2359 27.4994 54.3601 27.8502 54.0532C28.2229 53.7463 28.1937 53.1762 27.7552 52.3212L27.7844 52.2993C28.0183 52.1166 28.2375 51.9485 28.4641 51.7877C29.0925 52.4601 29.721 52.7085 30.1449 52.4528C30.5614 52.2116 30.6272 51.6489 30.3495 50.7354L30.5687 50.6112C30.7734 50.4942 30.9487 50.392 31.1241 50.3043C31.6138 51.0789 32.2057 51.4443 32.6734 51.2689C33.1484 51.1008 33.353 50.4943 33.2507 49.5954L33.5138 49.5077C33.6819 49.4492 33.85 49.3908 34.0253 49.3469C34.3907 50.2239 34.9023 50.6696 35.3919 50.5454C35.8669 50.465 36.1812 49.895 36.2323 49.0035C36.5027 48.9669 36.7731 48.9377 37.0435 48.9158C37.2481 49.8 37.65 50.3043 38.1616 50.3043C38.6731 50.3043 39.0678 49.7854 39.2724 48.9158C39.5428 48.9377 39.8132 48.9669 40.0835 49.0035C40.1347 49.9023 40.4416 50.465 40.9459 50.5454C40.9751 50.5527 41.0189 50.56 41.0701 50.56C41.5305 50.56 41.969 50.1216 42.2978 49.3469C42.4805 49.3981 42.6559 49.4565 42.8313 49.5223L43.0725 49.6027C42.9628 50.5016 43.1748 51.1081 43.6498 51.2762C43.7302 51.3054 43.8105 51.32 43.8982 51.32C44.3221 51.32 44.7825 50.962 45.199 50.3116C45.3963 50.4066 45.5863 50.5162 45.7617 50.6185L45.9737 50.7354C45.6887 51.6562 45.7617 52.2189 46.1856 52.4601C46.5875 52.7085 47.2379 52.4601 47.8591 51.7951C48.1003 51.9631 48.3341 52.1458 48.5606 52.3212C48.1222 53.1762 48.0929 53.7462 48.4656 54.0605C48.8237 54.3601 49.4084 54.2359 50.1611 53.6586C50.3949 53.8851 50.6214 54.1043 50.8407 54.3382C50.2561 55.1055 50.1245 55.6609 50.4388 56.0336C50.7457 56.399 51.3157 56.3771 52.178 55.9386L52.2365 56.019C52.4046 56.2309 52.5653 56.4355 52.7115 56.6475C52.0392 57.2613 51.7907 57.8825 52.0392 58.321C52.273 58.7375 52.8284 58.8106 53.7638 58.5329C53.7784 58.5621 53.7931 58.5913 53.8077 58.6133L53.8807 58.7448C53.9904 58.9421 54.0927 59.1248 54.1877 59.3002C53.3911 59.8045 53.0403 60.3672 53.2157 60.8495C53.3838 61.3099 54.005 61.5218 54.8892 61.4268C54.8892 61.4487 54.9038 61.4633 54.9112 61.4852L54.9477 61.5949C55.0135 61.7922 55.0865 61.9968 55.145 62.2014C54.29 62.5595 53.8515 63.0418 53.9392 63.5534C54.0269 64.0503 54.5823 64.3572 55.4885 64.4084C55.5177 64.6642 55.5542 64.9346 55.5762 65.2196C54.6919 65.4242 54.1877 65.8261 54.1877 66.3377C54.1877 66.8492 54.6992 67.2438 55.5762 67.4485C55.5542 67.7261 55.525 67.9966 55.4885 68.2596C54.7577 68.3035 54.2461 68.5154 54.0415 68.8662C53.9904 68.9539 53.9611 69.0343 53.9465 69.1146C53.8588 69.6116 54.3046 70.1085 55.1523 70.4666C55.1012 70.6493 55.0354 70.832 54.9696 71.022L54.955 71.0585C54.9331 71.117 54.9185 71.1754 54.8965 71.2339C54.0269 71.1316 53.3838 71.3508 53.223 71.8039C53.0477 72.2935 53.3984 72.849 54.195 73.3532C54.1 73.5432 53.9904 73.7405 53.8807 73.9305C53.8442 73.9963 53.8077 74.0621 53.7711 74.1278C52.8577 73.8501 52.2876 73.9232 52.0465 74.3324C51.7907 74.7782 52.0319 75.3848 52.7115 76.0132C52.558 76.2325 52.39 76.4517 52.2219 76.6637L52.178 76.7148C51.323 76.269 50.7457 76.2471 50.4461 76.6198C50.1391 76.9925 50.2707 77.5625 50.848 78.3152C50.6215 78.5491 50.4022 78.7756 50.1684 78.9949C49.401 78.4102 48.831 78.286 48.4656 78.5929C48.0929 78.9071 48.1222 79.4698 48.5606 80.3249L48.5387 80.3395C48.2976 80.5295 48.0783 80.6976 47.8518 80.8583C47.2379 80.1933 46.6094 79.9449 46.171 80.1933C45.7544 80.4345 45.6887 81.0118 45.9664 81.9107H45.9444C45.8787 81.9545 45.8129 81.9911 45.7471 82.0276C45.5571 82.1372 45.3671 82.2395 45.1844 82.3345C44.6948 81.5526 44.1175 81.1945 43.6352 81.3626C43.1602 81.538 42.9482 82.1445 43.0578 83.0361L42.7948 83.1238C42.6194 83.1822 42.4586 83.2407 42.2905 83.2846C41.969 82.5099 41.5232 82.0641 41.0628 82.0641C41.0189 82.0641 40.9751 82.0641 40.9239 82.0787C40.4343 82.1664 40.1274 82.7218 40.0762 83.6207C39.8132 83.6499 39.5428 83.6792 39.2651 83.7084C39.0604 82.8388 38.6512 82.3199 38.1543 82.3199C37.6573 82.3199 37.2481 82.8242 37.0362 83.7084C36.7585 83.6865 36.4808 83.6572 36.225 83.6207C36.1738 82.7218 35.8669 82.1665 35.37 82.0715C35.3334 82.0641 35.2896 82.0568 35.2457 82.0568C34.7927 82.0568 34.3469 82.5099 34.0253 83.2699C33.85 83.2188 33.6819 83.1603 33.5065 83.1019L33.258 83.0142C33.3603 82.1299 33.1484 81.5087 32.6807 81.3407C32.1692 81.1726 31.6211 81.538 31.1314 82.3126C30.9561 82.2249 30.788 82.1299 30.6053 82.0203L30.3568 81.8814C30.6345 80.9826 30.5614 80.4053 30.1522 80.1641C29.721 79.9156 29.0852 80.1641 28.4714 80.8291C28.2448 80.6683 28.0183 80.4929 27.7991 80.3249L27.7625 80.2957C28.201 79.4406 28.2302 78.8706 27.8575 78.5637C27.5067 78.2641 26.9294 78.381 26.1621 78.9656C25.9283 78.7464 25.7017 78.5198 25.4825 78.286C26.0671 77.5187 26.1986 76.9633 25.8844 76.5906C25.5775 76.2179 25.0002 76.2471 24.1451 76.6856C23.9697 76.459 23.7797 76.2179 23.6117 75.9767C24.284 75.3555 24.5325 74.7417 24.2767 74.2959C24.0355 73.8867 23.4655 73.8136 22.552 74.0913C22.4278 73.872 22.267 73.5943 22.1282 73.3166C22.9247 72.8124 23.2755 72.2497 23.1001 71.7674C22.932 71.307 22.2962 71.0878 21.4266 71.1901C21.4047 71.1389 21.3901 71.0878 21.3755 71.0366L21.3608 71.0001C21.2951 70.8028 21.2293 70.6127 21.1708 70.4154C22.0186 70.0573 22.4643 69.5604 22.3766 69.0635C22.2889 68.5665 21.7262 68.2523 20.8274 68.2085C20.7908 67.9162 20.7616 67.6531 20.7397 67.3973C21.4705 67.2292 21.9455 66.915 22.0843 66.5204C22.1136 66.44 22.1282 66.3669 22.1282 66.2865C22.1282 65.775 21.6239 65.373 20.7397 65.1684V65.2269ZM28.3325 67.0319C28.6906 72.162 32.9949 76.1886 38.147 76.1886C42.7071 76.1886 46.7483 72.9586 47.7422 68.5154C47.9029 67.7992 47.9833 67.0758 47.9833 66.3523C47.9833 60.9299 43.5694 56.5086 38.1397 56.5086C32.7099 56.5086 28.296 60.9225 28.296 66.3523C28.296 66.5861 28.3033 66.8127 28.3252 67.0392L28.3325 67.0319Z" fill="#003771"/>
<path d="M108.778 63.0953C110.378 63.2561 111.584 64.4984 111.701 66.0988C111.752 66.7931 111.584 67.4508 111.255 67.9989C110.685 68.9635 109.64 69.6066 108.442 69.6066C107.068 69.6066 105.891 68.7516 105.409 67.5531C105.263 67.1804 105.175 66.7712 105.175 66.34C105.175 64.4254 106.819 62.898 108.778 63.088V63.0953Z" fill="#003771"/>
<path d="M101.514 60.8151C103.641 58.1623 107.251 56.7519 111.095 57.8627C113.579 58.5862 115.618 60.4205 116.597 62.8101C117.401 64.7832 117.474 66.7052 117.058 68.4372C116.115 72.3176 112.615 75.2042 108.442 75.2042C103.809 75.2042 100.001 71.6453 99.6139 67.1071C99.592 66.8514 99.5774 66.5956 99.5774 66.3398C99.5774 64.3448 100.235 62.5032 101.353 61.0197C101.404 60.9466 101.463 60.8809 101.521 60.8078L101.514 60.8151ZM103.904 62.9563C103.436 62.1013 102.245 62.4155 102.267 63.3948C102.267 63.4825 102.296 63.5701 102.332 63.6432C102.8 64.4982 103.991 64.184 103.969 63.2048C103.969 63.1171 103.94 63.0294 103.904 62.9563ZM104.569 60.7055C104.525 60.7785 104.503 60.8736 104.503 60.9539C104.481 61.9332 105.672 62.2474 106.14 61.3924C106.184 61.3193 106.206 61.2243 106.206 61.1439C106.228 60.1647 105.036 59.8431 104.569 60.7055ZM109.107 59.7116C109.063 59.6385 108.997 59.5728 108.924 59.5289C108.091 59.0174 107.214 59.8943 107.726 60.7274C107.769 60.8005 107.835 60.8663 107.908 60.9101C108.741 61.4217 109.618 60.5447 109.107 59.7116ZM112.264 60.6835C111.796 59.8285 110.605 60.1428 110.627 61.122C110.627 61.2097 110.656 61.2974 110.693 61.3705C111.16 62.2255 112.351 61.9113 112.33 60.932C112.33 60.8443 112.3 60.7566 112.264 60.6835ZM115.253 65.8137C115.209 65.7406 115.143 65.6748 115.07 65.631C114.237 65.1194 113.36 65.9963 113.872 66.8294C113.915 66.9025 113.981 66.9683 114.054 67.0121C114.887 67.5237 115.764 66.6468 115.253 65.8137ZM112.965 69.7307C113.433 70.5857 114.624 70.2714 114.602 69.2922C114.602 69.2045 114.573 69.1168 114.537 69.0437C114.069 68.1887 112.878 68.5029 112.9 69.4822C112.9 69.5699 112.929 69.6576 112.965 69.7307ZM114.515 63.6067C114.558 63.5336 114.58 63.4386 114.58 63.3582C114.602 62.379 113.411 62.0647 112.943 62.9198C112.9 62.9928 112.878 63.0878 112.878 63.1682C112.856 64.1475 114.047 64.4617 114.515 63.6067ZM112.3 71.9815C112.344 71.9084 112.366 71.8207 112.366 71.733C112.388 70.7538 111.197 70.4395 110.729 71.2945C110.685 71.3676 110.663 71.4626 110.663 71.543C110.641 72.5223 111.833 72.8365 112.3 71.9815ZM107.762 72.9753C107.806 73.0484 107.872 73.1142 107.945 73.158C108.778 73.6696 109.655 72.7927 109.143 71.9596C109.099 71.8865 109.034 71.8207 108.961 71.7769C108.128 71.2653 107.251 72.1422 107.762 72.9753ZM104.598 72.0034C105.066 72.8584 106.257 72.5442 106.235 71.5649C106.235 71.4772 106.206 71.3895 106.169 71.3165C105.701 70.4614 104.51 70.7757 104.532 71.7549C104.532 71.8426 104.561 71.9303 104.598 72.0034ZM104.62 67.4945C105.117 69.1314 106.629 70.3226 108.427 70.3226C110.013 70.3226 111.372 69.3945 112.015 68.0572C112.505 67.0341 112.585 65.7698 111.964 64.469C111.577 63.6652 110.897 63.022 110.071 62.6932C107.192 61.5239 104.444 63.614 104.444 66.3471C104.444 66.749 104.503 67.1364 104.612 67.5018L104.62 67.4945ZM103.918 69.7745C103.962 69.7014 103.984 69.6137 103.984 69.526C104.006 68.5468 102.815 68.2325 102.347 69.0876C102.303 69.1606 102.281 69.2557 102.281 69.336C102.259 70.3153 103.451 70.6368 103.918 69.7745ZM102.807 67.0633C102.881 67.0194 102.946 66.9537 102.99 66.8806C103.502 66.0475 102.625 65.1706 101.792 65.6821C101.719 65.726 101.653 65.7917 101.609 65.8648C101.097 66.6979 101.974 67.5748 102.807 67.0633Z" fill="#003771"/>
<path d="M91.0332 65.2269C91.0551 64.9492 91.0843 64.6788 91.1209 64.4157C92.0343 64.3572 92.5824 64.0576 92.6701 63.5607C92.7578 63.0564 92.3193 62.5668 91.4643 62.2087C91.5228 62.0041 91.5886 61.7995 91.6689 61.5876L91.7055 61.478C91.7055 61.478 91.7128 61.4487 91.7201 61.4341C92.4947 61.5218 93.0647 61.3683 93.3059 61.0249C93.3424 60.9737 93.3717 60.9225 93.3936 60.8641C93.569 60.3891 93.2109 59.8191 92.4217 59.3148C92.5093 59.1321 92.6117 58.9567 92.7286 58.7521L92.787 58.6498C92.787 58.6498 92.8309 58.5767 92.8455 58.5402C93.759 58.8179 94.329 58.7448 94.5702 58.3356C94.8259 57.8971 94.5702 57.2759 93.9051 56.6548C94.0659 56.4209 94.234 56.2017 94.4021 55.9898L94.4313 55.9459C95.2863 56.3917 95.8636 56.4136 96.1706 56.0409C96.4848 55.6682 96.3533 55.1128 95.7686 54.3455C95.9879 54.1116 96.2144 53.8924 96.4483 53.6659C97.2083 54.2432 97.7929 54.3674 98.1437 54.0605C98.5164 53.7535 98.4872 53.1835 98.0487 52.3285L98.0779 52.3066C98.3118 52.1239 98.531 51.9558 98.7575 51.7951C99.386 52.4674 100.015 52.7158 100.438 52.4601C100.84 52.2262 100.913 51.6854 100.665 50.8158C100.658 50.7866 100.65 50.7646 100.643 50.7354L100.862 50.6112C101.067 50.4942 101.242 50.392 101.418 50.3043C101.907 51.0789 102.499 51.4443 102.967 51.2689C103.442 51.1008 103.646 50.4943 103.544 49.5954L103.807 49.5077C103.975 49.4492 104.143 49.3908 104.319 49.3469C104.684 50.2239 105.196 50.6696 105.685 50.5454C106.16 50.465 106.475 49.895 106.526 49.0035C106.796 48.9669 107.067 48.9377 107.337 48.9158C107.542 49.8 107.944 50.3043 108.455 50.3043C108.967 50.3043 109.361 49.7854 109.566 48.9158C109.836 48.9377 110.107 48.9669 110.377 49.0035C110.428 49.9023 110.735 50.465 111.239 50.5454C111.269 50.5527 111.312 50.56 111.364 50.56C111.824 50.56 112.262 50.1216 112.591 49.3469C112.774 49.3981 112.949 49.4565 113.125 49.5223L113.366 49.6027C113.256 50.5016 113.468 51.1081 113.943 51.2762C114.024 51.3054 114.104 51.32 114.192 51.32C114.616 51.32 115.076 50.962 115.493 50.3116C115.69 50.4066 115.88 50.5162 116.055 50.6185L116.267 50.7354C115.982 51.6562 116.055 52.2189 116.479 52.4601C116.881 52.7085 117.531 52.4601 118.153 51.7951C118.394 51.9631 118.628 52.1458 118.854 52.3212C118.416 53.1762 118.386 53.7462 118.759 54.0605C119.117 54.3601 119.702 54.2359 120.462 53.6586C120.696 53.8851 120.922 54.1043 121.141 54.3382C120.557 55.1055 120.425 55.6609 120.74 56.0336C121.046 56.399 121.616 56.3771 122.479 55.9386L122.537 56.019C122.705 56.2309 122.866 56.4355 123.012 56.6475C122.347 57.2613 122.091 57.8825 122.34 58.321C122.574 58.7375 123.129 58.8106 124.065 58.5329C124.079 58.5621 124.094 58.5913 124.108 58.6133L124.182 58.7448C124.291 58.9421 124.393 59.1248 124.488 59.3002C123.692 59.8045 123.341 60.3672 123.517 60.8495C123.685 61.3099 124.306 61.5218 125.19 61.4268C125.19 61.4487 125.205 61.4633 125.212 61.4852L125.248 61.5949C125.314 61.7922 125.387 61.9968 125.446 62.2014C124.591 62.5595 124.152 63.0418 124.24 63.5534C124.328 64.0503 124.883 64.3572 125.789 64.4084C125.818 64.6642 125.855 64.9346 125.877 65.2196C124.993 65.4242 124.488 65.8261 124.488 66.3377C124.488 66.8492 125 67.2438 125.877 67.4485C125.855 67.7261 125.826 67.9966 125.789 68.2596C125.058 68.3035 124.547 68.5154 124.342 68.8662C124.291 68.9539 124.262 69.0343 124.247 69.1146C124.16 69.6116 124.605 70.1085 125.453 70.4666C125.402 70.6493 125.336 70.832 125.27 71.022L125.256 71.0585C125.234 71.117 125.219 71.1754 125.197 71.2339C124.328 71.1316 123.685 71.3508 123.524 71.8039C123.348 72.2935 123.699 72.849 124.496 73.3532C124.401 73.5432 124.291 73.7405 124.182 73.9305C124.145 73.9963 124.108 74.0621 124.072 74.1278C123.158 73.8501 122.588 73.9232 122.347 74.3324C122.091 74.7782 122.333 75.3848 123.012 76.0132C122.859 76.2325 122.691 76.4517 122.523 76.6637L122.479 76.7148C121.624 76.269 121.046 76.2471 120.747 76.6198C120.44 76.9925 120.571 77.5625 121.149 78.3152C120.922 78.5491 120.703 78.7756 120.469 78.9949C119.702 78.4102 119.132 78.286 118.766 78.5929C118.394 78.9071 118.423 79.4698 118.861 80.3249L118.84 80.3395C118.598 80.5295 118.379 80.6976 118.153 80.8583C117.539 80.1933 116.91 79.9449 116.472 80.1933C116.055 80.4345 115.989 81.0118 116.267 81.9107H116.245C116.179 81.9545 116.114 81.9911 116.048 82.0276C115.858 82.1372 115.668 82.2395 115.485 82.3345C114.996 81.5526 114.418 81.1945 113.936 81.3626C113.461 81.538 113.249 82.1445 113.359 83.0361L113.096 83.1238C112.92 83.1822 112.759 83.2407 112.591 83.2846C112.27 82.5099 111.824 82.0641 111.364 82.0641C111.32 82.0641 111.276 82.0641 111.225 82.0787C110.735 82.1664 110.428 82.7218 110.377 83.6207C110.114 83.6499 109.844 83.6792 109.566 83.7084C109.361 82.8388 108.952 82.3199 108.455 82.3199C107.958 82.3199 107.549 82.8242 107.337 83.7084C107.059 83.6865 106.782 83.6572 106.526 83.6207C106.475 82.7218 106.168 82.1665 105.671 82.0715C105.634 82.0641 105.59 82.0568 105.547 82.0568C105.093 82.0568 104.648 82.5099 104.326 83.2699C104.151 83.2188 103.983 83.1603 103.807 83.1019L103.559 83.0142C103.661 82.1299 103.449 81.5087 102.981 81.3407C102.47 81.1726 101.922 81.538 101.432 82.3126C101.257 82.2249 101.089 82.1299 100.906 82.0203L100.658 81.8814C100.935 80.9826 100.862 80.4053 100.453 80.1641C100.022 79.9156 99.386 80.1641 98.7722 80.8291C98.5456 80.6683 98.3191 80.4929 98.0998 80.3249L98.0633 80.2957C98.5018 79.4406 98.531 78.8706 98.1583 78.5637C97.8075 78.2641 97.2302 78.381 96.4629 78.9656C96.229 78.7464 96.0025 78.5198 95.7833 78.286C96.3679 77.5187 96.4994 76.9633 96.1852 76.5906C95.8783 76.2179 95.3009 76.2471 94.4459 76.6856C94.2705 76.459 94.0805 76.2179 93.9125 75.9767C94.5848 75.3555 94.8332 74.7417 94.5775 74.2959C94.3363 73.8867 93.7663 73.8136 92.8528 74.0913C92.7286 73.872 92.5678 73.5943 92.429 73.3166C93.2255 72.8124 93.5763 72.2497 93.4009 71.7674C93.2328 71.307 92.5897 71.0878 91.7274 71.1901C91.7055 71.1389 91.6909 71.0878 91.6762 71.0366L91.6616 71.0001C91.5959 70.8028 91.5301 70.6127 91.4716 70.4154C92.3193 70.0573 92.7651 69.5604 92.6774 69.0635C92.5897 68.5665 92.027 68.2523 91.1282 68.2085C91.0916 67.9162 91.0624 67.6531 91.0405 67.3973C91.7713 67.2292 92.2463 66.915 92.3851 66.5204C92.4143 66.44 92.429 66.3669 92.429 66.2865C92.429 65.775 91.9247 65.373 91.0405 65.1684L91.0332 65.2269ZM98.626 67.0319C98.9841 72.162 103.288 76.1886 108.44 76.1886C113.001 76.1886 117.042 72.9586 118.036 68.5154C118.196 67.7992 118.277 67.0758 118.277 66.3523C118.277 60.9299 113.863 56.5086 108.433 56.5086C105.737 56.5086 103.288 57.5975 101.505 59.366C101.001 59.8702 100.548 60.4256 100.153 61.0322C99.1668 62.5668 98.5895 64.3938 98.5895 66.3523C98.5895 66.5861 98.5968 66.8127 98.6187 67.0392L98.626 67.0319Z" fill="#003771"/>
<path d="M28.2526 46.3249L48.6342 46.2007V48.1957C48.6342 48.9192 49.0361 49.5184 49.3576 50.1688C50.3076 52.0616 51.9812 53.0774 53.4866 53.1797H75.812L84.0991 50.9142V59.9029V62.8918C84.0991 66.173 81.4391 68.8331 78.1578 68.8331H55.1308C55.3647 68.7454 55.6789 68.6869 56.0443 68.6796H56.2051L56.227 68.5188C56.2709 68.1461 56.322 67.7515 56.3439 67.3496V67.1888L56.1905 67.1596C55.4158 67.0061 54.9116 66.6919 54.9116 66.3557C54.9116 66.0195 55.4012 65.698 56.1905 65.5445L56.3512 65.5153V65.3545C56.3147 64.9453 56.2635 64.536 56.2197 64.1853L56.1978 64.0245H56.037C55.2404 64.0026 54.707 63.7833 54.6485 63.4472C54.59 63.1037 55.0285 62.7091 55.8032 62.4168L55.9639 62.3583L55.9201 62.1975C55.847 61.9198 55.752 61.6494 55.6643 61.3937L55.6278 61.2768C55.6058 61.211 55.5839 61.1452 55.562 61.0794L55.5108 60.926L55.3501 60.9479C54.5827 61.0575 53.9908 60.926 53.8812 60.619C53.7643 60.2975 54.1443 59.8152 54.8604 59.3913L55.0066 59.3036L54.9335 59.1502C54.8166 58.9017 54.6851 58.6605 54.5389 58.4121L54.4585 58.2659C54.4147 58.1928 54.3781 58.1271 54.3416 58.054L54.2685 57.9152L54.1223 57.9663C53.7204 58.0978 53.3843 58.1636 53.1358 58.1636C52.7631 58.1636 52.6754 58.0174 52.6535 57.9663C52.4854 57.6667 52.7704 57.1332 53.3843 56.607L53.5085 56.4974L53.4208 56.3586C53.2381 56.0809 53.0408 55.8251 52.8289 55.5547L52.5731 55.2259L52.4342 55.2989C51.6961 55.7009 51.1846 55.8032 50.98 55.562C50.7827 55.3209 50.9654 54.8312 51.4988 54.1662L51.6011 54.042L51.4915 53.9251C51.1919 53.6035 50.885 53.2966 50.5561 52.9897L50.4392 52.88L50.315 52.9824C49.7011 53.472 49.343 53.5743 49.153 53.5743C49.058 53.5743 48.9776 53.5524 48.9192 53.4939C48.6853 53.2966 48.7803 52.785 49.1822 52.0396L49.2553 51.9008L48.9996 51.7035C48.7219 51.4843 48.4295 51.2577 48.1226 51.0531L47.9838 50.9581L47.8741 51.0823C47.3553 51.6889 46.8072 51.9885 46.5222 51.8131C46.2518 51.6596 46.2518 51.1408 46.5222 50.3369L46.5733 50.1908L46.091 49.9204C45.8572 49.7888 45.6014 49.6427 45.3383 49.5184L45.1849 49.4454L45.0972 49.5915C44.6806 50.3004 44.1983 50.695 43.8767 50.5708C43.5552 50.4538 43.431 49.8911 43.5479 49.1019L43.5698 48.9484L43.029 48.773C42.7952 48.6926 42.5467 48.6123 42.2983 48.5465L42.1375 48.5026L42.079 48.6561C41.8086 49.3723 41.4359 49.8181 41.1144 49.8181C41.0925 49.8181 41.0778 49.8181 41.0632 49.8181C40.7125 49.7596 40.4932 49.2261 40.4713 48.4369V48.2761L40.3105 48.2542C39.9159 48.203 39.5286 48.1592 39.1413 48.1373H38.9805L38.9513 48.2907C38.7978 49.0653 38.4836 49.5696 38.1401 49.5696C37.7966 49.5696 37.4824 49.08 37.3289 48.2907L37.2997 48.1299H37.1389C36.7516 48.1592 36.3643 48.2103 35.9697 48.2615L35.8089 48.2834V48.4442C35.787 49.2261 35.5604 49.7669 35.2316 49.8254C35.195 49.8327 35.1658 49.84 35.1439 49.84C34.8369 49.84 34.4643 49.3796 34.2012 48.6707L34.1427 48.5173L33.9819 48.5611C33.7408 48.6196 33.5069 48.7 33.2731 48.7804L32.7104 48.9703L32.7323 49.1238C32.8565 49.9131 32.7323 50.4685 32.4034 50.5854C32.0673 50.7096 31.585 50.3077 31.1757 49.6134L31.088 49.4673L30.9346 49.5404C30.6861 49.6573 30.4596 49.7815 30.1892 49.935L29.6995 50.2054L29.7507 50.3515C30.0138 51.1481 30.0138 51.667 29.7507 51.8204C29.4438 52.0031 28.9176 51.6962 28.3914 51.0896L28.2818 50.9654L28.143 51.0604C27.8506 51.2577 27.5803 51.4696 27.2953 51.6889L27.0176 51.9008L27.0906 52.0396C27.4926 52.7777 27.5876 53.2966 27.3537 53.4939C27.2879 53.5451 27.2149 53.5743 27.1199 53.5743C26.9299 53.5743 26.5718 53.472 25.9579 52.9824L25.8337 52.88L25.7168 52.9897C25.3879 53.2966 25.081 53.6035 24.7814 53.9251L24.6717 54.042L24.774 54.1662C25.3002 54.8312 25.4829 55.3282 25.2856 55.562C25.081 55.8032 24.5694 55.7082 23.8313 55.2989L23.6925 55.2186L23.4659 55.5109C23.2686 55.7666 23.0494 56.0516 22.8448 56.3513L22.7498 56.4901L22.874 56.5997C23.4879 57.1259 23.7729 57.6594 23.6048 57.959C23.5756 58.0028 23.4952 58.149 23.1152 58.149C22.8594 58.149 22.5305 58.0832 22.1359 57.9517L21.9898 57.9005L21.9167 58.0394C21.8728 58.1198 21.829 58.2002 21.7851 58.2805L21.7267 58.3828C21.5951 58.624 21.4709 58.8359 21.3613 59.0625H19.8193L20.6232 52.997C21.1347 49.175 24.394 46.3249 28.2453 46.3249H28.2526ZM60.4144 68.3727H62.0879V66.4507H68.7819V68.3727H70.4554V53.7351H68.7819V55.657H62.0879V53.7351H60.4144V68.3727Z" fill="#003771"/>
<path d="M1.44715 51.8384H20.2429L19.271 59.0512H0.000198776V53.2853C0.000198776 52.4815 0.650594 51.8384 1.44715 51.8384V51.8384Z" fill="#003771"/>
<path d="M15.3916 41.9298V42.4559V51.4665H4.04257L5.92069 31.7646C6.05223 30.3615 7.2361 29.2872 8.64651 29.2872H26.2219V28.3445C26.2219 27.3798 27.0038 26.6052 27.9611 26.6052H32.5359C33.5005 26.6052 34.2751 27.3871 34.2751 28.3445V29.2872H48.6423V34.0008H15.399V41.9298H15.3916Z" fill="#003771"/>
<path d="M20.2952 51.4669H15.9251V42.4563H38.1263V44.2906H47.6631C48.0066 44.2906 48.3427 44.4148 48.6423 44.6487V45.7448L29.2985 45.7229C24.9138 45.7229 21.6033 47.6814 20.3025 51.4669H20.2952Z" fill="#003771"/>
<path d="M47.4 40.6014V39.7244H46.0188V40.6014H45.1784V39.7244H43.9653V40.6014H43.1249V39.7244H41.9118V40.6014H41.0714V39.7244H39.8583V40.6014H39.0179V39.7244H37.8048V40.996H38.1263V41.9314H15.9251V34.5286H48.6423V40.7329C48.3208 40.6452 47.9992 40.6014 47.6631 40.6014H47.4ZM18.4902 35.464H17.109V36.7355H18.4902V35.464ZM18.4902 37.5832H17.109V38.884H18.4902V37.5832ZM18.4902 39.7317H17.109V41.0033H18.4902V39.7317ZM20.5437 35.4713H19.3306V36.7428H20.5437V35.4713ZM20.5437 37.5906H19.3306V38.8913H20.5437V37.5906ZM20.5437 39.7391H19.3306V41.0106H20.5437V39.7391ZM22.5972 35.4786H21.3841V36.7501H22.5972V35.4786ZM22.5972 37.5978H21.3841V38.8986H22.5972V37.5978ZM22.5972 39.7464H21.3841V41.0179H22.5972V39.7464ZM24.6507 35.4859H23.4376V36.7574H24.6507V35.4859ZM24.6507 37.6052H23.4376V38.906H24.6507V37.6052ZM24.6507 39.7537H23.4376V41.0252H24.6507V39.7537ZM26.7042 35.4932H25.4911V36.7648H26.7042V35.4932ZM26.7042 37.6125H25.4911V38.9133H26.7042V37.6125ZM26.7042 39.761H25.4911V41.0325H26.7042V39.761ZM28.7577 35.5005H27.5446V36.7721H28.7577V35.5005ZM28.7577 37.6198H27.5446V38.9206H28.7577V37.6198ZM28.7577 39.7683H27.5446V41.0399H28.7577V39.7683ZM30.8112 35.5078H29.5981V36.7794H30.8112V35.5078ZM30.8112 37.6271H29.5981V38.9279H30.8112V37.6271ZM30.8112 39.7756H29.5981V41.0471H30.8112V39.7756ZM32.8647 35.5151H31.6516V36.7867H32.8647V35.5151ZM32.8647 37.6344H31.6516V38.9352H32.8647V37.6344ZM32.8647 39.7829H31.6516V41.0545H32.8647V39.7829ZM34.9182 35.5224H33.7051V36.794H34.9182V35.5224ZM34.9182 37.6417H33.7051V38.9425H34.9182V37.6417ZM34.9182 39.7902H33.7051V41.0618H34.9182V39.7902ZM36.9717 35.5297H35.7586V36.8013H36.9717V35.5297ZM36.9717 37.649H35.7586V38.9498H36.9717V37.649ZM36.9717 39.7975H35.7586V41.0691H36.9717V39.7975ZM39.0252 35.5371H37.8121V36.8086H39.0252V35.5371ZM39.0252 37.6563H37.8121V38.9571H39.0252V37.6563ZM41.0787 35.5371H39.8656V36.8086H41.0787V35.5371ZM41.0787 37.6563H39.8656V38.9571H41.0787V37.6563ZM43.1322 35.5371H41.9191V36.8086H43.1322V35.5371ZM43.1322 37.6563H41.9191V38.9571H43.1322V37.6563ZM45.1857 35.5371H43.9726V36.8086H45.1857V35.5371ZM45.1857 37.6563H43.9726V38.9571H45.1857V37.6563ZM47.4146 35.5371H46.0334V36.8086H47.4146V35.5371ZM47.4146 37.6563H46.0334V38.9571H47.4146V37.6563Z" fill="#003771"/>
<path d="M41.6407 25.8389H48.6343V28.7401H39.8064L41.6407 25.8389Z" fill="#003771"/>
<path d="M38.681 43.7357V41.1633H47.6551C48.8462 41.1633 50.0082 41.8357 50.8267 43.0122L53.969 47.4992C54.4952 48.2446 55.2406 48.6758 56.0298 48.6758H71.5298V51.2482H56.0298C54.7729 51.2482 53.5598 50.5393 52.6902 49.3043L49.5478 44.8173C49.0655 44.1303 48.3785 43.7357 47.6551 43.7357H38.681V43.7357Z" fill="#003771"/>
<path d="M85.0496 39.4097C85.0642 39.227 85.0715 39.0443 85.0496 38.8616L83.6757 24.4213C83.5661 23.3032 83.3395 22.1924 82.9888 21.1255L79.481 10.4268C79.1448 9.39636 78.2679 8.65828 77.2375 8.46827H71.8881C70.5362 8.72405 69.5131 9.91522 69.5131 11.3403V40.8055C69.5131 41.317 69.4692 41.7847 69.6885 42.2013H65.428V35.9677C65.428 34.6961 64.1418 33.6584 62.556 33.6584H56.8047C55.2189 33.6584 53.9328 34.6888 53.9328 35.9677V39.015V39.6143C53.9328 40.0162 54.0643 40.4108 54.3128 40.7543L55.3286 42.1866H50.8927C50.6004 41.8578 50.2788 41.5728 49.9427 41.3389V25.8317L53.7939 9.92984C53.8816 9.40368 54.0424 8.91404 54.2689 8.45364H53.5966V6.3563C53.5966 5.47936 54.3055 4.77051 55.1824 4.77051H87.4612V8.45364V9.29406C87.4612 10.1052 86.8034 10.7629 85.9923 10.7629H83.4784L86.0434 18.8893C86.9569 21.7759 87.5635 24.7575 87.8485 27.7683L89.0835 40.6228H84.9107C85.0423 40.0308 85.0057 39.8335 85.0423 39.3951L85.0496 39.4097ZM65.4426 13.0649V12.4657C65.4426 10.4414 64.3757 8.7679 62.9799 8.46827H58.3102C57.0678 8.73866 56.074 10.1052 55.884 11.881L54.2689 27.286C54.2397 27.6002 54.2324 27.9071 54.247 28.2068C54.3712 30.253 55.599 31.9191 57.1482 31.9191H62.5195C64.1272 31.9191 65.4353 30.1068 65.4353 27.8706V13.0722L65.4426 13.0649Z" fill="#003771"/>
<path d="M91.8096 50.9197L90.9253 51.8405H86.146V55.3848H92.4381L96.7424 50.9197H100.097V51.4166C100.097 51.6212 100.046 51.7893 99.914 51.8624C99.6582 52.0159 99.2563 51.8185 98.8397 51.4166C98.7886 51.3728 98.7447 51.3216 98.6936 51.2705L98.4743 51.0293L98.2113 51.2193C98.1236 51.2851 98.0359 51.3508 97.9482 51.4166C97.802 51.5262 97.6632 51.6285 97.517 51.7382L97.2759 51.9282L97.3928 52.2205C97.6266 52.6809 97.8532 53.2728 97.5828 53.4993C97.5462 53.5359 97.4805 53.5724 97.3635 53.5724C97.2247 53.5724 96.9031 53.5067 96.3478 53.0901L96.092 52.9001L95.8654 53.1193C95.6243 53.3459 95.3977 53.5724 95.1712 53.8136L94.952 54.0401L95.142 54.2886C95.4562 54.6978 95.7777 55.2532 95.5512 55.5236C95.5 55.5821 95.427 55.6479 95.237 55.6479C95.0689 55.6479 94.7693 55.5967 94.2723 55.3336L93.9946 55.1875L93.7681 55.4725C93.5927 55.699 93.4173 55.9256 93.2565 56.1594L93.0665 56.4298L93.3077 56.649C93.8192 57.124 94.0531 57.5991 93.9069 57.8694C93.8777 57.9206 93.7973 58.0521 93.4392 58.0521C93.22 58.0521 92.9423 58.001 92.6134 57.906L92.3284 57.8183L92.0654 58.286C91.9411 58.4979 91.8388 58.6879 91.7511 58.8706L91.5977 59.1702L91.8827 59.3529C92.4307 59.7037 92.745 60.091 92.7231 60.376H84.9183V50.9197H91.8242H91.8096Z" fill="#003771"/>
<path d="M124.014 32.5551C123.883 33.1397 123.371 33.5563 122.772 33.5709H122.75C122.501 33.5782 122.26 33.5124 122.056 33.3955C122.019 33.3736 121.99 33.3517 121.961 33.3297C121.683 33.1324 121.478 32.8328 121.42 32.4747L121.369 32.1532L121.171 30.9401L98.8239 35.6829L98.1808 32.7817C97.8301 31.2178 96.3831 30.0851 94.6877 30.0339C94.7535 30.012 94.8119 29.9828 94.8777 29.9608L122.406 21.206C124.058 20.6799 125.856 20.9576 127.273 21.9514L141.641 32.0509C143 33.0009 143.373 34.8498 142.503 36.2602L142.474 36.3114C141.648 37.6487 139.96 38.1676 138.527 37.5245L124.321 31.1812L124.007 32.5478L124.014 32.5551ZM123.539 31.9705C123.444 31.532 123.013 31.247 122.574 31.342C122.319 31.3932 122.129 31.5612 122.019 31.7732C122.004 31.8024 121.99 31.8243 121.982 31.8536C121.931 31.9924 121.917 32.1459 121.946 32.3067C122.019 32.6501 122.304 32.8986 122.633 32.9424C122.721 32.9571 122.816 32.957 122.911 32.9351C122.925 32.9351 122.94 32.9278 122.954 32.9205C123.371 32.8109 123.627 32.3944 123.539 31.9705ZM138.929 35.1494C139.061 35.7633 139.66 36.1579 140.274 36.0263C140.34 36.0117 140.406 35.9898 140.471 35.9606C140.968 35.756 141.268 35.2225 141.151 34.6744C141.019 34.0605 140.42 33.6659 139.806 33.7975C139.507 33.8632 139.258 34.0386 139.097 34.2798C138.937 34.5282 138.864 34.8352 138.929 35.1421V35.1494Z" fill="#003771"/>
<path d="M90.7416 30.4561H94.0593C94.0959 30.4561 94.1397 30.4561 94.1763 30.4561C95.8717 30.5072 97.3186 31.6326 97.6694 33.2038L98.3125 36.105L100.271 44.8964H97.2894L92.912 49.4418H90.7416V30.4561V30.4561ZM94.1982 35.06C94.9217 35.06 95.5063 34.4754 95.5063 33.7519C95.5063 33.0284 94.9217 32.4438 94.1982 32.4438C93.4747 32.4438 92.8901 33.0284 92.8901 33.7519C92.8901 34.4754 93.4747 35.06 94.1982 35.06Z" fill="#003771"/>
<path d="M108.521 45.3145C108.521 45.3145 108.507 45.3145 108.499 45.3145H105.321H103.64H102.799L110.378 39.4974C110.392 39.4901 110.414 39.4901 110.421 39.4974L112.49 42.1575C112.49 42.1575 112.497 42.194 112.49 42.2013L108.521 45.3072V45.3145Z" fill="#003771"/>
<path d="M104.876 48.1652H103.195H102.99H101.105H98.6129L96.574 50.2845L92.1966 54.83H86.7011V52.4038H91.1662L93.2051 50.2845L97.5824 45.739H100.564H102.267H103.195H105H107.982H111.497V48.1652H105H104.876Z" fill="#003771"/>
<path d="M113.141 41.7642L112.885 41.9615C112.885 41.9615 112.848 41.9688 112.841 41.9615L110.714 39.2357C110.714 39.2357 110.707 39.1992 110.714 39.1919L110.97 38.9946C111.409 38.6511 112.052 38.7315 112.395 39.17C112.395 39.17 112.424 39.1919 112.439 39.1846L121.084 32.4321L121.135 32.7537C121.194 33.1117 121.398 33.4114 121.676 33.6087C121.705 33.6306 121.742 33.6525 121.771 33.6744L113.301 40.2881C113.301 40.2881 113.287 40.3173 113.301 40.3319C113.645 40.785 113.564 41.4208 113.126 41.7642H113.141Z" fill="#003771"/>
<path d="M118.423 19.8471L118.606 20.4317L118.694 20.7094L107.228 24.3049C107.228 24.3049 107.198 24.3268 107.206 24.3414C107.374 24.8895 107.074 25.4522 106.541 25.6203L106.234 25.7153C106.234 25.7153 106.197 25.7153 106.197 25.6934L105.167 22.3975C105.167 22.3975 105.167 22.361 105.189 22.361L105.496 22.266C106.029 22.0979 106.599 22.3975 106.767 22.931C106.767 22.931 106.789 22.9675 106.804 22.9602L118.284 19.3794L118.423 19.8471V19.8471Z" fill="#003771"/>
<path d="M96.5595 28.7384L92.5329 30.0099H92.0141L91.2248 27.5107C90.8375 26.2976 91.5098 24.9968 92.7302 24.6095L93.9068 24.2367C94.7472 23.9737 95.6388 24.4194 95.9311 25.2452L104.81 22.4683L105.862 25.8226L96.5742 28.7311L96.5595 28.7384ZM93.7095 26.4072C93.0664 26.4072 92.5402 26.926 92.5402 27.5764C92.5402 28.2268 93.0591 28.7457 93.7095 28.7457C94.3599 28.7457 94.8787 28.2268 94.8787 27.5764C94.8787 26.926 94.3599 26.4072 93.7095 26.4072Z" fill="#003771"/>
<path d="M137.687 5.88171L139.653 0.970838C139.916 0.313133 140.727 -0.0303271 141.473 0.203524H141.502C142.248 0.444683 142.635 1.16085 142.372 1.81855L141.765 3.33128L170.602 12.3053L173.372 8.39561C173.803 7.78906 174.577 7.52599 175.286 7.74522L175.345 7.76715L171.603 16.4342L140.406 6.72211L137.687 5.87439V5.88171Z" fill="#003771"/>
<path d="M135.43 14.2917L133.778 14.0797C133.347 14.0213 132.996 13.7728 132.784 13.4366C132.616 13.1736 132.536 12.852 132.58 12.5232V12.4939C132.601 12.3332 132.653 12.1943 132.726 12.0555C132.981 11.5366 133.544 11.2151 134.151 11.2881L135.846 11.5074C136.131 10.1408 136.548 8.76694 137.096 7.39307L171.011 17.9529C166.678 28.7685 155.57 35.1775 146.201 32.2617C138.842 29.967 134.75 22.6007 135.437 14.299L135.43 14.2917ZM134.385 11.997C133.975 11.807 133.486 11.9824 133.288 12.3916C133.098 12.8009 133.274 13.2905 133.683 13.4878C134.092 13.6778 134.582 13.5024 134.779 13.0932C134.969 12.6839 134.794 12.1943 134.385 11.997Z" fill="#003771"/>
<path d="M119.688 13.433L118.365 12.0518H132.389C132.323 12.1833 132.272 12.3295 132.25 12.4902V12.5195C132.206 12.8556 132.286 13.1699 132.447 13.433H119.68H119.688Z" fill="#003771"/>
<path d="M121.654 15.8913C122.487 16.7536 122.553 18.0544 121.691 18.8875L121.662 18.9167C121.662 18.9167 121.625 18.9387 121.61 18.9533L121.26 17.9229C121.026 17.1921 120.193 16.8852 119.462 17.1117H119.433C118.702 17.3529 118.256 18.186 118.49 18.924L118.519 19.0263C118.519 19.0263 118.49 19.0044 118.475 18.9898L114.595 14.9047C113.762 14.0424 113.784 12.6758 114.639 11.8427L114.668 11.8135C115.53 10.9804 116.897 11.0023 117.73 11.8574L117.905 12.04L119.25 13.4212L121.647 15.8913H121.654ZM116.495 12.3105C116.356 12.2081 116.188 12.1424 116.005 12.1424C115.552 12.1424 115.187 12.5078 115.187 12.9608C115.187 13.4139 115.552 13.7793 116.005 13.7793C116.283 13.7793 116.524 13.6405 116.678 13.4286C116.773 13.297 116.824 13.1362 116.824 12.9608C116.824 12.6978 116.692 12.4639 116.495 12.3105Z" fill="#003771"/>
<path d="M119.535 17.4044H119.556C120.2 17.1925 120.879 17.5505 121.084 18.1863L121.362 19.0633L122.041 21.0437L119.637 21.7964L118.767 19.0194L118.738 18.9317C118.533 18.2887 118.891 17.609 119.527 17.4044H119.535ZM119.9 19.3629C120.295 19.3629 120.616 19.0413 120.616 18.6467C120.616 18.2521 120.295 17.9305 119.9 17.9305C119.505 17.9305 119.184 18.2521 119.184 18.6467C119.184 19.0413 119.505 19.3629 119.9 19.3629Z" fill="#003771"/>
</svg>
