<svg width="150" height="151" viewBox="0 0 150 151" fill="none" xmlns="http://www.w3.org/2000/svg">
<path d="M33.3376 108.05C32.3773 108.05 31.5987 108.829 31.5987 109.789C31.5987 110.876 30.7146 111.76 29.6279 111.76C28.5411 111.76 27.657 110.876 27.657 109.789C27.657 108.703 28.5411 107.818 29.6279 107.818C30.5882 107.818 31.3668 107.04 31.3668 106.08C31.3668 105.119 30.5882 104.341 29.6279 104.341C26.6234 104.341 24.1791 106.785 24.1791 109.789C24.1791 112.794 26.6234 115.238 29.6279 115.238C32.6323 115.238 35.0766 112.794 35.0766 109.789C35.0766 108.829 34.298 108.05 33.3376 108.05Z" fill="#003771"/>
<path d="M103.823 108.05C102.863 108.05 102.084 108.829 102.084 109.789C102.084 110.876 101.2 111.76 100.114 111.76C99.0268 111.76 98.1427 110.876 98.1427 109.789C98.1427 108.703 99.0268 107.818 100.114 107.818C101.074 107.818 101.852 107.04 101.852 106.08C101.852 105.119 101.074 104.341 100.114 104.341C97.1091 104.341 94.6648 106.785 94.6648 109.789C94.6648 112.794 97.1091 115.238 100.114 115.238C103.118 115.238 105.562 112.794 105.562 109.789C105.562 108.829 104.784 108.05 103.823 108.05Z" fill="#003771"/>
<path d="M51.8864 108.05C51.4297 108.05 50.9798 108.236 50.6576 108.56C50.3329 108.883 50.1475 109.332 50.1475 109.789C50.1475 110.246 50.3329 110.696 50.6576 111.018C50.9798 111.343 51.4297 111.528 51.8864 111.528C52.3432 111.528 52.793 111.343 53.1153 111.018C53.4399 110.696 53.6254 110.246 53.6254 109.789C53.6254 109.332 53.4399 108.883 53.1153 108.56C52.793 108.236 52.3432 108.05 51.8864 108.05Z" fill="#003771"/>
<path d="M48.1767 50.549C47.7199 50.549 47.2701 50.7344 46.9478 51.059C46.6232 51.3813 46.4377 51.8311 46.4377 52.2879C46.4377 52.7447 46.6232 53.1945 46.9478 53.5168C47.2701 53.8414 47.7199 54.0269 48.1767 54.0269C48.6335 54.0269 49.0833 53.8414 49.4056 53.5168C49.7302 53.1945 49.9157 52.7447 49.9157 52.2879C49.9157 51.8311 49.7302 51.3813 49.4056 51.059C49.0833 50.7344 48.6358 50.549 48.1767 50.549Z" fill="#003771"/>
<path d="M77.8549 76.5172C77.3982 76.5172 76.9483 76.7027 76.6261 77.0273C76.3015 77.3496 76.116 77.7994 76.116 78.2562C76.116 78.7153 76.3015 79.1627 76.6261 79.485C76.9483 79.8096 77.3982 79.9951 77.8549 79.9951C78.3117 79.9951 78.7615 79.8096 79.0838 79.485C79.4084 79.1627 79.5939 78.7153 79.5939 78.2562C79.5939 77.7994 79.4084 77.3496 79.0838 77.0273C78.7615 76.7027 78.3117 76.5172 77.8549 76.5172Z" fill="#003771"/>
<path d="M126.708 46.0972C127.03 46.4218 127.48 46.6073 127.937 46.6073C128.394 46.6073 128.843 46.4218 129.166 46.0972C129.49 45.7749 129.676 45.3251 129.676 44.8683C129.676 44.4116 129.49 43.9618 129.166 43.6395C128.843 43.3149 128.394 43.1294 127.937 43.1294C127.48 43.1294 127.03 43.3149 126.708 43.6395C126.383 43.9618 126.198 44.4116 126.198 44.8683C126.198 45.3251 126.383 45.7749 126.708 46.0972Z" fill="#003771"/>
<path d="M129.676 58.1775V51.9609C132.866 51.1784 135.24 48.2961 135.24 44.868C135.24 40.8408 131.964 37.5644 127.937 37.5644H114.386C113.772 36.4596 112.594 35.7095 111.243 35.7095H27.6571V35.5936C27.6571 33.6121 26.045 32 24.0633 32H20.3535C18.3718 32 16.7596 33.6121 16.7596 35.5938V61.5622C16.7596 63.5439 18.3718 65.1561 20.3535 65.1561H24.0633C26.045 65.1561 27.6571 63.5439 27.6571 61.5622V54.0268H41.0807C41.3772 55.2477 41.9868 56.375 42.8785 57.3148C44.2516 58.7616 46.1828 59.5914 48.177 59.5914H54.7271L64.9866 73.2712V83.8209C64.9866 84.7812 65.7652 85.5598 66.7256 85.5598H70.5571C70.5545 85.5983 70.5513 85.6366 70.5513 85.6757V93.0953C70.5513 94.182 69.6672 95.0661 68.5805 95.0661H61.045V91.2645C61.045 91.2594 61.045 91.2543 61.045 91.2492V91.2404C61.045 91.2293 61.0436 91.2184 61.0434 91.2072C61.0425 91.1625 61.0411 91.1175 61.0367 91.0723C61.0339 91.0433 61.0288 91.0153 61.0246 90.9867C61.0204 90.9591 61.0174 90.9318 61.0121 90.9042C61.0033 90.859 60.9917 90.8147 60.9794 90.7709C60.9766 90.7609 60.975 90.7507 60.972 90.7405L60.9697 90.7326C60.968 90.7275 60.9666 90.7222 60.965 90.7171L56.2005 74.8356C55.5035 72.513 53.4061 70.9526 50.9813 70.9526H25.9181C22.9137 70.9526 20.4694 73.3969 20.4694 76.4013V89.7876C18.3154 90.5151 16.7596 92.5536 16.7596 94.9502V109.789C16.7596 116.885 22.5323 122.658 29.6279 122.658C36.1335 122.658 41.5235 117.804 42.3754 111.528H44.5829V111.644C44.5829 114.649 47.0272 117.093 50.0316 117.093H61.1609C64.1654 117.093 66.6097 114.649 66.6097 111.644V111.528H87.3661C88.2181 117.804 93.608 122.658 100.114 122.658C106.625 122.658 112.019 117.795 112.863 111.511C112.94 111.521 113.018 111.528 113.098 111.528H120.517C122.499 111.528 124.111 109.916 124.111 107.934V83.8209C124.111 83.8067 124.109 83.7933 124.109 83.7794C124.108 83.7429 124.107 83.7065 124.103 83.6699C124.101 83.6449 124.098 83.6201 124.095 83.5955C124.091 83.5649 124.087 83.5345 124.081 83.5039C124.075 83.4728 124.068 83.4425 124.061 83.4121C124.055 83.3884 124.049 83.3648 124.042 83.3411C124.032 83.3052 124.02 83.2702 124.008 83.2354C124.003 83.2226 124 83.2097 123.995 83.1967L116.55 63.8393C115.2 60.3278 111.764 57.9686 108.002 57.9686H94.5489C91.5444 57.9686 89.1002 60.4129 89.1002 63.4173V76.5172H84.9478C84.4379 74.4381 83.0358 72.7071 81.1719 71.7525C81.117 71.6672 81.0555 71.5851 80.9841 71.5081L64.7513 54.0268H111.243C112.594 54.0268 113.772 53.2767 114.386 52.1719H126.198V59.7073C126.198 60.6677 126.976 61.4463 127.937 61.4463C130.046 61.4463 131.762 63.1625 131.762 65.272C131.762 67.3815 130.046 69.0977 127.937 69.0977C125.827 69.0977 124.111 67.3815 124.111 65.272C124.111 64.3116 123.333 63.533 122.372 63.533C121.412 63.533 120.633 64.3116 120.633 65.272C120.633 69.2992 123.91 72.5756 127.937 72.5756C131.964 72.5756 135.24 69.2992 135.24 65.272C135.24 61.8437 132.866 58.9596 129.676 58.1775ZM131.762 44.8683C131.762 46.9777 130.046 48.694 127.937 48.694H114.837V41.0426H127.937C130.046 41.0426 131.762 42.7588 131.762 44.8683ZM24.1792 61.5622C24.1792 61.6218 24.1228 61.6782 24.0633 61.6782H20.3535C20.2939 61.6782 20.2376 61.6218 20.2376 61.5622V35.5938C20.2376 35.5343 20.2939 35.4779 20.3535 35.4779H24.0633C24.1228 35.4779 24.1792 35.5343 24.1792 35.5938V37.4487V52.2878V61.5622ZM27.6571 39.1877H111.243C111.307 39.1877 111.359 39.2398 111.359 39.3036V43.1293H67.1756C65.2248 43.1293 63.3908 43.8889 62.0114 45.2687L59.2152 48.0649L58.5219 47.3181C57.1447 45.8351 55.1938 44.9844 53.1699 44.9844H48.4919C44.9138 44.9844 41.8963 47.3397 41.0876 50.5491H27.6571V39.1877ZM55.5963 56.1135H48.1768C47.1169 56.1135 46.131 55.6899 45.4011 54.9206C44.6717 54.1522 44.3007 53.1429 44.3566 52.0794C44.4612 50.0847 46.3161 48.4619 48.4916 48.4619H53.1696C54.2299 48.4619 55.2517 48.9075 55.9731 49.6842L75.722 70.9526H67.5951L56.9875 56.8091C56.6589 56.3711 56.1437 56.1135 55.5963 56.1135ZM20.2376 94.9502C20.2376 93.8634 21.1216 92.9793 22.2084 92.9793H25.9181C26.8785 92.9793 27.6571 92.2008 27.6571 91.2404C27.6571 90.28 26.8785 89.5014 25.9181 89.5014H23.9473V76.4013C23.9473 75.3146 24.8314 74.4305 25.9181 74.4305H50.9813C51.8585 74.4305 52.6171 74.9951 52.8691 75.8351L56.9689 89.5014H33.3384C32.378 89.5014 31.5994 90.28 31.5994 91.2404C31.5994 92.2008 32.378 92.9793 33.3384 92.9793H57.5671V102.486H50.0316H40.7572C40.5863 102.486 40.4215 102.511 40.2654 102.557C37.9471 99.1577 34.0442 96.921 29.6279 96.921C25.9265 96.921 22.5875 98.4939 20.2376 101.004V94.9502ZM29.6279 119.18C24.45 119.18 20.2376 114.967 20.2376 109.789C20.2376 104.611 24.45 100.399 29.6279 100.399C34.8058 100.399 39.0183 104.611 39.0183 109.789C39.0183 114.967 34.8058 119.18 29.6279 119.18ZM42.3754 108.05C42.2782 107.335 42.1257 106.637 41.9156 105.964H44.9534C44.7153 106.575 44.5831 107.239 44.5831 107.934V108.05H42.3754ZM63.1318 111.644C63.1318 112.731 62.2477 113.615 61.1609 113.615H50.0316C48.9449 113.615 48.0608 112.731 48.0608 111.644V107.934C48.0608 106.848 48.9449 105.964 50.0316 105.964H61.1609C62.2477 105.964 63.1318 106.848 63.1318 107.934V111.644ZM66.2394 105.964H87.8261C87.616 106.637 87.4634 107.335 87.3663 108.05H66.6097V107.934C66.6097 107.239 66.4775 106.575 66.2394 105.964ZM100.114 119.18C94.9356 119.18 90.7232 114.967 90.7232 109.789C90.7232 104.611 94.9356 100.399 100.114 100.399C105.291 100.399 109.504 104.611 109.504 109.789C109.504 114.967 105.291 119.18 100.114 119.18ZM119.127 80.227H103.823C101.714 80.227 99.9976 78.5108 99.9976 76.4013V68.8658H114.757L119.127 80.227ZM120.633 98.7759H118.662C118.603 98.7759 118.546 98.7195 118.546 98.6599V96.805C118.546 96.7455 118.603 96.6891 118.662 96.6891H120.633V98.7759ZM92.5781 63.4171C92.5781 62.3304 93.4621 61.4463 94.5489 61.4463H108.002C110.335 61.4463 112.466 62.9098 113.304 65.0877L113.419 65.3879H98.2586C97.2983 65.3879 96.5197 66.1665 96.5197 67.1269V76.4013C96.5197 80.4285 99.7961 83.7049 103.823 83.7049H120.464L120.633 84.1438V93.2112H118.662C116.681 93.2112 115.069 94.8233 115.069 96.805V98.6599C115.069 100.642 116.681 102.254 118.662 102.254H120.633V107.934C120.633 107.998 120.581 108.05 120.517 108.05H113.098C113.018 108.05 112.94 108.057 112.863 108.068C112.019 101.784 106.625 96.921 100.114 96.921C97.3008 96.921 94.698 97.8306 92.5781 99.3676V63.4171ZM89.1064 102.492C89.0658 102.489 89.0255 102.486 88.9842 102.486H61.1609H61.045V98.544H68.5805C71.5849 98.544 74.0292 96.0997 74.0292 93.0953V85.6757C74.0292 85.6366 74.026 85.5983 74.0234 85.5598H77.8549C81.283 85.5598 84.1652 83.1853 84.9478 79.9951H89.1002V102.37C89.1002 102.411 89.1034 102.451 89.1064 102.492ZM77.8549 82.0819H68.4646V74.4305H77.8549C79.9644 74.4305 81.6806 76.1467 81.6806 78.2562C81.6806 80.3657 79.9644 82.0819 77.8549 82.0819ZM111.243 50.5488H61.6495L64.4705 47.7278C65.1932 47.0051 66.1538 46.6072 67.1756 46.6072H111.359V50.4329C111.359 50.4967 111.307 50.5488 111.243 50.5488Z" fill="#003771"/>
<path d="M29.6279 79.9951H37.0475C38.0078 79.9951 38.7864 79.2165 38.7864 78.2562C38.7864 77.2958 38.0078 76.5172 37.0475 76.5172H29.6279C28.6676 76.5172 27.889 77.2958 27.889 78.2562C27.889 79.2165 28.6676 79.9951 29.6279 79.9951Z" fill="#003771"/>
<path d="M29.6279 85.5598H37.0475C38.0078 85.5598 38.7864 84.7812 38.7864 83.8209C38.7864 82.8605 38.0078 82.0819 37.0475 82.0819H29.6279C28.6676 82.0819 27.889 82.8605 27.889 83.8209C27.889 84.7812 28.6676 85.5598 29.6279 85.5598Z" fill="#003771"/>
</svg>
