<svg width="150" height="150" viewBox="0 0 150 150" fill="none" xmlns="http://www.w3.org/2000/svg">
<path d="M132.32 59.6295H103.93C101.509 59.6308 99.2385 60.7995 97.8307 62.7682L93.9216 68.2391C93.0766 69.4196 91.7146 70.1204 90.2629 70.1216H51.3804C48.897 70.1216 46.8838 72.1349 46.8838 74.6182V87.2838C46.8836 89.3344 48.2708 91.1254 50.2563 91.6381L50.8244 91.788L47.6767 98.0832C46.0395 101.351 47.0155 105.323 49.9804 107.46L53.0727 109.709C50.6605 114.351 50.8473 119.915 53.5652 124.385C56.2832 128.855 61.1379 131.581 66.3692 131.576H114.333C120.876 131.567 126.66 127.322 128.631 121.084H132.32C134.798 121.071 136.804 119.065 136.816 116.587C136.809 114.688 135.609 112.999 133.819 112.366V100.099C133.819 96.7879 131.134 94.1038 127.823 94.1038V82.1127C127.818 77.9757 124.466 74.6233 120.329 74.6182H114.633L114.852 74.29C115.963 72.6195 117.837 71.6171 119.843 71.6204H132.32C134.803 71.6204 136.816 69.6072 136.816 67.1238V64.1262C136.816 61.6428 134.803 59.6295 132.32 59.6295ZM54.3782 116.587C54.3782 109.965 59.7469 104.596 66.3693 104.596C72.9917 104.596 78.3604 109.965 78.3604 116.587C78.3604 123.209 72.9917 128.578 66.3693 128.578C59.7498 128.57 54.3856 123.206 54.3782 116.587ZM99.421 118.086H81.2846C81.3865 117.089 81.3865 116.085 81.2846 115.088H99.421C99.3191 116.085 99.3191 117.089 99.421 118.086ZM75.3235 128.578C77.8443 126.7 79.7132 124.079 80.667 121.084H100.036C100.989 124.079 102.858 126.7 105.379 128.578H75.3235ZM114.333 128.578C107.711 128.578 102.342 123.209 102.342 116.587C102.342 109.965 107.711 104.596 114.333 104.596C120.956 104.596 126.324 109.965 126.324 116.587C126.317 123.206 120.953 128.57 114.333 128.578ZM133.36 117.656C133.086 117.934 132.71 118.089 132.32 118.086H129.246C129.348 117.089 129.348 116.085 129.246 115.088H132.32C133.148 115.088 133.819 115.759 133.819 116.587C133.82 116.991 133.654 117.378 133.36 117.656ZM130.821 100.099V112.09H128.631C126.667 105.847 120.879 101.6 114.333 101.6C107.788 101.6 102 105.847 100.036 112.09H80.667C79.0127 106.816 74.587 102.882 69.1551 101.857C63.7232 100.833 58.1685 102.884 54.7065 107.193L51.7371 105.032C49.9611 103.755 49.3744 101.378 50.3522 99.4218L53.7996 92.5509L92.4168 102.516C92.7831 102.613 93.1603 102.664 93.5394 102.665C95.0449 102.667 96.4515 101.916 97.2866 100.663L99.6443 97.1016H127.823C129.479 97.1014 130.821 98.4436 130.821 100.099ZM120.329 77.6161C122.812 77.6161 124.826 79.6293 124.826 82.1127V94.1038H117.133L121.576 87.4412C121.873 86.9957 121.91 86.4254 121.673 85.9453C121.436 85.4651 120.96 85.1481 120.426 85.1134C119.891 85.0788 119.379 85.3319 119.082 85.7774L113.532 94.1038H109.634L114.077 87.4412C114.374 86.9957 114.411 86.4254 114.174 85.9453C113.937 85.4651 113.461 85.1481 112.927 85.1134C112.393 85.0788 111.88 85.3319 111.583 85.7774L106.037 94.1038H101.645L112.637 77.6161H120.329ZM133.819 67.124C133.819 67.9517 133.148 68.6228 132.32 68.6228H119.843C116.836 68.6198 114.026 70.1234 112.361 72.6277L94.7822 98.9944C94.4282 99.5246 93.7775 99.7731 93.1604 99.6134L86.7752 97.9647L93.0704 88.9715C93.3779 88.5329 93.4279 87.9636 93.2017 87.4782C92.9756 86.9929 92.5076 86.6648 91.9742 86.6179C91.4408 86.571 90.9227 86.8123 90.6154 87.2508L83.6681 97.1688L80.4275 96.3325L85.5762 88.97C86.0203 88.2924 85.8458 87.3846 85.182 86.92C84.5181 86.4556 83.6054 86.6027 83.1211 87.2522L77.3279 95.5321L74.0768 94.6927L78.0817 88.97C78.5259 88.2924 78.3514 87.3846 77.6875 86.92C77.0237 86.4556 76.111 86.6027 75.6266 87.2522L70.9801 93.8937L51.0057 88.7347C50.3441 88.5639 49.8817 87.9671 49.8816 87.2838V74.6182C49.8816 73.7905 50.5527 73.1194 51.3804 73.1194H90.2628C92.683 73.1181 94.9539 71.9494 96.3617 69.9807L100.271 64.5099C101.116 63.3294 102.478 62.6285 103.929 62.6273H132.32C133.147 62.6273 133.819 63.2984 133.819 64.1262V67.124H133.819Z" fill="#003771"/>
<path d="M114.333 110.592C111.022 110.592 108.338 113.276 108.338 116.587C108.338 119.898 111.022 122.583 114.333 122.583C117.644 122.583 120.329 119.898 120.329 116.587C120.329 113.276 117.645 110.592 114.333 110.592ZM114.333 119.585C112.678 119.585 111.335 118.243 111.335 116.587C111.335 114.931 112.678 113.589 114.333 113.589C115.989 113.589 117.331 114.931 117.331 116.587C117.331 118.243 115.989 119.585 114.333 119.585Z" fill="#003771"/>
<path d="M72.3646 116.587C72.3646 113.276 69.6803 110.592 66.3691 110.592C63.058 110.592 60.3737 113.276 60.3737 116.587C60.3737 119.898 63.058 122.583 66.3691 122.583C69.6803 122.583 72.3646 119.898 72.3646 116.587ZM63.3713 116.587C63.3713 114.931 64.7135 113.589 66.3691 113.589C68.0248 113.589 69.3669 114.931 69.3669 116.587C69.3669 118.243 68.0248 119.585 66.3691 119.585C64.7135 119.585 63.3713 118.243 63.3713 116.587Z" fill="#003771"/>
<path fill-rule="evenodd" clip-rule="evenodd" d="M58.8747 76.1174H54.3781C53.5504 76.1174 52.8793 76.7885 52.8793 77.6163V82.1129C52.8793 82.9406 53.5504 83.6117 54.3781 83.6117C55.2059 83.6117 55.8769 82.9406 55.8769 82.1129V79.1151H58.8747C59.7025 79.1151 60.3736 78.444 60.3736 77.6163C60.3736 76.7885 59.7025 76.1174 58.8747 76.1174Z" fill="#003771"/>
<path d="M21.5092 83.0945H41.5702V86.7419H21.5092V83.0945Z" fill="#003771"/>
<path d="M25.1564 94.0365H41.5699V97.684H25.1564V94.0365Z" fill="#003771"/>
<path d="M28.804 104.979H41.5701V108.627H28.804V104.979Z" fill="#003771"/>
<path d="M28.9453 76.3766C29.2253 76.3764 29.5014 76.312 29.7525 76.1881C30.0036 76.0643 30.2228 75.8844 30.3934 75.6624C31.7379 73.9072 43.5352 58.2987 43.5352 50.8444C43.5352 46.9749 41.998 43.2639 39.2619 40.5278C36.5258 37.7917 32.8148 36.2545 28.9453 36.2545C25.0758 36.2545 21.3649 37.7917 18.6287 40.5278C15.8926 43.2639 14.3555 46.9749 14.3555 50.8444C14.3555 58.2987 26.1527 73.9072 27.4974 75.6624C27.6679 75.8844 27.8871 76.0643 28.1382 76.1881C28.3892 76.3119 28.6654 76.3764 28.9453 76.3766ZM28.9453 39.902C31.8464 39.9051 34.6278 41.059 36.6792 43.1104C38.7306 45.1618 39.8845 47.9432 39.8877 50.8444C39.8877 55.4865 32.9552 65.9854 28.9453 71.4993C24.9354 65.9854 18.0029 55.4865 18.0029 50.8444C18.0061 47.9432 19.16 45.1618 21.2114 43.1104C23.2628 41.059 26.0442 39.9051 28.9453 39.902Z" fill="#003771"/>
<path d="M37.1522 50.844C37.1522 49.2208 36.6708 47.6341 35.7691 46.2846C34.8673 44.935 33.5856 43.8831 32.086 43.2619C30.5864 42.6408 28.9363 42.4782 27.3443 42.7949C25.7524 43.1116 24.29 43.8932 23.1423 45.0409C21.9946 46.1887 21.2129 47.651 20.8963 49.2429C20.5796 50.8349 20.7421 52.485 21.3633 53.9846C21.9844 55.4842 23.0363 56.7659 24.3859 57.6677C25.7355 58.5695 27.3222 59.0508 28.9454 59.0508C31.1212 59.0484 33.2073 58.183 34.7458 56.6445C36.2844 55.1059 37.1498 53.0198 37.1522 50.844ZM24.3861 50.844C24.3861 49.9422 24.6534 49.0607 25.1544 48.311C25.6554 47.5612 26.3675 46.9768 27.2006 46.6317C28.0337 46.2866 28.9504 46.1964 29.8349 46.3723C30.7193 46.5482 31.5317 46.9824 32.1693 47.6201C32.8069 48.2577 33.2412 49.0701 33.4171 49.9545C33.593 50.8389 33.5027 51.7557 33.1576 52.5888C32.8126 53.4219 32.2282 54.134 31.4784 54.6349C30.7286 55.1359 29.8471 55.4033 28.9454 55.4033C27.7366 55.4019 26.5777 54.9211 25.723 54.0664C24.8683 53.2116 24.3875 52.0528 24.3861 50.844Z" fill="#003771"/>
<path d="M93.4598 57.6831C93.7398 57.683 94.016 57.6185 94.267 57.4947C94.5181 57.3708 94.7374 57.191 94.9079 56.9689C96.2524 55.2138 108.05 39.6052 108.05 32.1509C108.05 28.2814 106.513 24.5704 103.776 21.8343C101.04 19.0982 97.3293 17.561 93.4598 17.561C89.5904 17.561 85.8794 19.0982 83.1433 21.8343C80.4071 24.5704 78.87 28.2814 78.87 32.1509C78.87 39.6052 90.6673 55.2138 92.0118 56.9689C92.1823 57.191 92.4016 57.3708 92.6526 57.4947C92.9037 57.6185 93.1799 57.683 93.4598 57.6831ZM93.4598 21.2085C96.361 21.2117 99.1424 22.3655 101.194 24.4169C103.245 26.4684 104.399 29.2498 104.402 32.1509C104.402 36.793 97.4697 47.2919 93.4598 52.8059C89.4499 47.2919 82.5175 36.793 82.5175 32.1509C82.5206 29.2498 83.6745 26.4684 85.7259 24.4169C87.7773 22.3655 90.5587 21.2117 93.4598 21.2085Z" fill="#003771"/>
<path d="M101.667 32.1505C101.667 30.5274 101.185 28.9407 100.284 27.5911C99.3819 26.2415 98.1002 25.1896 96.6006 24.5684C95.101 23.9473 93.4509 23.7848 91.8589 24.1014C90.2669 24.4181 88.8046 25.1997 87.6569 26.3474C86.5091 27.4952 85.7275 28.9575 85.4109 30.5495C85.0942 32.1414 85.2567 33.7915 85.8779 35.2911C86.499 36.7907 87.5509 38.0724 88.9005 38.9742C90.2501 39.876 91.8368 40.3573 93.46 40.3573C95.6358 40.3549 97.7219 39.4895 99.2604 37.951C100.799 36.4124 101.664 34.3264 101.667 32.1505ZM88.9006 32.1505C88.9006 31.2488 89.168 30.3673 89.669 29.6175C90.17 28.8677 90.8821 28.2833 91.7152 27.9382C92.5483 27.5932 93.465 27.5029 94.3494 27.6788C95.2339 27.8547 96.0463 28.289 96.6839 28.9266C97.3215 29.5642 97.7558 30.3766 97.9317 31.261C98.1076 32.1455 98.0173 33.0622 97.6722 33.8953C97.3271 34.7284 96.7428 35.4405 95.993 35.9415C95.2432 36.4424 94.3617 36.7098 93.46 36.7098C92.2512 36.7084 91.0923 36.2276 90.2376 35.3729C89.3829 34.5181 88.9021 33.3593 88.9006 32.1505Z" fill="#003771"/>
<path d="M88.3429 63.8041C89.5838 63.4778 90.8058 63.0835 92.0034 62.6229L90.6976 59.2174C89.6255 59.6294 88.5316 59.9826 87.421 60.2756L88.3429 63.8041Z" fill="#003771"/>
<path d="M84.0781 60.9266C82.9607 61.0682 81.8343 61.1272 80.7082 61.1029L80.6215 64.7491C81.9275 64.7777 83.2338 64.7101 84.5298 64.5469L84.0781 60.9266Z" fill="#003771"/>
<path d="M77.3758 60.7565C76.2756 60.5496 75.1937 60.2545 74.1409 59.8738L72.9198 63.3106C74.1528 63.7554 75.4195 64.1005 76.7077 64.3427L77.3758 60.7565Z" fill="#003771"/>
<path d="M34.7526 65.868C33.7202 66.4824 32.6662 67.1436 31.5908 67.8516L33.6037 70.8947C34.6268 70.2177 35.6318 69.5866 36.6186 69.0013L34.7526 65.868Z" fill="#003771"/>
<path d="M70.8205 58.5595C69.6211 58.065 68.3895 57.653 67.134 57.3263L66.2468 60.8651C67.3433 61.1506 68.4187 61.5116 69.4653 61.9457L70.8205 58.5595Z" fill="#003771"/>
<path d="M42.9023 65.6721L41.3577 62.3687C40.282 62.871 39.1666 63.4271 38.0115 64.0368L39.7195 67.2592C40.8169 66.6778 41.8801 66.1507 42.9023 65.6721Z" fill="#003771"/>
<path d="M49.4838 63.0003L48.2895 59.5534C47.2161 59.9253 46.0441 60.3613 44.7865 60.872L46.1596 64.251C47.3533 63.766 48.4665 63.3533 49.4838 63.0003Z" fill="#003771"/>
<path d="M62.9663 60.3516L63.2238 56.7139C62.8464 56.6874 62.4555 56.6687 62.0511 56.658C61.1338 56.6328 60.2159 56.658 59.3014 56.7334L59.6034 60.3683C60.3868 60.304 61.1731 60.2827 61.9589 60.3043C62.307 60.3123 62.6428 60.3281 62.9663 60.3516Z" fill="#003771"/>
<path d="M56.272 60.9077L55.44 57.3569C54.3705 57.607 53.246 57.925 51.7937 58.3869L52.8995 61.8629C54.2577 61.4304 55.2982 61.1362 56.272 60.9077Z" fill="#003771"/>
</svg>
