<svg width="150" height="150" viewBox="0 0 150 150" fill="none" xmlns="http://www.w3.org/2000/svg">
<path d="M116.926 32H37.0737C31.167 32 26.3617 36.8055 26.3617 42.712V86.5335V93.3503C26.3617 99.2568 31.167 104.062 37.0737 104.062H62.9386L59.8223 119.643H49.7332C48.6576 119.643 47.7856 120.515 47.7856 121.591C47.7856 122.666 48.6576 123.538 49.7332 123.538H104.267C105.342 123.538 106.214 122.666 106.214 121.591C106.214 120.515 105.342 119.643 104.267 119.643H94.1776L91.0614 104.062H116.926C122.833 104.062 127.638 99.257 127.638 93.3503V86.5335V42.712C127.638 36.8055 122.833 32 116.926 32ZM63.7947 119.643L66.9109 104.062H87.0891L90.2053 119.643H63.7947ZM123.743 93.3503C123.743 97.109 120.685 100.167 116.926 100.167H37.0737C33.315 100.167 30.2569 97.1092 30.2569 93.3503V88.4813H123.743V93.3503H123.743ZM123.743 84.5861H30.2569V80.6909H41.9427C43.0183 80.6909 43.8903 79.819 43.8903 78.7433C43.8903 77.6676 43.0183 76.7957 41.9427 76.7957H30.2569V42.712C30.2569 38.9533 33.3148 35.8952 37.0737 35.8952H116.926C120.685 35.8952 123.743 38.9531 123.743 42.712V84.5861Z" fill="#003771"/>
<path d="M77.0001 90.429C74.8523 90.429 73.1049 92.1764 73.1049 94.3241C73.1049 96.4719 74.8523 98.2193 77.0001 98.2193C79.1478 98.2193 80.8952 96.4719 80.8952 94.3241C80.8952 92.1764 79.1478 90.429 77.0001 90.429Z" fill="#003771"/>
<path d="M108.088 68.1813H107.524C106.271 64.57 102.856 62.1066 98.9755 62.1066C96.3008 62.1066 93.8483 63.2775 92.1716 65.187C92.0821 65.159 91.987 65.144 91.8884 65.144H89.8003V56.7107C89.8003 55.4102 89.5274 54.1505 88.9892 52.9663L85.2186 44.671C85.5334 44.5165 85.7505 44.1938 85.7505 43.8194C85.7505 43.2952 85.3256 42.8702 84.8014 42.8702H72.6521C72.1279 42.8702 71.7029 43.2952 71.7029 43.8194C71.7029 44.3436 72.1279 44.7686 72.6521 44.7686H72.7153V62.1791C72.334 61.8847 71.9313 61.617 71.5096 61.3788C71.5522 61.271 71.5763 61.1539 71.5763 61.031V54.9564C71.5763 54.4322 71.1514 54.0072 70.6272 54.0072H66.5141V49.1274C66.5141 48.0625 66.0995 47.0615 65.3465 46.3086L64.2112 45.1733C63.8405 44.8026 63.2395 44.8026 62.869 45.1733C62.4983 45.544 62.4983 46.145 62.869 46.5155L64.0043 47.6509C64.3986 48.0452 64.6159 48.5697 64.6159 49.1274V54.0071H59.5997C58.6939 54.0071 57.8045 54.2534 57.0277 54.7195L49.8314 59.0373C48.3342 59.9355 47.4043 61.578 47.4043 63.3238V66.1564H47.341C46.8168 66.1564 46.3918 66.5814 46.3918 67.1056V69.3042C46.3918 70.0986 46.7011 70.8455 47.2629 71.4072L49.114 73.2583C49.6757 73.8201 50.4226 74.1294 51.217 74.1294H57.3417C58.8887 77.6995 62.4454 80.204 66.5774 80.204C71.454 80.204 75.5299 76.7162 76.4452 72.1045H87.0458C87.4429 73.2802 88.5556 74.1294 89.8637 74.1294H90.4275C91.6799 77.7405 95.0955 80.204 98.9757 80.204C102.857 80.204 106.272 77.7408 107.524 74.1294H108.088C109.728 74.1294 111.062 72.7952 111.062 71.1553C111.062 69.5154 109.727 68.1813 108.088 68.1813ZM98.9755 64.005C101.813 64.005 104.336 65.6718 105.481 68.1813H92.4705C93.6153 65.6717 96.1374 64.005 98.9755 64.005ZM87.902 56.7107V56.7509L80.9481 54.8545C79.603 54.4875 78.6634 53.2575 78.6634 51.8631V44.7686H83.1778L87.2611 53.7518C87.6863 54.6875 87.902 55.6829 87.902 56.7107ZM76.7651 44.7686V51.8631C76.7651 54.1113 78.2798 56.0945 80.4487 56.6859L87.902 58.7186V65.144H75.6894C75.5665 65.144 75.4494 65.1681 75.3416 65.2107C75.1223 64.8225 74.8794 64.4494 74.6123 64.0953C74.6125 64.0862 74.6137 64.0774 74.6137 64.0682V44.7686H76.7651ZM49.3026 63.3238C49.3026 62.2409 49.8795 61.2223 50.808 60.665L58.0043 56.3472C58.4861 56.0582 59.0377 55.9054 59.5995 55.9054C64.6771 55.9054 64.9321 55.9054 69.678 55.9054V60.5728C68.7007 60.2554 67.6592 60.0818 66.5774 60.0818C65.0024 60.0818 63.7319 60.3878 62.1251 61.178C61.009 61.7268 60.3995 62.1256 59.5078 62.9925C58.4341 64.0363 57.8579 64.9653 57.3417 66.1564H49.3026V63.3238ZM51.217 72.2311C50.9296 72.2311 50.6595 72.1192 50.4563 71.9159L48.6053 70.0648C48.4022 69.8617 48.2902 69.5915 48.2902 69.3041V68.0547H48.3535H56.7356C56.5927 68.7288 56.5163 69.427 56.5163 70.1429C56.5163 70.8588 56.5927 71.557 56.7356 72.2311H51.217ZM66.5774 78.3057C62.0765 78.3057 58.4146 74.6438 58.4146 70.1429C58.4146 65.642 62.0765 61.9801 66.5774 61.9801C71.0783 61.9801 74.7402 65.642 74.7402 70.1429C74.7402 74.6438 71.0783 78.3057 66.5774 78.3057ZM76.1475 67.0423H90.9131C90.7272 67.4073 90.564 67.7872 90.4274 68.1813H89.8636C88.5555 68.1813 87.4428 69.0305 87.0457 70.2062H76.6369C76.637 70.185 76.6385 70.1642 76.6385 70.1429C76.6385 69.0611 76.4649 68.0195 76.1475 67.0423ZM98.9755 78.3057C96.1379 78.3057 93.6153 76.6387 92.4705 74.1294H105.481C104.336 76.639 101.814 78.3057 98.9755 78.3057ZM108.088 72.2311H89.8636C89.2704 72.2311 88.7878 71.7485 88.7878 71.1553C88.7878 70.5622 89.2704 70.0796 89.8636 70.0796H91.129C91.13 70.0796 91.131 70.0797 91.1319 70.0797C91.1327 70.0797 91.1334 70.0796 91.1342 70.0796H108.088C108.681 70.0796 109.163 70.5622 109.163 71.1553C109.163 71.7485 108.681 72.2311 108.088 72.2311Z" fill="#003771" stroke="#003771"/>
</svg>
