<svg width="150" height="150" viewBox="0 0 150 150" fill="none" xmlns="http://www.w3.org/2000/svg">
<path d="M109.781 94.4361L99.0865 91.9674L88.8548 86.1211V78.258C91.5652 75.3922 93.2342 71.6989 93.5938 67.7708H95.2822C96.6462 67.7733 97.9756 67.3409 99.0772 66.5365C100.179 65.7322 100.996 64.5976 101.409 63.2975C101.822 61.9975 101.809 60.5997 101.374 59.3069C100.939 58.0142 100.103 56.8939 98.9872 56.1087C100.108 50.3937 101.88 36.2758 93.9012 29.5657C87.965 24.5787 78.1073 24.8221 64.5913 30.3002C63.0377 29.9838 61.4364 29.9815 59.8819 30.2933C58.3273 30.6051 56.8509 31.2248 55.5395 32.116C53.1228 34.0109 51.8972 37.0602 51.8972 41.1775V57.1367C51.079 58.0611 50.5457 59.2025 50.3619 60.4232C50.178 61.6439 50.3514 62.8917 50.8611 64.0161C51.3707 65.1404 52.1949 66.0932 53.2342 66.7595C54.2734 67.4258 55.4833 67.777 56.7178 67.7708H58.4061C58.7657 71.6989 60.4347 75.3922 63.1452 78.258V86.1211L52.914 91.9674L42.2185 94.4364C39.0261 95.1604 36.1759 96.9509 34.138 99.5126C32.1 102.074 30.996 105.254 31.0082 108.527V127.224C31.0082 127.65 31.1774 128.059 31.4788 128.361C31.7801 128.662 32.1888 128.831 32.615 128.831H119.385C119.811 128.831 120.22 128.662 120.521 128.361C120.822 128.059 120.992 127.65 120.992 127.224V108.527C121.004 105.254 119.9 102.074 117.862 99.5125C115.824 96.9508 112.974 95.1602 109.781 94.4361ZM73.8307 114.37H78.1692L83.1681 125.617H68.8312L73.8307 114.37ZM78.1261 111.156H73.8743L71.2103 104.495L76 101.758L80.7897 104.495L78.1261 111.156ZM76 83.8394C79.4215 83.8361 82.7693 82.845 85.6411 80.9849V86.4482L76 97.467L66.3589 86.4489V80.9856C69.2336 82.8392 72.5795 83.8296 76 83.8394ZM78.5028 99.4873L87.5916 89.1008L95.993 93.901L86.9042 104.287L78.5028 99.4873ZM95.2822 64.5571H93.6753V58.1297H95.2822C96.1345 58.1297 96.9519 58.4683 97.5546 59.071C98.1573 59.6737 98.4959 60.4911 98.4959 61.3434C98.4959 62.1958 98.1573 63.0132 97.5546 63.6159C96.9519 64.2186 96.1345 64.5571 95.2822 64.5571ZM55.1109 41.1775C55.1109 38.105 55.9182 35.9113 57.5103 34.6537C58.8439 33.7102 60.4524 33.2349 62.0846 33.302C62.8515 33.2995 63.6166 33.3757 64.3678 33.5295C64.6989 33.6107 65.0473 33.5849 65.3628 33.4558C77.9139 28.2931 86.819 27.813 91.8326 32.0257C98.285 37.4504 96.9584 49.4656 95.9392 54.9499C95.4636 54.9 94.1985 54.916 93.6753 54.916V46.8818C93.6869 46.544 93.5842 46.2121 93.3838 45.9399C93.1834 45.6677 92.897 45.4711 92.5709 45.382C92.3041 45.2827 92.0153 45.2576 91.7354 45.3095L79.2215 47.9552C73.7333 49.0786 68.0355 48.5581 62.8416 46.4589C62.1047 46.1559 61.3802 45.8209 60.6682 45.4538C60.4233 45.3274 60.1499 45.2662 59.8745 45.2759C59.599 45.2857 59.3307 45.3662 59.0954 45.5096C58.86 45.653 58.6655 45.8546 58.5305 46.0949C58.3955 46.3352 58.3246 46.6062 58.3246 46.8818V54.916H56.7178C56.1764 54.9272 55.6378 54.9956 55.1109 55.1201V41.1775ZM53.5041 61.3434C53.5134 60.494 53.855 59.682 54.4556 59.0813C55.0563 58.4806 55.8683 58.1391 56.7178 58.1297H58.3246V64.5571H56.7178C55.8657 64.5562 55.0489 64.2173 54.4464 63.6148C53.8439 63.0123 53.505 62.1955 53.5041 61.3434ZM61.5383 56.5229V49.3972C67.3438 51.7932 73.7356 52.3886 79.8837 51.106L90.4616 48.8653V66.164C90.4616 69.9995 88.938 73.6778 86.2259 76.3899C83.5138 79.102 79.8354 80.6257 76 80.6257C72.1645 80.6257 68.4861 79.102 65.774 76.3899C63.0619 73.6778 61.5383 69.9995 61.5383 66.164V56.5229ZM64.4083 89.1008L73.4971 99.4873L65.0957 104.287L56.0069 93.901L64.4083 89.1008ZM34.2219 108.527C34.2123 105.982 35.0709 103.508 36.6561 101.516C38.2412 99.5239 40.4581 98.1315 42.9411 97.5688L52.9291 95.2634L63.543 107.394C63.7871 107.673 64.1203 107.859 64.4859 107.92C64.8515 107.982 65.2272 107.915 65.5492 107.731L68.3933 106.106L71.043 112.73L65.3144 125.617H48.6835V117.583C48.6835 117.157 48.5142 116.748 48.2129 116.447C47.9115 116.146 47.5028 115.976 47.0767 115.976C46.6505 115.976 46.2418 116.146 45.9404 116.447C45.6391 116.748 45.4698 117.157 45.4698 117.583V125.617H34.2219V108.527ZM117.778 125.617H106.53V117.583C106.53 117.157 106.361 116.748 106.059 116.447C105.758 116.146 105.349 115.976 104.923 115.976C104.497 115.976 104.088 116.146 103.787 116.447C103.486 116.748 103.316 117.157 103.316 117.583V125.617H86.6855L80.9571 112.731L83.6073 106.106L86.4514 107.731C86.7735 107.915 87.1493 107.982 87.5151 107.921C87.8809 107.859 88.2142 107.673 88.4584 107.394L99.0722 95.2636L109.06 97.5689C111.543 98.1321 113.759 99.5246 115.344 101.517C116.929 103.509 117.788 105.982 117.778 108.527V125.617Z" fill="#003771"/>
</svg>
