<svg width="136" height="86" viewBox="0 0 136 86" fill="none" xmlns="http://www.w3.org/2000/svg">
<path d="M95.9335 74.3322C95.9335 80.591 100.955 85.6126 107.214 85.6126C113.473 85.6126 118.494 80.591 118.494 74.3322C118.494 68.0734 113.473 63.0518 107.214 63.0518C101.028 63.0518 95.9335 68.0734 95.9335 74.3322ZM101.319 74.3322C101.319 71.0572 103.939 68.4373 107.214 68.4373C110.489 68.4373 113.109 71.0572 113.109 74.3322C113.109 77.6072 110.489 80.2271 107.214 80.2271C103.939 80.2271 101.319 77.6072 101.319 74.3322Z" fill="#003771"/>
<path d="M107.214 71.6392C108.67 71.6392 109.907 72.8764 109.907 74.332C109.907 75.7875 108.67 77.0247 107.214 77.0247C105.759 77.0247 104.521 75.7875 104.521 74.332C104.521 72.8764 105.759 71.6392 107.214 71.6392Z" fill="#003771"/>
<path d="M108.015 41.4368H103.939C102.848 41.4368 101.974 40.5635 101.974 39.5447V32.922C101.974 31.8303 102.848 31.0298 103.939 31.0298H108.015C109.107 31.0298 109.98 31.9031 109.98 32.922V39.5447C109.98 40.5635 109.107 41.4368 108.015 41.4368Z" fill="#003771"/>
<path d="M134.069 62.178C132.686 62.178 131.521 61.0135 131.521 59.6308V56.3558C131.521 54.973 132.686 53.8086 134.069 53.8086H135.742V62.178H134.069Z" fill="#003771"/>
<path d="M135.743 53.2265H133.996C132.322 53.2265 130.867 54.6092 130.867 56.3559V59.7037C130.867 61.3776 132.249 62.8331 133.996 62.8331H135.743V64.4342H129.266V51.9165H135.743V53.2265Z" fill="#003771"/>
<path d="M135.742 73.0947C135.742 73.022 135.742 72.9492 135.742 72.8765V73.0947Z" fill="#003771"/>
<path d="M135.743 66.2538C135.743 66.181 135.743 66.181 135.743 66.2538H134.069C132.686 66.2538 131.522 67.1998 131.522 68.3642V71.057C131.522 72.2215 132.686 73.1676 134.069 73.1676H135.67C135.67 73.1676 135.67 73.1676 135.743 73.1676C135.597 74.5503 134.36 75.6419 132.759 75.6419H129.266V65.1621H135.743V66.2538Z" fill="#003771"/>
<path d="M135.743 72.6581H134.36C133.123 72.6581 132.177 71.8576 132.177 70.8387V68.5099C132.177 67.491 133.123 66.6904 134.36 66.6904H135.743C135.743 66.6904 135.743 66.6904 135.815 66.6904V72.4398C135.743 72.5126 135.743 72.5853 135.743 72.6581Z" fill="#003771"/>
<path d="M128.611 51.0433H135.743V43.62C135.743 43.1105 135.67 42.5283 135.525 42.0189L132.687 30.8112C132.104 28.5551 130.431 27.0269 128.611 27.0269H102.63C100.228 27.0269 98.3358 29.4284 98.3358 32.3395V50.9705H128.611V51.0433ZM112.018 45.6578C112.018 45.2939 112.309 45.0027 112.673 45.0027H114.347C114.711 45.0027 115.002 45.2939 115.002 45.6578C115.002 46.0216 114.711 46.3128 114.347 46.3128H112.673C112.309 46.3128 112.018 46.0216 112.018 45.6578ZM110.562 40.054C110.562 41.2912 109.543 42.31 108.306 42.31H103.576C102.339 42.31 101.32 41.2912 101.32 40.054V32.4124C101.32 31.1752 102.339 30.1562 103.576 30.1562H108.306C109.543 30.1562 110.562 31.1752 110.562 32.4124V40.054ZM124.39 39.7628C124.39 41.1456 123.226 42.31 121.843 42.31H114.638C113.182 42.31 112.091 41.1456 112.091 39.7628V32.7034C112.091 31.3206 113.255 30.1562 114.638 30.1562H121.843C123.298 30.1562 124.39 31.3206 124.39 32.7034V39.7628ZM127.956 44.2022C127.301 44.2022 126.719 43.5472 126.719 42.8194V31.4662C126.719 30.6657 127.301 30.0835 127.956 30.0835H129.412C130.285 30.0835 131.013 30.7385 131.158 31.6846L133.123 42.1644C133.342 43.2561 132.614 44.275 131.595 44.275H127.956V44.2022Z" fill="#003771"/>
<path d="M116.893 60.3586C115.802 58.612 113.691 57.4475 111.435 57.4475H102.993C101.246 57.4475 99.5725 58.1754 98.4081 59.3398V51.9165H128.611V64.4342H119.368L116.893 60.3586Z" fill="#003771"/>
<path d="M128.611 70.0383H121.915V69.6016C121.842 69.0194 121.77 68.4372 121.478 67.855H128.611V70.0383Z" fill="#003771"/>
<path d="M128.611 67.3454H121.187C121.115 67.2726 121.115 67.1998 121.042 67.1271L119.805 65.1621H128.611V67.3454Z" fill="#003771"/>
<path d="M128.61 75.5695H122.06V73.3135H128.61V75.5695Z" fill="#003771"/>
<path d="M128.61 72.8039H121.988L121.915 70.6206H128.61V72.8039Z" fill="#003771"/>
<path d="M96.0065 64.3618L98.1898 60.7958C98.3354 60.5775 98.5537 60.2864 98.6993 60.0681C99.7909 58.8309 101.465 58.0303 103.284 58.0303H111.217C113.327 58.0303 115.292 59.0492 116.311 60.7958L120.314 67.2002C120.751 67.9279 121.042 68.7285 121.115 69.6018L121.26 75.6423H120.751C120.096 75.6423 119.732 75.0601 119.659 74.4051C119.586 73.0223 119.368 71.6396 119.077 70.2569L119.004 69.7474C118.495 68.2918 117.694 66.9818 116.675 65.7446C114.346 63.1974 110.926 61.7419 107.36 61.7419C103.721 61.7419 100.373 63.1974 98.0443 65.7446C96.9526 66.909 96.152 68.2918 95.6426 69.7474H93.5321C93.5321 68.874 93.8232 67.9279 94.3326 67.2002L96.0065 64.3618Z" fill="#003771"/>
<path d="M45.7902 71.6392C47.2458 71.6392 48.483 72.8764 48.483 74.332C48.483 75.7875 47.2458 77.0247 45.7902 77.0247C44.3347 77.0247 43.0975 75.7875 43.0975 74.332C43.0975 72.8764 44.2619 71.6392 45.7902 71.6392Z" fill="#003771"/>
<path d="M20.9006 71.6392C22.3562 71.6392 23.5934 72.8764 23.5934 74.332C23.5934 75.7875 22.3562 77.0247 20.9006 77.0247C19.4451 77.0247 18.2079 75.7875 18.2079 74.332C18.2079 72.8764 19.3723 71.6392 20.9006 71.6392Z" fill="#003771"/>
<path d="M10.3478 70.2567C9.83833 71.4939 9.62 72.8766 9.62 74.3322C9.62 80.591 14.6416 85.6126 20.9004 85.6126C27.1593 85.6126 32.1809 80.591 32.1809 74.3322C32.1809 72.8766 31.8898 71.4939 31.4531 70.2567C29.852 66.0356 25.7037 63.0518 20.9004 63.0518C16.0971 63.0518 12.0216 66.0356 10.3478 70.2567ZM15.0055 74.3322C15.0055 72.7311 15.6605 71.2756 16.6793 70.2567C17.771 69.165 19.2266 68.4373 20.9004 68.4373C22.5743 68.4373 24.1026 69.165 25.1215 70.2567C26.1404 71.3484 26.7954 72.7311 26.7954 74.3322C26.7954 77.6072 24.1754 80.2271 20.9004 80.2271C17.6255 80.2271 15.0055 77.6072 15.0055 74.3322Z" fill="#003771"/>
<path d="M35.2374 70.2567C34.728 71.4939 34.5096 72.8766 34.5096 74.3322C34.5096 80.591 39.5313 85.6126 45.7901 85.6126C52.0489 85.6126 57.0705 80.591 57.0705 74.3322C57.0705 72.8766 56.7794 71.4939 56.3427 70.2567C54.7417 66.0356 50.5934 63.0518 45.7901 63.0518C40.9868 63.0518 36.8385 66.0356 35.2374 70.2567ZM39.8952 74.3322C39.8952 72.7311 40.5501 71.2756 41.569 70.2567C42.6607 69.165 44.1162 68.4373 45.7901 68.4373C47.464 68.4373 48.9923 69.165 50.0112 70.2567C51.0301 71.3484 51.685 72.7311 51.685 74.3322C51.685 77.6072 49.065 80.2271 45.7901 80.2271C42.5151 80.2271 39.8952 77.6072 39.8952 74.3322Z" fill="#003771"/>
<path d="M12.3854 60.0679H52.5583C52.9222 60.0679 53.2861 60.0679 53.65 60.1406C56.4155 60.5045 58.5988 62.1783 59.3993 64.3616C59.6177 64.8711 59.6905 65.4533 59.6905 66.1083V69.8928H57.2888C57.2888 69.82 57.216 69.7472 57.216 69.6744C55.4694 65.0894 51.03 61.8873 45.79 61.8873C40.6228 61.8873 36.1107 65.1622 34.3641 69.6744C34.3641 69.7472 34.2913 69.82 34.2913 69.8928H32.3991C32.3991 69.82 32.3263 69.7472 32.3263 69.6744C30.5796 65.0894 26.1403 61.8873 20.9003 61.8873C15.7331 61.8873 11.221 65.1622 9.47431 69.6744C9.47431 69.7472 9.40151 69.82 9.40151 69.8928H6.99988V64.6528C6.99988 62.1056 9.40154 60.0679 12.3854 60.0679Z" fill="#003771"/>
<path d="M93.0956 56.2836V45.6582H97.4622V59.122H95.8611C94.4056 59.0492 93.0956 57.8119 93.0956 56.2836Z" fill="#003771"/>
<path d="M97.5353 45.0757C95.352 45.0757 93.6053 43.3291 93.6053 41.1458C93.6053 38.9625 95.352 37.2158 97.5353 37.2158V38.6714C96.1526 38.6714 95.0609 39.763 95.0609 41.1458C95.0609 42.5286 96.1526 43.6201 97.5353 43.6201V45.0757Z" fill="#003771"/>
<path d="M97.535 39.7632V42.5287C96.7345 42.5287 96.1522 41.8737 96.1522 41.146C96.1522 40.3454 96.8072 39.7632 97.535 39.7632Z" fill="#003771"/>
<path d="M83.7799 68.0736C84.3621 68.0736 84.8715 67.6369 85.0171 67.1274H90.6937V70.184C90.6937 70.9846 90.0387 71.5668 89.2381 71.5668H78.4671C77.6666 71.5668 77.0116 70.9118 77.0116 70.184V67.1274H82.6154C82.6882 67.7097 83.1976 68.0736 83.7799 68.0736Z" fill="#003771"/>
<path d="M78.3944 62.251H89.1654C89.966 62.251 90.621 62.9059 90.621 63.6337V66.472H84.9444C84.7988 65.8898 84.2894 65.5259 83.7071 65.5259C83.1249 65.5259 82.6155 65.9626 82.4699 66.472H76.8661V63.6337C76.9389 62.9059 77.5939 62.251 78.3944 62.251Z" fill="#003771"/>
<path d="M71.335 60.0679H64.785V61.1595H71.335V60.0679Z" fill="#003771"/>
<path d="M97.3165 60.7956L95.206 64.3616H91.3488V63.1972C91.3488 62.3239 90.621 61.5962 89.7477 61.5962H77.8122C76.9389 61.5962 76.2112 62.3239 76.2112 63.1972V64.3616H73.5184V60.0679H97.7532C97.6804 60.2862 97.4621 60.5773 97.3165 60.7956Z" fill="#003771"/>
<path d="M71.335 63.1968H64.785V64.3612H71.335V63.1968Z" fill="#003771"/>
<path d="M55.7606 60.1406L62.5289 60.0679V64.3616H60.0545C59.1812 62.0328 58.235 60.9412 55.7606 60.1406Z" fill="#003771"/>
<path d="M71.3354 52.1352H73.5915V59.049H83.5619L77.2303 51.9169C76.6481 51.1891 75.7748 50.7524 74.8287 50.7524H11.2216V59.049H62.5294V52.1352H64.7855V54.1729H71.3354V52.1352ZM17.3348 54.9007C17.3348 56.1379 16.316 57.1569 15.0788 57.1569C13.8416 57.1569 12.8227 56.1379 12.8227 54.9007C12.8227 53.6635 13.8416 52.6446 15.0788 52.6446C16.316 52.6446 17.3348 53.6635 17.3348 54.9007ZM23.5937 54.9007C23.5937 56.1379 22.5748 57.1569 21.3376 57.1569C20.1004 57.1569 19.0815 56.1379 19.0815 54.9007C19.0815 53.6635 20.1004 52.6446 21.3376 52.6446C22.5748 52.6446 23.5937 53.6635 23.5937 54.9007Z" fill="#003771"/>
<path d="M71.335 56.2832H64.785V59.1215H71.335V56.2832Z" fill="#003771"/>
<path d="M64.4212 52.499H62.9657V71.7849H64.4212V69.7471H71.6989V71.7849H73.1545V52.499H71.6989V54.5367H64.4212V52.499ZM64.4212 62.8333H71.6989V68.4372H64.4212V62.8333ZM64.4212 55.9195H71.6989V61.5234H64.4212V55.9195Z" fill="#003771"/>
<path fill-rule="evenodd" clip-rule="evenodd" d="M106.72 0.745117C106.72 1.0332 106.556 1.2832 106.318 1.40723V1.83398H106.743L107.008 3.20557H107.844V3.57227H129.998V5.37012H127.123V7.12158H129.206V8.32812H127.123V10.2793H129.206V14.396H128.012V16.6196H127.123V19.2461H128.485L127.633 21.7891H124.746V22.9248H126.107V24.0015H103.395V22.9248H110.117V21.7891H107.073V19.2461H108.433V16.6196H107.678V18.5952H106.223V19.0684H102.295L102.052 18.6733L100.647 18.8408L100.675 19.0776L94.8899 19.7661V21.8364H41.0598L36.0168 25.0552H4.5393L3.08813 21.8364H0.362542V19.9912H1.40356V19.6724C1.00219 19.4824 0.652581 19.1577 0.398675 18.7378C-0.0271066 18.0283 -0.121833 17.1768 0.162347 16.4551C0.491448 15.6055 1.2102 15.1226 1.94653 14.8506L1.40356 13.0835H3.02465V11.8999H4.78735L4.94164 12.5386H6.85766V11.8999H9.1643L9.3186 12.5386H11.2346V11.8999H13.5413L13.6946 12.5386H15.6116V11.8999H17.9299L18.0832 12.5386H19.9885V11.8999H22.3069L22.4602 12.5386H24.3772V11.8999H26.6838L26.8372 12.5386H28.7532V11.8999H31.0598L31.2141 12.5386H33.1301V11.8999H35.4368L35.5911 12.5386H37.5071V11.8999H39.8137L39.968 12.5386H41.884V11.8999H44.1907L44.344 12.5386H46.261V11.8999H48.5676L48.7209 12.5386H50.6379V11.8999H52.9446L53.0979 12.5386H55.0149V11.8999H57.3332L57.4866 12.5386H59.4036V11.8999H61.7102L61.8635 12.5386H63.7795V11.8999H66.0862L66.2405 12.5386H68.1565V11.8999H70.4631L70.6174 12.5386H72.5334V11.8999H74.8401L74.9944 12.5386H76.9104V11.8999H86.7756V13.0835H87.426L87.4377 13.0918V12.2661H93.9084V12.0654H95.5051V12.2661H96.7707L98.6995 14.1592H100.817V11.4976H104.65V9.66406H105.146V8.11426H105.666V7.12158H107.306C107.219 6.74951 107.114 6.37012 106.992 5.98389L106.885 5.6543H104.106V3.20557H104.929L105.194 1.83398H105.631V1.40674C105.392 1.28271 105.229 1.0332 105.229 0.745117C105.229 0.333496 105.563 0 105.975 0C106.386 0 106.72 0.333496 106.72 0.745117ZM95.0002 17.353V16.5605H17.0002V17.5605H93.5539L93.967 17.8623L94.8899 17.8628V18.146L100.485 17.48L100.514 17.7246L101.404 17.6191L101.159 17.2227H95.5051V17.353H95.0002ZM1.40356 17.8628L2.87035 17.8623L2.19946 15.6768C1.6643 15.8809 1.16918 16.2178 0.955315 16.7744C0.765862 17.2358 0.837151 17.8271 1.12035 18.3003C1.20336 18.4341 1.29907 18.5518 1.40356 18.6514V17.8628ZM107.782 5.6543C107.944 6.15479 108.077 6.64404 108.183 7.12158H108.433V5.37012H107.844V5.6543H107.782ZM108.433 8.32812V8.64453C108.422 8.53955 108.41 8.43408 108.397 8.32812H108.433ZM107.193 8.32812H107.53C107.592 8.78906 107.624 9.23535 107.626 9.66406H107.193V8.32812ZM111.253 22.9248H123.611V21.7891H111.253V22.9248ZM125.716 16.6196H109.841V19.2461H125.716V16.6196ZM109.841 8.32812H125.716V10.2793H109.841V8.32812ZM125.716 7.12158H109.841V5.37012H125.716V7.12158Z" fill="#003771"/>
<path d="M26.2454 46.6426V47.3169H27.1096V50.7236H49.4075V46.6426H52.5784L51.5657 42.5605H9.84106L12.76 46.6426H26.2454Z" fill="#003771"/>
<path d="M12.0862 41.5605H49.7424L15.9788 28.165L15.2454 25.5605H6.60961V34.4111L12.0862 41.5605Z" fill="#003771"/>
</svg>
