<svg width="170" height="90" viewBox="0 0 170 90" fill="none" xmlns="http://www.w3.org/2000/svg">
<path d="M9.74179 85.3215L9.34896 85.1665L9.0347 85.7863L8.87758 85.8638C8.72045 86.0188 8.48474 85.8638 8.40618 85.7089L8.32761 85.3989L8.40618 84.7791L8.09192 84.7016C8.01335 84.5466 7.85622 84.4692 7.69908 84.4692L6.6777 84.7791C6.52057 84.8566 6.44201 84.7791 6.36344 84.7016L6.75627 84.0043L6.28487 83.6169L6.2063 83.6944V83.4619C6.2063 83.3069 6.04917 83.1519 5.89204 83.1519H5.34208L5.4992 82.9195L5.0278 82.5321L4.47785 82.997C4.47785 82.9195 4.47785 82.9196 4.47785 82.8421L4.71354 81.8348C4.7921 81.6798 4.63498 81.4474 4.47785 81.4474H4.3207L4.24213 81.2149L3.77075 81.2924L3.37792 81.2149C3.14222 81.1374 3.06364 80.905 3.1422 80.75L3.29935 80.5176L3.77075 80.2077L3.61361 79.8203C3.69217 79.6653 3.6136 79.4329 3.45646 79.3554L2.51368 78.8904C2.43511 78.8129 2.35654 78.7355 2.35654 78.658C2.4351 78.5805 2.43511 78.503 2.43511 78.4255L2.6708 78.1932L3.45646 78.0381V77.4183H3.29935C3.29935 77.3409 3.22078 77.2633 3.22078 77.2633L2.43511 76.566L3.45646 76.3336V75.7137L3.06363 75.6362L3.37792 75.4037C3.53505 75.3262 3.6136 75.0938 3.45646 74.9389L2.98508 74.3191L3.53504 74.3965L3.77075 73.8541L3.22078 73.5442L4.00644 73.3118C4.16357 73.2343 4.3207 73.0793 4.24213 72.9243L4.16358 72.7694L4.3207 72.3044L3.92787 72.0721L3.8493 71.917C3.77073 71.6846 3.92789 71.5296 4.16358 71.5296H4.79211H5.18494C5.34207 71.5296 5.4992 71.3747 5.4992 71.2198L5.42063 70.135C5.42063 70.0575 5.42064 69.98 5.4992 69.98L6.12775 70.5224L6.59913 70.135L6.52058 70.0575L6.91342 70.135C7.07055 70.2125 7.30625 70.0575 7.30625 69.9025L7.46337 69.2052L7.69908 69.5926L8.24903 69.3602L8.09192 68.6628L8.95613 69.1277C9.11326 69.2052 9.34897 69.1277 9.42753 68.9728L9.82037 68.8178L9.74179 68.2754L9.89894 68.0429C9.9775 67.8105 10.2918 67.8105 10.4489 67.9655L10.9989 68.5079V68.6628H11.156C11.3131 68.8178 11.4703 68.8178 11.6274 68.6628L12.3345 67.888C12.4131 67.8105 12.4131 67.8105 12.4916 67.8105L12.6488 68.6628H13.2773V68.5854L13.4344 68.8178C13.513 68.9727 13.7487 69.0503 13.9058 68.8953L14.7701 68.3529C14.8486 68.2754 14.9272 68.2754 15.0058 68.2754V68.5079H15.2415L15.5557 69.5151C15.6343 69.6701 15.7914 69.8251 15.9486 69.7476L16.9699 69.4377C17.2056 69.3602 17.3628 69.5152 17.3628 69.7476V70.8324C17.3628 70.9873 17.5199 71.1422 17.677 71.1422L18.777 71.0648C19.0127 71.0648 19.1698 71.2197 19.0912 71.4522L18.8555 72.4595C18.777 72.6144 18.9341 72.8469 19.0912 72.8469L20.1126 73.0793C20.3483 73.1568 20.4269 73.3893 20.3483 73.5442L19.7983 74.474C19.7198 74.6289 19.7983 74.8614 19.9555 74.9389L20.8983 75.4037C21.134 75.4812 21.134 75.7912 20.9768 75.9462L20.2697 76.721C20.1126 76.8759 20.1126 77.0309 20.2697 77.1859L21.0554 77.8832C21.2125 78.0382 21.2125 78.2706 20.9768 78.4255L20.034 78.968C19.8769 79.0455 19.7983 79.2779 19.9555 79.4329L20.5054 80.2851C20.6626 80.4401 20.5054 80.6725 20.3483 80.75L19.3269 81.06C19.1698 81.1374 19.0127 81.2924 19.0912 81.4474L19.4055 82.4547C19.4841 82.6871 19.3269 82.8421 19.0912 82.8421H17.9913C17.8342 82.8421 17.677 82.997 17.677 83.1519L17.7556 84.2367C17.7556 84.4691 17.5985 84.6241 17.3628 84.5466L16.3414 84.3142C16.1843 84.2367 15.9486 84.3917 15.9486 84.5466L15.7129 85.554C15.7129 85.7089 15.5557 85.7863 15.4772 85.7863V85.6314H15.0058L14.2987 85.244C14.1415 85.1665 13.9058 85.244 13.8273 85.3989L13.3559 86.3288C13.2773 86.4063 13.1987 86.4837 13.1202 86.4837L12.963 85.6314H12.3345L12.2559 85.9414L12.0202 85.7089C11.8631 85.5539 11.706 85.5539 11.5488 85.7089L11.3131 85.9414L11.2346 85.6314H10.606L10.4489 86.5612C10.3703 86.5612 10.2918 86.4837 10.2918 86.4062L9.74179 85.4764C10.0561 85.3214 9.82036 85.244 9.74179 85.3215ZM11.7845 84.1592C15.7129 84.1592 18.9341 80.9825 18.9341 77.1084C18.9341 73.2343 15.7129 70.0575 11.7845 70.0575C7.8562 70.0575 4.63496 73.2343 4.63496 77.1084C4.63496 80.9825 7.8562 84.1592 11.7845 84.1592Z" fill="#003771"/>
<path d="M11.7845 74.0867C11.4702 74.0867 11.2345 73.8543 11.2345 73.5444C11.2345 73.2345 11.4702 73.002 11.7845 73.002C12.0988 73.002 12.3345 73.2345 12.3345 73.5444C12.3345 73.8543 12.0988 74.0867 11.7845 74.0867Z" fill="#003771"/>
<path d="M13.3558 74.5501C13.1201 74.3951 13.0416 74.0852 13.1987 73.8527C13.3558 73.6203 13.6701 73.5429 13.9058 73.6978C14.1415 73.8528 14.22 74.1627 14.0629 74.3952C13.9058 74.5501 13.5915 74.6276 13.3558 74.5501Z" fill="#003771"/>
<path d="M15.1636 75.8686C14.9279 76.0236 14.6136 75.9461 14.4564 75.6362C14.2993 75.4037 14.3779 75.0938 14.6922 74.9388C14.9279 74.7838 15.2421 74.8614 15.3992 75.1713C15.4778 75.4037 15.3993 75.7137 15.1636 75.8686Z" fill="#003771"/>
<path d="M14.8485 77.1069C14.8485 76.797 15.0842 76.5645 15.3985 76.5645C15.7128 76.5645 15.9485 76.797 15.9485 77.1069C15.9485 77.4168 15.7128 77.6492 15.3985 77.6492C15.0842 77.6492 14.8485 77.4168 14.8485 77.1069Z" fill="#003771"/>
<path d="M15.0844 78.4249C15.3201 78.5799 15.3986 78.8898 15.2415 79.1223C15.0844 79.3547 14.7701 79.4322 14.5344 79.2772C14.2987 79.1222 14.2201 78.8124 14.3773 78.5799C14.5344 78.425 14.8487 78.3474 15.0844 78.4249Z" fill="#003771"/>
<path d="M13.2778 79.7416C13.5135 79.5866 13.8278 79.664 13.9849 79.9739C14.142 80.2064 14.0635 80.5163 13.7492 80.6713C13.5135 80.8263 13.1992 80.7488 13.0421 80.4388C12.885 80.2064 13.0421 79.8965 13.2778 79.7416Z" fill="#003771"/>
<path d="M11.7065 80.1289C12.0208 80.1289 12.2565 80.3613 12.2565 80.6712C12.2565 80.9812 12.0208 81.2136 11.7065 81.2136C11.3922 81.2136 11.1565 80.9812 11.1565 80.6712C11.2351 80.3613 11.4708 80.1289 11.7065 80.1289Z" fill="#003771"/>
<path d="M10.2126 79.6635C10.4483 79.8185 10.5269 80.1284 10.3698 80.3609C10.2127 80.5933 9.8984 80.6709 9.6627 80.5159C9.427 80.3609 9.34842 80.051 9.50555 79.8185C9.66269 79.5861 9.97695 79.586 10.2126 79.6635Z" fill="#003771"/>
<path d="M8.40611 78.347C8.64181 78.192 8.95607 78.2696 9.1132 78.5795C9.27034 78.8894 9.19178 79.1218 8.87751 79.2768C8.64181 79.4317 8.32753 79.3543 8.17039 79.0444C8.01326 78.8119 8.09184 78.502 8.40611 78.347Z" fill="#003771"/>
<path d="M8.17158 76.5645C8.48585 76.5645 8.72156 76.797 8.72156 77.1069C8.72156 77.4168 8.48585 77.6492 8.17158 77.6492C7.85732 77.6492 7.62163 77.4168 7.62163 77.1069C7.62163 76.797 7.93588 76.5645 8.17158 76.5645Z" fill="#003771"/>
<path d="M8.4061 75.7903C8.1704 75.6353 8.09183 75.3255 8.24896 75.093C8.40609 74.8606 8.72036 74.7831 8.95606 74.938C9.19176 75.093 9.27033 75.4029 9.1132 75.6354C8.95607 75.7903 8.6418 75.8678 8.4061 75.7903Z" fill="#003771"/>
<path d="M10.2918 74.474C10.0561 74.629 9.74179 74.5515 9.58466 74.2416C9.42753 74.0091 9.50608 73.6993 9.82035 73.5443C10.0561 73.3893 10.3703 73.4668 10.5274 73.7767C10.6846 74.0866 10.5275 74.3191 10.2918 74.474Z" fill="#003771"/>
<path d="M11.7852 70.5996C15.3992 70.5996 18.3848 73.5439 18.3848 77.1081C18.3848 80.6723 15.3992 83.6166 11.7852 83.6166C8.17111 83.6166 5.18558 80.6723 5.18558 77.1081C5.18558 73.5439 8.17111 70.5996 11.7852 70.5996ZM11.7852 81.8345C14.4564 81.8345 16.5777 79.7425 16.5777 77.1081C16.5777 74.4737 14.4564 72.3817 11.7852 72.3817C9.11391 72.3817 6.99261 74.4737 6.99261 77.1081C6.99261 79.7425 9.11391 81.8345 11.7852 81.8345Z" fill="#003771"/>
<path d="M11.7848 74.3965C13.3562 74.3965 14.5347 75.6362 14.5347 77.1084C14.5347 78.5805 13.2776 79.8202 11.7848 79.8202C10.2135 79.8202 9.035 78.5805 9.035 77.1084C9.035 75.6362 10.2135 74.3965 11.7848 74.3965ZM11.7848 78.1156C12.3348 78.1156 12.8062 77.6507 12.8062 77.1084C12.8062 76.566 12.3348 76.1011 11.7848 76.1011C11.2349 76.1011 10.7635 76.566 10.7635 77.1084C10.6849 77.6507 11.1563 78.1156 11.7848 78.1156Z" fill="#003771"/>
<path d="M67.0961 71.0647C66.5754 71.0647 66.1533 70.6484 66.1533 70.1349C66.1533 69.6214 66.5754 69.2051 67.0961 69.2051C67.6168 69.2051 68.0389 69.6214 68.0389 70.1349C68.0389 70.6484 67.6168 71.0647 67.0961 71.0647Z" fill="#003771"/>
<path d="M67.0956 72.7682C65.6028 72.7682 64.4243 71.6059 64.4243 70.1337C64.4243 69.8238 64.5029 69.4364 64.5815 69.2039C64.8172 68.6615 65.21 68.1967 65.6814 67.8867L65.76 68.4291H66.3885L66.5456 67.4993C66.7028 67.4993 66.8599 67.4219 67.017 67.4219C67.4099 67.4219 67.7241 67.4993 68.117 67.6543L68.1955 68.3516H68.8241L68.9026 68.1192C69.2169 68.3517 69.374 68.6616 69.5312 69.049C69.6883 69.3589 69.6883 69.6688 69.6883 69.9787C69.7669 71.6058 68.5884 72.7682 67.0956 72.7682ZM68.2741 69.2039C67.9598 68.894 67.567 68.6616 67.0956 68.6616C66.6242 68.6616 66.2314 68.894 65.9171 69.2039C65.6814 69.4364 65.5243 69.8238 65.5243 70.1337C65.5243 70.986 66.2314 71.6834 67.0956 71.6834C67.9598 71.6834 68.6669 70.986 68.6669 70.1337C68.6669 69.8238 68.5098 69.4364 68.2741 69.2039Z" fill="#003771"/>
<path d="M44.9397 72.7695C43.4469 72.7695 42.2684 71.6072 42.2684 70.1351C42.2684 69.8251 42.347 69.4377 42.4256 69.2052C42.6613 68.6629 43.0541 68.198 43.6041 67.8881L43.6826 68.508H44.3112L44.4683 67.5781C44.6254 67.5781 44.7826 67.5781 44.8611 67.5781C44.9397 67.5781 45.0968 67.5781 45.1754 67.5781L45.3325 68.508H45.9611L46.1182 67.8106C46.6682 68.1205 47.1396 68.5854 47.3753 69.2052C47.5324 69.5152 47.5324 69.8251 47.5324 70.1351C47.611 71.6072 46.3539 72.7695 44.9397 72.7695ZM46.1182 69.2052C45.8039 68.8953 45.4111 68.6629 44.9397 68.6629C44.4683 68.6629 44.0755 68.8953 43.7612 69.2052C43.5255 69.4377 43.3684 69.8251 43.3684 70.1351C43.3684 70.9874 44.0755 71.6847 44.9397 71.6847C45.8039 71.6847 46.511 70.9874 46.511 70.1351C46.4325 69.8251 46.3539 69.4377 46.1182 69.2052Z" fill="#003771"/>
<path d="M44.94 71.1427C44.3901 71.1427 43.9972 70.6778 43.9972 70.2129C43.9972 69.7481 44.4686 69.2832 44.94 69.2832C45.49 69.2832 45.8828 69.7481 45.8828 70.2129C45.8828 70.6778 45.49 71.1427 44.94 71.1427Z" fill="#003771"/>
<path d="M50.1261 85.5542V85.3992H49.4976L49.419 86.0965C49.1833 86.2515 48.869 86.329 48.6333 86.4065L48.4762 85.4766H47.8477L47.6906 86.4065C47.062 86.329 46.5121 86.0191 46.0407 85.6317V85.4766H45.8835C45.4907 85.0117 45.1764 84.3919 45.1764 83.6946V81.2927H34.9628V83.6946C34.9628 84.6244 34.4914 85.3992 33.7843 85.9416L33.7057 85.4766H33.0772L32.92 86.329C32.6843 86.4065 32.4486 86.4839 32.1344 86.4839L31.9772 85.4766H31.3487L31.1916 86.329C30.0131 86.0191 29.0703 84.9343 29.0703 83.6171V81.2151H21.7636V74.1643H22.9421V79.9754H88.8595V71.6074H90.038V81.1377H82.7313V83.5396C82.7313 84.6243 82.1027 85.5542 81.2385 86.0191L81.0814 85.3217H80.4528L80.2957 86.2515C80.1386 86.2515 79.9814 86.2515 79.8243 86.2515H79.7457C79.3529 86.2515 79.0386 86.174 78.7244 86.0191L78.5672 85.2442H77.9387L77.8601 85.5542C77.2316 85.0118 76.8388 84.3144 76.8388 83.4621V81.0602H66.6251V83.4621C66.6251 84.1595 66.3894 84.7793 65.918 85.2442H65.6037L65.5252 85.6317C65.2895 85.8641 64.9752 86.019 64.661 86.0965L64.5038 85.2442H63.8753L63.7181 86.2515H63.6396C63.0896 86.2515 62.5396 86.0965 62.1468 85.864L62.0682 85.3217H61.5183C61.1255 84.8568 60.8112 84.2369 60.8112 83.5396V81.1377H50.5975V83.5396C50.9118 84.3144 50.5975 85.0118 50.1261 85.5542ZM32.0558 82.7648C31.3487 82.7648 30.7987 83.3072 30.7987 84.0045C30.7987 84.7019 31.3487 85.2442 32.0558 85.2442C32.7629 85.2442 33.3129 84.7019 33.3129 84.0045C33.3129 83.3072 32.7629 82.7648 32.0558 82.7648ZM48.0048 82.7648C47.2977 82.7648 46.7478 83.3072 46.7478 84.0045C46.7478 84.7019 47.2977 85.2442 48.0048 85.2442C48.7119 85.2442 49.2619 84.7019 49.2619 84.0045C49.2619 83.3072 48.7119 82.7648 48.0048 82.7648ZM79.9814 85.1668C80.6885 85.1668 81.2385 84.6243 81.2385 83.927C81.2385 83.2297 80.6885 82.6873 79.9814 82.6873C79.2743 82.6873 78.7244 83.2297 78.7244 83.927C78.7244 84.6243 79.2743 85.1668 79.9814 85.1668ZM64.0324 85.1668C64.7395 85.1668 65.2895 84.6243 65.2895 83.927C65.2895 83.2297 64.7395 82.6873 64.0324 82.6873C63.3253 82.6873 62.7753 83.2297 62.7753 83.927C62.7753 84.6243 63.3253 85.1668 64.0324 85.1668Z" fill="#003771"/>
<path d="M23.8839 74.3965H88.23V78.9679H23.8839V74.3965ZM71.9667 77.4183H76.2093C76.7592 77.4183 77.1521 77.0308 77.1521 76.4885C77.1521 75.9461 76.7592 75.5587 76.2093 75.5587H71.9667C71.4167 75.5587 71.0239 75.9461 71.0239 76.4885C71.0239 77.0308 71.4167 77.4183 71.9667 77.4183ZM35.9046 77.4183H40.1472C40.6972 77.4183 41.09 77.0308 41.09 76.4885C41.09 75.9461 40.6972 75.5587 40.1472 75.5587H35.9046C35.3546 75.5587 34.9618 75.9461 34.9618 76.4885C34.9618 77.0308 35.3546 77.4183 35.9046 77.4183Z" fill="#003771"/>
<path d="M94.5161 82.3765L94.7518 81.6017H100.88C103.63 81.6017 105.83 79.4323 105.83 76.7204V76.6429C105.83 73.931 103.63 71.7615 100.88 71.7615H94.2018L94.1233 71.529C94.0447 71.2966 94.2018 71.1416 94.4375 71.1416H95.5374C95.6946 71.1416 95.8517 70.9867 95.8517 70.8318L95.7731 69.747C95.7731 69.5146 95.9303 69.3596 96.166 69.4371L97.1874 69.6695C97.3445 69.747 97.5802 69.592 97.5802 69.4371L97.8159 68.4297C97.8944 68.1973 98.1301 68.1199 98.2873 68.1974L98.6801 68.4297V68.6622H99.0729L99.1515 68.7397C99.3087 68.8172 99.5444 68.7397 99.6229 68.5848L100.094 67.6549C100.173 67.5 100.33 67.5 100.409 67.5C100.487 67.5775 100.566 67.6549 100.644 67.6549L100.959 67.9649L101.037 68.7397H101.666L101.744 68.3523C101.744 68.3523 101.823 68.3523 101.823 68.2748L102.373 67.6549H102.608L102.766 68.6622H103.394L103.473 68.1199L103.63 68.3523C103.708 68.5072 103.944 68.5847 104.101 68.4297L104.651 68.0423L104.494 68.7397L105.044 68.9722L105.437 68.1974L105.673 69.0496C105.751 69.2046 105.83 69.2821 105.987 69.2821L106.537 69.5145L106.772 69.0496L107.008 68.9722C107.244 68.8947 107.401 69.0497 107.401 69.2821V70.3668C107.401 70.5218 107.558 70.6767 107.715 70.6767L108.815 70.5993C108.894 70.5993 109.051 70.5993 109.051 70.6767L108.737 71.1416L108.972 71.3741L108.815 71.994C108.737 72.149 108.894 72.3814 109.051 72.3814L109.758 72.5363L109.915 72.9237L110.308 72.8463C110.308 72.9238 110.308 73.0013 110.308 73.1562L109.758 74.086C109.679 74.2409 109.758 74.4734 109.915 74.5508L110.858 75.0157C111.094 75.0932 111.094 75.4032 110.937 75.5582L110.701 75.7905H110.622V75.8681L110.229 76.333C110.072 76.4879 110.072 76.6429 110.229 76.7978L110.937 77.4177L110.544 77.4952V78.115H110.701L109.994 78.5024C109.837 78.5799 109.758 78.8124 109.915 78.9674L110.387 79.7422L110.229 80.2071L110.387 80.2845H110.308L109.287 80.5945C109.129 80.672 108.972 80.8269 109.051 80.9819L109.365 81.9891C109.444 82.2215 109.287 82.3765 109.051 82.3765H107.951C107.794 82.3765 107.637 82.5315 107.637 82.6865L107.715 83.4613L107.244 83.8487L107.401 84.0812H107.322L106.301 83.8487C106.144 83.7712 105.908 83.9262 105.908 84.0812L105.83 84.546L105.673 84.6235L105.751 85.0109V85.0884C105.673 85.3208 105.437 85.3984 105.28 85.3209L104.73 85.0109V84.9335H104.651L104.337 84.7785C104.18 84.701 103.944 84.7785 103.866 84.9335L103.394 85.8632C103.316 86.0182 103.237 86.0182 103.08 86.0182L102.923 85.2434H102.294V85.3983L102.058 85.2434C101.901 85.0884 101.744 85.0884 101.587 85.2434L101.273 85.6308L101.194 85.3209H100.566L100.487 86.1732C100.409 86.1732 100.409 86.0957 100.33 86.0182L99.78 85.0884C99.7015 84.9334 99.4658 84.856 99.3086 85.0109L98.7587 85.3983V85.3209H98.1301L98.0516 85.6308C97.973 85.5533 97.8944 85.5533 97.8944 85.4758L97.5802 84.4686C97.5016 84.3136 97.3445 84.1586 97.1874 84.2361L96.166 84.546C95.9303 84.6235 95.7731 84.4685 95.7731 84.2361V83.1513C95.7731 82.9964 95.616 82.8415 95.4589 82.8415L94.3589 82.9189C94.6732 82.764 94.4375 82.609 94.5161 82.3765Z" fill="#003771"/>
<path d="M105.514 76.5655V76.6431C105.514 79.1225 103.472 81.2144 100.879 81.2144H91.0581V71.9941H100.879C103.393 72.0716 105.514 74.0861 105.514 76.5655ZM99.7005 76.6431C99.7005 77.8828 100.722 78.8125 101.9 78.8125C103.157 78.8125 104.1 77.8053 104.1 76.6431C104.1 75.4033 103.079 74.4735 101.9 74.4735C100.722 74.4735 99.7005 75.4808 99.7005 76.6431Z" fill="#003771"/>
<path d="M109.129 70.9867L109.679 70.1344L108.972 69.5145L108.186 70.2119L107.872 69.9794L108.422 69.1271L108.265 68.9722C108.108 68.8172 108.029 68.5848 108.186 68.3523L109.129 67.1901C109.208 67.1126 109.286 67.0352 109.444 67.0352C109.522 67.0352 109.601 67.0351 109.679 67.1126C109.836 67.2676 109.915 67.5001 109.758 67.7325L109.679 67.81L110.151 68.1974L110.229 68.1199C110.308 68.0424 110.386 67.9649 110.543 67.9649C110.622 67.9649 110.701 67.9649 110.779 68.0424C110.936 68.1973 111.015 68.4298 110.858 68.6623L110.779 68.7397L111.251 69.1271L111.329 69.0497C111.408 68.9722 111.486 68.8947 111.643 68.8947C111.722 68.8947 111.801 68.8947 111.879 68.9722C112.036 69.1272 112.115 69.3596 111.958 69.592L111.015 70.7542C110.936 70.8317 110.779 70.9093 110.701 70.9093C110.622 70.9093 110.543 70.9093 110.465 70.8318L110.308 70.6768L109.522 71.3741L109.129 70.9867ZM110.308 70.2894C110.386 70.3668 110.543 70.4444 110.701 70.4444C110.858 70.4444 111.093 70.3669 111.172 70.2119C111.408 69.9795 111.329 69.5921 111.093 69.3596C111.015 69.2821 110.858 69.2046 110.701 69.2046C110.543 69.2046 110.308 69.2821 110.229 69.4371C109.994 69.6695 110.072 70.0569 110.308 70.2894ZM109.522 68.0424C109.444 67.9649 109.286 67.8874 109.129 67.8874C108.972 67.8874 108.736 67.965 108.658 68.1199C108.422 68.3524 108.501 68.7398 108.736 68.9722C108.815 69.0497 108.972 69.1271 109.129 69.1271C109.286 69.1271 109.522 69.0497 109.601 68.8947C109.836 68.6623 109.758 68.2748 109.522 68.0424Z" fill="#003771"/>
<path d="M110.229 72.6142L110.072 72.2268L110.936 71.6844L110.857 71.452C110.779 71.2195 110.857 70.9871 111.093 70.9096L112.507 70.3672C112.586 70.3672 112.586 70.3672 112.664 70.3672C112.822 70.3672 112.979 70.4447 113.057 70.5997C113.136 70.8321 113.057 71.0645 112.822 71.142H112.743L112.979 71.6844H113.057C113.136 71.6844 113.136 71.6844 113.214 71.6844C113.372 71.6844 113.529 71.7619 113.607 71.9168C113.686 72.1493 113.607 72.3818 113.372 72.4593H113.293L113.529 73.0016H113.607C113.686 73.0016 113.686 73.0016 113.764 73.0016C113.921 73.0016 114.079 73.0791 114.157 73.2341C114.236 73.4665 114.157 73.6989 113.921 73.7764L112.507 74.3188C112.429 74.3188 112.429 74.3188 112.35 74.3188C112.193 74.3188 112.036 74.2413 111.957 74.0864L111.879 73.8539L110.857 74.0864L110.7 73.699L111.564 73.1566L111.25 72.3042L110.229 72.6142ZM112.114 73.7764C112.193 74.0089 112.429 74.1638 112.664 74.1638C112.743 74.1638 112.822 74.1638 112.9 74.0864C113.214 73.9314 113.372 73.6215 113.214 73.3115C113.136 73.0791 112.9 72.9241 112.664 72.9241C112.586 72.9241 112.507 72.9241 112.429 73.0016C112.114 73.0791 111.957 73.389 112.114 73.7764ZM111.879 72.2268C111.957 72.2268 112.036 72.2268 112.114 72.1493C112.429 71.9943 112.586 71.6844 112.429 71.3745C112.35 71.142 112.114 70.9871 111.879 70.9871C111.8 70.9871 111.722 70.9871 111.643 71.0645C111.329 71.2195 111.172 71.5294 111.329 71.8394C111.407 72.0718 111.643 72.2268 111.879 72.2268Z" fill="#003771"/>
<path d="M113.921 78.6573L112.428 78.5798C112.192 78.5798 112.035 78.3473 112.035 78.1149V77.8825L111.014 77.65V77.2626L112.035 77.1077V76.1778L111.014 75.9454V75.558L112.035 75.403V75.1706C112.035 74.9382 112.192 74.7832 112.428 74.7832H113.921C114.156 74.7832 114.314 75.0156 114.314 75.2481C114.314 75.4805 114.156 75.6355 113.921 75.6355H113.842V76.2554H113.921C114.156 76.2554 114.314 76.4878 114.314 76.7203C114.314 76.9527 114.156 77.1077 113.921 77.1077H113.842V77.7275H113.921C114.156 77.7275 114.314 77.96 114.314 78.1924C114.392 78.4249 114.156 78.6573 113.921 78.6573ZM112.899 78.4248C113.214 78.4248 113.528 78.1149 113.528 77.805C113.528 77.4951 113.292 77.1851 112.899 77.1851C112.585 77.1851 112.271 77.4951 112.271 77.805C112.271 78.1149 112.585 78.4248 112.899 78.4248ZM112.978 75.0932C112.585 75.0932 112.349 75.3255 112.349 75.7129C112.349 76.0229 112.585 76.3328 112.978 76.3328C113.292 76.3328 113.606 76.0229 113.606 75.7129C113.606 75.403 113.371 75.0932 112.978 75.0932Z" fill="#003771"/>
<path d="M104.337 66.9586L104.808 65.5639C104.887 65.4089 105.044 65.2539 105.201 65.2539C105.279 65.2539 105.279 65.2539 105.358 65.2539C105.594 65.3314 105.672 65.5639 105.594 65.7963V65.8738L106.144 66.0287V65.9513C106.222 65.7963 106.379 65.6413 106.536 65.6413C106.615 65.6413 106.615 65.6413 106.694 65.6413C106.929 65.7188 107.008 65.9513 106.929 66.1837V66.2612L107.479 66.4161V66.3387C107.558 66.1837 107.715 66.0287 107.872 66.0287C107.951 66.0287 107.951 66.0287 108.029 66.0287C108.265 66.1062 108.344 66.3387 108.265 66.5712L107.794 67.9658C107.715 68.1207 107.558 68.2757 107.401 68.2757C107.322 68.2757 107.322 68.2757 107.244 68.2757L107.008 68.1983L106.536 69.128L106.144 68.9731L106.301 67.9658L105.437 67.6558L104.965 68.5857L104.572 68.4307L104.729 67.4234L104.494 67.346C104.415 67.4235 104.258 67.191 104.337 66.9586ZM107.008 68.0432C107.086 68.0432 107.165 68.0432 107.244 68.0432C107.479 68.0432 107.715 67.8883 107.872 67.6558C107.951 67.3459 107.794 66.9585 107.479 66.881C107.401 66.881 107.322 66.881 107.244 66.881C107.008 66.881 106.772 67.036 106.694 67.2684C106.537 67.5783 106.694 67.9658 107.008 68.0432ZM105.122 67.4234C105.201 67.4234 105.279 67.4234 105.358 67.4234C105.594 67.4234 105.829 67.2685 105.987 67.036C106.065 66.7261 105.908 66.3387 105.594 66.2612C105.515 66.2612 105.437 66.2612 105.358 66.2612C105.122 66.2612 104.887 66.4162 104.729 66.6486C104.572 66.9585 104.729 67.2685 105.122 67.4234Z" fill="#003771"/>
<path d="M103.629 67.4228H103.393L103.236 68.43H102.843L102.686 67.4228H101.744L101.586 68.43H101.194L101.036 67.4228H100.801C100.565 67.4228 100.408 67.2678 100.408 67.0354V65.5632C100.408 65.3307 100.565 65.1758 100.801 65.1758C101.036 65.1758 101.194 65.3307 101.194 65.5632V65.6407H101.822V65.5632C101.822 65.3307 101.979 65.1758 102.215 65.1758C102.451 65.1758 102.608 65.3307 102.608 65.5632V65.6407H103.236V65.5632C103.236 65.3307 103.393 65.1758 103.629 65.1758C103.865 65.1758 104.022 65.3307 104.022 65.5632V67.0354C104.101 67.1903 103.865 67.4228 103.629 67.4228ZM101.194 65.8731C100.879 65.8731 100.565 66.183 100.565 66.4929C100.565 66.8029 100.879 67.1128 101.194 67.1128C101.508 67.1128 101.822 66.8029 101.822 66.4929C101.822 66.183 101.586 65.8731 101.194 65.8731ZM103.315 65.8731C103.001 65.8731 102.686 66.183 102.686 66.4929C102.686 66.8029 103.001 67.1128 103.315 67.1128C103.629 67.1128 103.943 66.8029 103.943 66.4929C103.943 66.183 103.629 65.8731 103.315 65.8731Z" fill="#003771"/>
<path d="M99.5439 67.4228H99.3082L99.1511 68.43H98.7582L98.6011 67.4228H97.6583L97.5012 68.43H97.1083L96.9512 67.4228H96.7155C96.4798 67.4228 96.3227 67.2678 96.3227 67.0354V65.5632C96.3227 65.3307 96.4798 65.1758 96.7155 65.1758C96.9512 65.1758 97.1083 65.3307 97.1083 65.5632V65.6407H97.7369V65.5632C97.7369 65.3307 97.894 65.1758 98.1297 65.1758C98.3654 65.1758 98.5225 65.3307 98.5225 65.5632V65.6407H99.1511V65.5632C99.1511 65.3307 99.3082 65.1758 99.5439 65.1758C99.7796 65.1758 99.9367 65.3307 99.9367 65.5632V67.0354C100.015 67.1903 99.7796 67.4228 99.5439 67.4228ZM97.1083 65.8731C96.7941 65.8731 96.4798 66.183 96.4798 66.4929C96.4798 66.8029 96.7941 67.1128 97.1083 67.1128C97.4226 67.1128 97.7369 66.8029 97.7369 66.4929C97.7369 66.183 97.5012 65.8731 97.1083 65.8731ZM99.2296 65.8731C98.9154 65.8731 98.6011 66.183 98.6011 66.4929C98.6011 66.8029 98.9154 67.1128 99.2296 67.1128C99.5439 67.1128 99.8582 66.8029 99.8582 66.4929C99.7796 66.183 99.5439 65.8731 99.2296 65.8731Z" fill="#003771"/>
<path d="M108.264 84.7782L108.421 84.6232L107.871 83.7709L108.185 83.5385L108.971 84.2358L109.678 83.616L109.128 82.7636L109.442 82.5312L110.228 83.2286L110.385 83.0736C110.464 82.9961 110.542 82.9961 110.621 82.9961C110.778 82.9961 110.857 83.0736 110.935 83.151L111.878 84.3133C112.035 84.4682 112.035 84.7782 111.799 84.9332C111.642 85.0881 111.328 85.0882 111.171 84.8557L111.092 84.7782L110.621 85.1657L110.7 85.2431C110.857 85.3981 110.857 85.708 110.621 85.8629C110.464 86.0179 110.15 86.0179 109.992 85.7855L109.914 85.708L109.442 86.0954L109.521 86.1729C109.678 86.3278 109.678 86.6378 109.442 86.7928C109.364 86.8702 109.285 86.8702 109.207 86.8702C109.05 86.8702 108.971 86.7928 108.893 86.7153L107.95 85.5531C108.028 85.2431 108.028 84.9332 108.264 84.7782ZM110.228 84.2358C110.385 84.3908 110.542 84.4683 110.7 84.4683C110.857 84.4683 111.014 84.3908 111.092 84.3133C111.328 84.0808 111.407 83.6934 111.171 83.461C111.014 83.306 110.857 83.2286 110.7 83.2286C110.542 83.2286 110.385 83.3061 110.307 83.3835C110.071 83.616 109.992 84.0034 110.228 84.2358ZM108.657 85.6305C108.814 85.7855 108.971 85.8629 109.128 85.8629C109.285 85.8629 109.442 85.7855 109.521 85.708C109.757 85.4755 109.835 85.0882 109.6 84.8557C109.442 84.7007 109.285 84.6232 109.128 84.6232C108.971 84.6232 108.814 84.7008 108.735 84.7782C108.5 84.9332 108.421 85.3206 108.657 85.6305Z" fill="#003771"/>
<path d="M110.935 82.1436L111.014 81.9111L110.15 81.3688L110.307 80.9813L111.328 81.2137L111.642 80.3614L110.778 79.8191L110.935 79.4317L111.957 79.6641L112.035 79.4317C112.114 79.2767 112.271 79.1992 112.428 79.1992C112.507 79.1992 112.507 79.1992 112.585 79.1992L113.999 79.7416C114.235 79.8191 114.314 80.0515 114.235 80.284C114.157 80.439 113.999 80.5165 113.842 80.5165C113.764 80.5165 113.764 80.5165 113.685 80.5165H113.607L113.371 81.0588H113.45C113.685 81.1363 113.764 81.3687 113.685 81.6011C113.607 81.7561 113.45 81.8336 113.292 81.8336C113.214 81.8336 113.214 81.8336 113.135 81.8336H113.057L112.821 82.376H112.9C113.135 82.4534 113.214 82.6859 113.135 82.9184C113.057 83.0734 112.9 83.1508 112.742 83.1508C112.664 83.1508 112.664 83.1508 112.585 83.1508L111.171 82.6084C110.935 82.6084 110.857 82.376 110.935 82.1436ZM112.664 80.8263C112.9 80.8263 113.135 80.6714 113.214 80.4389C113.371 80.129 113.214 79.7416 112.9 79.6641C112.821 79.6641 112.742 79.5866 112.664 79.5866C112.428 79.5866 112.192 79.7416 112.114 79.974C111.957 80.284 112.114 80.6714 112.428 80.7489C112.507 80.8263 112.585 80.8263 112.664 80.8263ZM111.642 82.6859C111.721 82.6859 111.8 82.7634 111.878 82.7634C112.114 82.7634 112.35 82.6084 112.428 82.376C112.585 82.066 112.428 81.6786 112.114 81.6011C112.035 81.6011 111.957 81.5237 111.878 81.5237C111.642 81.5237 111.407 81.6786 111.328 81.9111C111.171 82.221 111.328 82.5309 111.642 82.6859Z" fill="#003771"/>
<path d="M104.572 86.1727L104.808 86.0952L104.65 85.0879L105.043 84.933L105.515 85.8627L106.379 85.5529L106.222 84.5456L106.615 84.3906L107.086 85.3204L107.322 85.2429C107.4 85.2429 107.4 85.2429 107.479 85.2429C107.636 85.2429 107.793 85.3204 107.872 85.5529L108.343 86.9475C108.422 87.1799 108.265 87.4124 108.107 87.4899C108.029 87.4899 108.029 87.4899 107.95 87.4899C107.793 87.4899 107.636 87.4124 107.557 87.18V87.1025L107.007 87.2574V87.3349C107.086 87.5673 106.929 87.7998 106.772 87.8773C106.693 87.8773 106.693 87.8773 106.615 87.8773C106.458 87.8773 106.3 87.7998 106.222 87.5674V87.4899L105.672 87.6448V87.7223C105.75 87.9547 105.593 88.1872 105.436 88.2647C105.358 88.2647 105.358 88.2647 105.279 88.2647C105.122 88.2647 104.965 88.1872 104.886 87.9548L104.415 86.5601C104.258 86.4826 104.415 86.2501 104.572 86.1727ZM106.615 86.4051C106.693 86.6376 106.929 86.7925 107.165 86.7925C107.243 86.7925 107.322 86.7925 107.4 86.7925C107.715 86.7151 107.872 86.3277 107.793 86.0177C107.715 85.7853 107.479 85.6303 107.165 85.6303C107.086 85.6303 107.007 85.6303 106.929 85.6303C106.693 85.7078 106.536 86.0952 106.615 86.4051ZM104.729 87.1025C104.808 87.3349 105.043 87.4899 105.358 87.4899C105.436 87.4899 105.515 87.4899 105.593 87.4899C105.908 87.4124 106.065 87.025 105.986 86.7151C105.908 86.4826 105.672 86.3277 105.358 86.3277C105.279 86.3277 105.2 86.3277 105.122 86.3277C104.729 86.4052 104.572 86.7151 104.729 87.1025Z" fill="#003771"/>
<path d="M100.801 86.3276H101.037L101.194 85.3203H101.587L101.744 86.3276H102.687L102.844 85.3203H103.237L103.394 86.3276H103.63C103.866 86.3276 104.023 86.4826 104.023 86.715V88.1871C104.023 88.4196 103.866 88.5745 103.63 88.5745C103.394 88.5745 103.237 88.4196 103.237 88.1871V88.1096H102.609V88.1871C102.609 88.4196 102.451 88.5745 102.216 88.5745C101.98 88.5745 101.823 88.4196 101.823 88.1871V88.1096H101.194V88.1871C101.194 88.4196 101.037 88.5745 100.801 88.5745C100.566 88.5745 100.409 88.4196 100.409 88.1871V86.715C100.409 86.4826 100.566 86.3276 100.801 86.3276ZM103.316 87.7997C103.63 87.7997 103.944 87.4898 103.944 87.1799C103.944 86.87 103.63 86.56 103.316 86.56C103.001 86.56 102.687 86.87 102.687 87.1799C102.687 87.4898 102.923 87.7997 103.316 87.7997ZM101.194 87.7997C101.509 87.7997 101.823 87.4898 101.823 87.1799C101.823 86.87 101.509 86.56 101.194 86.56C100.88 86.56 100.566 86.87 100.566 87.1799C100.566 87.4898 100.88 87.7997 101.194 87.7997Z" fill="#003771"/>
<path d="M96.7152 86.3276H96.9509L97.108 85.3203H97.5008L97.658 86.3276H98.6008L98.7579 85.3203H99.1507L99.3079 86.3276H99.5436C99.7793 86.3276 99.9364 86.4826 99.9364 86.715V88.1871C99.9364 88.4196 99.7793 88.5745 99.5436 88.5745C99.3079 88.5745 99.1507 88.4196 99.1507 88.1871V88.1096H98.5222V88.1871C98.5222 88.4196 98.3651 88.5745 98.1294 88.5745C97.8937 88.5745 97.7365 88.4196 97.7365 88.1871V88.1096H97.108V88.1871C97.108 88.4196 96.9509 88.5745 96.7152 88.5745C96.4795 88.5745 96.3223 88.4196 96.3223 88.1871V86.715C96.2438 86.4826 96.4795 86.3276 96.7152 86.3276ZM99.2293 87.7997C99.5436 87.7997 99.8578 87.4898 99.8578 87.1799C99.8578 86.87 99.5436 86.56 99.2293 86.56C98.915 86.56 98.6008 86.87 98.6008 87.1799C98.6008 87.4898 98.8365 87.7997 99.2293 87.7997ZM97.108 87.7997C97.4223 87.7997 97.7365 87.4898 97.7365 87.1799C97.7365 86.87 97.4223 86.56 97.108 86.56C96.7937 86.56 96.4795 86.87 96.4795 87.1799C96.4795 87.4898 96.7937 87.7997 97.108 87.7997Z" fill="#003771"/>
<path d="M2.98532 69.049L3.06387 69.1264L3.53527 68.739L3.4567 68.6616C3.29957 68.5066 3.29957 68.1966 3.53527 68.0417C3.69241 67.8867 4.00669 67.8868 4.16382 68.1192L4.24237 68.1967L4.71377 67.8093L4.6352 67.7318C4.47807 67.5768 4.47807 67.2669 4.71377 67.1119C4.8709 66.957 5.18519 66.9569 5.34232 67.1894L6.2851 68.3516C6.44224 68.5066 6.44223 68.8165 6.20653 68.9715L6.04941 69.1264L6.59937 70.0563L6.2851 70.2887L5.49944 69.5913L4.79234 70.2112L5.34232 71.1409L5.02803 71.3734L4.24237 70.6761L4.08525 70.8311C4.00668 70.9086 3.9281 70.9086 3.84953 70.9086C3.6924 70.9086 3.61384 70.831 3.53527 70.7535L2.59249 69.5913C2.43535 69.4363 2.43533 69.1265 2.67103 68.9715C2.59247 68.894 2.82819 68.894 2.98532 69.049ZM4.71377 68.9715C4.8709 69.1265 5.02804 69.2039 5.18518 69.2039C5.34231 69.2039 5.49944 69.1264 5.57801 69.049C5.81371 68.8165 5.89228 68.4291 5.65658 68.1967C5.49945 68.0417 5.34231 67.9642 5.18518 67.9642C5.02804 67.9642 4.87091 68.0417 4.79234 68.1192C4.55664 68.2742 4.55664 68.7391 4.71377 68.9715ZM3.14244 70.2887C3.29957 70.4436 3.45671 70.5211 3.61384 70.5211C3.77098 70.5211 3.92811 70.4436 4.00668 70.3661C4.24238 70.1337 4.32095 69.7463 4.08525 69.5138C3.92811 69.3589 3.77098 69.2814 3.61384 69.2814C3.45671 69.2814 3.29958 69.3589 3.22101 69.4364C2.98531 69.6688 2.90674 70.0562 3.14244 70.2887Z" fill="#003771"/>
<path d="M3.4575 71.6831L3.37895 71.9154L4.24316 72.4579L4.08605 72.8453L3.06466 72.6128L2.7504 73.4651L3.61464 74.0075L3.4575 74.3949L2.43614 74.1624L2.35757 74.3949C2.279 74.5499 2.12187 74.6273 1.96474 74.6273C1.88617 74.6273 1.88618 74.6273 1.80762 74.6273L0.393405 74.085C0.157705 74.0075 0.0791478 73.7751 0.157714 73.5426C0.236281 73.3877 0.393414 73.2327 0.550547 73.2327C0.629114 73.2327 0.6291 73.2327 0.707666 73.2327H0.786238L1.02195 72.6903H0.943381C0.707681 72.6128 0.6291 72.3804 0.707666 72.1479C0.786233 71.993 0.943366 71.838 1.1005 71.838C1.17907 71.838 1.17908 71.838 1.25764 71.838H1.33621L1.5719 71.2956H1.49333C1.25763 71.2182 1.17908 70.9857 1.25764 70.7532C1.33621 70.5982 1.49334 70.4434 1.65048 70.4434C1.72904 70.4434 1.72905 70.4434 1.80762 70.4434L3.22181 70.9857C3.37894 71.1407 3.53606 71.4506 3.4575 71.6831ZM1.65048 73.0002C1.41478 73.0002 1.17907 73.1552 1.1005 73.3876C0.943366 73.6975 1.10052 74.0849 1.41479 74.2399C1.49335 74.2399 1.57191 74.3175 1.65048 74.3175C1.88618 74.3175 2.12188 74.1625 2.20045 73.9301C2.35758 73.6201 2.20043 73.2326 1.88617 73.0777C1.8076 73.0777 1.72904 73.0002 1.65048 73.0002ZM2.67183 71.1406C2.59327 71.1406 2.51471 71.0632 2.43614 71.0632C2.20044 71.0632 1.96473 71.2181 1.88617 71.4506C1.72903 71.7605 1.88618 72.1479 2.20045 72.3029C2.27902 72.3029 2.35757 72.3804 2.43614 72.3804C2.67184 72.3804 2.90755 72.2254 2.98612 71.993C3.14325 71.6056 2.9861 71.2956 2.67183 71.1406Z" fill="#003771"/>
<path d="M0.392586 77.4182C0.156886 77.4182 -0.000247002 77.2632 -0.000247002 77.0308C-0.000247002 76.7984 0.156886 76.5658 0.392586 76.5658H0.471158V75.946H0.392586C0.156886 75.946 -0.000247002 75.7911 -0.000247002 75.5586C-0.000247002 75.3262 0.156886 75.0938 0.392586 75.0938H1.88535C2.12105 75.0938 2.27818 75.2487 2.27818 75.4812V75.7135L3.29956 75.8686V76.256L2.27818 76.4884V77.4182L3.29956 77.5731V77.9605L2.27818 78.193V78.4254C2.27818 78.6579 2.12105 78.8903 1.88535 78.8903H0.392586V78.9679V78.8903C0.156886 78.8903 -0.000247002 78.7353 -0.000247002 78.5029C-0.000247002 78.2704 0.156886 78.038 0.392586 78.038H0.471158V77.4182H0.392586ZM1.41397 78.6579C1.8068 78.6579 2.04249 78.3479 2.04249 78.038C2.04249 77.7281 1.72823 77.4182 1.41397 77.4182C1.0997 77.4182 0.785419 77.7281 0.785419 78.038C0.785419 78.4254 1.0997 78.6579 1.41397 78.6579ZM1.3354 76.5658C1.72823 76.5658 1.96392 76.256 1.96392 75.946C1.96392 75.6361 1.64966 75.3261 1.3354 75.3261C1.02113 75.3261 0.706848 75.6361 0.706848 75.946C0.785414 76.256 1.02113 76.5658 1.3354 76.5658Z" fill="#003771"/>
<path d="M9.74256 67.5776L9.50686 67.6551L9.66401 68.6624L9.27117 68.8173L8.79977 67.8876L7.93553 68.1975L8.09268 69.2047L7.69984 69.3598L7.22844 68.4299L6.99272 68.5075C6.91416 68.5075 6.91417 68.5075 6.8356 68.5075C6.67847 68.5075 6.52134 68.3525 6.44277 68.1975L5.97137 66.7254C5.8928 66.4929 6.04992 66.2605 6.20706 66.183C6.28562 66.183 6.28563 66.183 6.3642 66.183C6.52133 66.183 6.67847 66.2604 6.75703 66.4929V66.5704L7.30701 66.4154V66.3379C7.22844 66.1055 7.38557 65.8731 7.5427 65.7956C7.62127 65.7956 7.62128 65.7956 7.69984 65.7956C7.85698 65.7956 8.01411 65.9505 8.09268 66.1055V66.183L8.64263 66.028V65.9505C8.56406 65.7181 8.72121 65.4857 8.87834 65.4082C8.95691 65.4082 8.95689 65.4082 9.03546 65.4082C9.19259 65.4082 9.34973 65.5631 9.42829 65.7181L9.8997 67.1902C10.0568 67.2677 9.97826 67.5002 9.74256 67.5776ZM7.69984 67.3453C7.62128 67.1128 7.38556 66.8803 7.0713 66.8803C6.99273 66.8803 6.91417 66.8803 6.8356 66.8803C6.52134 66.9578 6.36421 67.3452 6.44277 67.6551C6.52134 67.8876 6.75703 68.1201 7.0713 68.1201C7.14986 68.1201 7.22844 68.1201 7.30701 68.1201C7.62128 68.0426 7.77841 67.6552 7.69984 67.3453ZM9.66401 66.6479C9.58544 66.4155 9.34973 66.183 9.03546 66.183C8.95689 66.183 8.87834 66.183 8.79977 66.183C8.4855 66.2605 8.32837 66.6479 8.40694 66.9578C8.4855 67.1903 8.72119 67.4227 9.03546 67.4227C9.11403 67.4227 9.19261 67.4227 9.27117 67.4227C9.58544 67.3452 9.74257 66.9578 9.66401 66.6479Z" fill="#003771"/>
<path d="M13.5129 67.4234H13.2772L13.1201 68.5082H12.7272L12.5701 67.4234H11.6273L11.4702 68.5082H11.0773L10.9202 67.4234H10.6845C10.4488 67.4234 10.2917 67.191 10.2917 66.9585V65.4089C10.2917 65.1764 10.4488 65.0215 10.6845 65.0215C10.9202 65.0215 11.0773 65.1764 11.0773 65.4089V65.4864H11.7059V65.4089C11.7059 65.1764 11.863 65.0215 12.0987 65.0215C12.3344 65.0215 12.4915 65.1764 12.4915 65.4089V65.4864H13.1201V65.4089C13.1201 65.1764 13.2772 65.0215 13.5129 65.0215C13.7486 65.0215 13.9057 65.1764 13.9057 65.4089V66.9585C13.9843 67.2685 13.7486 67.4234 13.5129 67.4234ZM11.0773 65.8738C10.7631 65.8738 10.4488 66.1836 10.4488 66.4936C10.4488 66.8035 10.7631 67.1135 11.0773 67.1135C11.3916 67.1135 11.7059 66.8035 11.7059 66.4936C11.7059 66.1836 11.3916 65.8738 11.0773 65.8738ZM13.1201 65.8738C12.8058 65.8738 12.4915 66.1836 12.4915 66.4936C12.4915 66.8035 12.8058 67.1135 13.1201 67.1135C13.4343 67.1135 13.7486 66.8035 13.7486 66.4936C13.7486 66.1836 13.4343 65.8738 13.1201 65.8738Z" fill="#003771"/>
<path d="M3.30016 83.3074C3.37873 83.2299 3.53586 83.1524 3.61443 83.1524C3.69299 83.1524 3.77155 83.1524 3.85012 83.2299L4.00726 83.3849L4.79293 82.6875L5.10719 82.92L4.55724 83.8497L5.26433 84.4696L6.05 83.7723L6.36426 84.0048L5.81428 84.9345L5.97142 85.0894C6.12856 85.2444 6.20713 85.5544 6.05 85.7093L5.10719 86.8715C5.02862 86.949 4.95006 87.0265 4.79293 87.0265C4.71436 87.0265 4.6358 87.0265 4.55724 86.949C4.4001 86.794 4.32153 86.5617 4.47866 86.3292L4.55724 86.2517L4.08583 85.8642L4.00726 85.9418C3.92869 86.0193 3.85013 86.0967 3.693 86.0967C3.61443 86.0967 3.53585 86.0967 3.45728 86.0193C3.30015 85.8643 3.2216 85.6318 3.37874 85.3994L3.45728 85.3219L2.9859 84.9345L2.90733 85.012C2.82876 85.0894 2.7502 85.167 2.59307 85.167C2.5145 85.167 2.43592 85.1669 2.35736 85.0894C2.20022 84.9345 2.12165 84.7021 2.27878 84.4696L3.30016 83.3074ZM4.79293 86.0193C4.87149 86.0967 5.02863 86.1742 5.18576 86.1742C5.34289 86.1742 5.5786 86.0968 5.65716 85.9418C5.89286 85.7094 5.81429 85.2444 5.57859 85.0894C5.50003 85.0119 5.34289 84.9345 5.18576 84.9345C5.02863 84.9345 4.79292 85.012 4.71435 85.167C4.55722 85.3994 4.55723 85.8643 4.79293 86.0193ZM3.22159 84.702C3.30016 84.7795 3.45729 84.857 3.61443 84.857C3.77156 84.857 4.00726 84.7795 4.08583 84.6246C4.32153 84.3921 4.24296 83.9272 4.00726 83.7723C3.92869 83.6948 3.77156 83.6173 3.61443 83.6173C3.45729 83.6173 3.22159 83.6948 3.14302 83.8497C2.90732 84.0822 2.98589 84.4696 3.22159 84.702Z" fill="#003771"/>
<path d="M0.393405 80.1303L1.80762 79.5879C1.88618 79.5879 1.88617 79.5879 1.96474 79.5879C2.12187 79.5879 2.279 79.6654 2.35757 79.8204L2.43614 80.0528L3.4575 79.8204L3.61464 80.2078L2.7504 80.7501L3.06466 81.6024L4.08605 81.37L4.24316 81.7574L3.37895 82.2998L3.4575 82.5322C3.53606 82.7647 3.45751 82.9971 3.22181 83.0746L1.80762 83.617C1.72905 83.617 1.72904 83.617 1.65048 83.617C1.49334 83.617 1.33621 83.5395 1.25764 83.3845C1.17908 83.1521 1.25763 82.9197 1.49333 82.8422H1.5719L1.33621 82.2998H1.25764C1.17908 82.2998 1.17907 82.2998 1.1005 82.2998C0.943366 82.2998 0.786233 82.2223 0.707666 82.0674C0.6291 81.8349 0.707681 81.6024 0.943381 81.5249H1.02195L0.786238 80.9826H0.707666C0.6291 80.9826 0.629114 80.9826 0.550547 80.9826C0.393414 80.9826 0.236281 80.9051 0.157714 80.7501C0.0791478 80.4402 0.157705 80.2078 0.393405 80.1303ZM1.88617 82.6872C1.96473 82.9196 2.20044 83.0746 2.43614 83.0746C2.51471 83.0746 2.59327 83.0746 2.67183 82.9971C2.9861 82.8422 3.14325 82.5322 2.98612 82.1448C2.90755 81.9124 2.67184 81.7574 2.43614 81.7574C2.35757 81.7574 2.27902 81.7574 2.20045 81.8349C1.88618 81.9899 1.72903 82.2998 1.88617 82.6872ZM1.1005 80.6727C1.17907 80.9051 1.41478 81.0601 1.65048 81.0601C1.72904 81.0601 1.8076 81.0601 1.88617 80.9826C2.20043 80.8276 2.35758 80.5177 2.20045 80.1303C2.12188 79.8979 1.88618 79.7429 1.65048 79.7429C1.57191 79.7429 1.49335 79.7429 1.41479 79.8204C1.10052 79.9753 0.943366 80.3627 1.1005 80.6727Z" fill="#003771"/>
<path d="M6.52086 85.8634C6.59942 85.7084 6.75656 85.5535 6.91369 85.5535C6.99226 85.5535 6.99224 85.5535 7.07081 85.5535L7.30652 85.631L7.7779 84.7012L8.17074 84.8562L8.01362 85.8634L8.87786 86.1733L9.34924 85.2436L9.74207 85.3985L9.58495 86.4058L9.82064 86.4833C10.0563 86.5608 10.1349 86.7932 10.0564 87.0256L9.58495 88.4978C9.50638 88.6528 9.34925 88.8078 9.19212 88.8078C9.11355 88.8078 9.11354 88.8078 9.03497 88.8078C8.79927 88.7303 8.72072 88.4979 8.79928 88.2654V88.1879L8.24931 88.0329V88.1104C8.17074 88.2654 8.01361 88.4203 7.85648 88.4203C7.77791 88.4203 7.77792 88.4203 7.69936 88.4203C7.46366 88.3429 7.38508 88.1105 7.46364 87.878V87.8005L6.91369 87.6455V87.723C6.83512 87.878 6.67799 88.0329 6.52086 88.0329C6.44229 88.0329 6.44228 88.0329 6.36371 88.0329C6.12801 87.9555 6.04946 87.723 6.12802 87.4906L6.52086 85.8634ZM8.87786 87.878C8.95642 87.878 9.03498 87.878 9.11355 87.878C9.34925 87.878 9.58494 87.723 9.74207 87.413C9.82064 87.1031 9.6635 86.7157 9.34924 86.6382C9.27067 86.6382 9.19211 86.6382 9.11355 86.6382C8.87785 86.6382 8.64216 86.7933 8.48502 87.1032C8.32789 87.4131 8.56359 87.8005 8.87786 87.878ZM6.91369 87.1807C6.99226 87.1807 7.07081 87.1807 7.14938 87.1807C7.38508 87.1807 7.62077 87.0257 7.7779 86.7158C7.85647 86.4059 7.69934 86.0184 7.38507 85.941C7.3065 85.941 7.22795 85.941 7.14938 85.941C6.91368 85.941 6.67799 86.0959 6.52086 86.4058C6.44229 86.7158 6.59942 87.1032 6.91369 87.1807Z" fill="#003771"/>
<path d="M10.6851 86.7156H10.9208L11.078 85.6309H11.4708L11.6279 86.7156H12.5707L12.7279 85.6309H13.1207L13.2778 86.7156H13.5135C13.7492 86.7156 13.9064 86.9481 13.9064 87.1805V88.7301C13.9064 88.9626 13.7492 89.1176 13.5135 89.1176C13.2778 89.1176 13.1207 88.9626 13.1207 88.7301V88.6527H12.4922V88.7301C12.4922 88.9626 12.335 89.1176 12.0993 89.1176C11.8636 89.1176 11.7065 88.9626 11.7065 88.7301V88.6527H11.078V88.7301C11.078 88.9626 10.9208 89.1176 10.6851 89.1176C10.4494 89.1176 10.2923 88.9626 10.2923 88.7301V87.1805C10.2923 86.8706 10.4494 86.7156 10.6851 86.7156ZM13.1207 88.1877C13.435 88.1877 13.7492 87.8778 13.7492 87.5679C13.7492 87.258 13.435 86.948 13.1207 86.948C12.8064 86.948 12.4922 87.258 12.4922 87.5679C12.4922 87.9553 12.8064 88.1877 13.1207 88.1877ZM11.078 88.1877C11.3922 88.1877 11.7065 87.8778 11.7065 87.5679C11.7065 87.258 11.3922 86.948 11.078 86.948C10.7637 86.948 10.4494 87.258 10.4494 87.5679C10.4494 87.9553 10.6851 88.1877 11.078 88.1877Z" fill="#003771"/>
<path d="M14.7704 86.7156H15.0061L15.1632 85.6309H15.556L15.7132 86.7156H16.656L16.8131 85.6309H17.2059L17.3631 86.7156H17.5987C17.8344 86.7156 17.9916 86.9481 17.9916 87.1805V88.7301C17.9916 88.9626 17.8344 89.1176 17.5987 89.1176C17.363 89.1176 17.2059 88.9626 17.2059 88.7301V88.6527H16.5774V88.7301C16.5774 88.9626 16.4203 89.1176 16.1846 89.1176C15.9489 89.1176 15.7917 88.9626 15.7917 88.7301V88.6527H15.1632V88.7301C15.1632 88.9626 15.0061 89.1176 14.7704 89.1176C14.5347 89.1176 14.3775 88.9626 14.3775 88.7301V87.1805C14.3775 86.8706 14.5347 86.7156 14.7704 86.7156ZM17.2059 88.1877C17.5202 88.1877 17.8345 87.8778 17.8345 87.5679C17.8345 87.258 17.5202 86.948 17.2059 86.948C16.8916 86.948 16.5774 87.258 16.5774 87.5679C16.5774 87.9553 16.8916 88.1877 17.2059 88.1877ZM15.1632 88.1877C15.4775 88.1877 15.7917 87.8778 15.7917 87.5679C15.7917 87.258 15.4775 86.948 15.1632 86.948C14.8489 86.948 14.5347 87.258 14.5347 87.5679C14.5347 87.9553 14.7704 88.1877 15.1632 88.1877Z" fill="#003771"/>
<path d="M95.4577 67.3447H95.222L95.0649 68.3519H94.6721L94.5149 67.3447H93.5721L93.415 68.3519H93.0222L92.865 67.3447H92.6293C92.3936 67.3447 92.2365 67.1897 92.2365 66.9572V65.4851C92.2365 65.2526 92.3936 65.0977 92.6293 65.0977C92.865 65.0977 93.0222 65.2526 93.0222 65.4851V65.5625H93.6507V65.4851C93.6507 65.2526 93.8078 65.0977 94.0435 65.0977C94.2792 65.0977 94.4364 65.2526 94.4364 65.4851V65.5625H95.0649V65.4851C95.0649 65.2526 95.222 65.0977 95.4577 65.0977C95.6934 65.0977 95.8506 65.2526 95.8506 65.4851V66.9572C95.9291 67.1897 95.6934 67.3447 95.4577 67.3447ZM93.0222 65.8725C92.7079 65.8725 92.3936 66.1823 92.3936 66.4923C92.3936 66.8022 92.7079 67.1122 93.0222 67.1122C93.3364 67.1122 93.6507 66.8022 93.6507 66.4923C93.6507 66.1823 93.415 65.8725 93.0222 65.8725ZM95.0649 65.8725C94.7506 65.8725 94.4364 66.1823 94.4364 66.4923C94.4364 66.8022 94.7506 67.1122 95.0649 67.1122C95.3792 67.1122 95.6934 66.8022 95.6934 66.4923C95.6934 66.1823 95.4577 65.8725 95.0649 65.8725Z" fill="#003771"/>
<path d="M74.9521 65.0215C75.0307 65.0215 75.1093 65.0215 75.1879 65.0989C75.2664 65.1764 75.345 65.3314 75.345 65.4089V66.881C75.345 67.0359 75.2664 67.1909 75.1093 67.2684C75.0307 67.2684 75.0307 67.2684 74.9521 67.2684H74.7164L74.5593 68.2757H74.1665L74.0094 67.2684H73.0665L72.9094 68.2757H72.5166L72.3594 67.2684H72.1238C72.0452 67.2684 72.0452 67.2684 71.9666 67.2684C71.8095 67.1909 71.7309 67.0359 71.7309 66.881V65.4089C71.7309 65.2539 71.8095 65.1764 71.888 65.0989C71.9666 65.0215 72.0452 65.0215 72.1238 65.0215C72.3595 65.0215 72.5166 65.1764 72.5166 65.4089V65.4864H73.1451V65.4089C73.1451 65.1764 73.3022 65.0215 73.5379 65.0215C73.7736 65.0215 73.9308 65.1764 73.9308 65.4089V65.4864H74.5593V65.4089C74.5593 65.2539 74.795 65.0215 74.9521 65.0215ZM72.5166 65.8738C72.2023 65.8738 71.888 66.1836 71.888 66.4936C71.888 66.8035 72.2023 67.1135 72.5166 67.1135C72.8309 67.1135 73.1451 66.8035 73.1451 66.4936C73.1451 66.1836 72.9094 65.8738 72.5166 65.8738ZM74.0094 66.4936C74.0094 66.8035 74.3236 67.1135 74.6379 67.1135C74.9521 67.1135 75.2664 66.8035 75.2664 66.4936C75.2664 66.1836 74.9521 65.8738 74.6379 65.8738C74.3236 65.8738 74.0094 66.1836 74.0094 66.4936Z" fill="#003771"/>
<path d="M38.105 65.0215C38.3407 65.0215 38.4978 65.1764 38.4978 65.4089V66.881C38.4978 67.1134 38.3407 67.2684 38.105 67.2684H37.8693L37.7121 68.2757H37.3193L37.1622 67.2684H36.2194L36.0622 68.2757H35.6694L35.5123 67.2684H35.2766C35.198 67.2684 35.198 67.2684 35.1194 67.2684C34.9623 67.1909 34.8837 67.0359 34.8837 66.881V65.4089C34.8837 65.2539 34.9623 65.099 35.1194 65.0215C35.198 65.0215 35.198 65.0215 35.2766 65.0215C35.5123 65.0215 35.6694 65.1764 35.6694 65.4089V65.4864H36.2979V65.4089C36.2979 65.1764 36.4551 65.0215 36.6908 65.0215C36.9265 65.0215 37.0836 65.1764 37.0836 65.4089V65.4864H37.7121V65.4089C37.7121 65.2539 37.8693 65.0215 38.105 65.0215ZM35.6694 65.8738C35.3551 65.8738 35.0409 66.1836 35.0409 66.4936C35.0409 66.8035 35.3551 67.1135 35.6694 67.1135C35.9837 67.1135 36.2979 66.8035 36.2979 66.4936C36.2979 66.1836 36.0622 65.8738 35.6694 65.8738ZM37.1622 66.4936C37.1622 66.8035 37.4764 67.1135 37.7907 67.1135C38.105 67.1135 38.4192 66.8035 38.4192 66.4936C38.4192 66.1836 38.105 65.8738 37.7907 65.8738C37.4764 65.8738 37.1622 66.1836 37.1622 66.4936Z" fill="#003771"/>
<path d="M90.5864 68.3519L90.4293 67.3447H89.4864L89.3293 68.3519H88.9365L88.7793 67.3447H88.5437C88.308 67.3447 88.1508 67.1897 88.1508 66.9572V65.4851C88.1508 65.2526 88.308 65.0977 88.5437 65.0977C88.7794 65.0977 88.9365 65.2526 88.9365 65.4851V65.5625H89.565V65.4851C89.565 65.2526 89.7221 65.0977 89.9578 65.0977C90.1935 65.0977 90.3507 65.2526 90.3507 65.4851V65.5625H90.9792V65.4851C90.9792 65.2526 91.1364 65.0977 91.3721 65.0977C91.6078 65.0977 91.7649 65.2526 91.7649 65.4851V66.9572C91.7649 67.1897 91.6078 67.3447 91.3721 67.3447H91.1363L90.9792 68.3519H90.5864ZM88.9365 65.8725C88.6222 65.8725 88.3079 66.1823 88.3079 66.4923C88.3079 66.8022 88.6222 67.1122 88.9365 67.1122C89.2508 67.1122 89.565 66.8022 89.565 66.4923C89.565 66.1823 89.2508 65.8725 88.9365 65.8725ZM91.6077 66.4923C91.6077 66.1823 91.2935 65.8725 90.9792 65.8725C90.665 65.8725 90.3507 66.1823 90.3507 66.4923C90.3507 66.8022 90.665 67.1122 90.9792 67.1122C91.3721 67.1122 91.6077 66.8022 91.6077 66.4923Z" fill="#003771"/>
<path d="M87.2878 65.0215C87.5235 65.0215 87.6807 65.1764 87.6807 65.4089V66.881C87.6807 67.1134 87.5235 67.2684 87.2878 67.2684H87.0521L86.895 68.2757H86.5022L86.345 67.2684H85.4022L85.2451 68.2757H84.8523L84.6951 67.2684H84.4594C84.3809 67.2684 84.3023 67.2684 84.2237 67.1909C84.1452 67.1134 84.0666 66.9585 84.0666 66.881V65.4089C84.0666 65.2539 84.1452 65.1764 84.2237 65.0989C84.3023 65.0215 84.3809 65.0215 84.4594 65.0215C84.6951 65.0215 84.8523 65.1764 84.8523 65.4089V65.4864H85.4808V65.4089C85.4808 65.1764 85.6379 65.0215 85.8736 65.0215C86.1093 65.0215 86.2665 65.1764 86.2665 65.4089V65.4864H86.895V65.4089C86.895 65.2539 87.0521 65.0215 87.2878 65.0215ZM84.8523 65.8738C84.538 65.8738 84.2237 66.1836 84.2237 66.4936C84.2237 66.8035 84.538 67.1135 84.8523 67.1135C85.1665 67.1135 85.4808 66.8035 85.4808 66.4936C85.4808 66.1836 85.1665 65.8738 84.8523 65.8738ZM86.2665 66.4936C86.2665 66.8035 86.5807 67.1135 86.895 67.1135C87.2093 67.1135 87.5235 66.8035 87.5235 66.4936C87.5235 66.1836 87.2093 65.8738 86.895 65.8738C86.5807 65.8738 86.2665 66.1836 86.2665 66.4936Z" fill="#003771"/>
<path d="M83.2016 65.0215C83.4373 65.0215 83.5945 65.1764 83.5945 65.4089V66.881C83.5945 67.1134 83.4373 67.2684 83.2016 67.2684H82.966L82.8088 68.2757H82.416L82.2589 67.2684H81.3161L81.1589 68.2757H80.7661L80.609 67.2684H80.3733C80.1376 67.2684 79.9804 67.1134 79.9804 66.881V65.4089C79.9804 65.1764 80.1376 65.0215 80.3733 65.0215C80.5304 65.0215 80.6875 65.0989 80.7661 65.2539C80.7661 65.3314 80.7661 65.3314 80.7661 65.4089V65.4864H81.3946V65.4089C81.3946 65.1764 81.5518 65.0215 81.7875 65.0215C81.9446 65.0215 82.0232 65.0989 82.1017 65.1764C82.1017 65.1764 82.1803 65.2539 82.1803 65.3313C82.1803 65.4088 82.1803 65.4089 82.1803 65.4864V65.5638H82.8088V65.4864C82.7302 65.2539 82.9659 65.0215 83.2016 65.0215ZM80.7661 65.8738C80.4518 65.8738 80.1376 66.1836 80.1376 66.4936C80.1376 66.8035 80.4518 67.1135 80.7661 67.1135C81.0804 67.1135 81.3946 66.8035 81.3946 66.4936C81.3946 66.1836 81.0804 65.8738 80.7661 65.8738ZM82.1803 66.4936C82.1803 66.8035 82.4945 67.1135 82.8088 67.1135C83.1231 67.1135 83.4374 66.8035 83.4374 66.4936C83.4374 66.1836 83.1231 65.8738 82.8088 65.8738C82.4945 65.8738 82.1803 66.1836 82.1803 66.4936Z" fill="#003771"/>
<path d="M79.1164 65.0209C79.3521 65.0209 79.5093 65.1759 79.5093 65.4083V66.8804C79.5093 67.1129 79.3521 67.2678 79.1164 67.2678H78.8807L78.7236 68.2751H78.3308L78.1736 67.2678H77.2309L77.0737 68.2751H76.6809L76.5237 67.2678H76.288C76.0523 67.2678 75.8952 67.1129 75.8952 66.8804V65.4083C75.8952 65.1759 76.0523 65.0209 76.288 65.0209C76.5237 65.0209 76.6809 65.1759 76.6809 65.4083V65.4858H77.3094V65.4083C77.3094 65.3308 77.388 65.1759 77.4665 65.0984C77.5451 65.0209 77.6237 64.9434 77.7808 64.9434C78.0165 64.9434 78.1736 65.0983 78.1736 65.3308V65.4083H78.645V65.3308C78.645 65.2533 78.8807 65.0209 79.1164 65.0209ZM76.6809 65.8732C76.3666 65.8732 76.0524 66.1831 76.0524 66.493C76.0524 66.8029 76.3666 67.1129 76.6809 67.1129C76.9951 67.1129 77.3094 66.8029 77.3094 66.493C77.3094 66.1831 76.9951 65.8732 76.6809 65.8732ZM78.0951 66.493C78.0951 66.8029 78.4093 67.1129 78.7236 67.1129C79.0379 67.1129 79.3521 66.8029 79.3521 66.493C79.3521 66.1831 79.0379 65.8732 78.7236 65.8732C78.4093 65.8732 78.0951 66.1831 78.0951 66.493Z" fill="#003771"/>
<path d="M70.8669 65.0215C71.1026 65.0215 71.2598 65.1764 71.2598 65.4089V66.881C71.2598 67.1134 71.1026 67.2684 70.8669 67.2684H70.6312L70.4741 68.2757H70.0813L69.9241 67.2684H68.9813L68.8242 68.2757H68.4314L68.2742 67.2684H68.0385C67.8028 67.2684 67.6457 67.1134 67.6457 66.881V65.4089C67.6457 65.1764 67.8028 65.0215 68.0385 65.0215C68.2742 65.0215 68.4314 65.1764 68.4314 65.4089V65.4864H69.0599V65.4089C69.0599 65.1764 69.217 65.0215 69.4527 65.0215C69.6099 65.0215 69.767 65.0989 69.8456 65.1764C69.9241 65.2539 69.9241 65.3314 69.9241 65.4089V65.4864H70.5527V65.4089C70.4741 65.2539 70.6312 65.0215 70.8669 65.0215ZM68.4314 65.8738C68.1171 65.8738 67.8028 66.1836 67.8028 66.4936C67.8028 66.8035 68.1171 67.1135 68.4314 67.1135C68.7456 67.1135 69.0599 66.8035 69.0599 66.4936C69.0599 66.1836 68.8242 65.8738 68.4314 65.8738ZM69.9241 66.4936C69.9241 66.8035 70.2384 67.1135 70.5527 67.1135C70.8669 67.1135 71.1812 66.8035 71.1812 66.4936C71.1812 66.1836 70.8669 65.8738 70.5527 65.8738C70.1598 65.8738 69.9241 66.1836 69.9241 66.4936Z" fill="#003771"/>
<path d="M64.1889 67.3447H63.9532C63.7175 67.3447 63.5604 67.1897 63.5604 66.9572V65.4851C63.5604 65.2526 63.7175 65.0977 63.9532 65.0977C64.1889 65.0977 64.346 65.2526 64.346 65.4851V65.5625H64.9746V65.4851C64.9746 65.4076 64.9746 65.4075 64.9746 65.33C64.9746 65.2526 65.0531 65.1751 65.1317 65.1751C65.2103 65.0976 65.2888 65.0977 65.3674 65.0977C65.6031 65.0977 65.7602 65.2526 65.7602 65.4851V65.5625H66.3888V65.4851C66.3888 65.4076 66.3888 65.4075 66.3888 65.33C66.4673 65.1751 66.6245 65.0977 66.7816 65.0977C67.0173 65.0977 67.1744 65.2526 67.1744 65.4851V66.9572C67.1744 67.1897 67.0173 67.3447 66.7816 67.3447H66.5459L66.3888 68.3519H65.9959L65.8388 67.3447H64.896L64.7389 68.3519H64.346L64.1889 67.3447ZM66.4673 67.1122C66.7816 67.1122 67.0959 66.8022 67.0959 66.4923C67.0959 66.1823 66.7816 65.8725 66.4673 65.8725C66.1531 65.8725 65.8388 66.1823 65.8388 66.4923C65.8388 66.8022 66.0745 67.1122 66.4673 67.1122ZM64.9746 66.4923C64.9746 66.1823 64.6603 65.8725 64.346 65.8725C64.0318 65.8725 63.7175 66.1823 63.7175 66.4923C63.7175 66.8022 64.0318 67.1122 64.346 67.1122C64.7389 67.1122 64.9746 66.8022 64.9746 66.4923Z" fill="#003771"/>
<path d="M62.6954 65.0215C62.774 65.0215 62.8525 65.0215 62.9311 65.0989C63.0097 65.1764 63.0883 65.3314 63.0883 65.4089V66.881C63.0883 67.0359 63.0097 67.1134 62.9311 67.1909C62.8525 67.2684 62.774 67.2684 62.6954 67.2684H62.4597L62.3026 68.2757H61.9098L61.7526 67.2684H60.8098L60.6527 68.2757H60.2599L60.1027 67.2684H59.867C59.6313 67.2684 59.4742 67.1134 59.4742 66.881V65.4089C59.4742 65.1764 59.6313 65.0215 59.867 65.0215C60.1027 65.0215 60.2599 65.1764 60.2599 65.4089V65.4864H60.8884V65.4089C60.8884 65.1764 61.0455 65.0215 61.2812 65.0215C61.5169 65.0215 61.674 65.1764 61.674 65.4089V65.4864H62.3026V65.4089C62.3026 65.2539 62.4597 65.0215 62.6954 65.0215ZM60.2599 65.8738C59.9456 65.8738 59.6313 66.1836 59.6313 66.4936C59.6313 66.8035 59.9456 67.1135 60.2599 67.1135C60.5741 67.1135 60.8884 66.8035 60.8884 66.4936C60.8884 66.1836 60.5741 65.8738 60.2599 65.8738ZM61.674 66.4936C61.674 66.8035 61.9883 67.1135 62.3026 67.1135C62.6169 67.1135 62.9311 66.8035 62.9311 66.4936C62.9311 66.1836 62.6169 65.8738 62.3026 65.8738C61.9883 65.8738 61.674 66.1836 61.674 66.4936Z" fill="#003771"/>
<path d="M58.6112 65.0215C58.8469 65.0215 59.004 65.1764 59.004 65.4089V66.881C59.004 67.1134 58.8469 67.2684 58.6112 67.2684H58.3755L58.2184 68.2757H57.8255L57.6684 67.2684H56.7256L56.5685 68.2757H56.1756L56.0185 67.2684H55.7828C55.5471 67.2684 55.39 67.1134 55.39 66.881V65.4089C55.39 65.1764 55.5471 65.0215 55.7828 65.0215C56.0185 65.0215 56.1756 65.1764 56.1756 65.4089V65.4864H56.8042V65.4089C56.8042 65.1764 56.9613 65.0215 57.197 65.0215C57.4327 65.0215 57.5898 65.1764 57.5898 65.4089V65.4864H58.2184V65.4089C58.2184 65.2539 58.3755 65.0215 58.6112 65.0215ZM56.1756 65.8738C55.8614 65.8738 55.5471 66.1836 55.5471 66.4936C55.5471 66.8035 55.8614 67.1135 56.1756 67.1135C56.4899 67.1135 56.8042 66.8035 56.8042 66.4936C56.8042 66.1836 56.4899 65.8738 56.1756 65.8738ZM57.5898 66.4936C57.5898 66.8035 57.9041 67.1135 58.2184 67.1135C58.5326 67.1135 58.8469 66.8035 58.8469 66.4936C58.8469 66.1836 58.5326 65.8738 58.2184 65.8738C57.9041 65.8738 57.5898 66.1836 57.5898 66.4936Z" fill="#003771"/>
<path d="M54.5249 65.0215C54.7606 65.0215 54.9177 65.1764 54.9177 65.4089V66.881C54.9177 67.1134 54.7606 67.2684 54.5249 67.2684H54.2892L54.1321 68.2757H53.7392L53.5821 67.2684H52.6393L52.4822 68.2757H52.0893L51.9322 67.2684H51.6965C51.4608 67.2684 51.3037 67.1134 51.3037 66.881V65.4089C51.3037 65.1764 51.4608 65.0215 51.6965 65.0215C51.9322 65.0215 52.0893 65.1764 52.0893 65.4089V65.4864H52.7179V65.4089C52.7179 65.1764 52.875 65.0215 53.1107 65.0215C53.3464 65.0215 53.5035 65.1764 53.5035 65.4089V65.4864H54.1321V65.4089C54.1321 65.2539 54.2892 65.0215 54.5249 65.0215ZM52.0893 65.8738C51.7751 65.8738 51.4608 66.1836 51.4608 66.4936C51.4608 66.8035 51.7751 67.1135 52.0893 67.1135C52.4036 67.1135 52.7179 66.8035 52.7179 66.4936C52.7179 66.1836 52.4036 65.8738 52.0893 65.8738ZM53.5035 66.4936C53.5035 66.8035 53.8178 67.1135 54.1321 67.1135C54.4463 67.1135 54.7606 66.8035 54.7606 66.4936C54.7606 66.1836 54.4463 65.8738 54.1321 65.8738C53.8178 65.8738 53.5035 66.1836 53.5035 66.4936Z" fill="#003771"/>
<path d="M50.4397 65.0215C50.6754 65.0215 50.8325 65.1764 50.8325 65.4089V66.881C50.8325 67.1134 50.6754 67.2684 50.4397 67.2684H50.204L50.0469 68.2757H49.654L49.4969 67.2684H48.5541L48.3969 68.2757H48.0041L47.847 67.2684H47.6113C47.5327 67.2684 47.4542 67.2684 47.3756 67.1909C47.297 67.1134 47.2185 66.9585 47.2185 66.881V65.4089C47.2185 65.2539 47.297 65.1764 47.3756 65.0989C47.4542 65.0215 47.5327 65.0215 47.6113 65.0215C47.847 65.0215 48.0041 65.1764 48.0041 65.4089V65.4864H48.6326V65.4089C48.6326 65.1764 48.7898 65.0215 49.0255 65.0215C49.2612 65.0215 49.4183 65.1764 49.4183 65.4089V65.4864H50.0469V65.4089C49.9683 65.2539 50.204 65.0215 50.4397 65.0215ZM48.0041 65.8738C47.6899 65.8738 47.3756 66.1836 47.3756 66.4936C47.3756 66.8035 47.6899 67.1135 48.0041 67.1135C48.3184 67.1135 48.6326 66.8035 48.6326 66.4936C48.6326 66.1836 48.3184 65.8738 48.0041 65.8738ZM49.4183 66.4936C49.4183 66.8035 49.7326 67.1135 50.0469 67.1135C50.3611 67.1135 50.6754 66.8035 50.6754 66.4936C50.6754 66.1836 50.3611 65.8738 50.0469 65.8738C49.7326 65.8738 49.4183 66.1836 49.4183 66.4936Z" fill="#003771"/>
<path d="M46.3545 65.0215C46.5902 65.0215 46.7473 65.1764 46.7473 65.4089V66.881C46.7473 67.1134 46.5902 67.2684 46.3545 67.2684H46.1188L45.9616 68.2757H45.5688L45.4117 67.2684H44.4689L44.3117 68.2757H43.9189L43.7618 67.2684H43.5261C43.2904 67.2684 43.1332 67.1134 43.1332 66.881V65.4089C43.1332 65.1764 43.2904 65.0215 43.5261 65.0215C43.7618 65.0215 43.9189 65.1764 43.9189 65.4089V65.4864H44.5475V65.4089C44.5475 65.1764 44.7046 65.0215 44.9403 65.0215C45.176 65.0215 45.3331 65.1764 45.3331 65.4089V65.4864H45.9616V65.4089C45.8831 65.2539 46.1188 65.0215 46.3545 65.0215ZM43.9189 65.8738C43.6046 65.8738 43.2904 66.1836 43.2904 66.4936C43.2904 66.8035 43.6046 67.1135 43.9189 67.1135C44.2332 67.1135 44.5475 66.8035 44.5475 66.4936C44.5475 66.1836 44.2332 65.8738 43.9189 65.8738ZM45.3331 66.4936C45.3331 66.8035 45.6474 67.1135 45.9616 67.1135C46.2759 67.1135 46.5902 66.8035 46.5902 66.4936C46.5902 66.1836 46.2759 65.8738 45.9616 65.8738C45.5688 65.8738 45.3331 66.1836 45.3331 66.4936Z" fill="#003771"/>
<path d="M41.9545 67.3447L41.7973 68.3519H41.4045L41.2474 67.3447H40.3046L40.1474 68.3519H39.7546L39.5975 67.3447H39.3618C39.1261 67.3447 38.9689 67.1897 38.9689 66.9572V65.4851C38.9689 65.2526 39.1261 65.0977 39.3618 65.0977C39.5975 65.0977 39.7546 65.2526 39.7546 65.4851V65.5625H40.3831V65.4851C40.3831 65.2526 40.5403 65.0977 40.776 65.0977C41.0117 65.0977 41.1688 65.2526 41.1688 65.4851V65.5625H41.7973V65.4851C41.7973 65.2526 41.9545 65.0977 42.1902 65.0977C42.4259 65.0977 42.583 65.2526 42.583 65.4851V66.9572C42.583 67.1897 42.4259 67.3447 42.1902 67.3447H41.9545ZM39.7546 65.8725C39.4403 65.8725 39.1261 66.1823 39.1261 66.4923C39.1261 66.8022 39.4403 67.1122 39.7546 67.1122C40.0689 67.1122 40.3831 66.8022 40.3831 66.4923C40.3831 66.1823 40.1474 65.8725 39.7546 65.8725ZM42.5044 66.4923C42.5044 66.1823 42.1902 65.8725 41.8759 65.8725C41.5616 65.8725 41.2474 66.1823 41.2474 66.4923C41.2474 66.8022 41.5616 67.1122 41.8759 67.1122C42.1902 67.1122 42.5044 66.8022 42.5044 66.4923Z" fill="#003771"/>
<path d="M34.0187 65.0215C34.2544 65.0215 34.4115 65.1764 34.4115 65.4089V66.881C34.4115 67.1134 34.2544 67.2684 34.0187 67.2684H33.783L33.6258 68.2757H33.233L33.0759 67.2684H32.133L31.9759 68.2757H31.5831L31.426 67.2684H31.1903C30.9546 67.2684 30.7974 67.1134 30.7974 66.881V65.4089C30.7974 65.1764 30.9546 65.0215 31.1903 65.0215C31.426 65.0215 31.5831 65.1764 31.5831 65.4089V65.4864H32.2116V65.4089C32.2116 65.1764 32.3688 65.0215 32.6045 65.0215C32.7616 65.0215 32.9187 65.0989 32.9187 65.1764C32.9973 65.2539 32.9973 65.3314 32.9973 65.4089V65.4864H33.6258V65.4089C33.6258 65.2539 33.783 65.0215 34.0187 65.0215ZM31.9759 65.9512C31.8974 65.8737 31.7402 65.8738 31.6617 65.8738C31.3474 65.8738 31.0331 66.1836 31.0331 66.4936C31.0331 66.8035 31.3474 67.1135 31.6617 67.1135C31.8188 67.1135 31.8974 67.1135 31.9759 67.036C32.1331 66.9585 32.2116 66.726 32.2116 66.4936C32.2116 66.2611 32.1331 66.1062 31.9759 65.9512ZM33.3115 65.9512L33.233 66.0287C33.1544 66.1062 33.0759 66.1837 33.0759 66.3386C33.0759 66.4161 33.0759 66.4161 33.0759 66.4936C33.0759 66.571 33.0759 66.5711 33.0759 66.6486C33.0759 66.8036 33.1544 66.8811 33.233 66.9585L33.3115 67.036C33.3901 67.1135 33.5473 67.1135 33.6258 67.1135C33.9401 67.1135 34.2544 66.8035 34.2544 66.4936C34.2544 66.1836 33.9401 65.8738 33.6258 65.8738C33.5473 65.8738 33.3901 65.9512 33.3115 65.9512Z" fill="#003771"/>
<path d="M29.5417 65.33C29.6203 65.1751 29.7774 65.0977 29.9346 65.0977C30.1703 65.0977 30.3274 65.2526 30.3274 65.4851V66.9572C30.3274 67.1897 30.1703 67.3447 29.9346 67.3447H29.6989L29.5417 68.3519H29.1489L28.9918 67.3447H28.049L27.8918 68.3519H27.499L27.3419 67.3447H27.1062C26.8705 67.3447 26.7133 67.1897 26.7133 66.9572V65.4851C26.7133 65.2526 26.8705 65.0977 27.1062 65.0977C27.3419 65.0977 27.499 65.2526 27.499 65.4851V65.5625H28.1275V65.4851C28.1275 65.4076 28.1275 65.4075 28.1275 65.33C28.1275 65.2526 28.2061 65.1751 28.2847 65.1751C28.3632 65.0976 28.4418 65.0977 28.5204 65.0977C28.7561 65.0977 28.9132 65.2526 28.9132 65.4851V65.5625H29.5417V65.4851C29.5417 65.4076 29.5417 65.33 29.5417 65.33ZM27.499 65.8725C27.1847 65.8725 26.8705 66.1823 26.8705 66.4923C26.8705 66.8022 27.1847 67.1122 27.499 67.1122C27.8133 67.1122 28.1275 66.8022 28.1275 66.4923C28.1275 66.1823 27.8133 65.8725 27.499 65.8725ZM28.9132 66.4923C28.9132 66.8022 29.2275 67.1122 29.5417 67.1122C29.856 67.1122 30.1702 66.8022 30.1702 66.4923C30.1702 66.1823 29.856 65.8725 29.5417 65.8725C29.2275 65.8725 28.9132 66.1823 28.9132 66.4923Z" fill="#003771"/>
<path d="M25.8483 65.0215C26.084 65.0215 26.2411 65.1764 26.2411 65.4089V66.881C26.2411 67.0359 26.1625 67.1134 26.084 67.1909C26.0054 67.2684 25.9268 67.2684 25.8483 67.2684H25.6126L25.4554 68.2757H25.0626L24.9055 67.2684H23.9627L23.8055 68.2757H23.4127L23.2556 67.2684H23.0199C22.7842 67.2684 22.627 67.1134 22.627 66.881V65.4089C22.627 65.1764 22.7842 65.0215 23.0199 65.0215C23.2556 65.0215 23.4127 65.1764 23.4127 65.4089V65.4864H24.0412V65.4089C24.0412 65.1764 24.1984 65.0215 24.4341 65.0215C24.6698 65.0215 24.8269 65.1764 24.8269 65.4089V65.4864H25.4554V65.4089C25.4554 65.2539 25.6126 65.0215 25.8483 65.0215ZM23.4127 65.8738C23.0984 65.8738 22.7842 66.1836 22.7842 66.4936C22.7842 66.8035 23.0984 67.1135 23.4127 67.1135C23.727 67.1135 24.0412 66.8035 24.0412 66.4936C24.0412 66.1836 23.727 65.8738 23.4127 65.8738ZM24.8269 66.4936C24.8269 66.8035 25.1412 67.1135 25.4554 67.1135C25.7697 67.1135 26.084 66.8035 26.084 66.4936C26.084 66.1836 25.7697 65.8738 25.4554 65.8738C25.1412 65.8738 24.8269 66.1836 24.8269 66.4936Z" fill="#003771"/>
<path d="M21.2922 68.3519H20.8994L20.7422 67.3447H19.7995L19.6423 68.3519H19.2495L19.0924 67.3447H18.8566C18.6209 67.3447 18.4638 67.1897 18.4638 66.9572V65.4851C18.4638 65.2526 18.6209 65.0977 18.8566 65.0977C19.0923 65.0977 19.2495 65.2526 19.2495 65.4851V65.5625H19.878V65.4851C19.878 65.2526 20.0352 65.0977 20.2709 65.0977C20.5066 65.0977 20.6637 65.2526 20.6637 65.4851V65.5625H21.2922V65.4851C21.2922 65.2526 21.4493 65.0977 21.685 65.0977C21.9207 65.0977 22.0779 65.2526 22.0779 65.4851V66.9572C22.0779 67.1897 21.9207 67.3447 21.685 67.3447H21.4494L21.2922 68.3519ZM19.328 65.8725C19.0138 65.8725 18.6995 66.1823 18.6995 66.4923C18.6995 66.8022 19.0138 67.1122 19.328 67.1122C19.6423 67.1122 19.9566 66.8022 19.9566 66.4923C19.9566 66.1823 19.6423 65.8725 19.328 65.8725ZM21.9993 66.4923C21.9993 66.1823 21.6851 65.8725 21.3708 65.8725C21.0565 65.8725 20.7422 66.1823 20.7422 66.4923C20.7422 66.8022 21.0565 67.1122 21.3708 67.1122C21.6851 67.1122 21.9993 66.8022 21.9993 66.4923Z" fill="#003771"/>
<path d="M92.63 86.5599H92.8657L93.0228 85.5527H93.4156L93.5728 86.5599H94.5156L94.6727 85.5527H95.0655L95.2227 86.5599H95.4584C95.6941 86.5599 95.8512 86.7149 95.8512 86.9474V88.4195C95.8512 88.652 95.6941 88.8069 95.4584 88.8069C95.2227 88.8069 95.0655 88.652 95.0655 88.4195V88.3421H94.437V88.4195C94.437 88.652 94.2799 88.8069 94.0442 88.8069C93.8085 88.8069 93.6513 88.652 93.6513 88.4195V88.3421H93.0228V88.4195C93.0228 88.652 92.8657 88.8069 92.63 88.8069C92.3943 88.8069 92.2371 88.652 92.2371 88.4195V86.9474C92.1586 86.7149 92.3943 86.5599 92.63 86.5599ZM95.0655 88.0321C95.3798 88.0321 95.6941 87.7222 95.6941 87.4122C95.6941 87.1023 95.3798 86.7924 95.0655 86.7924C94.7513 86.7924 94.437 87.1023 94.437 87.4122C94.437 87.7222 94.7513 88.0321 95.0655 88.0321ZM93.0228 88.0321C93.3371 88.0321 93.6513 87.7222 93.6513 87.4122C93.6513 87.1023 93.3371 86.7924 93.0228 86.7924C92.7085 86.7924 92.3943 87.1023 92.3943 87.4122C92.3943 87.7222 92.7085 88.0321 93.0228 88.0321Z" fill="#003771"/>
<path d="M71.9666 86.5599C72.0452 86.5599 72.0452 86.5599 72.1238 86.5599H72.3594L72.5166 85.5527H72.9094L73.0665 86.5599H74.0094L74.1665 85.5527H74.5593L74.7164 86.5599H74.9521C75.0307 86.5599 75.0307 86.5599 75.1093 86.5599C75.2664 86.6374 75.345 86.7924 75.345 86.9474V88.4195C75.345 88.5745 75.2664 88.652 75.1879 88.7295C75.1093 88.807 75.0307 88.8069 74.9521 88.8069C74.7164 88.8069 74.5593 88.652 74.5593 88.4195V88.3421H73.9308V88.4195C73.9308 88.652 73.7736 88.8069 73.5379 88.8069C73.3022 88.8069 73.1451 88.652 73.1451 88.4195V88.3421H72.5166V88.4195C72.5166 88.652 72.3595 88.8069 72.1238 88.8069C72.0452 88.8069 71.9666 88.807 71.888 88.7295C71.8095 88.652 71.7309 88.497 71.7309 88.4195V86.9474C71.7309 86.7924 71.8095 86.6374 71.9666 86.5599ZM74.6379 88.0321C74.9521 88.0321 75.2664 87.7222 75.2664 87.4122C75.2664 87.1023 74.9521 86.7924 74.6379 86.7924C74.3236 86.7924 74.0094 87.1023 74.0094 87.4122C74.0094 87.7222 74.245 88.0321 74.6379 88.0321ZM72.5166 88.0321C72.8309 88.0321 73.1451 87.7222 73.1451 87.4122C73.1451 87.1023 72.8309 86.7924 72.5166 86.7924C72.2023 86.7924 71.888 87.1023 71.888 87.4122C71.888 87.7222 72.2023 88.0321 72.5166 88.0321Z" fill="#003771"/>
<path d="M35.1194 86.5599C35.198 86.5599 35.198 86.5599 35.2766 86.5599H35.5123L35.6694 85.5527H36.0622L36.2194 86.5599H37.1622L37.3193 85.5527H37.7121L37.8693 86.5599H38.105C38.3407 86.5599 38.4978 86.7149 38.4978 86.9474V88.4195C38.4978 88.652 38.3407 88.8069 38.105 88.8069C37.8693 88.8069 37.7121 88.652 37.7121 88.4195V88.3421H37.0836V88.4195C37.0836 88.652 36.9265 88.8069 36.6908 88.8069C36.4551 88.8069 36.2979 88.652 36.2979 88.4195V88.3421H35.6694V88.4195C35.6694 88.652 35.5123 88.8069 35.2766 88.8069C35.198 88.8069 35.198 88.8069 35.1194 88.8069C34.9623 88.7295 34.8837 88.5745 34.8837 88.4195V86.9474C34.8052 86.7924 34.9623 86.6374 35.1194 86.5599ZM37.7907 88.0321C38.105 88.0321 38.4192 87.7222 38.4192 87.4122C38.4192 87.1023 38.105 86.7924 37.7907 86.7924C37.4764 86.7924 37.1622 87.1023 37.1622 87.4122C37.1622 87.7222 37.3979 88.0321 37.7907 88.0321ZM35.6694 88.0321C35.9837 88.0321 36.2979 87.7222 36.2979 87.4122C36.2979 87.1023 35.9837 86.7924 35.6694 86.7924C35.3551 86.7924 35.0409 87.1023 35.0409 87.4122C35.0409 87.7222 35.3551 88.0321 35.6694 88.0321Z" fill="#003771"/>
<path d="M88.5437 86.5599H88.7793L88.9365 85.5527H89.3293L89.4864 86.5599H90.4293L90.5864 85.5527H90.9792L91.1363 86.5599H91.3721C91.6078 86.5599 91.7649 86.7149 91.7649 86.9474V88.4195C91.7649 88.652 91.6078 88.8069 91.3721 88.8069C91.1364 88.8069 90.9792 88.652 90.9792 88.4195V88.3421H90.3507V88.4195C90.3507 88.652 90.1935 88.8069 89.9578 88.8069C89.7221 88.8069 89.565 88.652 89.565 88.4195V88.3421H88.9365V88.4195C88.9365 88.652 88.7794 88.8069 88.5437 88.8069C88.308 88.8069 88.1508 88.652 88.1508 88.4195V86.9474C88.0723 86.7149 88.308 86.5599 88.5437 86.5599ZM90.9792 88.0321C91.2935 88.0321 91.6077 87.7222 91.6077 87.4122C91.6077 87.1023 91.2935 86.7924 90.9792 86.7924C90.665 86.7924 90.3507 87.1023 90.3507 87.4122C90.3507 87.7222 90.665 88.0321 90.9792 88.0321ZM88.9365 88.0321C89.2508 88.0321 89.565 87.7222 89.565 87.4122C89.565 87.1023 89.2508 86.7924 88.9365 86.7924C88.6222 86.7924 88.3079 87.1023 88.3079 87.4122C88.3079 87.7222 88.6222 88.0321 88.9365 88.0321Z" fill="#003771"/>
<path d="M84.1452 86.6374C84.2237 86.5599 84.3023 86.5599 84.3809 86.5599H84.6166L84.7737 85.5527H85.1665L85.3237 86.5599H86.2665L86.4236 85.5527H86.8164L86.9736 86.5599H87.2878C87.5235 86.5599 87.6807 86.7149 87.6807 86.9474V88.4195C87.6807 88.652 87.5235 88.8069 87.2878 88.8069C87.0521 88.8069 86.895 88.652 86.895 88.4195V88.3421H86.2665V88.4195C86.2665 88.652 86.1093 88.8069 85.8736 88.8069C85.6379 88.8069 85.4808 88.652 85.4808 88.4195V88.3421H84.8523V88.4195C84.8523 88.652 84.6951 88.8069 84.4594 88.8069C84.3809 88.8069 84.3023 88.807 84.2237 88.7295C84.1452 88.652 84.0666 88.497 84.0666 88.4195V86.9474C83.988 86.7924 84.0666 86.7149 84.1452 86.6374ZM86.895 88.0321C87.2093 88.0321 87.5235 87.7222 87.5235 87.4122C87.5235 87.1023 87.2093 86.7924 86.895 86.7924C86.5807 86.7924 86.2665 87.1023 86.2665 87.4122C86.2665 87.7222 86.5807 88.0321 86.895 88.0321ZM84.8523 88.0321C85.1665 88.0321 85.4808 87.7222 85.4808 87.4122C85.4808 87.1023 85.1665 86.7924 84.8523 86.7924C84.538 86.7924 84.2237 87.1023 84.2237 87.4122C84.2237 87.7222 84.538 88.0321 84.8523 88.0321Z" fill="#003771"/>
<path d="M80.2941 86.5599H80.5298L80.687 85.5527H81.0798L81.2369 86.5599H82.1797L82.3369 85.5527H82.7297L82.8868 86.5599H83.1225C83.3582 86.5599 83.5154 86.7149 83.5154 86.9474V88.4195C83.5154 88.652 83.3582 88.8069 83.1225 88.8069C82.8868 88.8069 82.7297 88.652 82.7297 88.4195V88.3421H82.1012V88.4195C82.1012 88.497 82.1012 88.497 82.1012 88.5745C82.1012 88.6519 82.0226 88.652 82.0226 88.7295C81.944 88.807 81.8655 88.8844 81.7083 88.8844C81.4726 88.8844 81.3155 88.7294 81.3155 88.497V88.4195H80.687V88.497C80.687 88.5745 80.687 88.5745 80.687 88.652C80.6084 88.807 80.4513 88.8844 80.2941 88.8844C80.0584 88.8844 79.9013 88.7294 79.9013 88.497V87.0248C79.9013 86.7149 80.0584 86.5599 80.2941 86.5599ZM82.8083 88.0321C83.1225 88.0321 83.4368 87.7222 83.4368 87.4122C83.4368 87.1023 83.1225 86.7924 82.8083 86.7924C82.494 86.7924 82.1797 87.1023 82.1797 87.4122C82.1797 87.7222 82.494 88.0321 82.8083 88.0321ZM80.7655 88.0321C81.0798 88.0321 81.3941 87.7222 81.3941 87.4122C81.3941 87.1023 81.0798 86.7924 80.7655 86.7924C80.4513 86.7924 80.137 87.1023 80.137 87.4122C80.137 87.7222 80.3727 88.0321 80.7655 88.0321Z" fill="#003771"/>
<path d="M76.2099 86.5599H76.4456L76.6027 85.5527H76.9956L77.1527 86.5599H78.0955L78.2527 85.5527H78.6455L78.8026 86.5599H79.0383C79.274 86.5599 79.4312 86.7149 79.4312 86.9474V88.4195C79.4312 88.652 79.274 88.8069 79.0383 88.8069C78.8026 88.8069 78.6455 88.652 78.6455 88.4195V88.3421H78.017V88.4195C78.017 88.652 77.8598 88.8069 77.6241 88.8069C77.467 88.8069 77.3884 88.7295 77.3098 88.652C77.2313 88.5745 77.1527 88.497 77.1527 88.3421V88.2646H76.5242V88.3421C76.5242 88.5745 76.367 88.7295 76.1313 88.7295C75.8956 88.7295 75.7385 88.5745 75.7385 88.3421V86.8699C75.8171 86.7149 75.9742 86.5599 76.2099 86.5599ZM78.7241 88.0321C79.0383 88.0321 79.3526 87.7222 79.3526 87.4122C79.3526 87.1023 79.0383 86.7924 78.7241 86.7924C78.4098 86.7924 78.0955 87.1023 78.0955 87.4122C78.0955 87.7222 78.4098 88.0321 78.7241 88.0321ZM76.6813 88.0321C76.9956 88.0321 77.3098 87.7222 77.3098 87.4122C77.3098 87.1023 76.9956 86.7924 76.6813 86.7924C76.3671 86.7924 76.0528 87.1023 76.0528 87.4122C76.0528 87.7222 76.2885 88.0321 76.6813 88.0321Z" fill="#003771"/>
<path d="M68.0385 86.5599H68.2742L68.4314 85.5527H68.8242L68.9813 86.5599H69.9241L70.0813 85.5527H70.4741L70.6312 86.5599H70.8669C71.1026 86.5599 71.2598 86.7149 71.2598 86.9474V88.4195C71.2598 88.652 71.1026 88.8069 70.8669 88.8069C70.6312 88.8069 70.4741 88.652 70.4741 88.4195V88.3421H69.8456V88.4195C69.8456 88.497 69.8456 88.5745 69.767 88.652C69.6884 88.7295 69.5313 88.8069 69.4527 88.8069C69.217 88.8069 69.0599 88.652 69.0599 88.4195V88.3421H68.4314V88.4195C68.4314 88.652 68.2742 88.8069 68.0385 88.8069C67.8028 88.8069 67.6457 88.652 67.6457 88.4195V86.9474C67.6457 86.7149 67.8028 86.5599 68.0385 86.5599ZM70.5527 88.0321C70.8669 88.0321 71.1812 87.7222 71.1812 87.4122C71.1812 87.1023 70.8669 86.7924 70.5527 86.7924C70.2384 86.7924 69.9241 87.1023 69.9241 87.4122C69.9241 87.7222 70.1598 88.0321 70.5527 88.0321ZM68.4314 88.0321C68.7456 88.0321 69.0599 87.7222 69.0599 87.4122C69.0599 87.1023 68.7456 86.7924 68.4314 86.7924C68.1171 86.7924 67.8028 87.1023 67.8028 87.4122C67.8028 87.7222 68.1171 88.0321 68.4314 88.0321Z" fill="#003771"/>
<path d="M63.9532 86.5599H64.1889L64.346 85.5527H64.7389L64.896 86.5599H65.8388L65.9959 85.5527H66.3888L66.5459 86.5599H66.7816C67.0173 86.5599 67.1744 86.7149 67.1744 86.9474V88.4195C67.1744 88.652 67.0173 88.8069 66.7816 88.8069C66.6245 88.8069 66.4673 88.7294 66.3888 88.5745C66.3888 88.497 66.3888 88.497 66.3888 88.4195V88.3421H65.7602V88.4195C65.7602 88.652 65.6031 88.8069 65.3674 88.8069C65.2888 88.8069 65.2103 88.807 65.1317 88.7295C65.0531 88.652 64.9746 88.6519 64.9746 88.5745C64.9746 88.497 64.9746 88.497 64.9746 88.4195V88.3421H64.346V88.4195C64.346 88.652 64.1889 88.8069 63.9532 88.8069C63.7175 88.8069 63.5604 88.652 63.5604 88.4195V86.9474C63.4818 86.7149 63.7175 86.5599 63.9532 86.5599ZM66.4673 88.0321C66.7816 88.0321 67.0959 87.7222 67.0959 87.4122C67.0959 87.1023 66.7816 86.7924 66.4673 86.7924C66.1531 86.7924 65.8388 87.1023 65.8388 87.4122C65.8388 87.7222 66.0745 88.0321 66.4673 88.0321ZM64.346 88.0321C64.6603 88.0321 64.9746 87.7222 64.9746 87.4122C64.9746 87.1023 64.6603 86.7924 64.346 86.7924C64.0318 86.7924 63.7175 87.1023 63.7175 87.4122C63.7175 87.7222 64.0318 88.0321 64.346 88.0321Z" fill="#003771"/>
<path d="M59.8676 86.5599H60.1033L60.2604 85.5527H60.5747L60.7318 86.5599H61.6746L61.8318 85.5527H62.2246L62.3817 86.5599H62.6174C62.696 86.5599 62.7745 86.5599 62.8531 86.6374C62.9317 86.7149 63.0103 86.8699 63.0103 86.9474V88.4195C63.0103 88.5745 62.9317 88.652 62.8531 88.7295C62.7745 88.807 62.696 88.8069 62.6174 88.8069C62.3817 88.8069 62.2246 88.652 62.2246 88.4195V88.3421H61.596V88.4195C61.596 88.652 61.4389 88.8069 61.2032 88.8069C60.9675 88.8069 60.8104 88.652 60.8104 88.4195V88.3421H60.1819V88.4195C60.1819 88.652 60.0247 88.8069 59.789 88.8069C59.5533 88.8069 59.3962 88.652 59.3962 88.4195V86.9474C59.3962 86.7149 59.6319 86.5599 59.8676 86.5599ZM62.3032 88.0321C62.6174 88.0321 62.9317 87.7222 62.9317 87.4122C62.9317 87.1023 62.6174 86.7924 62.3032 86.7924C61.9889 86.7924 61.6746 87.1023 61.6746 87.4122C61.6746 87.7222 61.9889 88.0321 62.3032 88.0321ZM60.2604 88.0321C60.5747 88.0321 60.8889 87.7222 60.8889 87.4122C60.8889 87.1023 60.5747 86.7924 60.2604 86.7924C59.9462 86.7924 59.6319 87.1023 59.6319 87.4122C59.6319 87.7222 59.9462 88.0321 60.2604 88.0321Z" fill="#003771"/>
<path d="M55.7828 86.5599H56.0185L56.1756 85.5527H56.5685L56.7256 86.5599H57.6684L57.8255 85.5527H58.2184L58.3755 86.5599H58.6112C58.8469 86.5599 59.004 86.7149 59.004 86.9474V88.4195C59.004 88.652 58.8469 88.8069 58.6112 88.8069C58.3755 88.8069 58.2184 88.652 58.2184 88.4195V88.3421H57.5898V88.4195C57.5898 88.652 57.4327 88.8069 57.197 88.8069C56.9613 88.8069 56.8042 88.652 56.8042 88.4195V88.3421H56.1756V88.4195C56.1756 88.652 56.0185 88.8069 55.7828 88.8069C55.5471 88.8069 55.39 88.652 55.39 88.4195V86.9474C55.3114 86.7149 55.5471 86.5599 55.7828 86.5599ZM58.2184 88.0321C58.5326 88.0321 58.8469 87.7222 58.8469 87.4122C58.8469 87.1023 58.5326 86.7924 58.2184 86.7924C57.9041 86.7924 57.5898 87.1023 57.5898 87.4122C57.5898 87.7222 57.9041 88.0321 58.2184 88.0321ZM56.1756 88.0321C56.4899 88.0321 56.8042 87.7222 56.8042 87.4122C56.8042 87.1023 56.4899 86.7924 56.1756 86.7924C55.8614 86.7924 55.5471 87.1023 55.5471 87.4122C55.5471 87.7222 55.8614 88.0321 56.1756 88.0321Z" fill="#003771"/>
<path d="M51.6175 86.5599H51.8532L52.0103 85.5527H52.4032L52.5603 86.5599H53.5031L53.6602 85.5527H54.0531L54.2102 86.5599H54.4459C54.6816 86.5599 54.8387 86.7149 54.8387 86.9474V88.4195C54.8387 88.652 54.6816 88.8069 54.4459 88.8069C54.2102 88.8069 54.0531 88.652 54.0531 88.4195V88.3421H53.4245V88.4195C53.4245 88.652 53.2674 88.8069 53.0317 88.8069C52.796 88.8069 52.6389 88.652 52.6389 88.4195V88.3421H52.0103V88.4195C52.0103 88.652 51.8532 88.8069 51.6175 88.8069C51.3818 88.8069 51.2247 88.652 51.2247 88.4195V86.9474C51.2247 86.7149 51.3818 86.5599 51.6175 86.5599ZM54.1316 88.0321C54.4459 88.0321 54.7602 87.7222 54.7602 87.4122C54.7602 87.1023 54.4459 86.7924 54.1316 86.7924C53.8174 86.7924 53.5031 87.1023 53.5031 87.4122C53.5031 87.7222 53.8174 88.0321 54.1316 88.0321ZM52.0889 88.0321C52.4032 88.0321 52.7174 87.7222 52.7174 87.4122C52.7174 87.1023 52.4032 86.7924 52.0889 86.7924C51.7746 86.7924 51.4604 87.1023 51.4604 87.4122C51.4604 87.7222 51.6961 88.0321 52.0889 88.0321Z" fill="#003771"/>
<path d="M47.2976 86.6374C47.3762 86.5599 47.4547 86.5599 47.5333 86.5599H47.769L47.9261 85.5527H48.3189L48.4761 86.5599H49.4189L49.576 85.5527H49.9689L50.126 86.5599H50.3617C50.5974 86.5599 50.7545 86.7149 50.7545 86.9474V88.4195C50.7545 88.652 50.5974 88.8069 50.3617 88.8069C50.126 88.8069 49.9689 88.652 49.9689 88.4195V88.3421H49.3403V88.4195C49.3403 88.652 49.1832 88.8069 48.9475 88.8069C48.7118 88.8069 48.5547 88.652 48.5547 88.4195V88.3421H47.9261V88.4195C47.9261 88.652 47.769 88.8069 47.5333 88.8069C47.4547 88.8069 47.3762 88.807 47.2976 88.7295C47.219 88.652 47.1404 88.497 47.1404 88.4195V86.9474C47.1404 86.7924 47.219 86.7149 47.2976 86.6374ZM50.0474 88.0321C50.3617 88.0321 50.6759 87.7222 50.6759 87.4122C50.6759 87.1023 50.3617 86.7924 50.0474 86.7924C49.7332 86.7924 49.4189 87.1023 49.4189 87.4122C49.4189 87.7222 49.7332 88.0321 50.0474 88.0321ZM48.0047 88.0321C48.319 88.0321 48.6332 87.7222 48.6332 87.4122C48.6332 87.1023 48.319 86.7924 48.0047 86.7924C47.6904 86.7924 47.3762 87.1023 47.3762 87.4122C47.3762 87.7222 47.6119 88.0321 48.0047 88.0321Z" fill="#003771"/>
<path d="M43.447 86.5599H43.6827L43.8398 85.5527H44.2327L44.3898 86.5599H45.3326L45.4897 85.5527H45.8825L46.0397 86.5599H46.2754C46.5111 86.5599 46.6682 86.7149 46.6682 86.9474V88.4195C46.6682 88.652 46.5111 88.8069 46.2754 88.8069C46.0397 88.8069 45.8825 88.652 45.8825 88.4195V88.3421H45.254V88.4195C45.254 88.652 45.0969 88.8069 44.8612 88.8069C44.6255 88.8069 44.4684 88.652 44.4684 88.4195V88.3421H43.8398V88.4195C43.8398 88.652 43.6827 88.8069 43.447 88.8069C43.2113 88.8069 43.0542 88.652 43.0542 88.4195V86.9474C43.0542 86.7149 43.2113 86.5599 43.447 86.5599ZM45.9611 88.0321C46.2754 88.0321 46.5897 87.7222 46.5897 87.4122C46.5897 87.1023 46.2754 86.7924 45.9611 86.7924C45.6469 86.7924 45.3326 87.1023 45.3326 87.4122C45.3326 87.7222 45.5683 88.0321 45.9611 88.0321ZM43.9184 88.0321C44.2326 88.0321 44.5469 87.7222 44.5469 87.4122C44.5469 87.1023 44.2326 86.7924 43.9184 86.7924C43.6041 86.7924 43.2899 87.1023 43.2899 87.4122C43.2899 87.7222 43.5255 88.0321 43.9184 88.0321Z" fill="#003771"/>
<path d="M39.3618 86.5599H39.5975L39.7546 85.5527H40.1474L40.3046 86.5599H41.2474L41.4045 85.5527H41.7973L41.9545 86.5599H42.1902C42.4259 86.5599 42.583 86.7149 42.583 86.9474V88.4195C42.583 88.652 42.4259 88.8069 42.1902 88.8069C41.9545 88.8069 41.7973 88.652 41.7973 88.4195V88.3421H41.1688V88.4195C41.1688 88.652 41.0117 88.8069 40.776 88.8069C40.5403 88.8069 40.3831 88.652 40.3831 88.4195V88.3421H39.7546V88.4195C39.7546 88.652 39.5975 88.8069 39.3618 88.8069C39.1261 88.8069 38.9689 88.652 38.9689 88.4195V86.9474C38.9689 86.7149 39.1261 86.5599 39.3618 86.5599ZM41.8759 88.0321C42.1902 88.0321 42.5044 87.7222 42.5044 87.4122C42.5044 87.1023 42.1902 86.7924 41.8759 86.7924C41.5616 86.7924 41.2474 87.1023 41.2474 87.4122C41.2474 87.7222 41.4831 88.0321 41.8759 88.0321ZM39.7546 88.0321C40.0689 88.0321 40.3831 87.7222 40.3831 87.4122C40.3831 87.1023 40.0689 86.7924 39.7546 86.7924C39.4403 86.7924 39.1261 87.1023 39.1261 87.4122C39.1261 87.7222 39.4403 88.0321 39.7546 88.0321Z" fill="#003771"/>
<path d="M31.1903 86.5599H31.426L31.5831 85.5527H31.9759L32.133 86.5599H33.0759L33.233 85.5527H33.6258L33.783 86.5599H34.0187C34.2544 86.5599 34.4115 86.7149 34.4115 86.9474V88.4195C34.4115 88.652 34.2544 88.8069 34.0187 88.8069C33.783 88.8069 33.6258 88.652 33.6258 88.4195V88.3421H32.9973V88.4195C32.9973 88.497 32.9973 88.5745 32.9187 88.652C32.8401 88.7295 32.683 88.8069 32.6045 88.8069C32.3688 88.8069 32.2116 88.652 32.2116 88.4195V88.3421H31.5831V88.4195C31.5831 88.652 31.426 88.8069 31.1903 88.8069C30.9546 88.8069 30.7974 88.652 30.7974 88.4195V86.9474C30.7189 86.7149 30.9546 86.5599 31.1903 86.5599ZM33.0759 87.5672C33.0759 87.7222 33.1544 87.7997 33.233 87.8772L33.3115 87.9547C33.3901 88.0321 33.5473 88.0321 33.6258 88.0321C33.9401 88.0321 34.2544 87.7222 34.2544 87.4122C34.2544 87.1023 33.9401 86.7924 33.6258 86.7924C33.4687 86.7924 33.3901 86.7924 33.3115 86.8699L33.233 86.9474C33.1544 87.0248 33.0759 87.1023 33.0759 87.2573C33.0759 87.3348 33.0759 87.3347 33.0759 87.4122C33.0759 87.4897 33.0759 87.4898 33.0759 87.5672ZM31.5831 88.0321C31.7402 88.0321 31.8188 88.0321 31.8974 87.9547C32.0545 87.8772 32.133 87.6447 32.133 87.4122C32.133 87.1798 32.0545 87.0249 31.8974 86.8699C31.8188 86.7924 31.6617 86.7924 31.5831 86.7924C31.2688 86.7924 30.9545 87.1023 30.9545 87.4122C30.9545 87.7222 31.2688 88.0321 31.5831 88.0321Z" fill="#003771"/>
<path d="M27.1062 86.5599H27.3419L27.499 85.5527H27.8918L28.049 86.5599H28.9918L29.1489 85.5527H29.5417L29.6989 86.5599H29.9346C30.1703 86.5599 30.3274 86.7149 30.3274 86.9474V88.4195C30.3274 88.652 30.1703 88.8069 29.9346 88.8069C29.7774 88.8069 29.6203 88.7294 29.5417 88.5745C29.5417 88.497 29.5417 88.497 29.5417 88.4195V88.3421H28.9132V88.4195C28.9132 88.652 28.7561 88.8069 28.5204 88.8069C28.4418 88.8069 28.3632 88.807 28.2847 88.7295C28.2061 88.652 28.1275 88.6519 28.1275 88.5745C28.1275 88.497 28.1275 88.497 28.1275 88.4195V88.3421H27.499V88.4195C27.499 88.652 27.3419 88.8069 27.1062 88.8069C26.8705 88.8069 26.7133 88.652 26.7133 88.4195V86.9474C26.6348 86.7149 26.8705 86.5599 27.1062 86.5599ZM29.5417 88.0321C29.856 88.0321 30.1702 87.7222 30.1702 87.4122C30.1702 87.1023 29.856 86.7924 29.5417 86.7924C29.2275 86.7924 28.9132 87.1023 28.9132 87.4122C28.9132 87.7222 29.2275 88.0321 29.5417 88.0321ZM27.499 88.0321C27.8133 88.0321 28.1275 87.7222 28.1275 87.4122C28.1275 87.1023 27.8133 86.7924 27.499 86.7924C27.1847 86.7924 26.8705 87.1023 26.8705 87.4122C26.8705 87.7222 27.1847 88.0321 27.499 88.0321Z" fill="#003771"/>
<path d="M22.9408 86.5599H23.1764L23.3336 85.5527H23.7264L23.8835 86.5599H24.8263L24.9835 85.5527H25.3763L25.5334 86.5599H25.7692C25.8477 86.5599 25.9263 86.5599 26.0048 86.6374C26.0834 86.7149 26.162 86.8699 26.162 86.9474V88.4195C26.162 88.652 26.0049 88.8069 25.7692 88.8069C25.5335 88.8069 25.3763 88.652 25.3763 88.4195V88.3421H24.7478V88.4195C24.7478 88.652 24.5906 88.8069 24.3549 88.8069C24.1192 88.8069 23.9621 88.652 23.9621 88.4195V88.3421H23.3336V88.4195C23.3336 88.652 23.1765 88.8069 22.9408 88.8069C22.7051 88.8069 22.5479 88.652 22.5479 88.4195V86.9474C22.5479 86.7149 22.7836 86.5599 22.9408 86.5599ZM25.4549 88.0321C25.7691 88.0321 26.0834 87.7222 26.0834 87.4122C26.0834 87.1023 25.7691 86.7924 25.4549 86.7924C25.1406 86.7924 24.8263 87.1023 24.8263 87.4122C24.8263 87.7222 25.1406 88.0321 25.4549 88.0321ZM23.4122 88.0321C23.7264 88.0321 24.0407 87.7222 24.0407 87.4122C24.0407 87.1023 23.7264 86.7924 23.4122 86.7924C23.0979 86.7924 22.7836 87.1023 22.7836 87.4122C22.7836 87.7222 23.0979 88.0321 23.4122 88.0321Z" fill="#003771"/>
<path d="M18.8566 86.5599H19.0924L19.2495 85.5527H19.6423L19.7995 86.5599H20.7422L20.8994 85.5527H21.2922L21.4494 86.5599H21.685C21.9207 86.5599 22.0779 86.7149 22.0779 86.9474V88.4195C22.0779 88.652 21.9207 88.8069 21.685 88.8069C21.4493 88.8069 21.2922 88.652 21.2922 88.4195V88.3421H20.6637V88.4195C20.6637 88.652 20.5066 88.8069 20.2709 88.8069C20.0352 88.8069 19.878 88.652 19.878 88.4195V88.3421H19.2495V88.4195C19.2495 88.652 19.0923 88.8069 18.8566 88.8069C18.6209 88.8069 18.4638 88.652 18.4638 88.4195V86.9474C18.4638 86.7149 18.6209 86.5599 18.8566 86.5599ZM21.3708 88.0321C21.6851 88.0321 21.9993 87.7222 21.9993 87.4122C21.9993 87.1023 21.6851 86.7924 21.3708 86.7924C21.0565 86.7924 20.7422 87.1023 20.7422 87.4122C20.7422 87.7222 21.0565 88.0321 21.3708 88.0321ZM19.328 88.0321C19.6423 88.0321 19.9566 87.7222 19.9566 87.4122C19.9566 87.1023 19.6423 86.7924 19.328 86.7924C19.0138 86.7924 18.6995 87.1023 18.6995 87.4122C18.6995 87.7222 18.9352 88.0321 19.328 88.0321Z" fill="#003771"/>
<path d="M17.6767 65.0215C17.9124 65.0215 18.0696 65.1764 18.0696 65.4089V66.881C18.0696 67.1134 17.9124 67.2684 17.6767 67.2684H17.4411L17.2839 68.2757H16.8911L16.734 67.2684H15.7912L15.634 68.2757H15.2412L15.0841 67.2684H14.8483C14.6126 67.2684 14.4555 67.1134 14.4555 66.881V65.4089C14.4555 65.1764 14.6126 65.0215 14.8483 65.0215C15.084 65.0215 15.2412 65.1764 15.2412 65.4089V65.4864H15.7912V65.4089C15.7912 65.1764 15.9483 65.0215 16.184 65.0215C16.4197 65.0215 16.5768 65.1764 16.5768 65.4089V65.4864H17.2053V65.4089C17.2053 65.2539 17.441 65.0215 17.6767 65.0215ZM15.2412 65.8738C14.9269 65.8738 14.6127 66.1836 14.6127 66.4936C14.6127 66.8035 14.9269 67.1135 15.2412 67.1135C15.5554 67.1135 15.8697 66.8035 15.8697 66.4936C15.8697 66.1836 15.5554 65.8738 15.2412 65.8738ZM16.6554 66.4936C16.6554 66.8035 16.9696 67.1135 17.2839 67.1135C17.5982 67.1135 17.9125 66.8035 17.9125 66.4936C17.9125 66.1836 17.5982 65.8738 17.2839 65.8738C16.9696 65.8738 16.6554 66.1836 16.6554 66.4936Z" fill="#003771"/>
<path d="M21.7626 72.4593V70.2898C21.7626 69.8249 22.1554 69.4375 22.6268 69.4375H42.1899C42.1114 69.6699 42.1114 69.9024 42.1114 70.2123C42.1114 71.9169 43.6827 73.3116 45.4897 73.0017C46.2754 72.8467 46.9825 72.3818 47.3753 71.6845C47.8467 70.9872 47.9253 70.2123 47.6896 69.4375H64.4243C64.3457 69.5925 64.3457 69.8249 64.3457 69.9798C64.2671 71.5295 65.6028 73.0017 67.1741 73.0017C68.7454 73.0017 70.0811 71.762 70.0811 70.2123C70.0811 69.9799 70.0811 69.6699 70.0025 69.4375H87.5228C87.9942 69.4375 88.3871 69.8249 88.3871 70.2898V72.4593C88.3871 72.9242 87.9942 73.3116 87.5228 73.3116H22.7054C22.1554 73.3116 21.7626 72.9242 21.7626 72.4593Z" fill="#003771"/>
<path d="M31.1126 61.1465H73.1458V64.4782H31.1126V61.1465Z" fill="#003771"/>
<path d="M49.2614 15.6648C49.2614 15.045 49.7328 14.5801 50.3613 14.5801H64.2676C64.8962 14.5801 65.3676 15.045 65.3676 15.6648H49.2614Z" fill="#003771"/>
<path d="M163.34 66.3379L164.204 69.6697C164.361 70.2895 164.597 70.8318 164.911 71.3742L167.347 70.212C168.368 69.7471 169.468 70.212 169.861 71.2193C170.254 72.2266 169.782 73.4663 168.839 73.9312L166.875 74.8609C168.054 78.1926 167.425 82.1442 164.911 85.0885L164.754 85.2435C161.454 88.9627 158.076 88.8851 152.89 86.6381C152.105 86.2507 151.319 85.8634 150.533 85.321L148.098 83.6164L163.183 66.5704C163.261 66.4154 163.261 66.3379 163.34 66.3379ZM167.818 73.1563C168.447 73.3113 169.075 72.9238 169.232 72.304C169.389 71.6841 169.075 70.9869 168.525 70.8319C167.897 70.6769 167.268 71.0643 167.111 71.6842C166.875 72.304 167.19 72.9239 167.818 73.1563Z" fill="#003771"/>
<path d="M143.619 78.6584L144.797 77.3412L156.661 64.0143C157.997 62.5421 160.196 62.3097 161.532 63.6269L162.632 64.6342C162.868 64.8666 162.946 65.254 162.789 65.6414C162.789 65.7189 162.711 65.7964 162.632 65.8739L148.019 82.3775L147.94 82.4551L147.862 82.5325C147.626 82.9199 147.076 82.9974 146.762 82.7649L139.691 77.7286L140.162 76.9538L143.619 78.6584Z" fill="#003771"/>
<path d="M111.486 12.3321V10.7049C111.486 9.85263 110.778 9.07783 109.836 9.07783V9.00036L132.856 5.51367L133.406 8.9229L111.486 12.3321Z" fill="#003771"/>
<path d="M152.026 5.04835L134.977 7.68276C135.055 8.30261 134.584 8.84497 133.955 8.92245L133.406 5.43576C134.034 5.35828 134.584 5.74567 134.741 6.28804L152.183 3.57617V3.80866L152.026 5.04835Z" fill="#003771"/>
<path d="M165.618 24.1876H167.268C168.211 24.1876 168.996 23.6453 169.075 22.793H169.154L169.703 45.8051L166.168 45.8826L165.618 24.1876Z" fill="#003771"/>
<path d="M168.526 47.5092L169.155 69.5916C169.155 69.8241 168.84 69.5142 168.683 69.4367C168.447 69.3592 168.29 69.3592 168.055 69.4367L167.662 69.5141L167.112 47.5868C166.483 47.5868 166.012 46.9669 166.012 46.347L169.547 46.2695C169.626 46.8894 169.312 47.4317 168.526 47.5092Z" fill="#003771"/>
<path d="M110.935 11.0158V12.6429V12.7979H150.69L150.612 13.4177H106.379H106.3C101.822 13.4177 97.5005 15.2773 94.4364 18.5316L86.1869 28.2168L86.0298 27.1321L89.8795 22.4057C91.058 20.9335 92.0794 19.6163 93.1794 18.3766C96.4006 14.8124 101.115 12.7979 105.986 12.7979H107.793V11.0158C107.793 10.1635 108.5 9.38867 109.443 9.38867C110.228 9.38867 110.935 10.086 110.935 11.0158ZM109.443 10.3184C109.364 10.3184 109.364 10.3184 109.286 10.3184C108.814 10.3184 108.421 10.7059 108.421 11.1708C108.421 11.6357 108.814 12.0231 109.286 12.0231C109.443 12.0231 109.521 12.0231 109.678 11.9456C109.914 11.7907 110.15 11.5582 110.15 11.2483C110.15 10.7059 109.835 10.3959 109.443 10.3184Z" fill="#003771"/>
<path d="M3.37877 44.0234H9.50696V55.0259H3.37877V44.0234Z" fill="#003771"/>
<path d="M86.1873 56.6518C86.1873 58.7438 84.4588 60.4484 82.3375 60.4484H31.1907V55.877H86.2659V56.6518H86.1873Z" fill="#003771"/>
<path d="M3.06449 58.3563L2.51453 55.877H9.50696V60.4484H5.81432C4.47868 60.4484 3.37875 59.5961 3.06449 58.3563Z" fill="#003771"/>
<path d="M10.2924 55.877H30.2483V60.4484H10.2924V55.877Z" fill="#003771"/>
<path d="M31.1123 35.5H42.4259V43.1707H31.1123V35.5Z" fill="#003771"/>
<path d="M3.7716 38.2894C4.16444 36.6623 5.65718 35.5 7.38565 35.5H9.50696V43.1707H2.51453L3.7716 38.2894Z" fill="#003771"/>
<path d="M42.1898 55.0259H31.1905V44.0234H42.1898V55.0259ZM34.9617 48.9048H32.8404C32.4476 48.9048 32.1333 49.2148 32.1333 49.6022C32.1333 49.9896 32.4476 50.2996 32.8404 50.2996H34.9617C35.3545 50.2996 35.6688 49.9896 35.6688 49.6022C35.6688 49.2148 35.3545 48.9048 34.9617 48.9048Z" fill="#003771"/>
<path d="M30.2483 55.0259H10.2924V44.0234H30.2483V55.0259ZM14.2207 46.5029H12.5708V48.13H14.2207V46.5029ZM14.2207 48.7499H12.5708V50.377H14.2207V48.7499ZM14.2207 50.9194H12.5708V52.5465H14.2207V50.9194ZM16.4991 46.5029H14.8492V48.13H16.4991V46.5029ZM16.4991 48.7499H14.8492V50.377H16.4991V48.7499ZM16.4991 50.9194H14.8492V52.5465H16.4991V50.9194ZM18.8561 46.5029H17.2062V48.13H18.8561V46.5029ZM18.8561 48.7499H17.2062V50.377H18.8561V48.7499ZM18.8561 50.9194H17.2062V52.5465H18.8561V50.9194ZM21.1346 46.5029H19.4847V48.13H21.1346V46.5029ZM21.1346 48.7499H19.4847V50.377H21.1346V48.7499ZM21.1346 50.9194H19.4847V52.5465H21.1346V50.9194ZM23.413 46.5029H21.7631V48.13H23.413V46.5029ZM23.413 48.7499H21.7631V50.377H23.413V48.7499ZM23.413 50.9194H21.7631V52.5465H23.413V50.9194ZM25.6914 46.5029H24.0415V48.13H25.6914V46.5029ZM25.6914 48.7499H24.0415V50.377H25.6914V48.7499ZM25.6914 50.9194H24.0415V52.5465H25.6914V50.9194ZM28.0484 46.5029H26.3985V48.13H28.0484V46.5029ZM28.0484 48.7499H26.3985V50.377H28.0484V48.7499ZM28.0484 50.9194H26.3985V52.5465H28.0484V50.9194Z" fill="#003771"/>
<path d="M10.2924 35.5H30.2483V43.1707H10.2924V35.5Z" fill="#003771"/>
<path d="M43.2907 44.0234L48.4761 46.038L61.361 51.1518C62.9324 51.7717 63.9537 53.2439 63.9537 54.9485H43.2907V48.6724V44.0234Z" fill="#003771"/>
<path d="M65.8393 42.5509C67.7249 43.1708 69.6891 44.1005 70.4747 44.333L73.2246 45.4952L76.6815 46.8899C77.2314 47.1223 77.7028 47.3548 78.2528 47.5873C80.7669 48.9819 82.1026 50.9189 82.4954 53.5533C82.4954 53.6308 82.4954 53.7858 82.4954 53.8633C82.4954 54.2507 82.574 54.5606 82.574 54.9481V55.0255H65.1322C65.1322 53.1659 63.9537 51.4614 62.2252 50.6865L48.5546 45.1078L43.3692 42.8608V34.3378C43.3692 33.9503 43.3692 33.4855 43.4478 33.0981L45.4905 18.0665C45.6477 16.9818 46.5119 16.207 47.5333 16.207H48.5546V39.0642L60.0253 41.2337C60.6539 41.3886 64.0323 41.9311 65.8393 42.5509Z" fill="#003771"/>
<path d="M84.6947 18.1428H84.6161L84.5376 17.5229C84.3804 16.4382 83.5162 15.6633 82.4948 15.6633H82.0234H81.4735H78.4879C78.4879 15.0435 78.9593 14.4237 79.6664 14.3462L84.5376 13.6488C85.3232 13.4939 86.1089 14.1137 86.1089 14.966V16.8256C86.0303 17.5229 85.4018 18.1428 84.6947 18.1428Z" fill="#003771"/>
<path d="M10.3713 32.3231C10.3713 31.4708 11.0784 30.7734 11.9426 30.7734H32.5271C33.3913 30.7734 34.0984 31.4708 34.0984 32.3231V34.725H10.3713V32.3231ZM28.2845 33.5628H29.9344V31.9357H28.2845V33.5628ZM26.006 33.5628H27.5774V31.9357H25.9275V33.5628H26.006ZM23.649 33.5628H25.2989V31.9357H23.649V33.5628ZM21.3706 33.5628H23.0205V31.9357H21.3706V33.5628ZM19.0922 33.5628H20.7421V31.9357H19.0922V33.5628ZM16.8137 33.5628H18.4636V31.9357H16.8137V33.5628ZM14.4567 33.5628H16.1066V31.9357H14.4567V33.5628Z" fill="#003771"/>
<path d="M13.1205 28.8359H31.3479V30.1532H13.1205V28.8359Z" fill="#003771"/>
<path d="M86.8164 46.6569L94.5945 34.2598L97.5801 36.0419L86.8164 53.2429V46.6569Z" fill="#003771"/>
<path d="M82.4163 38.0566C82.5734 38.0566 82.652 38.2116 82.652 38.2891C82.652 38.3666 82.652 38.444 82.652 38.5215V42.938V43.7903C82.652 44.0228 82.5734 44.2552 82.3377 44.4101L81.7092 44.9526C81.2378 45.34 80.6093 45.4949 79.9807 45.4174C79.8236 45.4174 79.745 45.34 79.6664 45.34L76.8381 44.1777L77.5451 38.1341C79.5093 38.0566 81.8663 38.0566 82.4163 38.0566Z" fill="#003771"/>
<path d="M82.1806 31.5481L82.3378 32.7878C82.4163 33.1752 82.4163 33.5626 82.4949 33.95C82.4949 34.26 82.2592 34.5699 81.9449 34.5699H78.5665H77.8594C77.8594 33.9501 78.0952 33.4077 78.4094 32.9428L76.8381 30.5409C76.6024 30.6184 76.2881 30.5409 76.131 30.3084C75.9738 29.9985 76.0524 29.6886 76.2881 29.4561C76.6024 29.3012 76.9167 29.3786 77.1524 29.6111C77.3095 29.8435 77.3095 30.1534 77.0738 30.3859L78.5665 32.6329C78.8022 32.4004 79.0379 32.168 79.2736 32.013L78.5665 29.3787C78.2523 29.3787 78.0166 29.2236 77.938 28.9137C77.8595 28.6038 78.0166 28.2938 78.3309 28.1389C78.6451 28.0614 78.9594 28.2164 79.1165 28.5263C79.1951 28.8362 79.038 29.0687 78.8023 29.2237L79.5094 31.7806C79.9808 31.5482 80.4521 31.3932 81.0021 31.3932H82.1806V31.5481Z" fill="#003771"/>
<path d="M81.3944 16.2852H81.8658C82.8871 16.2852 83.7514 17.06 83.9085 18.1447L83.987 18.7645L85.1655 27.675L85.7155 31.5491C85.9512 33.0987 86.0298 34.5709 86.0298 36.1205V40.6145V42.5516V43.0165V47.8978V54.4063V55.1036H85.5584H84.3013H83.28L83.2014 54.4063L83.1228 53.244C83.1228 53.0116 83.0443 52.7791 83.0443 52.5467C82.9657 52.0818 82.8086 51.6169 82.5729 51.2295C82.0229 50.0673 81.6301 49.5249 80.6873 48.5951L80.2159 48.1303C79.9016 47.8203 79.823 47.8203 79.7445 47.6654C79.5873 47.5104 79.3516 47.4329 79.1159 47.3554L78.8802 47.278L72.9092 44.7985L66.3096 42.0866C66.0739 42.0091 65.8382 41.9317 65.681 41.8542L64.8168 41.6992L49.182 38.8324V38.7549V37.5153V21.0115V18.1447V17.4474V16.9825V16.4401H77.8589H80.8444H81.3944V16.2852ZM61.0456 37.6702C61.0456 38.7549 61.8313 39.6848 62.9312 39.8397L64.9739 40.2271L66.6238 40.6145L72.9877 43.2488L76.9946 44.9535L79.5873 46.0383C79.7445 46.1158 79.9016 46.1157 79.9802 46.1932C80.7658 46.3482 81.5515 46.1932 82.1015 45.6509L82.8085 45.031C83.0442 44.7985 83.1228 44.5661 83.1228 44.2562V43.1714V37.8251C83.1228 37.7476 83.1228 37.6702 83.1228 37.5927C83.1228 37.4378 82.9657 37.2828 82.8085 37.2828C82.1014 37.2828 80.2944 37.2828 78.016 37.2828C77.7803 37.2828 77.5446 37.2828 77.3089 37.2828C71.495 37.2828 63.2455 37.2828 61.3599 37.2828C61.2027 37.2053 61.0456 37.3603 61.0456 37.6702ZM57.353 20.8566H52.7175C51.9319 20.8566 51.3034 21.4764 51.3034 22.2512V35.1908C51.3034 36.663 52.4033 37.9026 53.8175 38.2125L57.353 38.8324C58.0601 38.9874 58.6886 38.445 58.6886 37.6702L58.7672 22.2512C58.7672 21.4764 58.1386 20.8566 57.353 20.8566ZM62.5384 20.8566C61.7527 20.8566 61.0456 21.4764 61.0456 22.3287V33.5636C61.0456 34.4159 61.7527 35.1132 62.6169 35.1132H78.4088H79.1159H82.4943C82.8086 35.1132 83.1228 34.8034 83.0443 34.4934C83.0443 34.106 82.9657 33.7186 82.8871 33.3312L82.73 32.0915L82.5729 30.8517L81.4729 22.5612C81.3158 21.6314 80.5301 20.9341 79.5873 20.9341H62.5384V20.8566Z" fill="#003771"/>
<path d="M97.5007 34.1839C97.9721 34.4939 97.9721 35.2687 97.7364 35.7336L94.8295 33.9515C95.0652 33.6415 95.5366 33.3317 95.8508 33.3317C96.008 33.3317 96.1651 33.4091 96.3222 33.4866L96.4008 33.564L96.4794 33.4866L104.493 20.8571V20.7795C104.1 20.2371 104.1 19.5399 104.415 18.9975C104.729 18.5326 105.279 18.2227 105.829 18.2227C106.143 18.2227 106.457 18.3001 106.693 18.455C107.479 18.9199 107.714 19.9272 107.243 20.702C106.929 21.1669 106.379 21.4769 105.829 21.4769C105.75 21.4769 105.672 21.4769 105.593 21.4769H105.515L97.5007 34.1839ZM105.357 20.5471C105.515 20.6246 105.672 20.702 105.829 20.702C106.143 20.702 106.457 20.5471 106.614 20.3146C106.772 20.0822 106.772 19.8497 106.693 19.6173C106.614 19.3848 106.457 19.1524 106.3 19.0749C106.143 18.9975 105.986 18.92 105.829 18.92C105.515 18.92 105.2 19.075 105.043 19.3074C104.807 19.7723 104.886 20.3147 105.357 20.5471Z" fill="#003771"/>
<path d="M166.954 23.7225H164.675L163.576 58.6669C163.576 60.6039 162.24 62.1536 160.433 62.3086H160.354C158.547 62.4636 156.897 61.1464 156.505 59.2093L151.791 20.1583L151.162 15.2769L151.555 12.7201L152.655 4.97189L152.812 3.65464V3.57718C153.126 1.64013 154.619 0.167986 156.426 0.013022H156.505C158.39 -0.141942 160.276 1.09777 160.826 3.1123L164.126 13.7273C164.518 14.967 164.754 16.3617 164.675 17.6789V19.7709H166.954C168.054 19.7709 168.918 20.6232 168.918 21.708V21.7855C168.918 22.8702 168.054 23.7225 166.954 23.7225ZM154.069 13.9598C153.205 13.9598 152.419 14.6571 152.419 15.5869C152.419 16.5167 153.126 17.214 154.069 17.214C154.933 17.214 155.719 16.5167 155.719 15.5869C155.719 14.6571 154.933 13.9598 154.069 13.9598ZM156.74 2.41495C155.797 2.41495 155.012 3.18973 155.012 4.11951C155.012 5.0493 155.797 5.82417 156.74 5.82417C157.683 5.82417 158.469 5.0493 158.469 4.11951C158.469 3.11225 157.683 2.41495 156.74 2.41495ZM158.469 58.9768C158.469 59.9066 159.254 60.6814 160.197 60.6814C161.14 60.6814 161.926 59.9066 161.926 58.9768C161.926 58.047 161.14 57.2723 160.197 57.2723C159.254 57.2723 158.469 58.047 158.469 58.9768ZM163.026 14.1922L159.962 4.66194C159.962 4.58446 159.804 4.50692 159.726 4.50692C159.647 4.50692 159.569 4.66193 159.569 4.73941L162.633 14.2697C162.868 15.122 163.026 15.9743 163.026 16.8266L162.083 56.8849C162.083 56.9623 162.161 57.0398 162.24 57.0398C162.318 57.0398 162.397 56.9623 162.397 56.8849L163.34 16.8266C163.418 15.9743 163.34 15.0445 163.026 14.1922ZM166.797 20.7007C166.168 20.7007 165.618 21.2431 165.618 21.8629C165.618 22.4828 166.168 23.0251 166.797 23.0251C167.425 23.0251 167.975 22.4828 167.975 21.8629C167.975 21.1656 167.425 20.7007 166.797 20.7007Z" fill="#003771"/>
<path d="M112.35 15.3555H146.919C147.783 15.3555 148.412 15.9754 148.412 16.6727V17.9124C148.412 18.6098 147.783 19.1521 146.998 19.2296L112.114 22.0965C111.564 22.1739 111.093 21.9415 110.778 21.6316C110.543 21.3991 110.386 21.0117 110.464 20.7017L110.778 16.5953C110.857 15.8979 111.564 15.3555 112.35 15.3555Z" fill="#003771"/>
<path d="M97.2654 18.9961C97.6582 18.9961 97.9725 19.151 98.2082 19.461L100.879 22.6377C101.351 23.1801 101.272 24.0324 100.644 24.5748L86.7375 38.1341V35.5773C86.7375 34.0276 86.6589 32.478 86.4232 31.0058L86.3446 30.6184L95.9298 19.5384C96.3226 19.2285 96.794 18.9961 97.2654 18.9961Z" fill="#003771"/>
<path d="M105.594 21.8634H105.83C106.537 21.8634 107.165 21.476 107.558 20.9337C108.186 20.0039 107.872 18.6867 106.929 18.1443C106.615 17.9119 106.222 17.8344 105.83 17.8344C105.122 17.8344 104.415 18.2217 104.101 18.7641C103.63 19.4615 103.551 20.1589 104.022 20.8562L99.6228 27.752C98.5228 28.7593 97.3443 30.154 95.3801 32.0911L86.8164 40.0717V38.6771L100.958 24.8078C101.665 24.1104 101.744 23.0257 101.194 22.4058L98.5228 19.229C98.2085 18.8416 97.7372 18.6867 97.2658 18.6867C96.7158 18.6867 96.1658 18.9191 95.773 19.384L86.4235 30.154L86.2664 28.7593L94.7516 18.8416C97.7371 15.6648 101.901 13.8828 106.301 13.8828H106.379H150.612L150.377 15.4325L151.005 20.3912L106.144 24.7303C105.122 24.8078 104.258 25.1177 103.315 25.5051L105.594 21.8634ZM110.544 21.8634C110.936 22.2508 111.408 22.4833 111.958 22.4833C112.036 22.4833 112.036 22.4833 112.115 22.4833L146.998 19.6164C148.02 19.5389 148.727 18.8416 148.727 17.9118V16.6721C148.727 15.7424 147.863 14.9675 146.841 14.9675H112.272C111.251 14.9675 110.465 15.6648 110.386 16.5171L110.072 20.6237C110.072 21.0886 110.229 21.476 110.544 21.8634Z" fill="#003771"/>
</svg>
