<svg width="155" height="79" viewBox="0 0 155 79" fill="none" xmlns="http://www.w3.org/2000/svg">
<path d="M-0.00012207 0V0.238695V21.1694V26.1036V30.4808V35.6537V40.0309V44.5672V49.1035L14.6725 49.1034H98.4374H100.536C102.795 49.1034 104.571 47.3525 104.571 45.1241V44.5671V40.0307V35.6536V30.4806V26.1035V21.1693V0.0794047H98.4374L-0.00012207 0.0795649V0ZM78.9891 14.6434H94.4832V48.6259H78.9891V14.6434ZM53.6781 10.9928C53.6781 9.88825 54.5735 8.99282 55.6781 8.99282H67.7513C68.8558 8.99282 69.7513 9.88825 69.7513 10.9928V25.7022C69.7513 26.8067 68.8558 27.7022 67.7513 27.7022H55.6781C54.5735 27.7022 53.6781 26.8067 53.6781 25.7022V10.9928ZM35.0227 10.9928C35.0227 9.88825 35.9181 8.99282 37.0227 8.99282H49.0958C50.2003 8.99282 51.0958 9.88825 51.0958 10.9928V25.7022C51.0958 26.8067 50.2003 27.7022 49.0958 27.7022H37.0227C35.9181 27.7022 35.0227 26.8067 35.0227 25.7022V10.9928ZM16.5286 10.9928C16.5286 9.88825 17.424 8.99282 18.5286 8.99282H30.6017C31.7063 8.99282 32.6017 9.88825 32.6017 10.9928V25.7022C32.6017 26.8067 31.7063 27.7022 30.6017 27.7022H18.5286C17.424 27.7022 16.5286 26.8067 16.5286 25.7022V10.9928Z" fill="#003771"/>
<path d="M109.816 66.1344C109.816 72.9787 115.384 78.47 122.324 78.47C129.264 78.47 134.832 72.9787 134.832 66.1344C134.832 59.2901 129.264 53.7988 122.324 53.7988C115.384 53.7988 109.816 59.2901 109.816 66.1344ZM115.787 66.1344C115.787 62.5531 118.692 59.6881 122.324 59.6881C125.955 59.6881 128.86 62.5531 128.86 66.1344C128.86 69.7157 125.955 72.5807 122.324 72.5807C118.773 72.5807 115.787 69.6361 115.787 66.1344Z" fill="#003771"/>
<path d="M122.324 63.1895C123.938 63.1895 125.31 64.5423 125.31 66.134C125.31 67.7257 123.938 69.0786 122.324 69.0786C120.71 69.0786 119.338 67.7257 119.338 66.134C119.338 64.4628 120.71 63.1895 122.324 63.1895Z" fill="#003771"/>
<path d="M123.212 30.1619H118.693C117.483 30.1619 116.514 29.2068 116.514 28.0926V20.8504C116.514 19.6567 117.483 18.7812 118.693 18.7812H123.212C124.423 18.7812 125.391 19.7362 125.391 20.8504V28.0926C125.391 29.2068 124.423 30.1619 123.212 30.1619Z" fill="#003771"/>
<path d="M152.103 52.8436C150.569 52.8436 149.278 51.5703 149.278 50.0582V46.4769C149.278 44.9648 150.569 43.6914 152.103 43.6914H153.878H153.959V52.8436H153.878H152.103Z" fill="#003771"/>
<path d="M154.039 43.0556C153.958 43.0556 153.958 43.0556 154.039 43.0556H152.102C150.246 43.0556 148.632 44.5677 148.632 46.4778V50.1386C148.632 51.9691 150.165 53.5607 152.102 53.5607H153.958H154.039V55.3116H146.857V41.623H154.039V43.0556Z" fill="#003771"/>
<path d="M154.038 64.7809C153.957 64.7809 153.957 64.7809 154.038 64.7809C154.038 64.7016 154.038 64.6223 154.038 64.543V64.7809Z" fill="#003771"/>
<path d="M154.039 57.2211C153.958 57.2211 153.958 57.2211 154.039 57.2211H152.183C150.65 57.2211 149.359 58.2556 149.359 59.529V62.4737C149.359 63.747 150.65 64.7816 152.183 64.7816H153.958C153.958 64.7816 153.958 64.7816 154.039 64.7816C153.878 66.2937 152.506 67.4874 150.73 67.4874H146.857V56.0273H154.039V57.2211Z" fill="#003771"/>
<path d="M153.958 64.2251H152.425C151.053 64.2251 150.004 63.3497 150.004 62.2355V59.6888C150.004 58.5746 151.053 57.6992 152.425 57.6992H153.958C153.958 57.6992 153.958 57.6992 154.039 57.6992V63.9864C154.039 64.1456 153.958 64.2251 153.958 64.2251Z" fill="#003771"/>
<path d="M146.049 40.589H146.775H147.502H153.957V32.4714C153.957 31.9143 153.877 31.2776 153.715 30.7205L150.568 18.4645C149.923 15.9974 148.066 14.3262 146.049 14.3262H117.24C114.577 14.3262 112.478 16.9524 112.478 20.1358V37.3261V40.5095H146.049V40.589ZM127.65 34.7793C127.65 34.3814 127.973 34.063 128.376 34.063H130.232C130.636 34.063 130.958 34.3814 130.958 34.7793C130.958 35.1772 130.636 35.4956 130.232 35.4956H128.376C127.973 35.416 127.65 35.0977 127.65 34.7793ZM126.036 28.5718C126.036 29.9247 124.906 31.0389 123.534 31.0389H118.289C116.917 31.0389 115.787 29.9247 115.787 28.5718V20.2154C115.787 18.8625 116.917 17.7482 118.289 17.7482H123.534C124.906 17.7482 126.036 18.8625 126.036 20.2154V28.5718ZM141.368 28.2534C141.368 29.7655 140.077 31.0389 138.544 31.0389H130.555C128.941 31.0389 127.73 29.7655 127.73 28.2534V20.5337C127.73 19.0216 129.022 17.7482 130.555 17.7482H138.544C140.158 17.7482 141.368 19.0216 141.368 20.5337V28.2534ZM145.323 33.1876C144.596 33.1876 143.951 32.4714 143.951 31.6755V19.2604C143.951 18.3849 144.596 17.7482 145.323 17.7482H146.937C147.905 17.7482 148.712 18.4646 148.873 19.4992L151.052 30.9593C151.294 32.1531 150.487 33.2672 149.358 33.2672H145.323V33.1876Z" fill="#003771"/>
<path d="M133.057 50.8549C131.847 48.9449 129.506 47.6715 127.005 47.6715H117.644C115.707 47.6715 113.851 48.4674 112.56 49.7407V42.8965V41.623H146.049V42.8965V55.3116H135.801L133.057 50.8549Z" fill="#003771"/>
<path d="M146.049 61.4383H138.625V60.9608C138.544 60.3242 138.464 59.6875 138.141 59.0508H146.049V61.4383Z" fill="#003771"/>
<path d="M146.049 58.495H137.818C137.738 58.4154 137.738 58.3357 137.657 58.2562L136.285 56.1074H146.049V58.495Z" fill="#003771"/>
<path d="M146.049 67.4866H138.867L138.786 65.0195H146.049V67.4866Z" fill="#003771"/>
<path d="M146.05 64.3841H138.706V62.0762H146.05V64.3841Z" fill="#003771"/>
<path d="M109.977 55.2305L112.398 51.3309C112.559 51.0921 112.801 50.7738 112.963 50.535C114.173 49.1821 116.029 48.3066 118.047 48.3066H126.843C129.183 48.3066 131.362 49.4209 132.492 51.3309L136.93 58.3343C137.414 59.1301 137.737 60.0056 137.818 60.9606L137.979 67.5661H137.414C136.688 67.5661 136.284 66.9294 136.204 66.2131C136.123 64.701 135.881 63.189 135.558 61.6769L135.477 61.1197C134.913 59.528 134.025 58.0955 132.895 56.7426C130.313 53.9571 126.52 52.3654 122.566 52.3654C118.531 52.3654 114.819 53.9571 112.236 56.7426C111.026 58.0159 110.138 59.528 109.573 61.1197H107.233C107.233 60.1647 107.556 59.1301 108.121 58.3343L109.977 55.2305Z" fill="#003771"/>
<path d="M54.2147 63.1895C55.8287 63.1895 57.2005 64.5423 57.2005 66.134C57.2005 67.7257 55.8287 69.0786 54.2147 69.0786C52.6008 69.0786 51.2289 67.7257 51.2289 66.134C51.2289 64.4628 52.5201 63.1895 54.2147 63.1895Z" fill="#003771"/>
<path d="M26.616 63.1895C28.2299 63.1895 29.6018 64.5423 29.6018 66.134C29.6018 67.7257 28.2299 69.0786 26.616 69.0786C25.002 69.0786 23.6301 67.7257 23.6301 66.134C23.6301 64.4628 24.9213 63.1895 26.616 63.1895Z" fill="#003771"/>
<path d="M14.9144 61.6777C14.3495 63.0306 14.1074 64.5427 14.1074 66.1344C14.1074 72.9787 19.6756 78.47 26.6157 78.47C33.5557 78.47 39.1239 72.9787 39.1239 66.1344C39.1239 64.5427 38.8011 63.0306 38.3169 61.6777C36.5416 57.0618 31.9418 53.7988 26.6157 53.7988C21.2896 53.7988 16.7705 57.0618 14.9144 61.6777ZM20.0791 66.1344C20.0791 64.3835 20.8054 62.7919 21.9352 61.6777C23.1456 60.4839 24.7596 59.6881 26.6157 59.6881C28.4717 59.6881 30.1664 60.4839 31.2962 61.6777C32.4259 62.8715 33.1522 64.3835 33.1522 66.1344C33.1522 69.7157 30.2471 72.5807 26.6157 72.5807C22.9842 72.5807 20.0791 69.6361 20.0791 66.1344Z" fill="#003771"/>
<path d="M42.5132 61.6777C41.9483 63.0306 41.7062 64.5427 41.7062 66.1344C41.7062 72.9787 47.2744 78.47 54.2144 78.47C61.1545 78.47 66.7227 72.9787 66.7227 66.1344C66.7227 64.5427 66.3999 63.0306 65.9157 61.6777C64.1403 57.0618 59.5405 53.7988 54.2144 53.7988C48.8883 53.7988 44.3692 57.0618 42.5132 61.6777ZM47.6778 66.1344C47.6778 64.3835 48.4041 62.7919 49.5339 61.6777C50.7444 60.4839 52.3584 59.6881 54.2144 59.6881C56.0705 59.6881 57.7651 60.4839 58.8949 61.6777C60.0247 62.8715 60.751 64.3835 60.751 66.1344C60.751 69.7157 57.8459 72.5807 54.2144 72.5807C50.583 72.5807 47.6778 69.6361 47.6778 66.1344Z" fill="#003771"/>
<path d="M17.1738 50.5352H61.7194C62.1229 50.5352 62.5263 50.5351 62.9298 50.6147C65.9964 51.0126 68.4173 52.8431 69.305 55.2307C69.5471 55.7877 69.6278 56.4243 69.6278 57.1406V61.279H66.9648C66.9648 61.1995 66.884 61.1198 66.884 61.0403C64.9473 56.0264 60.0247 52.5248 54.2144 52.5248C48.4041 52.5248 43.4815 56.106 41.5448 61.0403C41.5448 61.1198 41.464 61.1995 41.464 61.279H39.3659C39.3659 61.1995 39.2852 61.1198 39.2852 61.0403C37.3485 56.0264 32.4259 52.5248 26.6156 52.5248C20.886 52.5248 15.8827 56.106 13.9459 61.0403C13.9459 61.1198 13.8652 61.1995 13.8652 61.279H11.2021V55.5489C11.2021 52.7635 13.8652 50.5352 17.1738 50.5352Z" fill="#003771"/>
<path d="M111.59 49.4223H109.815C108.12 49.4223 106.668 48.0694 106.668 46.3185V34.6992H111.51V49.4223H111.59Z" fill="#003771"/>
<path d="M107.314 29.8445C107.314 27.4569 109.251 25.5469 111.672 25.5469V27.1386C110.139 27.1386 108.928 28.3323 108.928 29.8445C108.928 31.3566 110.139 32.5503 111.672 32.5503V34.142C109.251 34.0624 107.314 32.1524 107.314 29.8445Z" fill="#003771"/>
<path d="M110.058 29.8442C110.058 28.9687 110.785 28.332 111.592 28.332V31.3563C110.785 31.3563 110.058 30.64 110.058 29.8442Z" fill="#003771"/>
<path d="M96.3392 59.2905C96.9848 59.2905 97.5497 58.8129 97.7111 58.2559H104.006V61.5985C104.006 62.4739 103.279 63.1105 102.392 63.1105H90.4482C89.5605 63.1105 88.8342 62.3943 88.8342 61.5985V58.2559H95.048C95.1287 58.8925 95.6936 59.2905 96.3392 59.2905Z" fill="#003771"/>
<path d="M96.3398 56.5051C95.6942 56.5051 95.1293 56.9826 94.9679 57.5397H88.7542V55.5501V54.436C88.7542 53.5605 89.4804 52.9238 90.3681 52.9238H102.311C103.199 52.9238 103.925 53.6401 103.925 54.436V55.5501V57.5397H97.6309C97.5502 56.903 96.9854 56.5051 96.3398 56.5051Z" fill="#003771"/>
<path d="M65.3514 50.6152H111.995C111.753 50.854 111.592 51.0927 111.43 51.4111L109.09 55.3107H104.813V54.0374C104.813 53.0824 104.006 52.2865 103.038 52.2865H89.803C88.8347 52.2865 88.0277 53.0824 88.0277 54.0374V55.3107H86.2523C86.2523 53.719 84.9611 52.5253 83.4278 52.5253C81.8946 52.5253 80.6034 53.7986 80.6034 55.3107H79.6351C79.6351 53.719 78.3439 52.5253 76.8106 52.5253C75.2774 52.5253 73.9862 53.7986 73.9862 55.3107H70.274C69.1442 52.6844 68.0145 51.4907 65.3514 50.6152Z" fill="#003771"/>
<path d="M83.3466 52.9238C84.6378 52.9238 85.6869 53.9584 85.6869 55.2318C85.6869 56.5051 84.6378 57.5397 83.3466 57.5397C82.0554 57.5397 81.0063 56.5051 81.0063 55.2318C81.087 53.9584 82.0554 52.9238 83.3466 52.9238Z" fill="#003771"/>
<path d="M76.7291 57.5397C78.0216 57.5397 79.0694 56.5064 79.0694 55.2318C79.0694 53.9572 78.0216 52.9238 76.7291 52.9238C75.4367 52.9238 74.3889 53.9572 74.3889 55.2318C74.3889 56.5064 75.4367 57.5397 76.7291 57.5397Z" fill="#003771"/>
<path d="M93.9185 15.2012H79.5542V48.0696H93.9185V15.2012Z" fill="#003771"/>
</svg>
