<svg width="219" height="73" viewBox="0 0 219 73" fill="none" xmlns="http://www.w3.org/2000/svg">
<path d="M54.0413 5.32174L52.3367 11.1458L51.4913 10.6959C40.288 4.0612 42.2836 5.43466 37.5364 2.49414H55.8379L55.8208 2.55635C54.9742 3.28576 54.3561 4.24633 54.0413 5.32174Z" fill="#003B72"/>
<path d="M19.6299 5.88953V9.50769C19.6263 9.98898 19.4328 10.4491 19.0918 10.7869C18.7508 11.1248 18.2904 11.3125 17.8117 11.309H2.53254V3.67076C2.53256 3.35871 2.65586 3.05944 2.8753 2.83879C3.09475 2.61813 3.39236 2.49416 3.7027 2.49414H26.3997L23.7697 5.88953H19.6299ZM8.44302 4.07685C7.94507 3.60136 7.29916 3.31325 6.6144 3.26118C5.92964 3.20911 5.24798 3.39628 4.68458 3.79107C4.12117 4.18586 3.71053 4.76408 3.52202 5.42806C3.33352 6.09205 3.37869 6.8011 3.64993 7.43547C3.92116 8.06983 4.40184 8.59063 5.01074 8.9099C5.61965 9.22916 6.31946 9.32733 6.99202 9.18782C7.66457 9.04831 8.26865 8.67967 8.70219 8.14416C9.13573 7.60866 9.37217 6.93911 9.37158 6.2486C9.37184 5.84214 9.28961 5.43989 9.12995 5.06647C8.97029 4.69306 8.73656 4.35632 8.44302 4.07685Z" fill="#003B72"/>
<path d="M52.1472 15.2871L46.0556 11.9237C45.9491 11.8649 45.8293 11.835 45.708 11.837C45.5866 11.8389 45.4678 11.8727 45.3633 11.9348C45.2588 11.997 45.1722 12.0854 45.1121 12.1915C45.052 12.2975 45.0203 12.4175 45.0203 12.5396V15.362C45.0203 15.4869 45.0535 15.6096 45.1163 15.7174C45.1792 15.8252 45.2695 15.9141 45.3779 15.9752L51.8376 19.6106C51.9327 19.6631 52.0388 19.6922 52.1472 19.6955V30.3866H44.4187C43.5231 30.3866 42.6445 30.1412 41.8772 29.6769C41.1098 29.2126 40.4828 28.5469 40.0634 27.7512L31.3673 11.7029L28.6357 6.66185C28.5137 6.43798 28.3342 6.25113 28.1159 6.12077C27.8976 5.99041 27.6486 5.92131 27.3947 5.92069H24.3865L28.1853 1.15039H33.8349L52.1472 11.7647V15.2871ZM34.3357 4.32095C33.9569 4.32094 33.5865 4.4339 33.2715 4.64554C32.9564 4.85719 32.7109 5.15801 32.5659 5.50998C32.4209 5.86195 32.3829 6.24925 32.4568 6.6229C32.5307 6.99655 32.7132 7.33978 32.9811 7.60917C33.249 7.87856 33.5903 8.06203 33.9619 8.13635C34.3335 8.21068 34.7187 8.17254 35.0687 8.02676C35.4188 7.88097 35.718 7.63408 35.9285 7.31732C36.139 7.00055 36.2513 6.62813 36.2513 6.24716C36.2513 5.73631 36.0495 5.24639 35.6903 4.88516C35.331 4.52393 34.8438 4.32098 34.3357 4.32095Z" fill="#003B72"/>
<path d="M119.725 16.5368C119.618 16.0333 119.361 15.5746 118.988 15.2213C118.616 14.8681 118.145 14.6369 117.639 14.5585C117.133 14.4801 116.615 14.5581 116.154 14.7823C115.693 15.0064 115.311 15.3661 115.058 15.8136L109.042 16.4874L109.052 16.5772H108.836L108.813 16.3688C108.799 16.2452 108.762 16.1255 108.702 16.0165C108.642 15.9076 108.562 15.8116 108.465 15.7339C108.369 15.6563 108.258 15.5985 108.139 15.564C108.02 15.5295 107.896 15.5189 107.773 15.5328L98.4502 16.5772H91.1721V14.8675C91.1721 14.7134 91.1453 14.5605 91.0929 14.4156L87.6786 4.97552C87.3286 4.00756 86.7285 3.1508 85.9401 2.49333H123.938C123.222 3.17686 122.727 4.06034 122.516 5.02968C122.305 5.99902 122.388 7.00971 122.754 7.93123C123.12 8.85275 123.752 9.64279 124.569 10.1993C125.386 10.7559 126.351 11.0533 127.338 11.0533C128.324 11.0533 129.289 10.7559 130.106 10.1993C130.923 9.64279 131.555 8.85275 131.921 7.93123C132.287 7.00971 132.37 5.99902 132.159 5.02968C131.948 4.06034 131.453 3.17686 130.737 2.49333H201.641V1.9082H203.711V17.1195H201.641V16.5772H119.732C119.729 16.5638 119.728 16.55 119.725 16.5368ZM202.778 9.9267C202.868 9.92669 202.956 9.89988 203.03 9.84965C203.105 9.79942 203.163 9.72803 203.198 9.64451C203.232 9.56099 203.241 9.46909 203.224 9.38043C203.206 9.29177 203.163 9.21033 203.099 9.14641C203.036 9.0825 202.955 9.03897 202.866 9.02135C202.778 9.00372 202.687 9.01278 202.604 9.04738C202.521 9.08198 202.45 9.14057 202.4 9.21574C202.35 9.2909 202.323 9.37927 202.323 9.46967C202.323 9.5297 202.335 9.58913 202.358 9.64459C202.381 9.70004 202.414 9.75043 202.456 9.79287C202.499 9.83531 202.549 9.86897 202.604 9.89194C202.659 9.9149 202.718 9.92671 202.778 9.9267ZM132.1 9.70985H201.112V15.6022C201.112 15.6541 201.133 15.7039 201.169 15.7407C201.206 15.7774 201.255 15.798 201.307 15.798C201.359 15.798 201.408 15.7774 201.445 15.7407C201.481 15.7039 201.502 15.6541 201.502 15.6022V3.42571C201.502 3.37376 201.481 3.32394 201.445 3.2872C201.408 3.25047 201.359 3.22983 201.307 3.22983C201.255 3.22983 201.206 3.25047 201.169 3.2872C201.133 3.32394 201.112 3.37376 201.112 3.42571V9.31802H132.1C132.048 9.31802 131.999 9.33866 131.962 9.3754C131.926 9.41214 131.905 9.46197 131.905 9.51393C131.905 9.56589 131.926 9.61572 131.962 9.65246C131.999 9.6892 132.048 9.70985 132.1 9.70985ZM122.798 9.51393C122.798 9.4882 122.793 9.46272 122.783 9.43895C122.773 9.41517 122.759 9.39357 122.741 9.37538C122.723 9.35718 122.701 9.34275 122.677 9.33291C122.654 9.32307 122.628 9.31801 122.603 9.31802H90.5726C90.5209 9.31802 90.4713 9.33866 90.4348 9.3754C90.3983 9.41214 90.3777 9.46197 90.3777 9.51393C90.3777 9.56589 90.3983 9.61572 90.4348 9.65246C90.4713 9.6892 90.5209 9.70985 90.5726 9.70985H122.603C122.628 9.70986 122.654 9.7048 122.677 9.69496C122.701 9.68512 122.723 9.67069 122.741 9.65249C122.759 9.6343 122.773 9.6127 122.783 9.58892C122.793 9.56515 122.798 9.53966 122.798 9.51393Z" fill="#003B72"/>
<path d="M69.5724 44.1191L75.1611 53.6334V62.3493H73.5715C73.8983 60.5501 73.8279 58.7007 73.3652 56.9319C72.9025 55.1631 72.0588 53.5181 70.8939 52.1135C69.729 50.7088 68.2713 49.5788 66.624 48.8033C64.9767 48.0278 63.18 47.6258 61.3611 47.6258C59.5421 47.6258 57.7454 48.0278 56.0981 48.8033C54.4508 49.5788 52.9931 50.7088 51.8282 52.1135C50.6633 53.5181 49.8196 55.1631 49.357 56.9319C48.8943 58.7007 48.8238 60.5501 49.1507 62.3493H47.486C47.8129 60.5501 47.7425 58.7006 47.2799 56.9318C46.8172 55.163 45.9736 53.518 44.8087 52.1134C43.6438 50.7087 42.1861 49.5786 40.5388 48.8031C38.8915 48.0276 37.0948 47.6256 35.2758 47.6256C33.4569 47.6256 31.6602 48.0276 30.0129 48.8031C28.3655 49.5786 26.9078 50.7087 25.7429 52.1134C24.578 53.518 23.7344 55.163 23.2718 56.9318C22.8091 58.7006 22.7388 60.5501 23.0656 62.3493H21.2773V53.6334L26.8656 44.1191H69.5724Z" fill="#003B72"/>
<path d="M140.678 44.1191L146.266 53.6334V62.3493H144.483C144.81 60.5501 144.74 58.7006 144.277 56.9317C143.814 55.1629 142.971 53.5179 141.806 52.1132C140.641 50.7085 139.183 49.5784 137.536 48.8029C135.888 48.0274 134.092 47.6254 132.273 47.6254C130.454 47.6254 128.657 48.0274 127.01 48.8029C125.362 49.5784 123.905 50.7085 122.74 52.1132C121.575 53.5179 120.731 55.1629 120.269 56.9317C119.806 58.7006 119.736 60.5501 120.062 62.3493H118.398C118.725 60.5501 118.654 58.7006 118.192 56.9318C117.729 55.163 116.885 53.518 115.72 52.1134C114.555 50.7087 113.098 49.5786 111.45 48.8031C109.803 48.0276 108.006 47.6256 106.187 47.6256C104.369 47.6256 102.572 48.0276 100.924 48.8031C99.2772 49.5786 97.8195 50.7087 96.6546 52.1134C95.4897 53.518 94.6461 55.163 94.1834 56.9318C93.7208 58.7006 93.6504 60.5501 93.9773 62.3493H92.4758V53.6334L98.0645 44.1191H140.678Z" fill="#003B72"/>
<path d="M61.3612 57.2793C61.9176 57.2793 62.4615 57.4452 62.9241 57.756C63.3867 58.0669 63.7473 58.5087 63.9602 59.0255C64.1731 59.5424 64.2288 60.1112 64.1203 60.6599C64.0117 61.2086 63.7438 61.7126 63.3503 62.1082C62.9569 62.5038 62.4556 62.7732 61.9099 62.8824C61.3642 62.9915 60.7986 62.9355 60.2845 62.7214C59.7705 62.5073 59.3311 62.1447 59.022 61.6795C58.7129 61.2143 58.5479 60.6674 58.5479 60.108C58.5479 59.7365 58.6207 59.3687 58.7621 59.0255C58.9035 58.6823 59.1107 58.3704 59.3719 58.1078C59.6331 57.8451 59.9433 57.6367 60.2846 57.4946C60.6259 57.3524 60.9917 57.2793 61.3612 57.2793Z" fill="#003B72"/>
<path d="M35.2758 57.2793C35.8322 57.2793 36.3761 57.4452 36.8387 57.7561C37.3013 58.0669 37.6619 58.5087 37.8748 59.0256C38.0877 59.5425 38.1434 60.1112 38.0348 60.6599C37.9262 61.2087 37.6583 61.7127 37.2648 62.1083C36.8714 62.5039 36.3701 62.7733 35.8244 62.8824C35.2787 62.9915 34.7131 62.9355 34.1991 62.7214C33.685 62.5073 33.2457 62.1447 32.9366 61.6795C32.6275 61.2143 32.4625 60.6674 32.4625 60.108C32.4625 59.7365 32.5352 59.3687 32.6766 59.0255C32.818 58.6823 33.0252 58.3704 33.2865 58.1077C33.5477 57.8451 33.8579 57.6367 34.1992 57.4946C34.5405 57.3524 34.9064 57.2793 35.2758 57.2793Z" fill="#003B72"/>
<path d="M35.2759 48.2148C37.0685 48.2148 38.8377 48.6245 40.4497 49.413C42.0618 50.2014 43.4745 51.348 44.5811 52.7661C45.6877 54.1842 46.4593 55.8366 46.8375 57.5986C47.2157 59.3605 47.1907 61.1859 46.7643 62.9367C46.7162 63.1348 46.6615 63.3303 46.6037 63.5245C45.8733 65.9745 44.3767 68.1224 42.3361 69.6494C40.2954 71.1764 37.8195 72.0011 35.2759 72.0011C32.7322 72.0011 30.2563 71.1764 28.2156 69.6494C26.175 68.1224 24.6784 65.9745 23.948 63.5245C23.8902 63.3303 23.8355 63.1348 23.7874 62.9367C23.361 61.1859 23.3361 59.3606 23.7143 57.5986C24.0926 55.8367 24.8641 54.1843 25.9708 52.7662C27.0774 51.3482 28.4901 50.2016 30.1021 49.4131C31.7141 48.6246 33.4832 48.2149 35.2759 48.2148ZM29.7815 62.9367C30.4711 64.2843 31.6282 65.3309 33.0337 65.8783C34.4392 66.4256 35.9956 66.4358 37.408 65.9067C38.8204 65.3777 39.9909 64.3462 40.6978 63.0076C41.4046 61.6691 41.5988 60.1163 41.2435 58.6435C40.8882 57.1706 40.0081 55.8799 38.7699 55.0158C37.5316 54.1516 36.0213 53.774 34.5248 53.9545C33.0282 54.1349 31.6495 54.8609 30.6495 55.995C29.6496 57.129 29.098 58.5924 29.0991 60.1079C29.1003 61.0919 29.3342 62.0615 29.7815 62.9367H29.7815Z" fill="#003B72"/>
<path d="M61.3611 48.2148C63.1538 48.2149 64.9229 48.6246 66.5349 49.4131C68.147 50.2015 69.5596 51.3481 70.6663 52.7662C71.7729 54.1843 72.5444 55.8367 72.9227 57.5986C73.3009 59.3606 73.2759 61.1859 72.8496 62.9367C72.8014 63.1348 72.7469 63.3303 72.689 63.5245C71.9586 65.9745 70.462 68.1224 68.4214 69.6494C66.3807 71.1764 63.9048 72.0011 61.3611 72.0011C58.8175 72.0011 56.3416 71.1764 54.3009 69.6494C52.2603 68.1224 50.7637 65.9745 50.0333 63.5245C49.9755 63.3303 49.9208 63.1348 49.8726 62.9367C49.4464 61.1859 49.4214 59.3606 49.7997 57.5987C50.178 55.8368 50.9496 54.1844 52.0562 52.7663C53.1628 51.3483 54.5754 50.2017 56.1874 49.4132C57.7994 48.6247 59.5685 48.2149 61.3611 48.2148ZM55.8668 62.9367C56.5564 64.2843 57.7135 65.3309 59.119 65.8783C60.5245 66.4256 62.0809 66.4358 63.4933 65.9067C64.9057 65.3777 66.0762 64.3462 66.7831 63.0076C67.4899 61.6691 67.6841 60.1163 67.3288 58.6435C66.9735 57.1706 66.0934 55.8799 64.8552 55.0158C63.6169 54.1516 62.1066 53.774 60.61 53.9545C59.1135 54.1349 57.7347 54.8609 56.7348 55.995C55.7349 57.129 55.1833 58.5924 55.1844 60.1079C55.1856 61.0919 55.4195 62.0615 55.8668 62.9367Z" fill="#003B72"/>
<path d="M132.273 57.2793C132.829 57.2793 133.373 57.4452 133.836 57.7561C134.298 58.0669 134.659 58.5087 134.872 59.0256C135.085 59.5425 135.14 60.1112 135.032 60.6599C134.923 61.2087 134.655 61.7127 134.262 62.1083C133.868 62.5039 133.367 62.7733 132.822 62.8824C132.276 62.9915 131.71 62.9355 131.196 62.7214C130.682 62.5073 130.243 62.1447 129.934 61.6795C129.625 61.2143 129.46 60.6674 129.46 60.108C129.46 59.7365 129.532 59.3687 129.674 59.0255C129.815 58.6823 130.022 58.3704 130.284 58.1078C130.545 57.8451 130.855 57.6367 131.196 57.4946C131.538 57.3524 131.903 57.2793 132.273 57.2793Z" fill="#003B72"/>
<path d="M106.187 57.2793C106.744 57.2793 107.288 57.4452 107.75 57.756C108.213 58.0668 108.574 58.5086 108.787 59.0255C109 59.5424 109.055 60.1111 108.947 60.6599C108.838 61.2086 108.57 61.7126 108.177 62.1082C107.783 62.5038 107.282 62.7732 106.736 62.8824C106.191 62.9915 105.625 62.9355 105.111 62.7214C104.597 62.5073 104.158 62.1447 103.848 61.6795C103.539 61.2144 103.374 60.6674 103.374 60.108C103.374 59.3578 103.671 58.6383 104.198 58.1078C104.726 57.5773 105.441 57.2793 106.187 57.2793Z" fill="#003B72"/>
<path d="M106.187 48.2148C107.98 48.2148 109.749 48.6246 111.361 49.413C112.973 50.2015 114.386 51.3481 115.493 52.7662C116.599 54.1842 117.371 55.8367 117.749 57.5986C118.127 59.3605 118.102 61.1859 117.676 62.9367C117.628 63.1348 117.573 63.3303 117.515 63.5245C116.785 65.9745 115.288 68.1224 113.248 69.6494C111.207 71.1764 108.731 72.0011 106.187 72.0011C103.644 72.0011 101.168 71.1764 99.1273 69.6494C97.0866 68.1224 95.5901 65.9745 94.8596 63.5245C94.8018 63.3303 94.7471 63.1348 94.699 62.9367C94.2727 61.1859 94.2477 59.3606 94.626 57.5987C95.0043 55.8367 95.7758 54.1843 96.8824 52.7663C97.9891 51.3482 99.4017 50.2016 101.014 49.4131C102.626 48.6247 104.395 48.2149 106.187 48.2148ZM100.693 62.9367C101.383 64.2844 102.54 65.3311 103.945 65.8786C105.351 66.426 106.907 66.4362 108.32 65.9072C109.733 65.3782 110.903 64.3467 111.61 63.008C112.317 61.6694 112.511 60.1166 112.156 58.6436C111.801 57.1707 110.921 55.8799 109.682 55.0156C108.444 54.1514 106.933 53.7737 105.437 53.9542C103.94 54.1346 102.561 54.8606 101.561 55.9947C100.561 57.1288 100.01 58.5923 100.011 60.1079C100.012 61.0919 100.246 62.0615 100.693 62.9367Z" fill="#003B72"/>
<path d="M132.273 48.2148C134.065 48.2149 135.835 48.6246 137.447 49.4131C139.059 50.2016 140.471 51.3482 141.578 52.7662C142.685 54.1843 143.456 55.8367 143.834 57.5986C144.213 59.3606 144.188 61.1859 143.761 62.9367C143.713 63.1348 143.659 63.3303 143.601 63.5245C142.87 65.9745 141.374 68.1224 139.333 69.6494C137.292 71.1764 134.816 72.0011 132.273 72.0011C129.729 72.0011 127.253 71.1764 125.213 69.6494C123.172 68.1224 121.675 65.9745 120.945 63.5245C120.887 63.3303 120.832 63.1348 120.784 62.9367C120.358 61.1859 120.333 59.3606 120.711 57.5987C121.09 55.8368 121.861 54.1843 122.968 52.7663C124.074 51.3483 125.487 50.2017 127.099 49.4132C128.711 48.6247 130.48 48.2149 132.273 48.2148ZM126.779 62.9367C127.468 64.2844 128.625 65.331 130.031 65.8784C131.436 66.4257 132.993 66.4359 134.405 65.9068C135.818 65.3778 136.988 64.3463 137.695 63.0077C138.402 61.6691 138.596 60.1163 138.241 58.6434C137.885 57.1705 137.005 55.8798 135.767 55.0156C134.529 54.1515 133.018 53.7738 131.522 53.9543C130.025 54.1348 128.646 54.8608 127.647 55.9949C126.647 57.1289 126.095 58.5923 126.096 60.1079C126.097 61.0919 126.331 62.0615 126.779 62.9367Z" fill="#003B72"/>
<path d="M80.1536 49.8887H87.3901V53.017H80.1536V49.8887Z" fill="#003B72"/>
<path d="M80.1536 45.8516H87.3901V48.7108H80.1536V45.8516Z" fill="#003B72"/>
<path d="M15.4952 43.5306V38.4375H152.048V62.9357H146.851V53.4718L141.012 43.5306H97.7308L91.8916 53.4718V62.9357H75.7456V53.4718L69.9064 43.5306H26.5319L20.6927 53.4718V62.9357H15.4952V43.5306ZM79.007 61.456H80.1535V58.2297H87.39V61.456H88.5366V41.4948H87.39V44.6735H80.1535V41.4948H79.007V61.456Z" fill="#003B72"/>
<path d="M80.1536 54.1934H87.3901V57.0526H80.1536V54.1934Z" fill="#003B72"/>
<path d="M6.62329 38.4375V62.9357H5.76973e-05V45.4701L6.62329 38.4375Z" fill="#003B72"/>
<path d="M161.045 38.4375L167.669 45.4701V62.9357H161.045V38.4375Z" fill="#003B72"/>
<path d="M101.627 36.7037V32.5901L105.719 26.1119L123.802 26.1257L127.082 19.1719H161.045V36.7037H101.627ZM149.243 33.9939C149.244 34.3574 149.388 34.7059 149.643 34.963C149.899 35.22 150.246 35.3646 150.607 35.365H158.205C158.566 35.3646 158.913 35.22 159.169 34.963C159.424 34.7059 159.568 34.3574 159.569 33.9939V30.699C159.568 30.3354 159.424 29.9869 159.169 29.7299C158.913 29.4728 158.566 29.3282 158.205 29.3278H150.607C150.246 29.3282 149.899 29.4728 149.643 29.7299C149.388 29.9869 149.244 30.3355 149.243 30.699L149.243 33.9939Z" fill="#003B72"/>
<path d="M158.205 29.7207H150.607C150.349 29.7207 150.101 29.8239 149.918 30.0076C149.736 30.1913 149.633 30.4404 149.633 30.7002V33.9951C149.633 34.2548 149.736 34.504 149.918 34.6876C150.101 34.8713 150.349 34.9745 150.607 34.9745H158.205C158.463 34.9745 158.711 34.8713 158.894 34.6876C159.076 34.504 159.179 34.2548 159.179 33.9951V30.7001C159.179 30.5715 159.154 30.4441 159.105 30.3253C159.056 30.2065 158.984 30.0985 158.894 30.0076C158.803 29.9166 158.696 29.8445 158.578 29.7953C158.459 29.746 158.333 29.7207 158.205 29.7207Z" fill="#003B72"/>
<path d="M163.064 36.7051H166.374L177.077 49.8295H192.063L190.66 52.3434H190.67L187.196 58.5465H185.575V60.9792C185.575 61.2042 185.486 61.42 185.328 61.5791C185.17 61.7382 184.955 61.8276 184.731 61.8276H176.435C176.211 61.8276 175.996 61.7382 175.838 61.5791C175.68 61.42 175.591 61.2042 175.591 60.9792V58.5465H169.077V45.0613L162.262 36.7051H163.064ZM176.808 60.1221C176.808 60.3471 176.897 60.563 177.055 60.7221C177.214 60.8812 177.428 60.9706 177.652 60.9706H183.514C183.624 60.9706 183.734 60.9486 183.836 60.906C183.939 60.8634 184.032 60.8009 184.11 60.7221C184.189 60.6433 184.251 60.5498 184.293 60.4468C184.336 60.3439 184.357 60.2335 184.357 60.1221V58.5465H176.808V60.1221ZM175.601 56.9305H186.316L188.482 53.0616H175.601V56.9305Z" fill="#003B72"/>
<path d="M167.076 35.659H162.262V19.1719H184.477C185.231 19.1719 185.969 19.3851 186.609 19.7873C187.248 20.1894 187.762 20.7642 188.092 21.446L195.921 37.6342L195.87 37.6229L195.87 37.6231L195.921 37.6342L195.916 37.7413C195.918 37.7633 195.917 37.7854 195.913 37.807L195.637 43.4224L192.964 48.2134H177.15L167.076 35.659ZM172.733 39.2764C172.733 39.3844 172.755 39.4914 172.796 39.5912C172.837 39.6911 172.897 39.7818 172.973 39.8582C173.049 39.9346 173.139 39.9952 173.239 40.0365C173.338 40.0779 173.444 40.0991 173.552 40.0991H175.389C175.497 40.0991 175.603 40.0779 175.703 40.0365C175.802 39.9952 175.892 39.9346 175.968 39.8582C176.044 39.7818 176.104 39.6911 176.145 39.5912C176.187 39.4914 176.208 39.3844 176.208 39.2764V39.2598C176.208 39.1518 176.187 39.0448 176.145 38.945C176.104 38.8451 176.044 38.7544 175.968 38.678C175.892 38.6016 175.802 38.541 175.703 38.4997C175.603 38.4583 175.497 38.437 175.389 38.437H173.552C173.444 38.437 173.338 38.4583 173.239 38.4997C173.139 38.541 173.049 38.6016 172.973 38.678C172.897 38.7544 172.837 38.8451 172.796 38.9449C172.755 39.0448 172.733 39.1518 172.733 39.2598V39.2764ZM191.402 35.6137L191.418 33.1851C191.419 33.0144 191.38 32.8459 191.305 32.6928L186.021 21.9143C185.931 21.7305 185.792 21.5758 185.619 21.4676C185.446 21.3595 185.246 21.3021 185.042 21.3021H168.76C168.616 21.3021 168.474 21.3305 168.342 21.3856C168.21 21.4408 168.089 21.5216 167.988 21.6235C167.887 21.7254 167.806 21.8463 167.751 21.9795C167.697 22.1126 167.668 22.2553 167.668 22.3994V31.3248C167.668 31.5669 167.748 31.8023 167.895 31.9941L171.172 36.2757C171.274 36.4089 171.405 36.5167 171.555 36.5909C171.705 36.6651 171.87 36.7037 172.037 36.7037H190.311C190.599 36.7037 190.875 36.5891 191.08 36.3849C191.284 36.1806 191.4 35.9034 191.402 35.6137Z" fill="#003B72"/>
<path d="M153.09 53.8965H160.103V62.936H153.09V53.8965Z" fill="#003B72"/>
<path d="M152.647 66.3178H154.697V63.5898H158.522V66.3178H160.546C160.795 66.3178 161.042 66.3671 161.271 66.4628C161.501 66.5586 161.71 66.6989 161.886 66.8758C162.062 67.0527 162.201 67.2627 162.297 67.4938C162.392 67.7249 162.441 67.9727 162.441 68.2228V68.2422H150.752V68.2228C150.752 67.7176 150.952 67.2331 151.307 66.8758C151.662 66.5186 152.144 66.3178 152.647 66.3178Z" fill="#003B72"/>
<path d="M156.574 38.4375H156.619C156.907 38.4375 157.192 38.4946 157.459 38.6055C157.725 38.7165 157.967 38.879 158.171 39.084C158.375 39.289 158.537 39.5324 158.647 39.8002C158.757 40.068 158.814 40.355 158.814 40.6449V53.2331H154.379V40.6449C154.379 40.0595 154.61 39.498 155.022 39.0841C155.434 38.6701 155.992 38.4375 156.574 38.4375ZM156.597 41.7484C156.828 41.7484 157.054 41.6794 157.246 41.5503C157.438 41.4212 157.588 41.2376 157.676 41.0228C157.765 40.8081 157.788 40.5717 157.743 40.3437C157.698 40.1157 157.587 39.9063 157.423 39.7419C157.26 39.5776 157.051 39.4656 156.825 39.4202C156.598 39.3749 156.363 39.3982 156.149 39.4871C155.936 39.5761 155.753 39.7267 155.625 39.92C155.496 40.1133 155.428 40.3405 155.428 40.573C155.428 40.7273 155.458 40.8802 155.517 41.0228C155.575 41.1654 155.661 41.2949 155.77 41.4041C155.879 41.5132 156.007 41.5998 156.149 41.6589C156.291 41.718 156.443 41.7484 156.597 41.7484Z" fill="#003B72"/>
<path d="M7.55581 53.791H14.5691V62.8304H7.55581V53.791Z" fill="#003B72"/>
<path d="M7.11257 66.2123H9.16295V63.4844H12.9876V66.2123H15.0122C15.5146 66.2123 15.9965 66.413 16.3518 66.7703C16.7071 67.1276 16.9067 67.6121 16.9067 68.1174V68.1366H5.218V68.1174C5.218 67.6121 5.41762 67.1276 5.77292 66.7703C6.12822 66.413 6.6101 66.2123 7.11257 66.2123Z" fill="#003B72"/>
<path d="M11.0402 38.332H11.0845C11.3728 38.332 11.6583 38.3891 11.9246 38.5C12.191 38.611 12.433 38.7736 12.6368 38.9785C12.8407 39.1835 13.0024 39.4268 13.1127 39.6947C13.223 39.9625 13.2798 40.2495 13.2798 40.5394V53.1277H8.84498V40.5394C8.84497 40.2495 8.90177 39.9625 9.01209 39.6947C9.12241 39.4268 9.28411 39.1835 9.48795 38.9785C9.6918 38.7736 9.9338 38.611 10.2001 38.5C10.4665 38.3891 10.7519 38.332 11.0402 38.332ZM11.0623 41.6428C11.2935 41.6428 11.5195 41.5739 11.7117 41.4447C11.904 41.3156 12.0538 41.132 12.1422 40.9173C12.2307 40.7025 12.2538 40.4662 12.2087 40.2382C12.1636 40.0102 12.0523 39.8008 11.8889 39.6364C11.7254 39.4721 11.5171 39.3601 11.2904 39.3148C11.0636 39.2694 10.8286 39.2927 10.615 39.3816C10.4014 39.4706 10.2189 39.6212 10.0905 39.8145C9.96203 40.0078 9.89348 40.235 9.89348 40.4675C9.89348 40.6218 9.9237 40.7747 9.98244 40.9173C10.0412 41.0599 10.1273 41.1894 10.2358 41.2986C10.3444 41.4077 10.4732 41.4943 10.615 41.5534C10.7568 41.6124 10.9088 41.6428 11.0623 41.6428Z" fill="#003B72"/>
<path d="M57.2097 33.6348H82.2107V36.7037H57.2097V33.6348Z" fill="#003B72"/>
<path d="M65.3026 25.0488H56.2438C55.979 25.0488 55.7251 25.1546 55.5379 25.3429C55.3506 25.5311 55.2455 25.7865 55.2455 26.0527V29.3829C55.2455 29.6491 55.3506 29.9045 55.5379 30.0927C55.7251 30.281 55.979 30.3868 56.2438 30.3868H65.3026C65.5674 30.3868 65.8213 30.281 66.0086 30.0927C66.1958 29.9044 66.301 29.6491 66.301 29.3828V26.0528C66.301 25.7865 66.1958 25.5312 66.0086 25.3429C65.8213 25.1546 65.5674 25.0488 65.3026 25.0488Z" fill="#003B72"/>
<path d="M127.338 10.2615C126.517 10.2608 125.715 10.0156 125.033 9.55681C124.351 9.09803 123.82 8.4463 123.506 7.68397C123.193 6.92165 123.111 6.08294 123.271 5.27384C123.431 4.46473 123.827 3.72155 124.407 3.13819C124.987 2.55484 125.726 2.15749 126.531 1.99637C127.335 1.83525 128.169 1.91758 128.928 2.23296C129.686 2.54835 130.334 3.08262 130.79 3.76828C131.246 4.45394 131.49 5.2602 131.491 6.08519C131.491 7.19283 131.053 8.2551 130.274 9.03832C129.496 9.82153 128.439 10.2615 127.338 10.2615ZM127.338 4.68136C127.061 4.68135 126.791 4.76368 126.562 4.91794C126.332 5.0722 126.153 5.29145 126.048 5.54798C125.942 5.8045 125.914 6.08677 125.968 6.3591C126.022 6.63143 126.155 6.88158 126.35 7.07791C126.546 7.27425 126.794 7.40796 127.065 7.46212C127.336 7.51629 127.617 7.48849 127.872 7.38223C128.127 7.27597 128.345 7.09602 128.498 6.86515C128.652 6.63428 128.734 6.36285 128.734 6.08519C128.734 5.90084 128.698 5.71828 128.627 5.54796C128.557 5.37763 128.454 5.22287 128.325 5.09251C128.195 4.96215 128.041 4.85875 127.872 4.7882C127.702 4.71766 127.521 4.68135 127.338 4.68136Z" fill="#003B72"/>
<path d="M6.38699 8.66051C5.91287 8.6601 5.4495 8.51838 5.05546 8.25327C4.66141 7.98815 4.35436 7.61154 4.17311 7.17101C3.99186 6.73049 3.94456 6.24583 4.03715 5.77827C4.12975 5.31071 4.35809 4.88125 4.69335 4.54415C5.0286 4.20705 5.4557 3.97743 5.92069 3.88433C6.38568 3.79122 6.86768 3.8388 7.30579 4.02105C7.7439 4.20329 8.11845 4.51204 8.38211 4.90826C8.64578 5.30448 8.7867 5.77039 8.78711 6.24713C8.78711 6.56406 8.72504 6.87789 8.60442 7.17069C8.48381 7.4635 8.30702 7.72954 8.08414 7.95365C7.63403 8.40624 7.02354 8.66051 6.38699 8.66051ZM6.38699 5.43594C6.22742 5.43595 6.07143 5.48354 5.93876 5.57268C5.80609 5.66183 5.7027 5.78853 5.64165 5.93676C5.58059 6.085 5.56463 6.24811 5.59576 6.40547C5.6269 6.56283 5.70375 6.70737 5.81658 6.82082C5.92942 6.93426 6.07315 7.01152 6.22965 7.04281C6.38615 7.0741 6.54837 7.05803 6.69579 6.99663C6.8432 6.93522 6.96921 6.83124 7.05785 6.69783C7.14649 6.56442 7.19379 6.40757 7.19379 6.24713C7.19377 6.03198 7.10877 5.82565 6.95746 5.67352C6.80616 5.5214 6.60096 5.43594 6.38699 5.43594Z" fill="#003B72"/>
<path d="M89.924 14.415C89.9764 14.5598 90.0032 14.7128 90.0032 14.8669V15.813H89.9988V16.8904H90.0032V23.6648H89.9988V24.0981C89.9892 24.332 89.9178 24.5592 89.792 24.7562L85.5152 31.399C85.3959 31.5842 85.2324 31.7365 85.0396 31.842C84.8468 31.9474 84.6308 32.0027 84.4113 32.0026H54.3687C54.02 32.0026 53.6855 31.8633 53.4389 31.6154C53.1923 31.3674 53.0538 31.0311 53.0538 30.6804V12.2128C53.0538 12.0864 53.0718 11.9607 53.1073 11.8395L53.3108 11.1443L55.0153 5.3203C55.3689 4.11736 56.0996 3.0615 57.0985 2.31008C58.0974 1.55865 59.3111 1.15188 60.5586 1.15039H81.0793C82.2652 1.15129 83.4221 1.51866 84.3935 2.20274C85.3648 2.88682 86.1036 3.85456 86.5098 4.97489L89.924 14.415ZM68.7361 20.4215C68.7362 20.6529 68.8276 20.8749 68.9904 21.0385C69.1531 21.2022 69.3739 21.2941 69.6041 21.2941H72.0081C72.2382 21.2941 72.459 21.2021 72.6217 21.0385C72.7845 20.8748 72.8759 20.6529 72.8759 20.4215V20.4038C72.8759 20.1724 72.7845 19.9504 72.6217 19.7868C72.459 19.6231 72.2383 19.5311 72.0081 19.5311H69.6041C69.3739 19.5311 69.1531 19.6231 68.9904 19.7867C68.8276 19.9504 68.7361 20.1724 68.7361 20.4038V20.4215ZM56.2438 24.6569C55.8758 24.6572 55.5229 24.8044 55.2627 25.0661C55.0025 25.3277 54.8561 25.6825 54.8557 26.0526V29.3827C54.8561 29.7527 55.0025 30.1075 55.2627 30.3692C55.5229 30.6308 55.8758 30.778 56.2438 30.7783H65.3025C65.6706 30.778 66.0234 30.6308 66.2836 30.3692C66.5438 30.1075 66.6902 29.7527 66.6906 29.3827V26.0526C66.6902 25.6825 66.5439 25.3277 66.2836 25.0661C66.0234 24.8044 65.6706 24.6572 65.3025 24.6569H56.2438ZM66.8854 5.21506C66.8854 5.04142 66.8514 4.86949 66.7853 4.70907C66.7192 4.54865 66.6224 4.40289 66.5003 4.28011C66.3782 4.15733 66.2332 4.05994 66.0737 3.99349C65.9141 3.92704 65.7431 3.89284 65.5705 3.89285H61.7394C61.4198 3.89563 61.1094 4.00111 60.8536 4.19387C60.5978 4.38664 60.4101 4.65659 60.3177 4.9643L58.6803 10.2209C58.5925 10.5025 58.5478 10.7958 58.5479 11.0909V13.2931C58.5472 13.5196 58.5954 13.7436 58.6893 13.9496C58.7832 14.1555 58.9204 14.3385 59.0916 14.4859L62.5266 17.4153C62.7917 17.6425 63.1285 17.7676 63.4768 17.7681H65.5705C65.7431 17.7681 65.9141 17.7339 66.0737 17.6675C66.2332 17.601 66.3782 17.5037 66.5003 17.3809C66.6224 17.2581 66.7192 17.1123 66.7853 16.9519C66.8514 16.7915 66.8854 16.6196 66.8854 16.4459V5.21506ZM84.7879 4.88084C84.6834 4.59307 84.494 4.34425 84.245 4.16768C83.9961 3.99111 83.6994 3.89522 83.3947 3.89285H70.0511C69.7023 3.89285 69.3679 4.03216 69.1213 4.28012C68.8747 4.52808 68.7361 4.86439 68.7361 5.21506V16.4459C68.7361 16.7966 68.8747 17.1329 69.1213 17.3809C69.3679 17.6288 69.7023 17.7681 70.0511 17.7681H86.9184C87.2587 17.7642 87.5877 17.6442 87.8512 17.4277C88.1148 17.2112 88.2974 16.9111 88.3691 16.5766C88.3967 16.4606 88.4112 16.3418 88.4122 16.2226V15.1053C88.4122 14.7556 88.3495 14.4088 88.2271 14.0816L84.7879 4.88084Z" fill="#003B72"/>
<path d="M91.1721 17.7877L107.816 15.9234C107.837 15.9211 107.857 15.9199 107.878 15.9199C108.014 15.9199 108.145 15.9703 108.246 16.0614C108.347 16.1524 108.411 16.2778 108.426 16.4135L108.803 19.8166C108.819 19.9628 108.776 20.1095 108.685 20.2245C108.594 20.3394 108.461 20.4131 108.315 20.4295L91.1721 22.35V17.7877Z" fill="#003B72"/>
<path d="M117.49 19.2076C117.14 19.2475 116.785 19.1993 116.458 19.0673C116.131 18.9352 115.841 18.7235 115.615 18.4512L115.548 18.3709L109.715 19.024L109.473 16.834L115.306 16.1805L115.354 16.0875C115.523 15.7571 115.774 15.4765 116.083 15.2729C116.393 15.0694 116.749 14.95 117.118 14.9263C117.487 14.9025 117.855 14.9754 118.188 15.1377C118.52 15.3 118.805 15.5462 119.015 15.8522C119.224 16.1583 119.351 16.5138 119.384 16.884C119.416 17.2542 119.352 17.6265 119.199 17.9645C119.045 18.3025 118.807 18.5947 118.508 18.8126C118.208 19.0304 117.858 19.1666 117.49 19.2076ZM118.923 16.8841C118.888 16.5665 118.762 16.266 118.561 16.0187C118.359 15.7714 118.091 15.588 117.789 15.4906C117.486 15.3932 117.162 15.3859 116.855 15.4696C116.548 15.5534 116.272 15.7246 116.06 15.9626C115.848 16.2006 115.709 16.4952 115.66 16.8109C115.61 17.1266 115.653 17.4499 115.783 17.7417C115.912 18.0336 116.123 18.2815 116.389 18.4557C116.655 18.6299 116.966 18.7228 117.284 18.7232C117.346 18.7232 117.407 18.7197 117.469 18.7129C117.903 18.6642 118.3 18.4442 118.572 18.1012C118.845 17.7583 118.971 17.3205 118.923 16.8841Z" fill="#003B72"/>
<path d="M5.09881 16.3328C4.76179 16.3328 4.42807 16.2661 4.1167 16.1364C3.80534 16.0067 3.52242 15.8166 3.28411 15.577C3.0458 15.3374 2.85676 15.0529 2.72779 14.7398C2.59882 14.4267 2.53244 14.0912 2.53244 13.7523V11.962H18.5097C18.7484 11.962 18.9849 11.9147 19.2055 11.8228C19.4261 11.731 19.6265 11.5963 19.7954 11.4265C19.9642 11.2567 20.0981 11.0552 20.1895 10.8333C20.2809 10.6115 20.3279 10.3738 20.3279 10.1337V6.73828H27.6218C27.7143 6.83238 27.7933 6.93901 27.8564 7.05508L30.588 12.0962V12.1173L32.8035 16.2058V16.3328H5.09881Z" fill="#003B72"/>
<path d="M205.603 16.5489H204.044V2.54297H205.603V16.5489ZM204.823 9.01327C204.733 9.01326 204.645 9.04006 204.571 9.09028C204.496 9.14049 204.438 9.21187 204.403 9.29539C204.369 9.3789 204.36 9.4708 204.377 9.55946C204.395 9.64813 204.438 9.72957 204.502 9.7935C204.565 9.85743 204.646 9.90096 204.735 9.91861C204.823 9.93625 204.914 9.92721 204.997 9.89262C205.08 9.85803 205.151 9.79946 205.201 9.7243C205.251 9.64914 205.278 9.56077 205.278 9.47037C205.278 9.41035 205.266 9.35091 205.243 9.29546C205.22 9.24 205.187 9.18961 205.145 9.14716C205.102 9.10471 205.052 9.07104 204.997 9.04807C204.942 9.0251 204.883 9.01327 204.823 9.01327Z" fill="#003B72"/>
<path d="M207.615 16.1559H206.057V2.93359H207.615V16.1559ZM206.836 9.01207C206.746 9.01209 206.658 9.03892 206.584 9.08915C206.509 9.13939 206.451 9.21078 206.416 9.2943C206.382 9.37781 206.373 9.46971 206.391 9.55836C206.408 9.64701 206.451 9.72844 206.515 9.79236C206.579 9.85627 206.659 9.89979 206.748 9.91742C206.836 9.93505 206.927 9.926 207.01 9.89141C207.093 9.85682 207.164 9.79824 207.214 9.72308C207.264 9.64793 207.291 9.55957 207.291 9.46917C207.291 9.40914 207.279 9.34968 207.256 9.29421C207.233 9.23874 207.2 9.18834 207.158 9.14589C207.116 9.10344 207.065 9.06977 207.01 9.04681C206.955 9.02385 206.896 9.01205 206.836 9.01207Z" fill="#003B72"/>
<path d="M209.596 15.748H208.038V3.3418H209.596V15.748ZM208.817 9.01219C208.727 9.01217 208.639 9.03895 208.564 9.08916C208.49 9.13937 208.431 9.21074 208.397 9.29425C208.363 9.37777 208.354 9.46967 208.371 9.55834C208.389 9.64701 208.432 9.72846 208.495 9.79239C208.559 9.85633 208.64 9.89987 208.728 9.91752C208.816 9.93517 208.908 9.92613 208.991 9.89155C209.074 9.85696 209.145 9.79838 209.195 9.72322C209.245 9.64806 209.271 9.55969 209.271 9.46929C209.271 9.34809 209.224 9.23185 209.138 9.14613C209.053 9.06041 208.938 9.01223 208.817 9.01219Z" fill="#003B72"/>
<path d="M211.569 15.3079H210.01V3.7832H211.569V15.3079ZM210.789 9.01283C210.7 9.01281 210.612 9.0396 210.537 9.0898C210.462 9.14001 210.404 9.21138 210.369 9.2949C210.335 9.37841 210.326 9.47031 210.343 9.55898C210.361 9.64765 210.404 9.7291 210.468 9.79303C210.531 9.85697 210.612 9.90051 210.701 9.91816C210.789 9.93581 210.88 9.92677 210.963 9.89219C211.046 9.8576 211.117 9.79903 211.167 9.72387C211.217 9.64871 211.244 9.56034 211.244 9.46993C211.244 9.34873 211.196 9.23249 211.111 9.14677C211.026 9.06105 210.91 9.01288 210.789 9.01283Z" fill="#003B72"/>
<path d="M212.468 2.93379C212.471 3.11125 212.489 3.28815 212.521 3.46269C212.605 3.98515 212.814 4.47899 213.132 4.90095C213.45 5.32291 213.865 5.66011 214.343 5.88299C214.82 6.10587 215.344 6.20763 215.87 6.17936C216.395 6.15108 216.906 5.99364 217.357 5.72082V14.3409C217.25 14.2746 217.14 14.2146 217.026 14.1612C216.544 13.9402 216.016 13.842 215.488 13.8754C214.96 13.9088 214.448 14.0727 213.997 14.3526C213.547 14.6325 213.173 15.0198 212.907 15.4801C212.641 15.9404 212.493 16.4595 212.474 16.9913L212.054 16.849V2.9308L212.477 2.75C212.474 2.81121 212.468 2.87174 212.468 2.93379Z" fill="#003B72"/>
<path d="M212.809 17.1204C212.809 17.0817 212.813 17.0442 212.815 17.0059C212.831 16.5301 212.964 16.0658 213.202 15.6541C213.439 15.2423 213.774 14.8959 214.177 14.6455C214.58 14.3951 215.038 14.2485 215.51 14.2186C215.983 14.1887 216.455 14.2765 216.886 14.4743C216.988 14.522 217.087 14.5757 217.182 14.635C217.602 14.8992 217.946 15.2686 218.181 15.7068C218.416 16.145 218.534 16.6371 218.522 17.1348C218.511 17.6325 218.372 18.1188 218.117 18.5459C217.863 18.9731 217.503 19.3264 217.072 19.5714C216.641 19.8163 216.154 19.9445 215.659 19.9432C215.164 19.942 214.677 19.8114 214.247 19.5642C213.818 19.3171 213.459 18.9619 213.207 18.5335C212.955 18.1051 212.818 17.6181 212.809 17.1204ZM215.7 18.0052C215.874 18.0052 216.044 17.9533 216.189 17.8561C216.334 17.7588 216.447 17.6206 216.513 17.459C216.58 17.2973 216.597 17.1193 216.563 16.9477C216.529 16.776 216.446 16.6184 216.323 16.4946C216.2 16.3709 216.043 16.2866 215.872 16.2525C215.701 16.2183 215.524 16.2358 215.364 16.3028C215.203 16.3698 215.065 16.4832 214.969 16.6287C214.872 16.7743 214.82 16.9454 214.82 17.1204C214.82 17.355 214.913 17.5801 215.078 17.746C215.243 17.912 215.467 18.0052 215.7 18.0052Z" fill="#003B72"/>
<path d="M217.196 5.4496C216.789 5.69582 216.328 5.83791 215.853 5.86341C215.379 5.88892 214.906 5.79706 214.475 5.59588C214.044 5.39471 213.669 5.09037 213.382 4.70952C213.096 4.32867 212.906 3.88294 212.831 3.4114C212.802 3.25387 212.786 3.09421 212.783 2.93404C212.783 2.87805 212.788 2.82335 212.791 2.76812C212.819 2.26299 212.977 1.77375 213.249 1.34799C213.52 0.922239 213.897 0.574456 214.342 0.338468C214.787 0.10248 215.286 -0.0136808 215.788 0.00128283C216.291 0.0162465 216.782 0.161825 217.212 0.423861C217.643 0.685897 217.998 1.05547 218.245 1.49664C218.491 1.93781 218.619 2.43556 218.618 2.94148C218.616 3.44741 218.484 3.94428 218.235 4.38378C217.986 4.82329 217.628 5.19046 217.196 5.4496ZM215.7 2.04116C215.525 2.04116 215.353 2.09353 215.207 2.19164C215.061 2.28975 214.947 2.4292 214.88 2.59235C214.813 2.7555 214.795 2.93503 214.829 3.10823C214.864 3.28144 214.948 3.44053 215.072 3.5654C215.197 3.69027 215.355 3.77531 215.527 3.80976C215.699 3.84422 215.878 3.82653 216.04 3.75896C216.202 3.69138 216.341 3.57693 216.439 3.4301C216.536 3.28327 216.588 3.11064 216.588 2.93404C216.588 2.81679 216.565 2.70068 216.521 2.59234C216.476 2.48401 216.411 2.38558 216.328 2.30267C216.246 2.21975 216.148 2.15398 216.04 2.10912C215.932 2.06425 215.817 2.04116 215.7 2.04116Z" fill="#003B72"/>
<path d="M213.433 27.7812H217.967C218.103 27.7813 218.237 27.8081 218.362 27.8603C218.488 27.9125 218.602 27.989 218.697 28.0854C218.793 28.1819 218.869 28.2963 218.921 28.4223C218.973 28.5483 219 28.6834 219 28.8197V35.062C219 35.1698 218.983 35.2771 218.95 35.3798L217.911 38.6302C217.844 38.8395 217.713 39.022 217.536 39.1516C217.36 39.2811 217.147 39.3508 216.928 39.3509H214.472C214.254 39.3508 214.041 39.2811 213.864 39.1516C213.687 39.022 213.556 38.8395 213.489 38.6302L212.45 35.3798C212.417 35.2771 212.401 35.1698 212.401 35.062V28.8197C212.401 28.5443 212.509 28.2802 212.703 28.0854C212.897 27.8907 213.159 27.7813 213.433 27.7812ZM217.941 29.3072C218.022 29.3072 218.102 29.2828 218.171 29.2371C218.239 29.1913 218.292 29.1263 218.323 29.0503C218.354 28.9742 218.363 28.8905 218.347 28.8098C218.331 28.729 218.291 28.6549 218.233 28.5966C218.175 28.5384 218.102 28.4988 218.021 28.4827C217.941 28.4666 217.858 28.4749 217.782 28.5064C217.707 28.5379 217.642 28.5912 217.596 28.6597C217.551 28.7281 217.527 28.8086 217.527 28.8909C217.527 29.0013 217.57 29.1072 217.648 29.1852C217.725 29.2633 217.831 29.3072 217.941 29.3072ZM215.7 38.8567C215.801 38.8567 215.9 38.8265 215.984 38.77C216.068 38.7135 216.134 38.6332 216.173 38.5393C216.211 38.4453 216.221 38.3419 216.202 38.2422C216.182 38.1424 216.133 38.0508 216.062 37.9789C215.99 37.907 215.899 37.858 215.8 37.8382C215.701 37.8183 215.598 37.8285 215.505 37.8674C215.411 37.9063 215.331 37.9722 215.275 38.0568C215.219 38.1413 215.189 38.2408 215.189 38.3425C215.189 38.41 215.202 38.4769 215.228 38.5393C215.253 38.6017 215.291 38.6583 215.339 38.7061C215.386 38.7539 215.442 38.7917 215.505 38.8176C215.567 38.8434 215.633 38.8567 215.7 38.8567ZM215.7 34.5604C215.906 34.5604 216.107 34.4991 216.278 34.3843C216.448 34.2695 216.582 34.1064 216.66 33.9155C216.739 33.7246 216.759 33.5145 216.719 33.3118C216.679 33.1091 216.58 32.923 216.435 32.7769C216.29 32.6307 216.105 32.5312 215.903 32.4909C215.701 32.4506 215.493 32.4713 215.303 32.5504C215.113 32.6295 214.951 32.7634 214.836 32.9352C214.722 33.107 214.661 33.3091 214.661 33.5157C214.661 33.7928 214.771 34.0585 214.966 34.2544C215.16 34.4503 215.425 34.5604 215.7 34.5604ZM213.46 29.3072C213.542 29.3072 213.622 29.2828 213.69 29.237C213.758 29.1913 213.811 29.1263 213.842 29.0502C213.874 28.9742 213.882 28.8905 213.866 28.8097C213.85 28.729 213.81 28.6548 213.753 28.5966C213.695 28.5384 213.621 28.4988 213.541 28.4827C213.46 28.4666 213.377 28.4749 213.301 28.5064C213.226 28.5379 213.161 28.5912 213.116 28.6597C213.07 28.7281 213.046 28.8086 213.046 28.8909C213.046 28.9456 213.057 28.9997 213.077 29.0502C213.098 29.1007 213.129 29.1466 213.167 29.1853C213.206 29.224 213.251 29.2546 213.301 29.2755C213.352 29.2965 213.406 29.3072 213.46 29.3072Z" fill="#003B72"/>
<path d="M214.079 41.9139L214.325 41.6447C214.489 41.4656 214.604 41.2477 214.661 41.0114C214.761 40.4221 215.138 39.9824 215.591 39.9824C216.12 39.9824 216.548 40.5817 216.548 41.321C216.556 41.5344 216.519 41.747 216.438 41.9445C216.357 42.142 216.235 42.3198 216.08 42.4658C216.028 42.5229 215.968 42.5733 215.903 42.6157C215.701 42.7451 215.513 42.8961 215.343 43.066C214.623 43.7815 214.339 44.6654 214.708 45.0405C215.076 45.4156 215.959 45.1396 216.678 44.4243C216.807 44.2948 216.925 44.155 217.032 44.0064C217.036 44.0799 217.04 44.1537 217.04 44.2287C217.04 45.7061 216.173 46.9038 215.104 46.9038C214.034 46.9038 213.168 45.7061 213.168 44.2287C213.173 43.3697 213.498 42.5439 214.079 41.9139H214.079ZM215.607 40.9129C215.655 40.9129 215.702 40.8985 215.742 40.8716C215.782 40.8447 215.813 40.8065 215.832 40.7617C215.85 40.717 215.855 40.6678 215.846 40.6203C215.836 40.5728 215.813 40.5291 215.779 40.4949C215.745 40.4607 215.702 40.4373 215.654 40.4279C215.607 40.4184 215.558 40.4233 215.514 40.4418C215.469 40.4604 215.431 40.4917 215.404 40.532C215.378 40.5723 215.363 40.6196 215.363 40.668C215.363 40.7002 215.37 40.732 215.382 40.7617C215.394 40.7914 215.412 40.8184 215.435 40.8412C215.457 40.8639 215.484 40.882 215.514 40.8943C215.543 40.9066 215.575 40.9129 215.607 40.9129Z" fill="#003B72"/>
<path d="M218.291 19.5358V27.3468C218.291 27.3725 218.286 27.398 218.276 27.4217C218.266 27.4455 218.252 27.4671 218.234 27.4853C218.216 27.5035 218.194 27.5179 218.171 27.5278C218.147 27.5376 218.122 27.5427 218.096 27.5427C218.07 27.5427 218.045 27.5376 218.021 27.5278C217.998 27.5179 217.976 27.5035 217.958 27.4853C217.94 27.4671 217.926 27.4455 217.916 27.4217C217.906 27.398 217.901 27.3725 217.901 27.3468V19.5358C217.901 19.4838 217.922 19.434 217.958 19.3972C217.995 19.3605 218.044 19.3398 218.096 19.3398C218.148 19.3398 218.197 19.3605 218.234 19.3972C218.27 19.434 218.291 19.4838 218.291 19.5358Z" fill="#003B72"/>
<path d="M213.499 19.5357V27.3467C213.499 27.3724 213.494 27.3979 213.485 27.4217C213.475 27.4454 213.46 27.467 213.442 27.4852C213.424 27.5034 213.403 27.5178 213.379 27.5277C213.356 27.5375 213.33 27.5426 213.305 27.5426C213.279 27.5426 213.254 27.5375 213.23 27.5277C213.206 27.5178 213.185 27.5034 213.167 27.4852C213.149 27.467 213.134 27.4454 213.125 27.4217C213.115 27.3979 213.11 27.3724 213.11 27.3467V19.5357C213.11 19.51 213.115 19.4845 213.125 19.4608C213.134 19.437 213.149 19.4154 213.167 19.3972C213.185 19.379 213.206 19.3646 213.23 19.3548C213.254 19.3449 213.279 19.3398 213.305 19.3398C213.33 19.3398 213.356 19.3449 213.379 19.3548C213.403 19.3646 213.424 19.379 213.442 19.3972C213.46 19.4154 213.475 19.437 213.485 19.4608C213.494 19.4845 213.499 19.51 213.499 19.5357Z" fill="#003B72"/>
</svg>
