<svg width="146" height="71" viewBox="0 0 146 71" fill="none" xmlns="http://www.w3.org/2000/svg">
<path d="M-0.00012207 9.1522V9.391V13.5293V18.4636V22.8408V28.0138V32.3909V36.9272V41.4635H6.13298H89.8979H91.996C94.2556 41.4635 96.031 39.7127 96.031 37.4843V36.9272V32.3909V28.0138V22.8408V18.4636V13.5293V9.1522V3.97922L102.325 2.78545L102.971 1.1142C103.132 0.55711 102.729 0 102.164 0H93.61C91.5118 0 89.8172 1.67133 89.8172 3.74052V3.82009V5.25265V6.12806V9.1522H-0.00012207ZM80.3755 32.4705H89.8979V37.0067H80.3755V32.4705ZM80.3755 22.9203H89.8979V28.0933H80.3755V22.9203ZM80.3755 13.609H89.8979V18.5432H80.3755V13.609ZM64.8007 32.4705H77.8738V37.0067H64.8007V32.4705ZM64.8007 22.9203H77.8738V28.0933H64.8007V22.9203ZM64.8007 13.609H77.8738V18.5432H64.8007V13.609ZM49.2259 32.4705H62.299V37.0067H49.2259V32.4705ZM49.2259 22.9203H62.299V28.0933H49.2259V22.9203ZM49.2259 13.609H62.299V18.5432H49.2259V13.609ZM33.7318 32.4705H46.8049V37.0067H33.7318V32.4705ZM33.7318 22.9203H46.8049V28.0933H33.7318V22.9203ZM33.7318 13.609H46.8049V18.5432H33.7318V13.609ZM18.157 32.4705H31.2302V37.0067H18.157V32.4705ZM18.157 22.9203H31.2302V28.0933H18.157V22.9203ZM18.157 13.609H31.2302V18.5432H18.157V13.609ZM6.21366 32.4705H15.6554V37.0067H6.21366V32.4705ZM6.21366 22.9203H15.6554V28.0933H6.21366V22.9203ZM6.21366 13.609H15.6554V18.5432H6.21366V13.609Z" fill="#003771"/>
<path d="M101.276 58.5739C101.276 65.4181 106.844 70.9094 113.784 70.9094C120.724 70.9094 126.293 65.4181 126.293 58.5739C126.293 51.7296 120.724 46.2383 113.784 46.2383C106.844 46.2383 101.276 51.8092 101.276 58.5739ZM107.248 58.5739C107.248 54.9926 110.153 52.1274 113.784 52.1274C117.416 52.1274 120.321 54.9926 120.321 58.5739C120.321 62.1552 117.416 65.0202 113.784 65.0202C110.153 65.0202 107.248 62.1552 107.248 58.5739Z" fill="#003771"/>
<path d="M113.785 55.6289C115.398 55.6289 116.77 56.9819 116.77 58.5736C116.77 60.1653 115.398 61.5182 113.785 61.5182C112.171 61.5182 110.799 60.1653 110.799 58.5736C110.799 56.9819 112.171 55.6289 113.785 55.6289Z" fill="#003771"/>
<path d="M114.673 22.6012H110.153C108.943 22.6012 107.975 21.6462 107.975 20.532V13.2899C107.975 12.0961 108.943 11.2207 110.153 11.2207H114.673C115.883 11.2207 116.851 12.1757 116.851 13.2899V20.532C116.851 21.6462 115.802 22.6012 114.673 22.6012Z" fill="#003771"/>
<path d="M143.563 45.2831C142.03 45.2831 140.739 44.0097 140.739 42.4976V38.9163C140.739 37.4042 142.03 36.1309 143.563 36.1309H145.338H145.419V45.2831H145.338H143.563Z" fill="#003771"/>
<path d="M145.418 35.4951H143.482C141.626 35.4951 140.012 37.0071 140.012 38.9171V42.578C140.012 44.4084 141.545 46.0002 143.482 46.0002H145.338H145.418V47.751H138.236V34.0625H145.418V35.4951Z" fill="#003771"/>
<path d="M145.418 49.7406H143.562C142.029 49.7406 140.738 50.7753 140.738 52.0486V54.9933C140.738 56.2666 142.029 57.3012 143.562 57.3012H145.338C145.338 57.3012 145.338 57.3012 145.418 57.3012C145.257 58.8133 143.885 60.007 142.11 60.007H138.236V48.5469H145.418V49.7406Z" fill="#003771"/>
<path d="M145.418 56.7427H143.885C142.513 56.7427 141.464 55.8672 141.464 54.7531V52.2064C141.464 51.0922 142.513 50.2168 143.885 50.2168H145.418C145.418 50.2168 145.418 50.2168 145.499 50.2168V56.5039C145.418 56.5835 145.418 56.6631 145.418 56.7427Z" fill="#003771"/>
<path d="M137.509 33.1066H138.236H138.962H145.418V24.9889C145.418 24.4318 145.337 23.7952 145.176 23.2381L142.028 10.9821C141.383 8.51498 139.527 6.84375 137.509 6.84375H108.7C106.037 6.84375 103.939 9.46998 103.939 12.6534V29.8436V33.0269H137.509V33.1066ZM119.11 27.2173C119.11 26.8194 119.433 26.5011 119.836 26.5011H121.692C122.096 26.5011 122.419 26.8194 122.419 27.2173C122.419 27.6153 122.096 27.9336 121.692 27.9336H119.836C119.433 27.9336 119.11 27.6153 119.11 27.2173ZM117.496 21.0893C117.496 22.4422 116.366 23.5565 114.994 23.5565H109.749C108.377 23.5565 107.247 22.4422 107.247 21.0893V12.7329C107.247 11.38 108.377 10.2658 109.749 10.2658H114.994C116.366 10.2658 117.496 11.38 117.496 12.7329V21.0893ZM132.829 20.771C132.829 22.2831 131.538 23.5565 130.004 23.5565H122.015C120.401 23.5565 119.191 22.2831 119.191 20.771V13.0513C119.191 11.5392 120.482 10.2658 122.015 10.2658H130.004C131.618 10.2658 132.829 11.5392 132.829 13.0513V20.771ZM136.783 25.6256C136.057 25.6256 135.411 24.9094 135.411 24.1135V11.6984C135.411 10.8229 136.057 10.1863 136.783 10.1863H138.397C139.365 10.1863 140.172 10.9025 140.334 11.9371L142.513 23.3972C142.755 24.591 141.948 25.7052 140.818 25.7052H136.783V25.6256Z" fill="#003771"/>
<path d="M124.517 43.2943C123.307 41.3842 120.967 40.1109 118.465 40.1109H109.104C107.167 40.1109 105.311 40.9067 104.02 42.1801V35.3358V34.0625H137.51V35.3358V47.751H127.261L124.517 43.2943Z" fill="#003771"/>
<path d="M137.51 53.8797H130.086V53.4022C130.005 52.7656 129.924 52.1289 129.601 51.4922H137.51V53.8797Z" fill="#003771"/>
<path d="M137.51 50.9344H129.279C129.198 50.8548 129.198 50.7753 129.117 50.6957L127.745 48.5469H137.51V50.9344Z" fill="#003771"/>
<path d="M137.51 59.9261H130.247L130.167 57.459H137.51V59.9261Z" fill="#003771"/>
<path d="M137.51 56.9032H130.166L130.085 54.5156H137.51V56.9032Z" fill="#003771"/>
<path d="M101.357 47.6718L103.778 43.7722C103.94 43.5334 104.182 43.2151 104.343 42.9764C105.553 41.6234 107.41 40.748 109.427 40.748H118.223C120.563 40.748 122.742 41.8622 123.872 43.7722L128.31 50.7757C128.795 51.5715 129.117 52.447 129.198 53.402L129.36 60.0074H128.795C128.068 60.0074 127.665 59.3708 127.584 58.6545C127.503 57.1424 127.261 55.6303 126.939 54.1182L126.858 53.5611C126.293 51.9694 125.405 50.5369 124.275 49.184C121.693 46.3985 117.9 44.8068 113.946 44.8068C109.911 44.8068 106.199 46.3985 103.617 49.184C102.406 50.4573 101.519 51.9694 100.954 53.5611H98.6134C98.6134 52.6061 98.9362 51.5715 99.5011 50.7757L101.357 47.6718Z" fill="#003771"/>
<path d="M45.5938 55.6289C47.2078 55.6289 48.5797 56.9819 48.5797 58.5736C48.5797 60.1653 47.2078 61.5182 45.5938 61.5182C43.9799 61.5182 42.608 60.1653 42.608 58.5736C42.608 56.9819 43.9799 55.6289 45.5938 55.6289Z" fill="#003771"/>
<path d="M18.0764 55.6289C19.6904 55.6289 21.0623 56.9819 21.0623 58.5736C21.0623 60.1653 19.6904 61.5182 18.0764 61.5182C16.4625 61.5182 15.0906 60.1653 15.0906 58.5736C15.0906 56.9819 16.3818 55.6289 18.0764 55.6289Z" fill="#003771"/>
<path d="M6.37485 54.1171C5.80997 55.47 5.56787 56.9822 5.56787 58.5739C5.56787 65.4181 11.1361 70.9094 18.0761 70.9094C25.0162 70.9094 30.5844 65.4181 30.5844 58.5739C30.5844 56.9822 30.2616 55.47 29.7774 54.1171C28.002 49.5012 23.4022 46.2383 18.0761 46.2383C12.75 46.2383 8.15022 49.5012 6.37485 54.1171ZM11.5396 58.5739C11.5396 56.823 12.2658 55.2312 13.3956 54.1171C14.6061 52.9233 16.2201 52.1274 18.0761 52.1274C19.9322 52.1274 21.6268 52.9233 22.7566 54.1171C23.8864 55.3108 24.6127 56.823 24.6127 58.5739C24.6127 62.1552 21.7075 65.0202 18.0761 65.0202C14.4447 65.0202 11.5396 62.1552 11.5396 58.5739Z" fill="#003771"/>
<path d="M33.9736 54.1171C33.4087 55.47 33.1666 56.9822 33.1666 58.5739C33.1666 65.4181 38.7348 70.9094 45.6749 70.9094C52.6149 70.9094 58.1831 65.4181 58.1831 58.5739C58.1831 56.9822 57.8603 55.47 57.3761 54.1171C55.6008 49.5012 51.001 46.2383 45.6749 46.2383C40.3488 46.2383 35.749 49.5012 33.9736 54.1171ZM39.0576 58.5739C39.0576 56.823 39.7839 55.2312 40.9137 54.1171C42.1241 52.9233 43.7381 52.1274 45.5941 52.1274C47.4502 52.1274 49.1449 52.9233 50.2747 54.1171C51.4045 55.3108 52.1307 56.823 52.1307 58.5739C52.1307 62.1552 49.2256 65.0202 45.5941 65.0202C42.0434 65.0202 39.0576 62.1552 39.0576 58.5739Z" fill="#003771"/>
<path d="M8.63425 43.0547H53.1798C53.5833 43.0547 53.9867 43.0547 54.3902 43.1343C57.4568 43.5322 59.8777 45.3626 60.7654 47.7501C61.0075 48.3072 61.0882 48.9439 61.0882 49.6601V53.7986H58.4252C58.4252 53.719 58.3445 53.6394 58.3445 53.5598C56.4077 48.546 51.4851 45.0443 45.6748 45.0443C39.9452 45.0443 34.9419 48.6256 33.0052 53.5598C33.0052 53.6394 32.9245 53.719 32.9245 53.7986H30.8263C30.8263 53.719 30.7456 53.6394 30.7456 53.5598C28.8089 48.546 23.8863 45.0443 18.076 45.0443C12.2657 45.0443 7.34307 48.6256 5.40631 53.5598C5.40631 53.6394 5.32563 53.719 5.32563 53.7986H2.6626V48.0684C2.6626 45.283 5.32561 43.0547 8.63425 43.0547Z" fill="#003771"/>
<path d="M103.051 41.8618H101.276C99.5808 41.8618 98.1283 40.5088 98.1283 38.758V27.1387H102.97V41.8618H103.051Z" fill="#003771"/>
<path d="M98.7748 22.2838C98.7748 19.8963 100.712 17.9863 103.133 17.9863V19.578C101.599 19.578 100.389 20.7717 100.389 22.2838C100.389 23.7959 101.599 24.9897 103.133 24.9897V26.5814C100.712 26.5814 98.7748 24.6713 98.7748 22.2838Z" fill="#003771"/>
<path d="M101.519 22.2835C101.519 21.4081 102.245 20.7715 103.052 20.7715V23.7956C102.245 23.7956 101.519 23.1589 101.519 22.2835Z" fill="#003771"/>
<path d="M87.8003 51.81C88.4459 51.81 89.0107 51.3325 89.1721 50.7754H95.4666V54.1179C95.4666 54.9933 94.7403 55.63 93.8526 55.63H81.8286C80.9409 55.63 80.2146 54.9137 80.2146 54.1179V50.7754H86.4284C86.5898 51.3325 87.1547 51.81 87.8003 51.81Z" fill="#003771"/>
<path d="M87.8003 48.9446C87.1547 48.9446 86.5898 49.4221 86.4284 49.9792H80.2146V47.9896V46.8754C80.2146 46 80.9409 45.3633 81.8286 45.3633H93.7719C94.6596 45.3633 95.3859 46.0796 95.3859 46.8754V47.9896V49.9792H89.0914C89.0107 49.4221 88.4459 48.9446 87.8003 48.9446Z" fill="#003771"/>
<path d="M56.7307 43.0547H103.374C103.132 43.2934 102.971 43.5322 102.809 43.8505L100.469 47.7501H96.1922V46.4768C96.1922 45.5217 95.3852 44.7259 94.4168 44.7259H81.1823C80.2139 44.7259 79.4069 45.5217 79.4069 46.4768V47.7501H77.6316C77.6316 46.1584 76.3404 44.9646 74.8071 44.9646C73.2739 44.9646 71.9827 46.238 71.9827 47.7501H71.0143C71.0143 46.1584 69.7231 44.9646 68.1898 44.9646C66.6566 44.9646 65.3654 46.238 65.3654 47.7501H61.6533C60.5235 45.1238 59.4745 44.0097 56.7307 43.0547Z" fill="#003771"/>
<path d="M74.807 45.4434C76.0982 45.4434 77.1473 46.4779 77.1473 47.7512C77.1473 49.0246 76.0982 50.0592 74.807 50.0592C73.5158 50.0592 72.4668 49.0246 72.4668 47.7512C72.4668 46.3983 73.5158 45.4434 74.807 45.4434Z" fill="#003771"/>
<path d="M68.1096 49.9792C69.402 49.9792 70.4498 48.9459 70.4498 47.6712C70.4498 46.3966 69.402 45.3633 68.1096 45.3633C66.8171 45.3633 65.7693 46.3966 65.7693 47.6712C65.7693 48.9459 66.8171 49.9792 68.1096 49.9792Z" fill="#003771"/>
<path d="M89.3327 14.0859H80.9401V17.9856H89.3327V14.0859Z" fill="#003771"/>
<path d="M89.3327 23.5566H80.9401V27.4562H89.3327V23.5566Z" fill="#003771"/>
<path d="M89.3327 32.9473H80.9401V36.3694H89.3327V32.9473Z" fill="#003771"/>
<path d="M15.09 14.0859H6.69739V17.9856H15.09V14.0859Z" fill="#003771"/>
<path d="M15.09 23.5566H6.69739V27.4562H15.09V23.5566Z" fill="#003771"/>
<path d="M15.09 32.9473H6.69739V36.3694H15.09V32.9473Z" fill="#003771"/>
<path d="M77.3088 14.0859H65.3654V17.9856H77.3088V14.0859Z" fill="#003771"/>
<path d="M61.8142 14.0859H49.8708V17.9856H61.8142V14.0859Z" fill="#003771"/>
<path d="M46.2405 14.0859H34.2971V17.9856H46.2405V14.0859Z" fill="#003771"/>
<path d="M30.6658 14.0859H18.7224V17.9856H30.6658V14.0859Z" fill="#003771"/>
<path d="M77.3088 23.5566H65.3654V27.4562H77.3088V23.5566Z" fill="#003771"/>
<path d="M61.8142 23.5566H49.8708V27.4562H61.8142V23.5566Z" fill="#003771"/>
<path d="M46.2405 23.5566H34.2971V27.4562H46.2405V23.5566Z" fill="#003771"/>
<path d="M30.6658 23.5566H18.7224V27.4562H30.6658V23.5566Z" fill="#003771"/>
<path d="M77.3088 32.9473H65.3654V36.3694H77.3088V32.9473Z" fill="#003771"/>
<path d="M61.8142 32.9473H49.8708V36.3694H61.8142V32.9473Z" fill="#003771"/>
<path d="M46.2405 32.9473H34.2971V36.3694H46.2405V32.9473Z" fill="#003771"/>
<path d="M30.6658 32.9473H18.7224V36.3694H30.6658V32.9473Z" fill="#003771"/>
</svg>
