<svg width="141" height="79" viewBox="0 0 141 79" fill="none" xmlns="http://www.w3.org/2000/svg">
<path d="M33.8931 7.00346C33.3282 7.00346 32.9247 6.60558 32.9247 6.04849V1.59169C32.9247 0.716259 33.651 0 34.5387 0H39.0578L36.3141 7.00346H33.8931ZM34.3773 4.6955C33.9738 4.6955 33.5703 5.01383 33.5703 5.49134C33.5703 5.88926 33.8931 6.28718 34.3773 6.28718C34.7808 6.28718 35.1843 5.96885 35.1843 5.49134C35.1036 5.09342 34.7808 4.6955 34.3773 4.6955Z" fill="#003771"/>
<path d="M33.1667 16.2347C33.3281 16.0756 33.4895 15.8369 33.4895 15.5981C33.5702 14.9614 33.9737 14.5635 34.4578 14.5635C35.0227 14.5635 35.5069 15.2001 35.5069 15.9164C35.5069 16.3939 35.3455 16.8714 35.0227 17.1101C34.942 17.1897 34.942 17.1898 34.8613 17.2694C34.6999 17.4285 34.4579 17.5877 34.2965 17.7469C33.5702 18.4631 33.2474 19.4181 33.6509 19.816C34.0544 20.2139 34.942 19.8957 35.749 19.1794C35.9104 19.0202 35.9911 18.8611 36.1525 18.7815C36.1525 18.8611 36.1525 18.9406 36.1525 19.0202C36.1525 20.5323 35.2648 21.8056 34.1351 21.8056C33.0053 21.8056 32.1176 20.5323 32.1176 19.0202C32.1176 18.0652 32.5211 17.1897 33.086 16.6327L33.1667 16.2347ZM34.5386 15.4389C34.6999 15.4389 34.7807 15.3594 34.7807 15.2002C34.7807 15.041 34.6999 14.9614 34.5386 14.9614C34.3772 14.9614 34.2965 15.041 34.2965 15.2002C34.2965 15.3594 34.3772 15.4389 34.5386 15.4389Z" fill="#003771"/>
<path d="M34.4572 8.03809C34.5379 8.03809 34.5379 8.03809 34.6186 8.03809C35.0221 8.11767 35.2642 8.35635 35.3449 8.75427L35.9098 12.8927C35.9905 13.3702 35.587 13.8477 35.0221 13.8477H33.8117C33.3275 13.8477 32.924 13.3702 32.924 12.8927L33.4889 8.75427C33.5696 8.35635 33.8117 8.11767 34.2151 8.03809C34.3765 8.03809 34.4572 8.03809 34.4572 8.03809ZM35.2642 13.5293C35.4256 13.5293 35.587 13.3702 35.587 13.2111C35.587 13.0519 35.4256 12.8927 35.2642 12.8927C35.1028 12.8927 34.9414 13.0519 34.9414 13.2111C34.9414 13.3702 35.0221 13.5293 35.2642 13.5293ZM33.731 12.8927C33.5696 12.8927 33.4082 13.0519 33.4082 13.2111C33.4082 13.3702 33.5696 13.5293 33.731 13.5293C33.8924 13.5293 34.0537 13.3702 34.0537 13.2111C34.0537 13.0519 33.8924 12.8927 33.731 12.8927ZM34.1345 8.75427C34.1345 8.91344 34.2152 8.99304 34.3766 9.07262H34.5379C34.6993 8.99304 34.78 8.91344 34.78 8.75427C34.78 8.5951 34.6993 8.51559 34.5379 8.43601H34.3766C34.2152 8.43601 34.1345 8.5951 34.1345 8.75427Z" fill="#003771"/>
<path d="M83.2802 10.3461L83.6837 10.0278L84.3293 18.3842L83.4416 18.4638L82.8767 10.5053C82.9574 10.5053 83.1188 10.5053 83.2802 10.3461Z" fill="#003771"/>
<path d="M81.9894 39.8823V51.6608H-0.00012207V39.8823H81.9894ZM1.37175 49.4324C1.37175 49.8304 1.69455 50.1486 2.09804 50.1486H79.7299C80.1334 50.1486 80.4562 49.8304 80.4562 49.4324V48.4774C80.4562 48.0795 80.1334 47.7611 79.7299 47.7611H2.09804C1.69455 47.7611 1.37175 48.0795 1.37175 48.4774V49.4324ZM1.37175 46.2491C1.37175 46.647 1.69455 46.9653 2.09804 46.9653H79.7299C80.1334 46.9653 80.4562 46.647 80.4562 46.2491V45.294C80.4562 44.8961 80.1334 44.5777 79.7299 44.5777H2.09804C1.69455 44.5777 1.37175 44.8961 1.37175 45.294V46.2491ZM1.37175 43.0657C1.37175 43.4636 1.69455 43.7819 2.09804 43.7819H79.7299C80.1334 43.7819 80.4562 43.4636 80.4562 43.0657V42.1106C80.4562 41.7127 80.1334 41.3943 79.7299 41.3943H2.09804C1.69455 41.3943 1.37175 41.7127 1.37175 42.1106V43.0657Z" fill="#003771"/>
<path d="M2.09731 41.8721H79.7291C79.8905 41.8721 80.0519 42.0312 80.0519 42.1903V43.1454C80.0519 43.3046 79.8905 43.4638 79.7291 43.4638H2.09731C1.93592 43.4638 1.77451 43.3046 1.77451 43.1454V42.1903C1.85521 41.9516 1.93592 41.8721 2.09731 41.8721Z" fill="#003771"/>
<path d="M2.09731 45.0552H79.7291C79.8905 45.0552 80.0519 45.2143 80.0519 45.3734V46.3285C80.0519 46.4877 79.8905 46.6469 79.7291 46.6469H2.09731C1.93592 46.6469 1.77451 46.4877 1.77451 46.3285V45.3734C1.85521 45.1347 1.93592 45.0552 2.09731 45.0552Z" fill="#003771"/>
<path d="M2.09731 48.2388H79.7291C79.8905 48.2388 80.0519 48.3979 80.0519 48.557V49.5121C80.0519 49.6713 79.8905 49.8305 79.7291 49.8305H2.09731C1.93592 49.8305 1.77451 49.6713 1.77451 49.5121V48.557C1.85521 48.3183 1.93592 48.2388 2.09731 48.2388Z" fill="#003771"/>
<path d="M89.0906 5.49132L88.7678 7.24224L87.7994 7.40137C86.7503 7.56054 85.782 7.95844 84.975 8.6747L83.6031 9.86846L83.1996 10.1868C83.0382 10.2664 82.8768 10.346 82.7154 10.346C82.6347 10.346 82.6347 10.346 82.554 10.346C82.3119 10.346 81.9891 10.1868 81.8277 9.94803C80.4559 8.35634 78.5998 6.84432 76.5823 6.44639C76.2595 6.36681 75.9367 6.36673 75.614 6.36673H37.4436L39.5418 0.875488H88.6871C89.6555 0.875488 90.5432 1.51209 90.7852 2.38751L91.4308 4.45678H90.3818C89.7362 4.3772 89.1713 4.85465 89.0906 5.49132ZM82.6347 9.7889H82.7154C82.9575 9.7889 83.1996 9.62971 83.361 9.47054C83.4417 9.39096 83.4417 9.23179 83.4417 9.07262C83.4417 8.6747 83.1189 8.35634 82.7154 8.35634C82.3119 8.35634 81.9891 8.6747 81.9891 9.07262C81.9891 9.39096 82.2312 9.70931 82.6347 9.7889ZM88.9292 1.59167C88.7678 1.4325 88.5257 1.27341 88.2836 1.27341H77.7121C77.3086 1.27341 76.9051 1.59175 76.9051 2.06925C76.9051 2.46718 77.1472 2.78551 77.5507 2.8651L87.638 4.69548C87.7187 4.69548 87.7187 4.69548 87.7994 4.69548C88.2029 4.69548 88.445 4.45677 88.6064 4.13843L89.0906 2.30795C89.0906 1.98961 89.0906 1.75084 88.9292 1.59167Z" fill="#003771"/>
<path d="M88.2025 3.97926C88.1218 4.13842 87.9604 4.29761 87.799 4.29761L77.7117 2.46723C77.5503 2.46723 77.3889 2.30806 77.3889 2.06931C77.3889 1.83056 77.5503 1.67139 77.7924 1.67139H88.2832C88.3639 1.67139 88.5253 1.75093 88.606 1.83052C88.6867 1.9101 88.6867 2.06929 88.6867 2.14887L88.2025 3.97926Z" fill="#003771"/>
<path d="M85.0553 19.896L86.2658 34.8579C85.4588 35.0171 84.7325 35.415 84.329 36.0517L83.0379 20.0552L85.0553 19.896Z" fill="#003771"/>
<path d="M82.7957 19.1797C82.7957 19.0206 82.9571 18.7818 83.1185 18.7818L84.6517 18.7021C84.8131 18.7021 85.0552 18.8613 85.0552 19.0205L85.1359 19.6572L82.8764 19.8163L82.7957 19.1797Z" fill="#003771"/>
<path d="M92.8029 21.0102V25.6262C92.8029 26.0241 92.4801 26.3424 92.0766 26.3424H89.575C89.1715 26.3424 88.8487 26.0241 88.8487 25.6262V21.0102C88.8487 20.6123 89.1715 20.2939 89.575 20.2939H92.0766C92.4801 20.2939 92.8029 20.6123 92.8029 21.0102Z" fill="#003771"/>
<path d="M91.9143 34.6987C92.5599 34.6987 93.0441 35.1762 93.0441 35.8128V40.9063C93.0441 41.5429 92.5599 42.0205 91.9143 42.0205C91.2688 42.0205 90.7846 41.5429 90.7846 40.9063V35.8128C90.7039 35.2557 91.2688 34.6987 91.9143 34.6987Z" fill="#003771"/>
<path d="M84.652 51.5704V45.6812H93.6096V51.5704H91.1079C90.9465 51.3317 90.6237 51.2521 90.3816 51.2521H90.2202V51.1725C90.9465 50.7746 91.4307 49.9787 91.4307 49.1829C91.4307 47.9095 90.3816 46.8749 89.0904 46.8749C87.7993 46.8749 86.7502 47.9095 86.7502 49.1829C86.7502 50.0583 87.2344 50.7746 87.9607 51.1725V51.2521H87.7993C87.4765 51.2521 87.2344 51.4112 87.073 51.5704H84.652Z" fill="#003771"/>
<path d="M94.0939 51.4909V45.7607C94.5781 45.7607 94.9816 47.0342 94.9816 48.6259C94.9816 50.2175 94.5781 51.4909 94.0939 51.4909Z" fill="#003771"/>
<path d="M84.1672 51.4909C83.683 51.4909 83.2795 50.2175 83.2795 48.6259C83.2795 47.0342 83.683 45.7607 84.1672 45.7607V51.4909Z" fill="#003771"/>
<path d="M93.3674 44.965H84.8133C84.3292 44.965 84.0064 44.567 84.0064 44.1691V38.28C84.0064 37.7229 84.1678 37.1658 84.4906 36.7678C84.894 36.1312 85.6203 35.6537 86.4273 35.5741C86.5887 35.5741 86.6694 35.5741 86.8308 35.5741H87.4764V18.6226C87.4764 18.3042 87.4764 17.9859 87.5571 17.6676L89.3325 7.7991L89.6553 6.04828C89.7359 5.41161 90.3815 4.93408 91.0271 4.93408H93.0446C93.6902 4.93408 94.2551 5.49117 94.2551 6.12785V44.1691C94.2551 44.567 93.8516 44.965 93.3674 44.965ZM86.1852 36.7678C85.701 36.7678 85.2975 37.1657 85.2975 37.6432C85.2975 38.1207 85.701 38.5187 86.1852 38.5187C86.6694 38.5187 87.0729 38.1207 87.0729 37.6432C87.0729 37.1657 86.6694 36.7678 86.1852 36.7678ZM90.3008 40.9857C90.3008 41.8612 91.0271 42.4979 91.8341 42.4979C92.7218 42.4979 93.3674 41.7816 93.3674 40.9857V35.8924C93.3674 35.017 92.6411 34.3803 91.8341 34.3803C90.9464 34.3803 90.3008 35.0966 90.3008 35.8924V40.9857ZM89.5746 19.8959C88.929 19.8959 88.4448 20.3734 88.4448 21.0101V25.626C88.4448 26.2627 88.929 26.7402 89.5746 26.7402H92.0762C92.7218 26.7402 93.206 26.2627 93.206 25.626V21.0101C93.206 20.3734 92.7218 19.8959 92.0762 19.8959H89.5746ZM92.7218 5.72993C92.5604 5.72993 92.399 5.80947 92.2376 5.88906C91.9955 6.04822 91.8341 6.287 91.8341 6.60533C91.8341 7.08284 92.2376 7.48074 92.7218 7.48074C93.206 7.48074 93.6095 7.08284 93.6095 6.60533C93.6095 6.12783 93.206 5.72993 92.7218 5.72993Z" fill="#003771"/>
<path d="M90.3823 51.5705C90.7858 51.5705 91.0279 51.9684 91.0279 52.4459V60.5636H87.235V52.4459C87.235 51.9684 87.5578 51.5705 87.8806 51.5705H88.4455V50.8542L88.3648 50.7747C87.7192 50.4563 87.235 49.8197 87.235 49.1034C87.235 48.0688 88.1227 47.1934 89.1718 47.1934C90.2209 47.1934 91.1086 48.0688 91.1086 49.1034C91.1086 49.8197 90.7051 50.5359 89.9788 50.7747L89.8981 50.8542V51.5705H90.3823ZM89.8981 49.1034C89.8981 48.7055 89.5753 48.3076 89.0911 48.3076C88.6876 48.3076 88.2841 48.6259 88.2841 49.1034C88.2841 49.5013 88.6069 49.8992 89.0911 49.8992C89.5753 49.8992 89.8981 49.5013 89.8981 49.1034Z" fill="#003771"/>
<path d="M86.9921 76.0094H88.364V62.2353H88.1219C87.6377 62.2353 87.2342 61.8374 87.2342 61.3599V61.0415H91.027V61.3599C91.027 61.8374 90.6235 62.2353 90.1393 62.2353H89.9779V76.0094H91.2691C91.834 76.0094 92.2375 76.4073 92.2375 76.9644H86.0237C86.0237 76.4869 86.4272 76.0094 86.9921 76.0094ZM89.0902 75.8502C89.413 75.8502 89.7358 75.6114 89.7358 75.2135C89.7358 74.8952 89.4937 74.5769 89.0902 74.5769C88.7675 74.5769 88.4447 74.8156 88.4447 75.2135C88.5254 75.6114 88.7675 75.8502 89.0902 75.8502Z" fill="#003771"/>
<path d="M108.782 34.0078H112.857C113.949 34.0078 114.823 33.1343 114.823 32.1152V25.4927C114.823 24.4741 113.949 23.6006 112.857 23.6006H108.782C107.69 23.6006 106.817 24.4009 106.817 25.4927V32.1152C106.817 33.1343 107.69 34.0078 108.782 34.0078Z" fill="#003771"/>
<path fill-rule="evenodd" clip-rule="evenodd" d="M140.586 43.6143H133.454V43.5415H103.179V24.9102C103.179 21.999 105.071 19.5977 107.473 19.5977H133.454C135.273 19.5977 136.947 21.126 137.529 23.3818L140.368 34.5898C140.514 35.0991 140.586 35.6812 140.586 36.1909V43.6143ZM117.516 37.5737C117.152 37.5737 116.86 37.8647 116.86 38.2285C116.86 38.5923 117.152 38.8838 117.516 38.8838H119.189C119.554 38.8838 119.845 38.5923 119.845 38.2285C119.845 37.8647 119.554 37.5737 119.189 37.5737H117.516ZM113.149 34.8809C114.387 34.8809 115.405 33.8618 115.405 32.625V24.9834C115.405 23.7461 114.387 22.7271 113.149 22.7271H108.419C107.182 22.7271 106.162 23.7461 106.162 24.9834V32.625C106.162 33.8618 107.182 34.8809 108.419 34.8809H113.149ZM126.685 34.8809C128.068 34.8809 129.232 33.7163 129.232 32.3335V25.2744C129.232 23.8916 128.141 22.7271 126.685 22.7271H119.48C118.098 22.7271 116.933 23.8916 116.933 25.2744V32.3335C116.933 33.7163 118.025 34.8809 119.48 34.8809H126.685ZM131.561 35.3901C131.561 36.1182 132.143 36.7729 132.799 36.7729V36.8457H136.437C137.457 36.8457 138.184 35.8267 137.966 34.7354L136.001 24.2554C135.855 23.3091 135.128 22.6543 134.255 22.6543H132.799C132.143 22.6543 131.561 23.2363 131.561 24.0371V35.3901Z" fill="#003771"/>
<path d="M112.057 64.21C113.513 64.21 114.75 65.4473 114.75 66.9028C114.75 68.3584 113.513 69.5957 112.057 69.5957C110.601 69.5957 109.364 68.3584 109.364 66.9028C109.364 65.4473 110.601 64.21 112.057 64.21Z" fill="#003771"/>
<path fill-rule="evenodd" clip-rule="evenodd" d="M100.776 66.9028C100.776 73.1616 105.798 78.1836 112.057 78.1836C118.315 78.1836 123.337 73.1616 123.337 66.9028C123.337 60.644 118.315 55.6226 112.057 55.6226C105.871 55.6226 100.776 60.644 100.776 66.9028ZM106.162 66.9028C106.162 63.6279 108.782 61.0083 112.057 61.0083C115.332 61.0083 117.952 63.6279 117.952 66.9028C117.952 70.1777 115.332 72.7979 112.057 72.7979C108.782 72.7979 106.162 70.1777 106.162 66.9028Z" fill="#003771"/>
<path d="M138.911 54.7485C137.528 54.7485 136.364 53.5845 136.364 52.2017V48.9268C136.364 47.5439 137.528 46.3794 138.911 46.3794H140.585V54.7485H138.911Z" fill="#003771"/>
<path d="M138.839 45.7974H140.586V44.4873H134.108V57.0049H140.586V55.4038H138.839C137.092 55.4038 135.71 53.9482 135.71 52.2744V48.9268C135.71 47.1802 137.165 45.7974 138.839 45.7974Z" fill="#003771"/>
<path d="M138.912 58.8247H140.586V57.7329H134.108V68.2129H137.601C139.203 68.2129 140.44 67.1211 140.586 65.7383H138.912C137.529 65.7383 136.364 64.7925 136.364 63.6279V60.9351C136.364 59.7705 137.529 58.8247 138.912 58.8247Z" fill="#003771"/>
<path d="M140.586 65.229H139.203C137.966 65.229 137.019 64.4282 137.019 63.4097V61.0806C137.019 60.062 137.966 59.2612 139.203 59.2612H140.658V65.0107C140.617 65.0518 140.599 65.0928 140.592 65.1338C140.586 65.1655 140.586 65.1973 140.586 65.229Z" fill="#003771"/>
<path d="M121.736 52.9292C120.644 51.1826 118.534 50.0186 116.278 50.0186H107.836C106.089 50.0186 104.415 50.7461 103.251 51.9106V44.4873H133.453V57.0049H124.211L121.736 52.9292Z" fill="#003771"/>
<path d="M126.758 62.6089H133.453V60.4258H126.321C126.612 61.0078 126.685 61.5903 126.758 62.1724V62.6089Z" fill="#003771"/>
<path d="M133.453 59.916H126.03C125.994 59.8799 125.975 59.8438 125.957 59.8076L125.951 59.7944C125.934 59.7622 125.917 59.73 125.885 59.6978L124.647 57.7329H133.453V59.916Z" fill="#003771"/>
<path d="M126.903 68.1401H133.453V65.8843H126.903V68.1401Z" fill="#003771"/>
<path d="M133.453 65.3745H126.831L126.758 63.1914H133.453V65.3745Z" fill="#003771"/>
<path d="M103.032 53.3667L100.849 56.9326L99.1757 59.771C98.6659 60.4985 98.3749 61.4448 98.3749 62.3184H100.485C100.995 60.8628 101.796 59.48 102.887 58.3154C105.216 55.7681 108.563 54.3125 112.202 54.3125C115.768 54.3125 119.189 55.7681 121.518 58.3154C122.009 58.9111 122.449 59.5234 122.83 60.1611C123.24 60.8477 123.583 61.5635 123.847 62.3184L123.92 62.8276C124.211 64.2104 124.429 65.5933 124.502 66.9761C124.574 67.6309 124.938 68.2129 125.594 68.2129H126.103L125.957 62.1729C125.912 61.6289 125.782 61.1133 125.586 60.6265C125.467 60.3311 125.322 60.0459 125.157 59.771L121.154 53.3667C120.136 51.6201 118.17 50.6011 116.059 50.6011H108.127C106.307 50.6011 104.634 51.4019 103.542 52.6387L103.419 52.8174L103.278 53.0156C103.19 53.1387 103.103 53.2612 103.032 53.3667Z" fill="#003771"/>
<path d="M28.4364 66.9028C28.4364 65.4473 27.1991 64.21 25.743 64.21C24.2147 64.21 23.0507 65.4473 23.0507 66.9028C23.0507 68.3584 24.288 69.5957 25.743 69.5957C27.1991 69.5957 28.4364 68.3584 28.4364 66.9028Z" fill="#003771"/>
<path fill-rule="evenodd" clip-rule="evenodd" d="M15.1903 62.8276C14.6815 64.0649 14.4628 65.4473 14.4628 66.9028C14.4628 73.1616 19.4843 78.1836 25.743 78.1836C32.0018 78.1836 37.0233 73.1616 37.0233 66.9028C37.0233 66.3926 36.9882 65.8916 36.9227 65.4023C36.871 65.0176 36.8016 64.6401 36.7167 64.272C36.6014 63.7729 36.4589 63.29 36.2958 62.8276C34.6952 58.6064 30.5468 55.6226 25.743 55.6226C20.9403 55.6226 16.8641 58.6064 15.1903 62.8276ZM19.8485 66.9028C19.8485 65.3018 20.5028 63.8462 21.5223 62.8276C22.6141 61.7358 24.0692 61.0083 25.743 61.0083C27.4169 61.0083 28.9452 61.7358 29.9647 62.8276C30.9833 63.9189 31.6385 65.3018 31.6385 66.9028C31.6385 70.1777 29.0184 72.7979 25.743 72.7979C22.4686 72.7979 19.8485 70.1777 19.8485 66.9028Z" fill="#003771"/>
<path d="M50.6327 64.21C52.0887 64.21 53.326 65.4473 53.326 66.9028C53.326 68.3584 52.0887 69.5957 50.6327 69.5957C49.1776 69.5957 47.9403 68.3584 47.9403 66.9028C47.9403 65.4473 49.1044 64.21 50.6327 64.21Z" fill="#003771"/>
<path fill-rule="evenodd" clip-rule="evenodd" d="M39.3524 66.9028C39.3524 65.4473 39.5712 64.0649 40.08 62.8276C41.6815 58.6064 45.83 55.6226 50.6327 55.6226C55.4364 55.6226 59.5848 58.6064 61.1854 62.8276C61.6219 64.0649 61.913 65.4473 61.913 66.9028C61.913 73.1616 56.8915 78.1836 50.6327 78.1836C44.3739 78.1836 39.3524 73.1616 39.3524 66.9028ZM46.412 62.8276C45.3925 63.8462 44.7382 65.3018 44.7382 66.9028C44.7382 70.1777 47.3583 72.7979 50.6327 72.7979C53.9081 72.7979 56.5282 70.1777 56.5282 66.9028C56.5282 65.3018 55.8729 63.9189 54.8544 62.8276C53.8348 61.7358 52.3065 61.0083 50.6327 61.0083C48.9589 61.0083 47.5038 61.7358 46.412 62.8276Z" fill="#003771"/>
<path d="M17.2284 52.6387H57.4012C57.7645 52.6387 58.1288 52.6387 58.493 52.7114C61.2587 53.0752 63.4413 54.749 64.2421 56.9326C64.4608 57.4419 64.5331 58.0239 64.5331 58.6792V62.4634H62.1317C62.1317 62.4272 62.1132 62.3906 62.0956 62.354C62.077 62.3179 62.0585 62.2817 62.0585 62.2451C60.3124 57.6602 55.8729 54.458 50.6327 54.458C45.4657 54.458 40.953 57.7329 39.2069 62.2451C39.2069 62.2637 39.202 62.2822 39.1952 62.3008L39.1727 62.3491C39.1532 62.3872 39.1337 62.4253 39.1337 62.4634H37.2421C37.2421 62.3906 37.1688 62.3179 37.1688 62.2451C35.4227 57.6602 30.9833 54.458 25.743 54.458C20.576 54.458 16.0634 57.7329 14.3173 62.2451C14.3173 62.3179 14.244 62.3906 14.244 62.4634H11.8427V57.2236C11.8427 54.6763 14.244 52.6387 17.2284 52.6387Z" fill="#003771"/>
<path d="M97.9384 38.229V48.8545C97.9384 50.3828 99.2479 51.6201 100.704 51.6929H102.305V38.229H97.9384Z" fill="#003771"/>
<path d="M102.378 37.6465C100.195 37.6465 98.4481 35.8999 98.4481 33.7168C98.4481 31.5332 100.195 29.7866 102.378 29.7866V31.2422C100.995 31.2422 99.9032 32.334 99.9032 33.7168C99.9032 35.0991 100.995 36.1909 102.378 36.1909V37.6465Z" fill="#003771"/>
<path d="M102.378 35.0996V32.334C102.019 32.334 101.679 32.4751 101.425 32.7139C101.29 32.8418 101.18 32.9971 101.104 33.1738C101.065 33.2651 101.036 33.3623 101.017 33.4644C101.009 33.5112 101.003 33.5591 100.999 33.6079L100.995 33.6748V33.7168C100.995 34.4443 101.577 35.0996 102.378 35.0996Z" fill="#003771"/>
<path d="M102.159 53.3662L100.049 56.9326H92.3784V52.6387H102.596C102.523 52.8569 102.305 53.1479 102.159 53.3662Z" fill="#003771"/>
<path d="M86.1845 52.644V56.9326H64.8973C64.0243 54.6035 63.078 53.5122 60.6034 52.7114L86.1845 52.644Z" fill="#003771"/>
</svg>
