<svg width="180" height="108" viewBox="0 0 180 108" fill="none" xmlns="http://www.w3.org/2000/svg">
<path fill-rule="evenodd" clip-rule="evenodd" d="M102.946 95.6648C104.189 93.5096 104.438 91.0226 103.858 88.7842C103.236 86.546 101.785 84.5565 99.63 83.2715C97.4745 82.0281 94.9876 81.7793 92.7492 82.3596C90.5111 82.9813 88.48 84.432 87.2365 86.5875C85.993 88.7429 85.7445 91.2299 86.3245 93.4681C86.9463 95.7063 88.397 97.7373 90.5524 98.9808C92.7079 100.224 95.1948 100.473 97.4333 99.8927C99.6713 99.271 101.702 97.8203 102.946 95.6648ZM91.7546 87.1263C91.5057 86.8777 91.4644 86.4632 91.7129 86.2145C91.9202 85.9658 92.3347 85.9243 92.6249 86.173C92.7913 86.3392 92.8649 86.5792 92.8212 86.7945C92.7998 86.9016 92.7492 87.0024 92.6666 87.085C92.4176 87.3335 92.0032 87.375 91.7546 87.1263ZM97.5988 96.1208C97.3503 95.8721 97.3086 95.4576 97.5575 95.2089C97.8061 94.9603 98.1793 94.9603 98.4695 95.1676C98.718 95.4161 98.7593 95.8306 98.5108 96.0793C98.2622 96.3281 97.8477 96.3696 97.5988 96.1208ZM95.568 85.9243C95.568 85.5513 95.8579 85.261 96.1898 85.261C96.4925 85.261 96.7609 85.4687 96.8366 85.7889C96.8439 85.8192 96.8492 85.8506 96.8528 85.8828C96.8528 86.256 96.5626 86.546 96.2311 86.546C95.8579 86.546 95.568 86.256 95.568 85.9243ZM93.3296 96.4523C93.3296 96.0793 93.6198 95.7893 93.9513 95.7893C94.3246 95.7478 94.6144 96.0378 94.6144 96.411C94.6144 96.784 94.3246 97.0741 93.9926 97.0741C93.6198 97.0741 93.3296 96.784 93.3296 96.4523ZM99.1325 87.7895C99.381 87.5407 99.7955 87.4995 100.044 87.748C100.293 87.9967 100.293 88.3697 100.086 88.66C99.8372 88.9087 99.4227 88.9502 99.1738 88.7014C98.9253 88.4527 98.884 88.0382 99.1325 87.7895ZM90.0966 93.6339C90.3452 93.3851 90.7597 93.3436 91.0086 93.5924C91.2984 93.8411 91.2984 94.2556 91.0499 94.5043C90.8014 94.7531 90.3869 94.7944 90.1379 94.5458C89.8894 94.2971 89.8477 93.8826 90.0966 93.6339ZM100.335 91.6029C100.707 91.6029 100.998 91.8929 100.998 92.2246C100.998 92.5976 100.707 92.8879 100.376 92.8879C100.16 92.8879 99.9716 92.7903 99.8514 92.644C99.7644 92.5377 99.713 92.4056 99.713 92.2661C99.713 91.8929 100.003 91.6029 100.335 91.6029ZM89.8064 89.3647C90.1796 89.3647 90.4695 89.6547 90.4695 89.9864C90.5111 90.3594 90.2209 90.6494 89.8477 90.6494C89.4749 90.6494 89.1847 90.3594 89.1847 90.0277C89.1847 89.6547 89.4749 89.3647 89.8064 89.3647ZM96.9771 87.831C98.801 88.9087 99.4227 91.2299 98.3865 93.0536C97.3503 94.8773 95.0289 95.4991 93.1637 94.4629C91.3401 93.3851 90.7184 91.0639 91.7546 89.2402C92.8321 87.4165 95.1535 86.7947 96.9771 87.831Z" fill="#003771"/>
<path d="M11.5916 76.8469H7.61259V76.9299H11.5916V76.8469Z" fill="#003771"/>
<path d="M11.5503 77.1371H7.61259V77.2199H11.4673L11.5503 77.1371Z" fill="#003771"/>
<path d="M11.2601 77.3857H7.61259V77.4687H11.1771L11.2601 77.3857Z" fill="#003771"/>
<path d="M10.9698 77.6759H7.61259V77.7589H10.8868L10.9698 77.6759Z" fill="#003771"/>
<path d="M10.7213 77.9661H7.61259V78.0489H10.6383L10.7213 77.9661Z" fill="#003771"/>
<path d="M10.4724 78.2147H7.61259V78.2976H10.3898L10.4724 78.2147Z" fill="#003771"/>
<path d="M10.2238 78.5049H7.61259V78.5879H10.1408L10.2238 78.5049Z" fill="#003771"/>
<path d="M9.97528 78.7536H7.61259V78.8364H9.8923L9.97528 78.7536Z" fill="#003771"/>
<path d="M9.76804 79.0436H7.61259V79.1266H9.68506L9.76804 79.0436Z" fill="#003771"/>
<path d="M11.5503 79.0436H11.3013L11.1771 79.1266H11.5503V79.0436Z" fill="#003771"/>
<path d="M9.5191 79.2924H7.57091V79.3754H9.43613L9.5191 79.2924Z" fill="#003771"/>
<path d="M11.5503 79.3754V79.2924H10.9698L10.8456 79.3754H11.5503Z" fill="#003771"/>
<path d="M9.31186 79.5826H7.57091V79.6654H9.22888L9.31186 79.5826Z" fill="#003771"/>
<path d="M11.5503 79.5826H10.6383L10.514 79.6654H11.5503V79.5826Z" fill="#003771"/>
<path d="M17.2289 68.1011H13.2495V68.1841H17.2289V68.1011Z" fill="#003771"/>
<path d="M17.2289 68.3913H13.2495V68.4741H17.2289V68.3913Z" fill="#003771"/>
<path d="M17.2289 68.64H13.2495V68.7228H17.2289V68.64Z" fill="#003771"/>
<path d="M17.2289 68.9301H13.2495V69.013H17.2289V68.9301Z" fill="#003771"/>
<path d="M17.2289 69.1788H13.2495V69.2618H17.2289V69.1788Z" fill="#003771"/>
<path d="M17.2289 69.469H13.2495V69.5518H17.2289V69.469Z" fill="#003771"/>
<path d="M17.2289 69.7176H13.2495V69.8005H17.2289V69.7176Z" fill="#003771"/>
<path d="M17.2289 70.0078H13.2495V70.0908H17.2289V70.0078Z" fill="#003771"/>
<path d="M17.2289 70.2565H13.2495V70.3393H17.2289V70.2565Z" fill="#003771"/>
<path d="M17.2289 70.5465H13.2495V70.6295H17.2289V70.5465Z" fill="#003771"/>
<path d="M17.2289 70.7953H13.2495V70.8783H17.2289V70.7953Z" fill="#003771"/>
<path fill-rule="evenodd" clip-rule="evenodd" d="M24.3996 82.0696C21.8709 82.0696 19.6329 83.0643 17.9749 84.7223C16.3582 86.3802 15.322 88.66 15.322 91.1469C15.322 93.6754 16.3169 95.9136 17.9749 97.5715C19.6329 99.2295 21.9126 100.224 24.3996 100.224C26.9278 100.224 29.1662 99.2295 30.8242 97.5715C32.4822 95.9136 33.4767 93.6339 33.4767 91.1469C33.4767 88.6185 32.4822 86.3802 30.8242 84.7223C29.1662 83.0643 26.8865 82.0696 24.3996 82.0696ZM20.5861 91.1469C20.5861 89.033 22.2854 87.3335 24.3996 87.3335C26.5133 87.3335 28.213 89.033 28.213 91.1469C28.213 93.2609 26.5133 94.9603 24.3996 94.9603C22.2854 94.9603 20.5861 93.2609 20.5861 91.1469ZM22.5756 96.0378C22.4926 96.411 22.1611 96.6183 21.8296 96.5353C21.4564 96.4938 21.2492 96.1208 21.3321 95.7893C21.4151 95.4161 21.7466 95.2089 22.0782 95.2918C22.2688 95.3343 22.4165 95.4418 22.504 95.5811C22.5874 95.714 22.6161 95.8759 22.5756 96.0378ZM27.4253 86.4632C27.3423 86.8362 27.0108 87.0435 26.6793 86.9605C26.3477 86.919 26.1405 86.546 26.1818 86.2145C26.2648 85.8415 26.5963 85.6342 26.9278 85.717C27.301 85.8 27.5082 86.1315 27.4253 86.4632ZM19.6329 93.3436C19.3427 93.5096 18.9695 93.4266 18.7622 93.1364C18.555 92.8464 18.6379 92.4734 18.9695 92.2661C19.2597 92.1002 19.6329 92.1831 19.8401 92.4734C20.0057 92.7634 19.9231 93.1364 19.6329 93.3436ZM29.8292 90.0277C29.539 90.1937 29.1662 90.1107 28.959 89.8204C28.793 89.5304 28.876 89.1574 29.1662 88.9502C29.4564 88.7842 29.8292 88.8672 30.0365 89.1574C30.2025 89.4474 30.1195 89.8204 29.8292 90.0277ZM19.0156 88.9884C18.952 88.8648 18.9334 88.7209 18.9695 88.577C19.0524 88.2455 19.3839 88.0382 19.7159 88.0797C20.0887 88.1625 20.2959 88.4942 20.2129 88.8257C20.1304 89.1987 19.7984 89.406 19.4669 89.3232C19.256 89.2762 19.0982 89.1497 19.0156 88.9884ZM29.0419 94.1726C28.6687 94.0899 28.4615 93.7581 28.5445 93.4266C28.6275 93.0951 28.959 92.8879 29.2905 92.9291C29.6637 93.0121 29.8709 93.3436 29.788 93.6754C29.705 94.0484 29.3735 94.2556 29.0419 94.1726ZM22.1611 86.3802C21.9956 86.09 22.0782 85.717 22.3684 85.5098C22.6999 85.3025 23.0731 85.3855 23.2391 85.717C23.3317 85.8795 23.3463 86.068 23.2905 86.2386C23.2467 86.373 23.1593 86.4962 23.0318 86.5875C22.7416 86.7533 22.3684 86.6705 22.1611 86.3802ZM25.5188 96.5768C25.3528 96.2866 25.4358 95.9136 25.726 95.7063C26.0158 95.5406 26.389 95.6234 26.5963 95.9136C26.7622 96.2038 26.6793 96.5768 26.389 96.784C26.0988 96.9498 25.726 96.8668 25.5188 96.5768Z" fill="#003771"/>
<path fill-rule="evenodd" clip-rule="evenodd" d="M115.836 21.7609L116.044 21.6779L116.12 21.7657C116.636 22.3614 117.175 22.9823 117.411 23.3773V23.6261L122.634 23.6676V23.1286H123.131V24.7866H122.924C122.883 24.7866 122.8 24.8281 122.8 24.9111V25.4498C122.8 25.4913 122.841 25.5743 122.924 25.5743H125.328C125.37 25.5743 125.453 25.5328 125.453 25.4498V24.9111C125.453 24.8696 125.411 24.7866 125.328 24.7866H125.121V23.1561C125.096 23.1652 125.068 23.1701 125.038 23.1701C124.955 23.1701 124.831 23.0871 124.831 22.9629C124.831 22.8799 124.914 22.7556 125.038 22.7556C125.107 22.7556 125.163 22.7807 125.199 22.824C125.229 22.8594 125.246 22.907 125.246 22.9629C125.246 23.0345 125.218 23.0924 125.171 23.1286H125.535V24.2063H126.53V23.7091L126.779 23.7918V23.8748C126.779 23.971 126.804 24.0673 126.815 24.1442C126.819 24.1667 126.821 24.1875 126.821 24.2063C126.738 24.2063 126.696 24.2893 126.696 24.3308C126.696 24.4136 126.779 24.4551 126.821 24.4551H126.904C126.95 24.5949 127.023 24.7348 127.107 24.8598C127.172 24.9572 127.245 25.0456 127.318 25.1183C127.65 25.4083 128.064 25.6156 128.52 25.6156L129.846 25.5743V25.8643L152.436 25.6571L152.975 25.4083L180 24.6208V24.1236H178.839L132.706 23.9163H128.23C128.147 23.8748 128.064 23.8333 127.981 23.7504C127.857 23.6261 127.774 23.4188 127.774 23.2116L127.815 14.7975H127.94V14.3C127.94 14.2585 127.898 14.217 127.857 14.217H126.862C126.821 14.217 126.779 14.2585 126.779 14.3V14.7975H126.904V14.9217L126.655 14.9632V13.3053H126.862C126.904 13.388 126.945 13.4295 127.028 13.4295C127.152 13.4295 127.235 13.3467 127.235 13.2223C127.235 13.098 127.152 13.015 127.028 13.015C126.945 13.015 126.904 13.0565 126.862 13.098H126.655L126.696 0.663229H126.862C126.904 0.746006 126.945 0.787496 127.028 0.787496C127.152 0.787496 127.235 0.704719 127.235 0.580249C127.235 0.455982 127.152 0.373003 127.028 0.373003C126.945 0.373003 126.904 0.414493 126.862 0.455982H126.696V0.207246C126.696 0.0829795 126.613 0 126.489 0H125.867C125.8 0 125.745 0.0240843 125.709 0.0659788C125.677 0.101599 125.66 0.150173 125.66 0.207246L125.577 15.875H125.163V13.2223C125.328 13.2223 125.494 13.098 125.494 12.8908C125.494 12.7965 125.454 12.7019 125.381 12.6382C125.326 12.5898 125.252 12.559 125.163 12.559V12.3518C125.328 12.3518 125.494 12.2275 125.494 12.0203C125.494 11.8545 125.37 11.6888 125.163 11.6888V11.4815C125.253 11.4815 125.344 11.4441 125.408 11.3761C125.46 11.3202 125.494 11.2435 125.494 11.1498C125.494 10.9841 125.37 10.8183 125.163 10.8183V10.6111C125.328 10.6111 125.494 10.4866 125.494 10.2793C125.494 10.1136 125.37 9.94783 125.163 9.94783V9.74058C125.328 9.74058 125.494 9.61631 125.494 9.40907C125.494 9.24311 125.37 9.07735 125.163 9.07735V8.8701C125.328 8.8701 125.494 8.74584 125.494 8.53859C125.494 8.4463 125.456 8.35381 125.386 8.29006C125.33 8.23946 125.254 8.20687 125.163 8.20687V7.99963C125.328 7.99963 125.494 7.87536 125.494 7.66812C125.494 7.50236 125.37 7.3366 125.163 7.3366V7.12936C125.328 7.12936 125.494 7.00489 125.494 6.79764C125.494 6.63188 125.37 6.46613 125.163 6.46613V6.25888C125.328 6.25888 125.494 6.13441 125.494 5.92717C125.494 5.84257 125.462 5.75797 125.402 5.69523C125.345 5.63532 125.264 5.59565 125.163 5.59565V5.38841C125.328 5.38841 125.494 5.26414 125.494 5.05689C125.494 4.89093 125.37 4.72518 125.163 4.72518V4.51793C125.328 4.51793 125.494 4.39366 125.494 4.18642C125.494 4.02066 125.37 3.8547 125.163 3.8547V3.64745C125.328 3.64745 125.494 3.52319 125.494 3.31594C125.494 3.21191 125.445 3.10789 125.357 3.04474C125.305 3.0073 125.239 2.98443 125.163 2.98443V2.77718C125.328 2.77718 125.494 2.65271 125.494 2.44547C125.494 2.27971 125.37 2.11395 125.163 2.11395V1.86522C125.163 1.65797 124.997 1.49221 124.789 1.49221H123.588C123.417 1.49221 123.274 1.60494 123.229 1.76058C123.22 1.79377 123.214 1.82879 123.214 1.86522V2.11395C123.048 2.11395 122.883 2.23822 122.883 2.44547C122.883 2.61122 123.007 2.77718 123.214 2.77718V2.98443C123.048 2.98443 122.883 3.1087 122.883 3.31594C122.883 3.4817 123.007 3.64745 123.214 3.64745V3.8547C123.048 3.8547 122.883 3.97917 122.883 4.18642C122.883 4.30947 122.951 4.43252 123.071 4.48777C123.113 4.507 123.161 4.51793 123.214 4.51793V4.72518C123.048 4.72518 122.883 4.84965 122.883 5.05689C122.883 5.22265 123.007 5.38841 123.214 5.38841V5.59565C123.048 5.59565 122.883 5.71992 122.883 5.92717C122.883 6.01784 122.92 6.10851 122.988 6.17206C123.044 6.22488 123.12 6.25888 123.214 6.25888V6.46613C123.048 6.46613 122.883 6.59039 122.883 6.79764C122.883 6.9634 123.007 7.12936 123.214 7.12936V7.3366C123.048 7.3366 122.883 7.46087 122.883 7.66812C122.883 7.83387 123.007 7.99963 123.214 7.99963V8.20687C123.048 8.20687 122.883 8.33134 122.883 8.53859C122.883 8.62724 122.918 8.71588 122.983 8.77923C123.04 8.83428 123.118 8.8701 123.214 8.8701V9.07735C123.048 9.07735 122.883 9.20182 122.883 9.40907C122.883 9.57482 123.007 9.74058 123.214 9.74058V9.94783C123.048 9.94783 122.883 10.0721 122.883 10.2793C122.883 10.4453 123.007 10.6111 123.214 10.6111V10.8183C123.048 10.8183 122.883 10.9426 122.883 11.1498C122.883 11.3156 123.007 11.4815 123.214 11.4815V11.6888C123.048 11.6888 122.883 11.813 122.883 12.0203C122.883 12.186 123.007 12.3518 123.214 12.3518V12.559C123.048 12.559 122.883 12.6835 122.883 12.8908C122.883 13.0565 123.007 13.2223 123.214 13.2223V15.958H122.717V14.9217C122.759 14.9217 122.8 14.8802 122.8 14.8388V14.4243C122.8 14.383 122.759 14.3415 122.717 14.3415H121.971V13.554C121.888 13.3053 121.681 13.1395 121.432 13.1395H120.976C120.727 13.1395 120.479 13.3053 120.437 13.554V14.3415H119.732C119.691 14.3415 119.65 14.383 119.65 14.4243V14.7975L119.277 15.2947C118.862 14.8802 118.199 14.673 117.577 14.8802C117.453 14.9217 117.37 14.9632 117.246 15.046L117.204 14.7975V14.5072L117.163 14.3V14.0513L117.121 13.844V13.7612L117.038 13.3467V13.2638L116.209 8.99457C115.505 5.47139 110.075 5.4299 110.531 9.98932C110.602 10.7197 110.673 11.2225 110.744 11.688C110.797 12.0411 110.85 12.3729 110.904 12.7663L110.365 12.9735L108.21 13.8855L106.22 14.756L105.847 14.4658L51.6314 38.2576L33.3524 46.0502L33.3107 44.0192V43.8947C33.3107 43.8532 33.2695 43.8532 33.2695 43.8532H33.2282C33.1865 43.8532 33.1865 43.8947 33.1865 43.8947V44.0192L33.1452 46.0917L30.1608 47.3764L29.7876 47.7082L28.9586 48.0397V47.9569C29.0003 47.7909 29.0003 47.6252 29.0003 47.5009C29.0415 47.5009 29.0415 47.4594 29.0415 47.4594V47.2107C29.0415 47.1692 29.0003 47.1692 29.0003 47.1692H28.876L28.8343 45.9257C28.8343 45.4284 28.4615 45.0554 27.964 45.0554C27.4666 45.0554 27.135 45.4284 27.0934 45.9257L27.0521 47.1692H26.9278C26.8861 47.1692 26.8861 47.2107 26.8861 47.2107V47.4594C26.8861 47.5009 26.9278 47.5009 26.9278 47.5009C26.9278 47.5418 26.9323 47.5871 26.9383 47.6353C26.9505 47.7341 26.9691 47.8454 26.9691 47.9569C26.9691 47.9721 26.9747 47.9927 26.982 48.0188C26.9942 48.0644 27.0108 48.1267 27.0108 48.2054V48.0812H28.3785L27.7568 48.3714H27.0108V48.2054H26.8035C26.8035 48.2054 26.7618 48.2054 26.7618 48.2469V48.5786H26.7206C26.5963 48.5786 26.5133 48.6614 26.5133 48.7859H26.3473C26.2644 48.7859 26.2231 48.8272 26.2231 48.9101H26.1818C26.1401 48.9101 26.0988 48.9931 26.0988 49.0344L26.1401 49.2004L14.4513 54.2985L7.65388 60.5989L7.73686 60.8889H7.69518C7.69518 60.8889 7.69518 60.8784 7.68991 60.8681C7.68465 60.8578 7.67453 60.8475 7.65388 60.8475H7.57091C7.52962 60.8062 7.44664 60.7647 7.36366 60.7647C7.28069 60.7647 7.19769 60.8062 7.15642 60.8475H7.07343C7.07343 60.8475 7.06291 60.8475 7.05238 60.8527C7.04227 60.858 7.03215 60.8683 7.03215 60.8889L6.74191 60.9719C6.69618 60.9719 6.66298 60.9847 6.64275 61.01C6.62614 61.0304 6.61765 61.0592 6.61765 61.0962V61.4279C6.61765 61.5107 6.65894 61.5522 6.74191 61.5522H6.7832V62.2154H6.49338C6.48003 62.2154 6.46707 62.2156 6.45372 62.216L6.94916 87.6237H6.4104L5.91698 62.3733C5.59114 62.568 5.37418 62.9242 5.37418 63.3344L5.58142 71.956L5.37418 71.9975C5.2912 71.9975 5.24991 72.0388 5.24991 72.1217V72.4947C5.24991 72.5777 5.2912 72.6192 5.37418 72.6192L5.58142 72.5777V72.8265L5.37418 72.8677C5.2912 72.8677 5.24991 72.9092 5.24991 72.9922V73.3652C5.24991 73.4482 5.2912 73.4895 5.37418 73.4895L5.58142 73.4482V73.6967L5.37418 73.7382C5.2912 73.7382 5.24991 73.7797 5.24991 73.8627V74.2357C5.24991 74.2727 5.25841 74.3015 5.27501 74.3221C5.29524 74.3474 5.32843 74.36 5.37418 74.36L5.58142 74.3185V74.5672L5.37418 74.6087C5.2912 74.6087 5.24991 74.6502 5.24991 74.733V75.1062C5.24991 75.1889 5.2912 75.2304 5.37418 75.2304L5.58142 75.1889V75.4377L5.37418 75.4792C5.2912 75.4792 5.24991 75.5207 5.24991 75.6034V75.9764C5.24991 76.0594 5.2912 76.1009 5.37418 76.1009L5.58142 76.0594V76.3082L5.37418 76.3496C5.2912 76.3496 5.24991 76.3909 5.24991 76.4739V76.8469C5.24991 76.9299 5.2912 76.9714 5.37418 76.9714L5.62271 76.9299V77.1786L5.37418 77.2199C5.2912 77.2199 5.24991 77.2614 5.24991 77.3444V77.7174C5.24991 77.8004 5.2912 77.8417 5.37418 77.8417L5.62271 77.8004V78.0489L5.37418 78.0904C5.32115 78.0904 5.28513 78.1074 5.2661 78.141C5.25517 78.1602 5.24991 78.1847 5.24991 78.2149V78.5879C5.24991 78.6706 5.2912 78.7121 5.37418 78.7121L5.62271 78.6706V78.9194L5.37418 78.9609C5.2912 78.9609 5.24991 79.0024 5.24991 79.0851V79.4583C5.24991 79.5411 5.2912 79.5826 5.37418 79.5826L5.62271 79.5411V79.7898L5.37418 79.8313C5.32762 79.8313 5.29443 79.8443 5.2742 79.8704C5.258 79.8908 5.24991 79.9192 5.24991 79.9556V80.3286C5.24991 80.4116 5.41547 80.4531 5.62271 80.4116L5.74698 86.173L0.400253 87.1677C0.276001 87.2092 0.151321 87.3337 0.193008 87.4995C0.222153 87.5871 0.292191 87.6747 0.389328 87.7045C0.430222 87.7168 0.475555 87.719 0.524521 87.7067L1.06329 87.6237C1.06329 87.6652 1.10498 87.6652 1.10498 87.6652L1.14909 87.6504C1.14627 87.6585 1.14627 87.6652 1.14627 87.6652C1.14627 87.7067 1.18756 87.7067 1.18756 87.7067H1.22925L1.43649 88.7429H1.39481C1.35352 88.7429 1.35352 88.7844 1.35352 88.7844C1.35352 88.8257 1.39481 88.8257 1.39481 88.8257H1.43649L1.31223 88.8672L1.27054 88.9087L0.731781 88.9917C0.658112 89.0162 0.584442 89.07 0.545166 89.1441C0.518051 89.1951 0.507523 89.2558 0.524521 89.3232C0.565811 89.4889 0.690491 89.6134 0.856033 89.5719L3.38469 89.1159V90.5252C3.38469 90.5667 3.38469 90.6081 3.42598 90.6496L4.00642 90.9812L6.16147 92.2661H7.9854V92.1831H8.3586V92.5149C8.3586 92.6806 8.52415 92.8464 8.69011 92.8464H8.81438C8.81438 93.2194 8.89735 93.5924 8.93864 93.9241L8.81438 93.9656C8.60713 94.0069 8.52415 94.2141 8.56584 94.3801L9.22888 96.7011C9.27016 96.9083 9.4774 96.9913 9.64337 96.9498L9.76764 96.9083C9.89191 97.24 10.0166 97.5715 10.1821 97.9033L10.0579 97.986C9.89191 98.069 9.85062 98.2763 9.93359 98.442L10.3894 99.188L10.6796 99.727L11.1354 100.473C11.2184 100.639 11.4256 100.68 11.5916 100.597L11.7158 100.514C11.9231 100.805 12.1716 101.053 12.3789 101.343L12.2546 101.426C12.1303 101.551 12.1303 101.758 12.2546 101.882L13.9126 103.54C14.0368 103.665 14.2441 103.665 14.3687 103.54L14.4513 103.416C14.6994 103.664 14.9881 103.87 15.2767 104.077L15.2803 104.079L15.1977 104.203C15.1147 104.369 15.156 104.576 15.322 104.659L16.068 105.115L16.6068 105.405L17.3528 105.861C17.4669 105.918 17.6005 105.917 17.6997 105.856C17.745 105.829 17.7831 105.789 17.809 105.737L17.8919 105.613C18.2234 105.779 18.555 105.903 18.8865 106.027L18.8452 106.152C18.8278 106.221 18.8395 106.299 18.8715 106.368C18.9156 106.462 18.9978 106.542 19.0937 106.566L21.4151 107.229C21.5807 107.271 21.7879 107.146 21.8296 106.981L21.8709 106.856C22.0583 106.877 22.2352 106.898 22.4125 106.919C22.5878 106.939 22.763 106.96 22.9484 106.981V107.105C22.9484 107.271 23.1144 107.437 23.2803 107.437H25.6426C25.8086 107.437 25.9745 107.271 25.9745 107.105V106.981C26.3473 106.981 26.7206 106.898 27.0521 106.856L27.0934 106.981C27.135 107.188 27.3423 107.271 27.5078 107.229L29.8292 106.566C30.0365 106.525 30.1195 106.317 30.0778 106.152L30.0365 106.027C30.368 105.903 30.6995 105.779 31.031 105.613L31.114 105.737C31.197 105.903 31.4042 105.944 31.5702 105.861L32.3162 105.405L32.855 105.115L33.601 104.659C33.7669 104.576 33.8082 104.369 33.7252 104.203L33.6427 104.079C33.9325 103.872 34.1814 103.623 34.4716 103.416L34.5542 103.54C34.6789 103.665 34.8861 103.665 35.0104 103.54L36.6684 101.882C36.7445 101.806 36.774 101.699 36.757 101.598C36.7461 101.535 36.7165 101.475 36.6684 101.426L36.5441 101.343C36.7926 101.095 36.9999 100.805 37.2071 100.514L37.3314 100.597C37.4974 100.68 37.7046 100.639 37.7876 100.473L38.2434 99.727L38.5336 99.188L38.9894 98.442C39.0724 98.2763 39.0311 98.069 38.8651 97.986L38.7408 97.9033C38.9064 97.5715 39.0311 97.24 39.1553 96.9083L39.2796 96.9498C39.4456 96.9913 39.6528 96.867 39.6941 96.7011L40.3571 94.3801C40.381 94.285 40.3502 94.1761 40.2883 94.0929C40.2426 94.031 40.1794 93.9832 40.1086 93.9656L39.9843 93.9241C40.005 93.7377 40.0256 93.5614 40.0462 93.3851C40.0673 93.2091 40.0879 93.033 40.1086 92.8464H40.2328C40.3988 92.8464 40.5644 92.6806 40.5644 92.5149V92.1831H42.6368V94.7531C42.6368 95.4576 42.927 96.1208 43.3832 96.5768C43.839 97.0328 44.502 97.3228 45.2068 97.3228H73.8484C74.5528 97.3228 75.2162 97.0328 75.672 96.5768C76.1282 96.1208 76.418 95.4576 76.418 94.7531V92.1831H78.9879V92.5149C78.9879 92.6806 79.1539 92.8464 79.3194 92.8464H79.4441C79.4441 93.1097 79.4854 93.373 79.5243 93.6217C79.5404 93.7253 79.5562 93.8265 79.5684 93.9241L79.4441 93.9656C79.2369 94.0069 79.1539 94.2141 79.1952 94.3801L79.8586 96.7011C79.8999 96.9083 80.1071 96.9913 80.2731 96.9498L80.3974 96.9083C80.5216 97.24 80.6459 97.5715 80.8119 97.9033L80.6876 97.986C80.5216 98.069 80.4803 98.2763 80.5629 98.442L81.0191 99.188L81.3093 99.727L81.7651 100.473C81.8481 100.639 82.0553 100.68 82.2209 100.597L82.3456 100.514C82.5528 100.763 82.8013 101.053 83.0086 101.343L82.9256 101.426C82.8013 101.551 82.8013 101.758 82.9256 101.882L84.5836 103.54C84.7078 103.665 84.9151 103.665 85.0398 103.54L85.1223 103.416C85.3713 103.665 85.6615 103.872 85.9513 104.079L85.8687 104.203C85.7858 104.369 85.827 104.576 85.993 104.659L86.739 105.115L87.2778 105.405L88.0238 105.861C88.1897 105.944 88.397 105.903 88.48 105.737L88.5629 105.613C88.8945 105.779 89.226 105.903 89.5575 106.027L89.5162 106.152C89.4745 106.317 89.5992 106.525 89.7647 106.566L92.0861 107.229C92.2517 107.271 92.4589 107.146 92.5006 106.981L92.5419 106.856C92.9151 106.898 93.2466 106.939 93.6194 106.981V107.105C93.6194 107.271 93.7854 107.437 93.9513 107.437H96.3136C96.4796 107.437 96.6456 107.271 96.6456 107.105V106.981C96.8666 106.981 97.0876 106.951 97.3001 106.919C97.4458 106.897 97.5879 106.873 97.7231 106.856L97.7644 106.981C97.8061 107.188 98.0133 107.271 98.1788 107.229L100.5 106.566C100.707 106.525 100.79 106.317 100.749 106.152L100.707 106.027C101.039 105.903 101.371 105.779 101.702 105.613L101.785 105.737C101.868 105.903 102.075 105.944 102.241 105.861L102.987 105.405L103.526 105.115L104.272 104.659C104.438 104.576 104.479 104.369 104.396 104.203L104.314 104.079C104.562 103.872 104.852 103.623 105.143 103.416L105.225 103.499C105.35 103.623 105.557 103.623 105.681 103.499L107.339 101.841C107.464 101.716 107.464 101.509 107.339 101.385L107.215 101.302C107.369 101.122 107.507 100.943 107.639 100.763C107.72 100.653 107.799 100.542 107.878 100.432L108.002 100.514C108.168 100.597 108.376 100.556 108.459 100.39L108.914 99.644L109.205 99.1053L109.66 98.359C109.743 98.1933 109.702 97.986 109.536 97.9033L109.412 97.8203C109.577 97.4888 109.702 97.1571 109.826 96.8255L109.951 96.867C110.117 96.9083 110.324 96.784 110.365 96.6183L111.028 94.2971C111.07 94.1313 110.946 93.9241 110.78 93.8826L110.655 93.8411C110.697 93.4681 110.738 93.1366 110.78 92.7634H110.904C111.07 92.7634 111.235 92.5976 111.235 92.4319V90.0692C111.235 89.9896 111.197 89.9101 111.139 89.8488C111.076 89.7824 110.99 89.7377 110.904 89.7377H110.78C110.78 89.4758 110.739 89.2139 110.7 88.9666C110.684 88.8615 110.667 88.7589 110.655 88.66L110.78 88.6185C110.987 88.5772 111.07 88.3699 111.028 88.204L110.365 85.883C110.324 85.6757 110.117 85.5928 109.951 85.6342L109.826 85.6757C109.702 85.344 109.577 85.0125 109.412 84.6808L109.536 84.598C109.702 84.515 109.743 84.3078 109.66 84.142L109.205 83.396L108.914 82.8571L108.459 82.111C108.376 81.9453 108.168 81.9038 108.002 81.9866L107.878 82.0696C107.671 81.8208 107.422 81.5308 107.215 81.2406L107.298 81.1576C107.422 81.0333 107.422 80.8261 107.298 80.7018L105.64 79.0438C105.515 78.9194 105.308 78.9194 105.184 79.0438L105.101 79.1681C104.811 78.9194 104.521 78.7121 104.231 78.5049L104.314 78.3806C104.367 78.2742 104.368 78.1505 104.319 78.0538C104.292 77.9999 104.248 77.9544 104.189 77.9246L103.443 77.4687L102.904 77.1786L102.158 76.7226C102.04 76.6635 101.901 76.6676 101.801 76.7344C101.76 76.7615 101.726 76.7989 101.702 76.8469L101.619 76.9714C101.288 76.8054 100.956 76.6812 100.625 76.5569L100.666 76.4324C100.707 76.2667 100.583 76.0594 100.417 76.0179L98.0963 75.3547C97.9303 75.3134 97.7231 75.4377 97.6818 75.6034L97.6401 75.7279C97.4535 75.7073 97.2774 75.6864 97.1013 75.6656C96.9253 75.6449 96.7492 75.6243 96.5626 75.6034V75.4792C96.5626 75.3134 96.3966 75.1475 96.2311 75.1475H94.1586C93.9926 74.7744 93.7854 74.4844 93.5369 74.3185C96.9354 73.8627 100.21 74.1112 103.194 74.9817L103.609 74.2772L103.596 74.2711C103.144 74.0659 102.692 73.8607 102.2 73.6554L102.241 73.4895V73.4482H102.407C102.407 73.4482 102.656 73.4895 102.697 73.1995H102.78C102.987 73.1995 103.153 73.0337 103.153 72.8265C103.153 72.6192 102.987 72.4947 102.821 72.4532V72.412C102.863 72.412 102.863 72.3705 102.863 72.3705V72.2875C102.904 72.2875 102.904 72.246 102.904 72.246V72.1632C102.946 72.1632 102.946 72.1217 102.946 72.1217V72.0388C102.987 72.0388 102.987 71.9975 102.987 71.9975V71.6657C103.028 71.6657 103.028 71.6243 103.028 71.6243V71.5H103.07C103.277 71.5 103.443 71.3342 103.443 71.127C103.443 70.9197 103.319 70.7953 103.153 70.754V70.671C103.153 70.6295 103.111 70.588 103.028 70.5467C103.026 70.5439 103.023 70.5413 103.02 70.5388L103.028 70.5053H102.987C102.957 70.4751 102.905 70.467 102.863 70.4488V70.3395L102.462 70.3136C98.799 70.0766 96.463 69.9256 93.7024 72.246C92.6662 72.329 91.63 72.4947 90.5937 72.7435L90.5876 72.7447C90.2169 72.8273 89.8457 72.91 89.5162 73.0337C84.9151 71.9145 79.1539 70.7953 74.76 70.298H74.7187L74.5115 70.2565C74.2929 70.2347 74.0861 70.2128 73.8845 70.1909L73.4461 70.1428C73.6655 71.0794 73.7655 72.0359 73.7655 72.9922C73.7655 75.8522 72.8952 78.6706 71.776 80.9918C70.6155 83.2715 69.2061 85.0538 68.0868 85.6755C67.797 85.8415 67.5068 85.9243 67.2579 85.9243H44.5854C43.0307 85.9243 42.4045 84.6322 41.7508 83.2835L41.7253 83.2301L41.601 82.94L35.8394 71.3755C35.5662 70.7904 35.4034 70.1687 35.316 69.5447C35.3103 69.5057 35.3055 69.4666 35.3006 69.4275C35.2549 69.0624 35.2346 68.6848 35.2322 68.3083C35.2314 68.1976 35.2322 68.0869 35.2346 67.9768C35.2387 67.7813 35.2472 67.5872 35.2593 67.3966L35.5913 61.59L34.6789 62.1739C34.6372 62.1739 34.6372 62.2154 34.6372 62.2154L25.6426 68.0183C25.0209 67.8938 24.4408 67.7281 23.8191 67.5623V66.2773H24.2336V66.0286C24.2336 65.1996 23.5702 64.5366 22.7412 64.5366H22.3684C21.5394 64.5366 20.876 65.1996 20.876 66.0286V66.2773H21.2905V66.8163C19.7155 66.3188 18.1405 65.7801 16.5655 65.1168L35.8888 56.3821L36.0883 52.8893C36.1296 52.0603 36.4611 51.3556 36.9999 50.8168C37.539 50.2779 38.2434 49.9464 39.0724 49.9049C42.5542 49.6561 45.8289 49.7391 49.1449 50.0706C52.4608 50.4024 55.8593 50.9826 59.5897 51.8116C60.2945 51.9773 60.9992 52.3089 61.6622 52.8478C61.8836 52.9992 62.0953 53.1638 62.2981 53.3378L64.4807 52.1846C64.5637 52.1431 64.6049 52.1431 64.6466 52.0603H65.7242L65.7658 51.8531L65.8071 51.6458L66.2216 49.2831L66.2629 49.0344L66.3046 48.7859H62.118L68.6673 44.5165L68.7086 44.5995C68.7499 44.6822 68.8745 44.6822 68.9571 44.6409L69.2473 44.475L69.4546 44.3092L69.7861 44.102C70.4495 44.3507 71.1955 44.3092 71.8586 43.8947C72.8948 43.1902 73.2267 41.7808 72.522 40.7033C72.3148 40.413 72.1075 40.2058 71.8586 40.04L103.733 25.6156L106.096 26.9835L112.313 24.1648L112.023 23.4603L115.836 21.7609ZM102.738 71.9975L102.697 72.246C102.664 72.2681 102.637 72.2899 102.614 72.3112V72.329L102.78 72.2875H102.697L102.771 71.8821L102.758 71.8947L102.738 71.9975ZM102.78 71.7902L102.789 71.7809L102.78 71.8315V71.7902ZM35.3832 62.9199H34.5959L34.9274 62.6299V62.6714H35.0104L35.176 62.5884L35.3832 62.9199ZM34.5959 63.2101H35.176L32.1089 65.1996H30.9068L34.0155 63.2101C34.0571 63.2931 34.1814 63.3759 34.3057 63.3759C34.4299 63.3759 34.5542 63.3344 34.5959 63.2101ZM30.3267 66.4018H30.368L27.3006 68.3913C26.9691 68.3083 26.6789 68.267 26.3473 68.2255L30.3267 65.6556V66.4018ZM8.02669 61.6764L8.10966 61.9667H7.9854V61.5107L8.02669 61.6764ZM58.885 48.3299L58.0977 48.8687H52.4604L53.6209 48.3299H58.885ZM60.4187 47.3352L59.4655 47.9569V47.9154H54.4916L55.9423 47.2522H55.9836C56.1078 47.2522 56.2738 47.1692 56.3568 47.0449H56.6053C56.6502 47.1123 56.7077 47.1676 56.7769 47.204C56.8352 47.2348 56.9024 47.2522 56.9785 47.2522C57.1028 47.2522 57.2687 47.1692 57.3513 47.0449H57.6415C57.7245 47.1279 57.8488 47.2107 58.0147 47.2107C58.1803 47.2107 58.305 47.1692 58.3876 47.0449H59.134C59.6727 47.0449 60.0872 47.1692 60.4187 47.3352ZM67.5064 42.7342L60.9575 47.0034C60.543 46.7134 59.9629 46.5062 59.134 46.4647H58.3876C58.305 46.3817 58.222 46.3402 58.0977 46.2989L68.3354 41.6565V41.8638L68.0039 42.071L67.7966 42.2368L67.5064 42.4025C67.4238 42.4855 67.4238 42.5685 67.4651 42.6513L67.5064 42.7342ZM2.47272 88.2455V88.1627H2.43103L2.34846 87.6652L2.38974 87.7067L2.47272 87.7895L2.55571 87.7067C2.70709 87.8077 2.81233 87.9087 2.89977 88.0004C2.95563 88.0593 3.0042 88.1141 3.05276 88.1627L2.63828 88.2455H2.47272ZM111.857 7.95834H114.593C114.717 7.95834 114.842 8.08261 114.842 8.24836V9.11884H111.567V8.24836C111.567 8.08261 111.692 7.95834 111.857 7.95834ZM104.065 88.7429C104.687 91.0226 104.438 93.5509 103.153 95.7893C101.868 98.0275 99.7955 99.5197 97.5158 100.141C95.2361 100.763 92.7079 100.514 90.4695 99.2295C88.2314 97.9445 86.739 95.8721 86.1173 93.5924C85.4955 91.3127 85.7445 88.7842 87.0292 86.546C88.3144 84.3078 90.3869 82.8156 92.6666 82.1938C94.9463 81.5721 97.4745 81.8208 99.713 83.1058C101.951 84.3908 103.443 86.4632 104.065 88.7429ZM7.52962 76.6812L7.57091 76.6397H11.6333C11.6539 76.6397 11.664 76.6397 11.6693 76.6447C11.6745 76.65 11.6745 76.6603 11.6745 76.6812V77.0127C13.9543 74.9402 16.7314 73.4067 19.9231 72.619C24.5238 71.5 29.1245 72.1632 33.0209 74.1112L32.6064 74.8159C28.876 73.7382 24.6898 73.6139 20.4202 74.6502C17.1042 75.4377 14.1202 76.8884 11.6745 78.7536V79.8726L11.6333 79.9141H10.2651C10.0579 80.0799 9.85062 80.2871 9.68506 80.4531L8.98035 80.0386L9.06332 79.9141H7.57091C7.52962 79.9141 7.52962 79.9141 7.52962 79.8726V76.6812ZM13.1665 67.8938L13.2083 67.8523H17.2289C17.256 67.8523 17.2653 67.8523 17.2686 67.8643C17.2702 67.8704 17.2702 67.8797 17.2702 67.8938V71.0855L17.2289 71.127H13.2083C13.1832 71.127 13.173 71.127 13.169 71.1179C13.1665 71.1118 13.1665 71.1019 13.1665 71.0855V67.8938ZM51.0926 87.9552H67.6311C68.7086 87.9552 69.5793 88.7014 69.5793 89.6547V91.2299H49.1449V89.6132C49.1449 88.7014 50.0151 87.9552 51.0926 87.9552ZM51.0926 93.2609H67.6311C68.7086 93.2609 69.5793 93.9654 69.5793 94.9188V96.5353H49.1449V94.9188C49.1449 94.0069 50.0151 93.2609 51.0926 93.2609ZM102.573 70.5465L102.117 73.075V73.1165H101.536C101.454 73.1165 101.371 73.0335 101.371 72.9507V70.7125C101.371 70.6295 101.454 70.5465 101.536 70.5465H102.573ZM17.809 84.598C19.5086 82.8985 21.8296 81.8623 24.3996 81.8623C26.9695 81.8623 29.2905 82.8985 30.9897 84.598C32.6894 86.2973 33.7256 88.6185 33.7256 91.1884C33.7256 93.7581 32.6894 96.0793 30.9897 97.7788C29.2905 99.4783 26.9695 100.514 24.3996 100.514C21.8296 100.514 19.5086 99.4783 17.809 97.7788C16.1097 96.0793 15.0735 93.7581 15.0735 91.1884C15.0735 88.6185 16.1097 86.2973 17.809 84.598ZM118.489 17.4502C118.945 17.2842 119.194 16.8284 119.069 16.3725C118.945 15.9165 118.489 15.6677 117.992 15.7922C117.536 15.958 117.287 16.414 117.411 16.8697C117.577 17.3257 118.033 17.5745 118.489 17.4502ZM123.712 23.1286C123.836 23.1286 123.919 23.0458 123.919 22.9214C123.919 22.8386 123.836 22.7556 123.712 22.7141C123.588 22.7141 123.505 22.8386 123.505 22.9214C123.505 23.0458 123.629 23.1286 123.712 23.1286ZM123.712 22.3411C123.836 22.3411 123.919 22.2169 123.919 22.1339C123.919 22.0096 123.836 21.9266 123.712 21.9266C123.588 21.9266 123.505 22.0509 123.505 22.1339C123.505 22.2581 123.629 22.3411 123.712 22.3411ZM124.997 22.3411C125.121 22.3411 125.204 22.2169 125.204 22.1339C125.204 22.0096 125.121 21.9266 124.997 21.9266C124.872 21.9266 124.79 22.0509 124.79 22.1339C124.79 22.2581 124.914 22.3411 124.997 22.3411ZM122.468 20.7661C122.593 20.7661 122.676 20.8489 122.676 20.9734C122.676 21.0976 122.551 21.1806 122.468 21.1806C122.344 21.1806 122.261 21.0976 122.261 20.9734C122.261 20.8489 122.344 20.7661 122.468 20.7661ZM122.468 20.1029C122.593 20.1029 122.676 20.1857 122.676 20.3101C122.676 20.4079 122.599 20.4799 122.526 20.5063C122.506 20.5135 122.486 20.5174 122.468 20.5174C122.387 20.5174 122.323 20.4814 122.289 20.4215C122.271 20.3903 122.261 20.3526 122.261 20.3101C122.261 20.1857 122.344 20.1029 122.468 20.1029ZM122.468 19.4812C122.593 19.4812 122.676 19.5639 122.676 19.6884C122.676 19.8127 122.593 19.8957 122.468 19.8957C122.344 19.8957 122.261 19.8127 122.261 19.6884C122.261 19.589 122.314 19.5164 122.398 19.4911C122.42 19.4846 122.443 19.4812 122.468 19.4812ZM122.468 18.8179C122.593 18.8179 122.676 18.9009 122.676 19.0252C122.676 19.0984 122.647 19.1719 122.597 19.2112C122.563 19.2385 122.519 19.2494 122.468 19.2324C122.344 19.2324 122.261 19.1494 122.261 19.0252C122.261 18.9009 122.344 18.8179 122.468 18.8179ZM122.665 18.3306C122.672 18.3526 122.676 18.3771 122.676 18.4034C122.676 18.5277 122.593 18.6107 122.468 18.6107C122.344 18.6107 122.261 18.5277 122.261 18.4034C122.261 18.319 122.299 18.2537 122.363 18.2205C122.393 18.2047 122.429 18.1962 122.468 18.1962C122.566 18.1962 122.639 18.2478 122.665 18.3306ZM122.468 17.533C122.593 17.533 122.676 17.6159 122.676 17.7402C122.676 17.8647 122.593 17.9889 122.468 17.9475C122.344 17.9475 122.261 17.8647 122.261 17.7402C122.261 17.6159 122.344 17.533 122.468 17.533ZM122.468 21.3879C122.593 21.3879 122.676 21.4706 122.676 21.5951C122.676 21.7194 122.551 21.8024 122.468 21.8024C122.344 21.8024 122.261 21.7194 122.261 21.5951C122.261 21.4706 122.344 21.3879 122.468 21.3879ZM118.199 22.0096C118.323 22.0096 118.406 22.0924 118.406 22.2169C118.406 22.3411 118.323 22.4241 118.199 22.4241C118.075 22.4241 117.992 22.3411 117.992 22.2169C117.992 22.0924 118.075 22.0096 118.199 22.0096ZM118.397 21.4512C118.429 21.487 118.448 21.5364 118.448 21.5951C118.448 21.6558 118.418 21.7066 118.378 21.7427C118.336 21.7805 118.283 21.8024 118.24 21.8024C118.116 21.8024 118.033 21.7194 118.033 21.5951C118.033 21.4706 118.116 21.3879 118.24 21.3879C118.306 21.3879 118.361 21.4109 118.397 21.4512ZM118.408 20.8007C118.434 20.8351 118.448 20.8799 118.448 20.9319C118.448 21.0562 118.323 21.1391 118.24 21.1391C118.116 21.1391 118.033 21.0562 118.033 20.9319C118.033 20.8074 118.116 20.7246 118.24 20.7246C118.313 20.7246 118.371 20.7528 118.408 20.8007ZM118.405 20.1762C118.432 20.211 118.448 20.2567 118.448 20.3101C118.448 20.4344 118.323 20.5174 118.24 20.5174C118.116 20.5174 118.033 20.4344 118.033 20.3101C118.033 20.1857 118.116 20.1029 118.24 20.1029C118.312 20.1029 118.369 20.1298 118.405 20.1762ZM118.24 19.4397C118.365 19.4397 118.448 19.5226 118.448 19.6469C118.448 19.7712 118.323 19.8957 118.24 19.8542C118.116 19.8542 118.033 19.7712 118.033 19.6469C118.033 19.5226 118.116 19.4397 118.24 19.4397ZM118.24 18.8179C118.365 18.8179 118.448 18.9009 118.448 19.0252C118.448 19.1494 118.323 19.2324 118.24 19.2324C118.116 19.2324 118.033 19.1494 118.033 19.0252C118.033 18.9748 118.047 18.9313 118.071 18.8973C118.107 18.8473 118.166 18.8179 118.24 18.8179ZM118.199 22.6313C118.323 22.6313 118.406 22.7141 118.406 22.8386C118.406 22.9629 118.323 23.0871 118.199 23.0458C118.075 23.0458 117.992 22.9629 117.992 22.8386C117.992 22.7141 118.075 22.6313 118.199 22.6313ZM78.5738 77.8002C79.4441 77.8002 80.1488 77.4687 80.1488 77.0956C80.1488 76.7226 79.4441 76.4324 78.5738 76.3909C77.7032 76.3909 76.9984 76.7226 76.9984 77.0956C76.9984 77.5101 77.7032 77.8002 78.5738 77.8002ZM76.3354 75.6034H74.9677V75.5205H76.3354V75.6034ZM76.3354 74.4842H74.9677V74.4014H76.3354V74.4842ZM76.3354 74.6915H74.9677V74.6087H76.3354V74.6915ZM76.3354 74.9402H74.9677V74.8574H76.3354V74.9402ZM76.3354 75.1475H74.9677V75.0647H76.3354V75.1475ZM76.3354 75.3962H74.9677V75.3132H76.3354V75.3962Z" fill="#003771"/>
<path d="M63.2303 54.2571H64.2321C64.2483 54.2081 64.2775 54.1721 64.3143 54.1461C64.3714 54.1065 64.4467 54.0913 64.5224 54.0913C64.7296 54.0913 64.8539 54.2571 64.8539 54.4228C64.8539 54.5888 64.6879 54.7545 64.5224 54.7545C64.3977 54.7545 64.2734 54.6716 64.2321 54.5888H63.5201C63.4258 54.4777 63.3291 54.3668 63.2303 54.2571Z" fill="#003771"/>
<path d="M68.879 61.7179H70.035C70.0763 61.5937 70.2006 61.5522 70.3253 61.5522C70.5325 61.5522 70.6568 61.7179 70.6568 61.8837C70.6568 61.9414 70.6438 61.9928 70.6216 62.0367C70.5645 62.1506 70.4447 62.2154 70.3253 62.2154C70.2006 62.2154 70.0763 62.1324 70.035 62.0496H69.1057C69.0304 61.9387 68.9547 61.8282 68.879 61.7179Z" fill="#003771"/>
<path d="M73.1749 69.1788H74.1383C74.18 69.0545 74.3042 69.013 74.4285 69.013C74.6357 69.013 74.76 69.1788 74.76 69.3446C74.76 69.5105 74.5945 69.6763 74.4285 69.6763C74.3042 69.6763 74.18 69.5933 74.1383 69.5105H73.2789C73.2461 69.3996 73.2113 69.2891 73.1749 69.1788Z" fill="#003771"/>
<path d="M35.8066 57.8217L35.7876 58.1532H35.0517C35.0104 58.2777 34.8861 58.3192 34.7615 58.3192C34.5959 58.3192 34.4299 58.1532 34.4299 57.9875C34.4299 57.7802 34.5959 57.656 34.7615 57.656C34.8444 57.6145 34.9274 57.6975 35.0104 57.8217H35.8066Z" fill="#003771"/>
<path fill-rule="evenodd" clip-rule="evenodd" d="M59.5897 51.9359C55.8593 51.1484 52.4608 50.5266 49.1449 50.1951C45.8289 49.8634 42.5542 49.7806 39.1553 50.0292C38.368 50.0706 37.6633 50.4024 37.1658 50.8996C36.6684 51.3971 36.3369 52.0603 36.2956 52.8478L35.4666 67.3551C35.4249 68.0183 35.4249 68.6813 35.5079 69.3446C35.5285 69.5089 35.554 69.6732 35.5852 69.8364C35.6803 70.3314 35.8285 70.8149 36.0466 71.2513L41.7253 82.8985C41.7512 83.0028 41.7775 83.0578 41.8034 83.1048C41.8188 83.1327 41.8342 83.1578 41.8495 83.1886C42.4713 84.515 43.093 85.8 44.5437 85.8H67.2166C67.3404 85.8 67.4647 85.7794 67.5938 85.7383C67.7234 85.6968 67.8585 85.6344 68.0043 85.5513C69.0818 84.9295 70.4912 83.1886 71.61 80.9089C72.7292 78.5879 73.5999 75.7692 73.5999 72.9507C73.5999 71.044 73.2267 69.0958 72.2318 67.3551C70.864 64.9509 69.4963 62.8371 68.0868 60.806C66.6778 58.775 65.1854 56.827 63.5691 54.8373C63.0304 54.1328 62.3256 53.4281 61.5796 52.8893C60.9579 52.4333 60.2945 52.1016 59.5897 51.9359ZM44.5024 75.2304V76.5154L41.0622 76.1422C40.9084 76.1167 40.8024 76.028 40.7238 75.9151C40.6753 75.8451 40.6376 75.7657 40.606 75.6864L38.1191 70.2565C38.0361 70.0078 38.3263 69.8005 38.5753 69.8005L42.5955 70.0078L42.8445 73.0335H44.2122V73.531H44.5024V73.6967H44.2122C44.1507 73.6967 44.0993 73.707 44.0629 73.7275C44.026 73.7481 44.005 73.7793 44.005 73.8212C44.005 73.8625 44.005 73.8625 44.0463 73.904C44.088 73.9455 44.088 73.9455 44.1292 73.9455H44.088C44.0673 73.9455 44.0471 73.9556 44.0313 73.9708C44.0155 73.9863 44.005 74.0074 44.005 74.0284C44.005 74.0697 44.005 74.0697 44.0463 74.1112C44.0463 74.1319 44.0463 74.1422 44.0511 74.1474C44.0564 74.1527 44.0669 74.1527 44.088 74.1527H44.0463C44.005 74.1527 43.9637 74.1942 43.9637 74.2357C43.9637 74.2575 43.9637 74.2679 43.9698 74.279C43.9754 74.2887 43.9855 74.299 44.005 74.3185C44.005 74.36 44.0463 74.36 44.0463 74.36C44.0463 74.4014 44.005 74.4014 44.005 74.4014C44.005 74.4014 43.9637 74.4429 43.9637 74.4842C43.9637 74.5257 43.9637 74.5257 44.005 74.5672C44.005 74.5953 44.005 74.6044 44.0179 74.6073C44.024 74.6087 44.0329 74.6087 44.0463 74.6087C44.0463 74.6502 44.005 74.6502 44.005 74.6502C43.9637 74.6502 43.922 74.6915 43.922 74.733C43.922 74.7532 43.922 74.7635 43.9268 74.7736C43.9317 74.7844 43.9422 74.7947 43.9637 74.8159C43.9637 74.8574 44.005 74.8574 44.005 74.8574C44.005 74.8987 43.9637 74.8987 43.9637 74.8987C43.9637 74.8987 43.9475 74.9147 43.9353 74.9366C43.9281 74.9501 43.922 74.9659 43.922 74.9817V75.0232C43.9637 75.0232 43.9637 75.0647 43.9637 75.0647V75.106C43.9637 75.1889 44.0463 75.2304 44.1709 75.2304H44.5024ZM42.181 68.8058V68.8473L37.4561 68.5985C37.4144 68.1841 37.4144 67.7696 37.4561 67.3551C37.7046 63.0857 37.9535 58.775 38.2021 54.4643C38.2851 53.0551 39.4043 51.9773 40.8133 51.8944C43.7564 51.6871 46.5332 51.7701 49.3521 52.0188V69.2618L45.6629 69.0958L44.9999 63.9561C44.9582 63.6246 44.668 63.3759 44.3365 63.4174L43.01 63.5417L43.1347 64.9096L42.9275 64.9509L42.8445 64.1634C42.8445 63.9561 42.6785 63.8319 42.4713 63.8319C42.3587 63.8319 42.2705 63.8809 42.2134 63.9588C42.1657 64.0241 42.1398 64.1102 42.1398 64.2049L42.2227 64.9924H42.1398V64.8681H42.0568V64.7436C41.8912 64.7436 41.7666 64.9096 41.7666 65.0754L41.8082 65.4899C41.8082 65.5892 41.8678 65.6736 41.9511 65.7252C42.007 65.7598 42.0734 65.7799 42.1398 65.7799V65.6556H42.2227V65.5313H42.3057L42.6372 68.7228H42.5542V68.5985H42.4713V68.4741C42.3057 68.4741 42.181 68.64 42.181 68.8058ZM47.7354 70.5465C47.5695 70.4223 47.3209 70.298 47.1137 70.215L48.7304 70.298C48.9789 70.3393 49.1861 70.5053 49.1861 70.7538V71.5415H48.5644C48.4814 71.2098 48.2329 70.9197 47.9014 70.671C47.8597 70.6295 47.7767 70.588 47.7354 70.5465ZM56.564 71.417L50.6369 71.5L50.7198 70.7953C50.7198 70.617 50.8263 70.4599 50.9785 70.3852C51.0384 70.3559 51.1052 70.3393 51.1756 70.3393L64.2738 71.0025L65.0198 72.2045C64.964 72.2324 64.9458 72.2794 64.9526 72.3324C64.9559 72.3579 64.9648 72.3848 64.9781 72.4118L65.8071 73.7797L63.1959 78.0489C63.1712 78.0904 63.1481 78.1351 63.1251 78.1798C63.032 78.359 62.9389 78.5381 62.7401 78.5049L55.0303 77.6344L56.481 75.2304H56.9785C57.1028 75.2304 57.1858 75.1889 57.1858 75.106V75.0647C57.2275 75.0647 57.2275 75.0232 57.2275 75.0232V74.9817C57.2275 74.9649 57.2275 74.9548 57.2246 74.9461C57.2206 74.9333 57.2105 74.9234 57.1858 74.8987C57.1858 74.8574 57.1445 74.8574 57.1445 74.8574L57.1858 74.8159C57.2052 74.7963 57.2157 74.786 57.2214 74.7763C57.2275 74.7651 57.2275 74.7548 57.2275 74.733C57.2275 74.6915 57.1858 74.6915 57.1445 74.6502C57.1445 74.6087 57.1028 74.6087 57.1028 74.6087L57.1445 74.5672C57.1445 74.5672 57.1858 74.5257 57.1858 74.4842C57.1858 74.4597 57.1858 74.4498 57.1773 74.4369C57.1712 74.4282 57.1611 74.4182 57.1445 74.4014C57.1445 74.36 57.1028 74.36 57.1028 74.36L57.1445 74.3185C57.1684 74.2946 57.1785 74.2845 57.1825 74.2723C57.1858 74.2634 57.1858 74.2533 57.1858 74.2357C57.1858 74.21 57.17 74.2003 57.1481 74.1867C57.1344 74.1782 57.1186 74.1685 57.1028 74.1527H57.0615L57.1028 74.1112C57.1267 74.0873 57.1368 74.0772 57.1412 74.0649C57.1445 74.056 57.1445 74.0458 57.1445 74.0284C57.1445 73.987 57.1028 73.987 57.0615 73.9455H57.0202C57.0615 73.9455 57.1028 73.904 57.1028 73.904C57.125 73.904 57.1352 73.8922 57.14 73.8752C57.1445 73.8601 57.1445 73.8406 57.1445 73.8212C57.1445 73.77 57.1129 73.7346 57.0591 73.7149C57.0259 73.7028 56.9846 73.6967 56.9372 73.6967H56.6057V73.531H56.8955C57.0202 73.531 57.1445 73.448 57.1858 73.3237V72.0388C57.1858 71.7072 56.8955 71.417 56.564 71.417ZM61.9941 68.2255L62.9057 69.7176L59.3825 69.6348L59.3412 69.5518L60.5017 69.0545L61.9524 68.1011L61.9941 68.1841L62.2427 68.0183L62.2839 68.0596L61.9941 68.2255ZM59.134 69.469L58.8024 69.5518L50.7198 69.1788V52.1431C53.4553 52.4748 56.1912 52.9721 59.2169 53.6353C60.5847 53.9255 61.8695 55.086 62.7814 56.2053C65.4756 59.4797 67.714 62.5469 69.9521 66.3603L70.0767 69.7176L69.9108 69.9663L65.2271 69.759L64.6883 68.9301L64.9781 68.7643L63.9419 67.1063L63.6521 67.2721L63.6104 67.2306L63.8593 67.0648L63.7347 66.8576L63.4861 67.0234V66.9821L63.7347 66.8161L63.6934 66.7748L65.0198 65.9871L65.9731 65.1581L66.0144 65.1996L66.1803 65.0754L66.4706 64.8681L66.4289 64.8266H66.4706L66.5118 64.8681L66.5535 64.8266C66.5948 64.7851 66.5948 64.7024 66.5535 64.6609L66.4706 64.5779C66.4289 64.5364 66.3463 64.5364 66.3046 64.5779L66.2633 64.6194L66.3046 64.6609H66.2633L66.2216 64.6194L65.9731 64.8681L65.8071 65.0339L65.8488 65.0754L64.8539 65.9458L63.5691 66.7333L63.4861 66.6089L63.2376 66.7748L63.1959 66.7333L63.4448 66.5676L63.4032 66.4846L65.4756 65.1996C65.5999 65.1168 65.6416 64.9509 65.5586 64.7851C65.4756 64.6609 65.3101 64.6194 65.1441 64.7024L63.0716 65.9871L63.0304 65.9458L62.9057 66.0286C62.7814 65.9871 62.4499 66.1116 62.0767 66.3188C61.7039 66.5261 61.455 66.7748 61.455 66.9406L61.2477 67.0648L61.2894 67.1063L59.2999 68.3498C59.2368 68.3919 59.1947 68.4555 59.1797 68.5295C59.1651 68.6012 59.1761 68.6827 59.2169 68.7643C59.2461 68.808 59.2858 68.8414 59.3319 68.8629C59.4165 68.9023 59.5238 68.9009 59.6314 68.8473L61.6209 67.6038L61.6622 67.6866L61.9941 67.4793L62.0354 67.5208L61.7869 67.6866L61.9111 67.8938L62.1597 67.7281V67.7696L61.9111 67.9353L61.9524 68.0183L60.5847 68.9301L59.3825 69.4275L59.3412 69.386L59.134 69.469ZM66.1391 71.5L65.8901 71.127L66.5948 71.1683C66.6657 71.18 66.7434 71.2053 66.815 71.2403C66.9956 71.328 67.1397 71.4761 67.0506 71.6243L66.7191 72.1632L66.3463 71.5415C66.3046 71.4585 66.2216 71.4585 66.1391 71.5ZM68.8745 73.3237C69.455 72.4532 70.3666 71.1683 71.3615 70.132C71.776 72.2875 71.5275 74.5257 70.9057 76.5154L70.5325 73.6139L68.8745 73.3237ZM64.8956 79.9971L66.1391 77.8831L66.1803 78.0904L66.7608 80.5773L67.6311 81.1161L67.9626 81.0748L68.0043 82.1938C67.2166 83.2301 66.3876 83.8103 65.8071 83.8103H63.9006C63.9836 82.2768 64.4394 80.7431 64.8956 79.9971ZM68.1229 82.1013C68.114 82.1183 68.1038 82.1353 68.0868 82.1523C68.1285 82.111 68.1698 82.0696 68.1698 82.0281C68.1455 82.0526 68.1354 82.077 68.1229 82.1013Z" fill="#003771"/>
</svg>
