<svg width="69" height="55" viewBox="0 0 69 55" fill="none" xmlns="http://www.w3.org/2000/svg">
<path d="M10.3032 45.5958C9.75002 45.5958 9.30155 46.0538 9.30155 46.6189C9.30155 47.2583 8.79231 47.7784 8.16634 47.7784C7.54037 47.7784 7.03114 47.2583 7.03114 46.6189C7.03114 45.9795 7.54037 45.4593 8.16634 45.4593C8.71952 45.4593 9.16799 45.0013 9.16799 44.4362C9.16799 43.8712 8.71952 43.4131 8.16634 43.4131C6.43575 43.4131 5.02783 44.8512 5.02783 46.6189C5.02783 48.3866 6.43575 49.8247 8.16634 49.8247C9.89693 49.8247 11.3048 48.3866 11.3048 46.6189C11.3048 46.0538 10.8564 45.5958 10.3032 45.5958Z" fill="#003B72"/>
<path d="M50.9035 45.5958C50.3504 45.5958 49.9019 46.0538 49.9019 46.6189C49.9019 47.2583 49.3926 47.7784 48.7667 47.7784C48.1407 47.7784 47.6315 47.2583 47.6315 46.6189C47.6315 45.9795 48.1407 45.4593 48.7667 45.4593C49.3199 45.4593 49.7683 45.0013 49.7683 44.4362C49.7683 43.8712 49.3199 43.4131 48.7667 43.4131C47.0361 43.4131 45.6282 44.8512 45.6282 46.6189C45.6282 48.3866 47.0361 49.8247 48.7667 49.8247C50.4973 49.8247 51.9052 48.3866 51.9052 46.6189C51.9052 46.0538 51.4567 45.5958 50.9035 45.5958Z" fill="#003B72"/>
<path d="M20.9875 45.5958C20.7244 45.5958 20.4653 45.705 20.2797 45.8959C20.0927 46.0856 19.9858 46.3502 19.9858 46.619C19.9858 46.8877 20.0927 47.1523 20.2797 47.342C20.4653 47.5329 20.7244 47.6421 20.9875 47.6421C21.2506 47.6421 21.5097 47.5329 21.6953 47.342C21.8823 47.1523 21.9891 46.8877 21.9891 46.619C21.9891 46.3502 21.8823 46.0856 21.6953 45.8959C21.5097 45.705 21.2506 45.5958 20.9875 45.5958Z" fill="#003B72"/>
<path d="M18.8508 11.7644C18.5877 11.7644 18.3286 11.8735 18.1429 12.0645C17.956 12.2541 17.8491 12.5188 17.8491 12.7875C17.8491 13.0563 17.956 13.3209 18.1429 13.5105C18.3286 13.7015 18.5877 13.8107 18.8508 13.8107C19.1139 13.8107 19.373 13.7015 19.5586 13.5105C19.7456 13.3209 19.8524 13.0563 19.8524 12.7875C19.8524 12.5188 19.7456 12.2541 19.5586 12.0645C19.373 11.8735 19.1152 11.7644 18.8508 11.7644Z" fill="#003B72"/>
<path d="M35.9455 27.0431C35.6824 27.0431 35.4233 27.1522 35.2377 27.3432C35.0507 27.5328 34.9438 27.7975 34.9438 28.0662C34.9438 28.3363 35.0507 28.5996 35.2377 28.7892C35.4233 28.9802 35.6824 29.0893 35.9455 29.0893C36.2086 29.0893 36.4677 28.9802 36.6533 28.7892C36.8403 28.5996 36.9472 28.3363 36.9472 28.0662C36.9472 27.7975 36.8403 27.5328 36.6533 27.3432C36.4677 27.1522 36.2086 27.0431 35.9455 27.0431Z" fill="#003B72"/>
<path d="M64.0853 9.14507C64.271 9.33605 64.5301 9.44518 64.7932 9.44518C65.0563 9.44518 65.3153 9.33605 65.501 9.14507C65.688 8.95545 65.7948 8.6908 65.7948 8.42205C65.7948 8.15331 65.688 7.88866 65.501 7.69904C65.3153 7.50806 65.0563 7.39893 64.7932 7.39893C64.5301 7.39893 64.271 7.50806 64.0853 7.69904C63.8983 7.88866 63.7915 8.15331 63.7915 8.42205C63.7915 8.6908 63.8983 8.95545 64.0853 9.14507Z" fill="#003B72"/>
<path d="M65.7947 16.2528V12.5952C67.6323 12.1348 69 10.439 69 8.42209C69 6.05266 67.1128 4.12495 64.7931 4.12495H56.9875C56.634 3.47492 55.9554 3.03361 55.1772 3.03361H7.03117V2.9654C7.03117 1.79958 6.10257 0.851074 4.96109 0.851074H2.82423C1.68275 0.851074 0.75415 1.79958 0.75415 2.96554V18.2443C0.75415 19.4102 1.68275 20.3587 2.82423 20.3587H4.96109C6.10257 20.3587 7.03117 19.4102 7.03117 18.2443V13.8107H14.7632C14.9341 14.5291 15.2852 15.1923 15.7988 15.7452C16.5897 16.5965 17.7021 17.0847 18.8508 17.0847H22.6237L28.5333 25.1333V31.3403C28.5333 31.9053 28.9818 32.3634 29.5349 32.3634H31.7419C31.7404 32.3861 31.7386 32.4086 31.7386 32.4316V36.797C31.7386 37.4364 31.2293 37.9565 30.6034 37.9565H26.2629V35.7198C26.2629 35.7168 26.2629 35.7138 26.2629 35.7108V35.7057C26.2629 35.6991 26.2621 35.6927 26.2619 35.6862C26.2614 35.6598 26.2606 35.6334 26.2581 35.6068C26.2565 35.5897 26.2535 35.5732 26.2511 35.5564C26.2487 35.5402 26.247 35.5241 26.2439 35.5079C26.2388 35.4813 26.2322 35.4552 26.2251 35.4294C26.2235 35.4235 26.2225 35.4175 26.2208 35.4115L26.2195 35.4069C26.2185 35.4039 26.2177 35.4008 26.2168 35.3978L23.4724 26.0537C23.0709 24.6872 21.8628 23.7692 20.4661 23.7692H6.02952C4.29893 23.7692 2.89101 25.2073 2.89101 26.975V34.8509C1.65029 35.2789 0.75415 36.4783 0.75415 37.8883V46.619C0.75415 50.7938 4.07923 54.1902 8.16637 54.1902C11.9136 54.1902 15.0183 51.3344 15.509 47.6422H16.7806V47.7104C16.7806 49.4781 18.1885 50.9162 19.9191 50.9162H26.3297C28.0602 50.9162 29.4682 49.4781 29.4682 47.7104V47.6422H41.424C41.9148 51.3344 45.0194 54.1902 48.7667 54.1902C52.5174 54.1902 55.6244 51.3291 56.1106 47.6318C56.1548 47.6379 56.1997 47.6422 56.2457 47.6422H60.5194C61.6608 47.6422 62.5894 46.6937 62.5894 45.5277V31.3403C62.5894 31.332 62.5884 31.3241 62.5882 31.3159C62.5877 31.2945 62.5869 31.2731 62.585 31.2515C62.5838 31.2368 62.582 31.2222 62.5801 31.2077C62.5778 31.1897 62.5753 31.1718 62.5721 31.1538C62.5687 31.1355 62.5647 31.1177 62.5605 31.0998C62.5571 31.0859 62.5539 31.072 62.5499 31.0581C62.544 31.0369 62.5371 31.0163 62.5299 30.9959C62.5272 30.9884 62.5255 30.9807 62.5227 30.9731L58.2343 19.584C57.4563 17.518 55.4776 16.1299 53.3105 16.1299H45.5614C43.8308 16.1299 42.4229 17.568 42.4229 19.3357V27.0432H40.031C39.7374 25.8199 38.9298 24.8014 37.8561 24.2398C37.8245 24.1896 37.7891 24.1413 37.748 24.096L28.3977 13.8107H55.1772C55.9554 13.8107 56.634 13.3694 56.9875 12.7194H63.7914V17.1529C63.7914 17.718 64.2399 18.1761 64.7931 18.1761C66.0081 18.1761 66.9967 19.1858 66.9967 20.4269C66.9967 21.6681 66.0081 22.6778 64.7931 22.6778C63.578 22.6778 62.5894 21.6681 62.5894 20.4269C62.5894 19.8619 62.141 19.4038 61.5878 19.4038C61.0346 19.4038 60.5861 19.8619 60.5861 20.4269C60.5861 22.7964 62.4734 24.7241 64.7931 24.7241C67.1128 24.7241 69 22.7964 69 20.4269C69 18.4099 67.6324 16.713 65.7947 16.2528ZM66.9967 8.42223C66.9967 9.66335 66.0081 10.6731 64.7931 10.6731H57.2473V6.17134H64.7931C66.0081 6.17134 66.9967 7.1811 66.9967 8.42223ZM5.02786 18.2443C5.02786 18.2793 4.99541 18.3125 4.96109 18.3125H2.82423C2.78991 18.3125 2.75745 18.2793 2.75745 18.2443V2.96554C2.75745 2.93048 2.78991 2.89733 2.82423 2.89733H4.96109C4.99541 2.89733 5.02786 2.93048 5.02786 2.96554V4.05688V12.7876V18.2443ZM7.03117 5.08001H55.1772C55.2141 5.08001 55.244 5.1107 55.244 5.14821V7.3991H29.7942C28.6704 7.3991 27.614 7.846 26.8195 8.65782L25.2089 10.303L24.8095 9.86361C24.0162 8.99109 22.8925 8.49057 21.7267 8.49057H19.0322C16.9712 8.49057 15.2331 9.8763 14.7673 11.7646H7.03117V5.08001ZM23.1244 15.0385H18.8507C18.2402 15.0385 17.6723 14.7892 17.2519 14.3366C16.8317 13.8845 16.618 13.2907 16.6502 12.6649C16.7105 11.4913 17.7789 10.5366 19.032 10.5366H21.7266C22.3373 10.5366 22.9259 10.7987 23.3414 11.2557L34.7169 23.7692H30.0358L23.9257 15.4477C23.7364 15.19 23.4397 15.0385 23.1244 15.0385ZM2.75745 37.8883C2.75745 37.2489 3.26669 36.7288 3.89266 36.7288H6.02952C6.58269 36.7288 7.03117 36.2707 7.03117 35.7057C7.03117 35.1406 6.58269 34.6825 6.02952 34.6825H4.89431V26.975C4.89431 26.3356 5.40355 25.8154 6.02952 25.8154H20.4661C20.9714 25.8154 21.4083 26.1476 21.5535 26.6418L23.915 34.6825H10.3036C9.75045 34.6825 9.30198 35.1406 9.30198 35.7057C9.30198 36.2707 9.75045 36.7288 10.3036 36.7288H24.2596V42.3219H19.9191H14.5769C14.4785 42.3219 14.3836 42.337 14.2937 42.364C12.9583 40.3639 10.7102 39.0479 8.16637 39.0479C6.03432 39.0479 4.11102 39.9733 2.75745 41.4502V37.8883ZM8.16637 52.1439C5.18385 52.1439 2.75745 49.6655 2.75745 46.619C2.75745 43.5726 5.18385 41.0941 8.16637 41.0941C11.1489 41.0941 13.5753 43.5726 13.5753 46.619C13.5753 49.6655 11.1489 52.1439 8.16637 52.1439ZM15.509 45.5959C15.4531 45.1751 15.3652 44.7643 15.2442 44.3681H16.994C16.8568 44.728 16.7807 45.1189 16.7807 45.5277V45.5959H15.509ZM27.4649 47.7104C27.4649 48.3498 26.9556 48.8699 26.3297 48.8699H19.9191C19.2931 48.8699 18.7839 48.3498 18.7839 47.7104V45.5277C18.7839 44.8883 19.2931 44.3681 19.9191 44.3681H26.3297C26.9556 44.3681 27.4649 44.8883 27.4649 45.5277V47.7104ZM29.2549 44.3681H41.689C41.568 44.7643 41.4801 45.1751 41.4241 45.5959H29.4682V45.5277C29.4682 45.1189 29.392 44.728 29.2549 44.3681ZM48.7667 52.1439C45.7841 52.1439 43.3577 49.6655 43.3577 46.619C43.3577 43.5726 45.7841 41.0941 48.7667 41.0941C51.7492 41.0941 54.1756 43.5726 54.1756 46.619C54.1756 49.6655 51.7492 52.1439 48.7667 52.1439ZM59.7184 29.2258H50.9035C49.6884 29.2258 48.6999 28.2161 48.6999 26.975V22.5414H57.2015L59.7184 29.2258ZM60.5861 40.1392H59.4509C59.4166 40.1392 59.3842 40.1061 59.3842 40.071V38.9797C59.3842 38.9446 59.4166 38.9115 59.4509 38.9115H60.5861V40.1392ZM44.4262 19.3356C44.4262 18.6962 44.9354 18.1761 45.5614 18.1761H53.3104C54.6545 18.1761 55.8819 19.0371 56.3644 20.3185L56.4309 20.4951H47.6982C47.145 20.4951 46.6966 20.9532 46.6966 21.5183V26.975C46.6966 29.3444 48.5838 31.2721 50.9035 31.2721H60.4889L60.5861 31.5303V36.8652H59.4509C58.3095 36.8652 57.3809 37.8137 57.3809 38.9797V40.071C57.3809 41.237 58.3095 42.1855 59.4509 42.1855H60.5861V45.5277C60.5861 45.5652 60.5562 45.5959 60.5194 45.5959H56.2457C56.1997 45.5959 56.1548 45.6001 56.1106 45.6063C55.6244 41.909 52.5174 39.0479 48.7667 39.0479C47.1465 39.0479 45.6472 39.583 44.4262 40.4874V19.3356ZM42.4265 42.3254C42.4031 42.3238 42.3799 42.3219 42.3561 42.3219H26.3297H26.2629V40.0028H30.6034C32.334 40.0028 33.7419 38.5647 33.7419 36.797V32.4316C33.7419 32.4086 33.74 32.3861 33.7385 32.3634H35.9455C37.9201 32.3634 39.5803 30.9664 40.031 29.0894H42.4229V42.2537C42.4229 42.278 42.4247 42.3017 42.4265 42.3254ZM35.9455 30.3172H30.5366V25.8154H35.9455C37.1606 25.8154 38.1491 26.8252 38.1491 28.0663C38.1491 29.3074 37.1606 30.3172 35.9455 30.3172ZM55.1772 11.7644H26.6111L28.236 10.1047C28.6523 9.67945 29.2056 9.44536 29.7942 9.44536H55.244V11.6962C55.244 11.7338 55.2141 11.7644 55.1772 11.7644Z" fill="#003B72"/>
<path d="M8.16645 29.0893H12.4402C12.9933 29.0893 13.4418 28.6313 13.4418 28.0662C13.4418 27.5012 12.9933 27.0431 12.4402 27.0431H8.16645C7.61327 27.0431 7.16479 27.5012 7.16479 28.0662C7.16479 28.6313 7.61327 29.0893 8.16645 29.0893Z" fill="#003B72"/>
<path d="M8.16645 32.3632H12.4402C12.9933 32.3632 13.4418 31.9051 13.4418 31.34C13.4418 30.775 12.9933 30.3169 12.4402 30.3169H8.16645C7.61327 30.3169 7.16479 30.775 7.16479 31.34C7.16479 31.9051 7.61327 32.3632 8.16645 32.3632Z" fill="#003B72"/>
</svg>
