<svg width="60" height="64" viewBox="0 0 60 64" fill="none" xmlns="http://www.w3.org/2000/svg">
<path d="M44.5266 3.37393C40.9817 3.37393 37.7182 4.56663 35.1088 6.56617C31.5007 5.84353 28.2653 3.85101 25.9443 0.862228C25.4168 0.174668 24.2563 0.174668 23.7217 0.862228C20.7607 4.6859 16.2945 6.88189 11.4695 6.88189H4.43611C2.10805 6.88189 0.216064 8.76917 0.216064 11.0914V35.0719C0.216064 49.1598 10.717 61.1571 24.6431 62.9952C24.7064 63.0022 24.7697 63.0022 24.833 63.0022C24.8893 63.0022 24.9526 63.0022 25.0159 62.9952C38.942 61.1571 49.45 49.1598 49.45 35.0719C49.45 35.0298 49.4359 34.9877 49.4359 34.9386H49.45V33.4371C55.569 31.3745 60.0001 25.6004 60.0001 18.809C60.0001 10.2916 53.0581 3.37393 44.5266 3.37393ZM46.6366 35.0719C46.6366 47.6935 37.2751 58.4559 24.833 60.1889C12.3839 58.4559 3.02943 47.6935 3.02943 35.0719V11.0914C3.02943 10.3127 3.6554 9.68826 4.43611 9.68826H11.4695C16.5969 9.68826 21.3796 7.5905 24.833 3.88609C27.0134 6.22239 29.7212 7.92024 32.7104 8.85336C31.782 9.94785 31.0013 11.1756 30.4035 12.5016C28.7295 11.8842 27.1189 11.0774 25.6208 10.0671C25.1425 9.74438 24.5165 9.74438 24.0453 10.0671C20.3246 12.5718 15.9709 13.8978 11.4695 13.8978H8.65616C7.87545 13.8978 7.24948 14.5222 7.24948 15.301V35.128C7.24948 45.3853 14.5361 54.1482 24.5798 55.9653C24.6642 55.9793 24.7486 55.9863 24.833 55.9863C24.9104 55.9863 24.9948 55.9793 25.0792 55.9653C35.1229 54.1482 42.4166 45.3853 42.4166 35.128V34.0896C43.1058 34.1879 43.8092 34.237 44.5266 34.237C45.237 34.237 45.9403 34.1879 46.6366 34.0896V34.9386H46.6436C46.6436 34.9877 46.6366 35.0298 46.6366 35.0719ZM39.6032 33.4371V35.128C39.6032 43.94 33.4067 51.4821 24.833 53.1589C16.2523 51.4821 10.0628 43.94 10.0628 35.128V16.7042H11.4695C16.2241 16.7042 20.824 15.3922 24.833 12.9015C26.31 13.8206 27.8715 14.5713 29.4891 15.1677C29.2008 16.3323 29.0531 17.5531 29.0531 18.809C29.0531 25.6004 33.4771 31.3745 39.6032 33.4371ZM44.5266 31.4306C37.5424 31.4306 31.8664 25.7687 31.8664 18.809C31.8664 11.8421 37.5424 6.1803 44.5266 6.1803C51.5037 6.1803 57.1867 11.8421 57.1867 18.809C57.1867 25.7687 51.5037 31.4306 44.5266 31.4306Z" fill="#003B72"/>
<path d="M49.8573 13.6032L42.4159 21.033L39.1876 17.8127C38.6389 17.2655 37.7457 17.2655 37.1971 17.8127C36.6485 18.36 36.6485 19.251 37.1971 19.7982L41.4172 24.0078C41.6915 24.2814 42.0502 24.4217 42.4159 24.4217C42.7746 24.4217 43.1333 24.2814 43.4076 24.0078L51.8477 15.5887C52.3963 15.0414 52.3963 14.1504 51.8477 13.6032C51.2991 13.0559 50.4059 13.0559 49.8573 13.6032Z" fill="#003B72"/>
</svg>
