<svg width="72" height="63" viewBox="0 0 72 63" fill="none" xmlns="http://www.w3.org/2000/svg">
<path d="M1.65249 62.7251C1.10449 62.4052 0.843524 62 1.07838 61.4455C1.31324 60.9123 1.86124 60.827 2.48752 60.827C2.87895 60.8483 3.29647 60.827 3.68789 60.827C4.78389 60.827 4.78391 60.827 4.78391 59.9739C4.78391 59.2487 4.78391 58.5449 4.78391 57.8197C4.81 55.7296 6.45398 54.3646 9.0113 54.3433C11.9079 54.3433 14.8044 54.3433 17.701 54.3433C17.9358 54.3433 18.1446 54.3433 18.3795 54.386C19.4494 54.5139 19.4493 54.5139 19.4493 53.5968C19.4493 53.1063 19.4493 52.6158 19.4493 52.1252C19.4754 50.2484 21.1194 48.8834 23.3897 48.8407C24.3291 48.8194 25.2947 48.8194 26.2341 48.8407C26.6777 48.8407 26.9647 48.7341 27.1735 48.3928C28.687 45.7695 30.2527 43.1675 31.7141 40.5229C32.1316 39.7551 31.9228 38.8806 32.0011 38.0489C32.1577 36.3213 32.236 34.5937 32.3403 32.8449C32.3664 32.3543 32.6013 31.8851 32.7579 31.4159C33.2015 30.1362 33.619 28.8566 34.0887 27.5982C34.3236 26.9371 34.9499 26.6385 35.6022 26.8091C36.2807 26.9797 36.5938 27.4916 36.3851 28.1527C36.1502 28.9205 35.8371 29.6883 35.6022 30.4561C35.55 30.5841 35.4457 30.7547 35.5761 30.8614C35.7327 30.9893 35.9154 30.84 36.0458 30.7974C37.3245 30.3708 38.5771 29.9443 39.8557 29.539C40.1689 29.4324 40.3776 29.2618 40.5081 28.9845C40.9778 27.7902 41.4475 26.6171 41.9172 25.4441C41.9955 25.2308 42.1782 24.9536 41.6824 24.8896C41.0561 24.8043 40.6647 24.5057 40.6125 23.9938C40.5603 23.4819 40.9517 23.1834 41.4475 22.9274C44.0049 21.6691 46.5622 20.3894 49.1456 19.1097C50.0589 18.6619 50.9723 18.1926 51.8856 17.7234C52.8772 17.2116 53.4774 16.4438 53.7905 15.5267C53.8427 15.3774 53.9993 15.1854 53.8166 15.0788C53.6339 14.9508 53.4513 15.1214 53.2947 15.1854C50.5025 16.4224 47.7104 17.6594 44.9182 18.8965C43.3264 19.6003 41.7346 20.3468 40.1167 21.0292C39.1772 21.4131 38.5771 21.989 38.29 22.7995C38.0812 23.354 37.8986 23.8872 37.6638 24.4417C37.4028 25.0602 36.8287 25.3588 36.2024 25.2095C35.4978 25.0602 35.1586 24.5483 35.3674 23.9085C35.6805 22.9487 35.9676 21.9677 36.5677 21.0932C36.7765 20.7733 36.6982 20.624 36.4112 20.3681C35.2891 19.2804 34.5323 18.0007 34.0104 16.6784C33.8539 16.2731 33.9582 15.8252 34.0626 15.3987C34.4279 13.8631 36.7504 12.9247 38.2639 12.7327C39.7774 12.5621 41.1605 13.2872 42.0216 14.6309C42.4391 15.3134 42.9088 15.9532 43.2481 16.657C43.4829 17.1476 43.6917 17.2329 44.2658 16.977C46.1707 16.1025 48.1279 15.2494 50.0589 14.3963C50.633 14.1404 51.181 13.8631 51.7812 13.6498C52.4075 13.4152 52.6162 13.074 52.6162 12.5194C52.5901 8.8084 52.6162 5.07602 52.5901 1.36498C52.5901 0.810458 52.7206 0.362573 53.2425 0C53.5818 0 53.9471 0 54.2863 0C54.6256 0.170623 54.9387 0.362574 54.9648 0.682492C55.017 1.27967 55.4345 1.32233 56.0347 1.32233C60.1055 1.301 64.1764 1.301 68.2472 1.32233C69.2388 1.32233 69.8129 1.62092 70.1 2.23942C70.4131 2.92191 70.1 3.43378 69.4737 3.88167C68.6386 4.47885 67.8558 5.09735 66.9946 5.65188C66.5249 5.97179 66.5249 6.18507 66.9946 6.48366C67.908 7.10217 68.8213 7.76333 69.6824 8.42449C70.2043 8.82972 70.3609 9.32026 70.1 9.87479C69.839 10.4506 69.3171 10.7492 68.5603 10.7919C68.2994 10.8132 68.0646 10.7919 67.8036 10.7919C63.8372 10.7919 59.8446 10.7919 55.8781 10.7919C55.5911 10.7919 55.2518 10.7066 55.0953 11.0052C54.8604 11.4104 55.1214 12.2422 55.5911 12.4981C56.0086 12.7327 56.1391 13.074 56.2435 13.4365C56.6349 14.9082 56.2695 16.2731 55.3823 17.5528C55.1735 17.8727 55.0431 18.1713 55.0431 18.5339C55.0431 23.4606 55.0692 28.3873 55.0431 33.2927C55.0431 33.8899 55.304 34.0179 55.9564 33.9966C57.9657 33.9752 59.949 33.9966 61.9583 33.9966C62.8716 33.9966 63.6545 34.2738 64.3329 34.7857C65.3768 35.5322 65.716 36.4919 65.716 37.5796C65.716 44.9804 65.716 52.3598 65.716 59.7606C65.716 59.9739 65.716 60.1658 65.716 60.3791C65.6899 60.7203 65.8987 60.8483 66.3162 60.8483C67.0468 60.827 67.7775 60.8483 68.4821 60.8483C69.004 60.8483 69.3954 61.0403 69.6303 61.4242C69.9434 61.9787 69.552 62.3626 69.1605 62.7251C46.6405 62.7251 24.1465 62.7251 1.65249 62.7251ZM63.2631 48.7981C63.2631 45.0657 63.2631 41.3333 63.2631 37.5796C63.2631 36.3213 62.7412 35.8947 61.1754 35.8947C58.5398 35.8947 55.8781 35.8947 53.2425 35.8947C51.5724 35.8947 51.0505 36.3213 51.0505 37.7076C51.0505 41.8879 51.0505 46.0894 51.0505 50.2697C51.0505 50.5043 51.0766 50.7176 51.0244 50.9309C50.894 51.4214 50.4764 51.72 49.8502 51.6987C49.2239 51.6773 48.8324 51.4001 48.7281 50.8882C48.702 50.6963 48.702 50.483 48.702 50.2697C48.702 48.99 48.7281 47.689 48.702 46.4094C48.6759 45.4283 48.154 44.9377 47.058 44.9377C44.031 44.9164 41.0039 44.9164 37.9769 44.9377C37.0114 44.9377 36.4895 45.3856 36.4895 46.1534C36.4895 50.8456 36.4894 55.5377 36.4634 60.2511C36.4634 60.6777 36.646 60.827 37.1679 60.8056C40.7691 60.7843 44.3702 60.7843 47.9713 60.8056C48.5454 60.8056 48.702 60.635 48.702 60.1871C48.6759 58.6302 48.6759 57.0733 48.702 55.5377C48.702 54.7912 49.1456 54.3646 49.8502 54.3433C50.5808 54.322 51.0505 54.7912 51.0505 55.559C51.0505 57.0733 51.0766 58.5875 51.0505 60.1018C51.0244 60.6777 51.2854 60.827 51.9639 60.827C55.4345 60.8056 58.9052 60.8056 62.3758 60.827C63.1065 60.827 63.2891 60.635 63.2891 60.0592C63.237 56.3268 63.2631 52.5731 63.2631 48.7981ZM27.852 60.8483C29.6264 60.8483 31.4009 60.827 33.1754 60.8696C33.8538 60.891 34.0365 60.699 34.0365 60.1658C34.0104 57.5638 34.0365 54.9831 34.0104 52.3811C34.0104 51.2721 33.5146 50.8882 32.1316 50.8669C29.3394 50.8669 26.5211 50.8669 23.729 50.8669C22.372 50.8669 21.7979 51.3148 21.7979 52.4238C21.7979 55.0471 21.7979 57.6491 21.7718 60.2724C21.7718 60.7203 21.9545 60.8696 22.5025 60.8696C24.303 60.827 26.0775 60.827 27.852 60.8483ZM52.6162 26.8731C52.6162 24.6976 52.6162 22.5009 52.6162 20.3254C52.6162 19.8989 52.538 19.7496 52.0161 20.0268C49.9806 21.0506 47.9191 22.0743 45.8837 23.0767C45.5184 23.2687 45.3096 23.5033 45.1791 23.8232C44.4746 25.6147 43.77 27.4063 43.0133 29.1765C42.7784 29.7097 42.8828 30.0722 43.3264 30.4988C44.7616 31.8638 46.1707 33.2501 47.5538 34.6364C48.1801 35.2762 48.5715 36.0014 48.4671 36.8545C48.3888 37.601 48.2584 38.3474 48.1279 39.0939C47.9452 40.203 47.7887 41.312 47.606 42.4211C47.5277 42.8903 47.8408 43.0609 48.3366 43.0822C48.9368 43.1249 48.702 42.7196 48.702 42.5277C48.7281 40.7148 48.702 38.902 48.7281 37.0678C48.7542 35.5535 50.0589 34.2525 51.8856 34.0179C52.5119 33.9326 52.6423 33.7406 52.6423 33.2714C52.5901 31.16 52.6162 29.0058 52.6162 26.8731ZM13.3431 60.827C15.1436 60.827 16.9442 60.827 18.7187 60.827C19.084 60.827 19.4494 60.8483 19.4233 60.4004C19.3972 59.462 19.4494 58.5236 19.3972 57.5851C19.345 56.796 18.7448 56.3481 17.7793 56.3481C14.7783 56.3481 11.8035 56.3268 8.80253 56.3481C7.78482 56.3481 7.23683 56.8173 7.21073 57.6491C7.18464 58.5022 7.23683 59.3554 7.18464 60.2085C7.15855 60.6563 7.36732 60.827 7.91532 60.8056C9.74198 60.827 11.5425 60.827 13.3431 60.827ZM66.4989 3.34847C66.264 3.30581 66.1857 3.28449 66.0813 3.28449C62.6368 3.28449 59.1922 3.28449 55.7477 3.28449C55.2257 3.28449 55.0692 3.47644 55.0692 3.88167C55.0953 5.24665 55.0953 6.61163 55.0692 7.97661C55.0431 8.59512 55.2779 8.78707 56.0347 8.78707C59.2444 8.76574 62.4802 8.76574 65.6899 8.76574C65.9247 8.76574 66.1857 8.85105 66.3945 8.63777C65.8204 8.23254 65.2724 7.82731 64.6983 7.42209C63.2892 6.41968 63.2892 5.63055 64.6983 4.64947C65.2724 4.24424 65.8465 3.81768 66.4989 3.34847ZM39.7252 31.9704C39.7774 31.7358 39.4643 31.7998 39.1512 31.9064C37.9769 32.2903 36.8026 32.7169 35.6022 33.0795C34.9238 33.2714 34.6889 33.5913 34.6889 34.1672C34.6106 36.0654 34.5062 37.9635 34.3757 39.8404C34.3236 40.4589 34.1409 41.0347 33.8017 41.6106C33.2015 42.5703 32.6535 43.5514 32.0794 44.5325C31.3226 45.8122 30.592 47.1132 29.8352 48.4142C29.7569 48.5421 29.6003 48.6914 29.783 48.7981C29.9657 48.9047 30.0962 48.7554 30.2266 48.6488C30.3571 48.5208 30.4615 48.3928 30.5919 48.2649C32.523 46.1748 34.3758 44.0633 36.3851 42.0158C37.4811 40.9068 38.1596 39.7337 38.3422 38.3261C38.3683 38.1342 38.4205 37.9635 38.4466 37.7929C38.838 35.8947 39.2555 34.0392 39.7252 31.9704ZM42.0999 32.333C41.8912 33.2501 41.8129 33.9966 41.5519 34.7217C41.317 35.4255 41.6041 35.7881 42.3348 36.0867C43.3264 36.4706 43.77 37.1531 43.8744 38.0489C44.0048 39.4991 44.2136 40.9281 44.4224 42.3571C44.4485 42.5703 44.318 42.9116 44.7877 42.9329C45.2313 42.9543 45.153 42.5917 45.1791 42.3784C45.4662 40.5869 45.7271 38.774 46.0142 36.9825C46.0664 36.5772 45.9881 36.2147 45.6749 35.8947C44.5268 34.7217 43.3786 33.5913 42.0999 32.333ZM41.1344 17.6808C40.6908 16.6997 40.2211 15.6973 39.3599 14.8868C39.0468 14.5882 38.5249 14.6309 38.0813 14.7802C37.7681 14.8868 37.455 15.0148 37.1418 15.1641C36.4634 15.484 36.2285 15.9959 36.5416 16.5717C36.9331 17.2755 37.3767 17.958 37.8464 18.6405C38.1335 19.0671 38.6293 19.2804 39.2555 19.1097C39.7253 18.9604 40.1689 18.7685 40.5864 18.5552C40.9778 18.3633 41.1083 18.0647 41.1344 17.6808ZM41.9433 42.2931C41.7868 40.9708 41.6563 39.6271 41.4997 38.2835C41.4736 38.0702 41.4214 37.8356 41.1083 37.8142C40.7691 37.7929 40.8734 38.0702 40.8213 38.2195C40.4298 39.7551 40.3516 41.3973 38.838 42.613C38.5771 42.8263 38.7858 42.9329 39.0729 42.9329C39.8035 42.9329 40.5342 42.9116 41.2388 42.9329C41.839 42.9756 42.0477 42.7836 41.9433 42.2931Z" fill="#003B72"/>
<mask id="mask0_2551_15904" style="mask-type:alpha" maskUnits="userSpaceOnUse" x="55" y="0" width="18" height="12">
<rect x="55.344" width="16.6562" height="11.4638" fill="#D9D9D9"/>
</mask>
<g mask="url(#mask0_2551_15904)">
<path d="M1.65249 62.7251C1.10449 62.4052 0.843524 62 1.07838 61.4455C1.31324 60.9123 1.86124 60.827 2.48752 60.827C2.87895 60.8483 3.29647 60.827 3.68789 60.827C4.78389 60.827 4.78391 60.827 4.78391 59.9739C4.78391 59.2487 4.78391 58.5449 4.78391 57.8197C4.81 55.7296 6.45398 54.3646 9.0113 54.3433C11.9079 54.3433 14.8044 54.3433 17.701 54.3433C17.9358 54.3433 18.1446 54.3433 18.3795 54.386C19.4494 54.5139 19.4493 54.5139 19.4493 53.5968C19.4493 53.1063 19.4493 52.6158 19.4493 52.1252C19.4754 50.2484 21.1194 48.8834 23.3897 48.8407C24.3291 48.8194 25.2947 48.8194 26.2341 48.8407C26.6777 48.8407 26.9647 48.7341 27.1735 48.3928C28.687 45.7695 30.2527 43.1675 31.7141 40.5229C32.1316 39.7551 31.9228 38.8806 32.0011 38.0489C32.1577 36.3213 32.236 34.5937 32.3403 32.8449C32.3664 32.3543 32.6013 31.8851 32.7579 31.4159C33.2015 30.1362 33.619 28.8566 34.0887 27.5982C34.3236 26.9371 34.9499 26.6385 35.6022 26.8091C36.2807 26.9797 36.5938 27.4916 36.3851 28.1527C36.1502 28.9205 35.8371 29.6883 35.6022 30.4561C35.55 30.5841 35.4457 30.7547 35.5761 30.8614C35.7327 30.9893 35.9154 30.84 36.0458 30.7974C37.3245 30.3708 38.5771 29.9443 39.8557 29.539C40.1689 29.4324 40.3776 29.2618 40.5081 28.9845C40.9778 27.7902 41.4475 26.6171 41.9172 25.4441C41.9955 25.2308 42.1782 24.9536 41.6824 24.8896C41.0561 24.8043 40.6647 24.5057 40.6125 23.9938C40.5603 23.4819 40.9517 23.1834 41.4475 22.9274C44.0049 21.6691 46.5622 20.3894 49.1456 19.1097C50.0589 18.6619 50.9723 18.1926 51.8856 17.7234C52.8772 17.2116 53.4774 16.4438 53.7905 15.5267C53.8427 15.3774 53.9993 15.1854 53.8166 15.0788C53.6339 14.9508 53.4513 15.1214 53.2947 15.1854C50.5025 16.4224 47.7104 17.6594 44.9182 18.8965C43.3264 19.6003 41.7346 20.3468 40.1167 21.0292C39.1772 21.4131 38.5771 21.989 38.29 22.7995C38.0812 23.354 37.8986 23.8872 37.6638 24.4417C37.4028 25.0602 36.8287 25.3588 36.2024 25.2095C35.4978 25.0602 35.1586 24.5483 35.3674 23.9085C35.6805 22.9487 35.9676 21.9677 36.5677 21.0932C36.7765 20.7733 36.6982 20.624 36.4112 20.3681C35.2891 19.2804 34.5323 18.0007 34.0104 16.6784C33.8539 16.2731 33.9582 15.8252 34.0626 15.3987C34.4279 13.8631 36.7504 12.9247 38.2639 12.7327C39.7774 12.5621 41.1605 13.2872 42.0216 14.6309C42.4391 15.3134 42.9088 15.9532 43.2481 16.657C43.4829 17.1476 43.6917 17.2329 44.2658 16.977C46.1707 16.1025 48.1279 15.2494 50.0589 14.3963C50.633 14.1404 51.181 13.8631 51.7812 13.6498C52.4075 13.4152 52.6162 13.074 52.6162 12.5194C52.5901 8.8084 52.6162 5.07602 52.5901 1.36498C52.5901 0.810458 52.7206 0.362573 53.2425 0C53.5818 0 53.9471 0 54.2863 0C54.6256 0.170623 54.9387 0.362574 54.9648 0.682492C55.017 1.27967 55.4345 1.32233 56.0347 1.32233C60.1055 1.301 64.1764 1.301 68.2472 1.32233C69.2388 1.32233 69.8129 1.62092 70.1 2.23942C70.4131 2.92191 70.1 3.43378 69.4737 3.88167C68.6386 4.47885 67.8558 5.09735 66.9946 5.65188C66.5249 5.97179 66.5249 6.18507 66.9946 6.48366C67.908 7.10217 68.8213 7.76333 69.6824 8.42449C70.2043 8.82972 70.3609 9.32026 70.1 9.87479C69.839 10.4506 69.3171 10.7492 68.5603 10.7919C68.2994 10.8132 68.0646 10.7919 67.8036 10.7919C63.8372 10.7919 59.8446 10.7919 55.8781 10.7919C55.5911 10.7919 55.2518 10.7066 55.0953 11.0052C54.8604 11.4104 55.1214 12.2422 55.5911 12.4981C56.0086 12.7327 56.1391 13.074 56.2435 13.4365C56.6349 14.9082 56.2695 16.2731 55.3823 17.5528C55.1735 17.8727 55.0431 18.1713 55.0431 18.5339C55.0431 23.4606 55.0692 28.3873 55.0431 33.2927C55.0431 33.8899 55.304 34.0179 55.9564 33.9966C57.9657 33.9752 59.949 33.9966 61.9583 33.9966C62.8716 33.9966 63.6545 34.2738 64.3329 34.7857C65.3768 35.5322 65.716 36.4919 65.716 37.5796C65.716 44.9804 65.716 52.3598 65.716 59.7606C65.716 59.9739 65.716 60.1658 65.716 60.3791C65.6899 60.7203 65.8987 60.8483 66.3162 60.8483C67.0468 60.827 67.7775 60.8483 68.4821 60.8483C69.004 60.8483 69.3954 61.0403 69.6303 61.4242C69.9434 61.9787 69.552 62.3626 69.1605 62.7251C46.6405 62.7251 24.1465 62.7251 1.65249 62.7251ZM63.2631 48.7981C63.2631 45.0657 63.2631 41.3333 63.2631 37.5796C63.2631 36.3213 62.7412 35.8947 61.1754 35.8947C58.5398 35.8947 55.8781 35.8947 53.2425 35.8947C51.5724 35.8947 51.0505 36.3213 51.0505 37.7076C51.0505 41.8879 51.0505 46.0894 51.0505 50.2697C51.0505 50.5043 51.0766 50.7176 51.0244 50.9309C50.894 51.4214 50.4764 51.72 49.8502 51.6987C49.2239 51.6773 48.8324 51.4001 48.7281 50.8882C48.702 50.6963 48.702 50.483 48.702 50.2697C48.702 48.99 48.7281 47.689 48.702 46.4094C48.6759 45.4283 48.154 44.9377 47.058 44.9377C44.031 44.9164 41.0039 44.9164 37.9769 44.9377C37.0114 44.9377 36.4895 45.3856 36.4895 46.1534C36.4895 50.8456 36.4894 55.5377 36.4634 60.2511C36.4634 60.6777 36.646 60.827 37.1679 60.8056C40.7691 60.7843 44.3702 60.7843 47.9713 60.8056C48.5454 60.8056 48.702 60.635 48.702 60.1871C48.6759 58.6302 48.6759 57.0733 48.702 55.5377C48.702 54.7912 49.1456 54.3646 49.8502 54.3433C50.5808 54.322 51.0505 54.7912 51.0505 55.559C51.0505 57.0733 51.0766 58.5875 51.0505 60.1018C51.0244 60.6777 51.2854 60.827 51.9639 60.827C55.4345 60.8056 58.9052 60.8056 62.3758 60.827C63.1065 60.827 63.2891 60.635 63.2891 60.0592C63.237 56.3268 63.2631 52.5731 63.2631 48.7981ZM27.852 60.8483C29.6264 60.8483 31.4009 60.827 33.1754 60.8696C33.8538 60.891 34.0365 60.699 34.0365 60.1658C34.0104 57.5638 34.0365 54.9831 34.0104 52.3811C34.0104 51.2721 33.5146 50.8882 32.1316 50.8669C29.3394 50.8669 26.5211 50.8669 23.729 50.8669C22.372 50.8669 21.7979 51.3148 21.7979 52.4238C21.7979 55.0471 21.7979 57.6491 21.7718 60.2724C21.7718 60.7203 21.9545 60.8696 22.5025 60.8696C24.303 60.827 26.0775 60.827 27.852 60.8483ZM52.6162 26.8731C52.6162 24.6976 52.6162 22.5009 52.6162 20.3254C52.6162 19.8989 52.538 19.7496 52.0161 20.0268C49.9806 21.0506 47.9191 22.0743 45.8837 23.0767C45.5184 23.2687 45.3096 23.5033 45.1791 23.8232C44.4746 25.6147 43.77 27.4063 43.0133 29.1765C42.7784 29.7097 42.8828 30.0722 43.3264 30.4988C44.7616 31.8638 46.1707 33.2501 47.5538 34.6364C48.1801 35.2762 48.5715 36.0014 48.4671 36.8545C48.3888 37.601 48.2584 38.3474 48.1279 39.0939C47.9452 40.203 47.7887 41.312 47.606 42.4211C47.5277 42.8903 47.8408 43.0609 48.3366 43.0822C48.9368 43.1249 48.702 42.7196 48.702 42.5277C48.7281 40.7148 48.702 38.902 48.7281 37.0678C48.7542 35.5535 50.0589 34.2525 51.8856 34.0179C52.5119 33.9326 52.6423 33.7406 52.6423 33.2714C52.5901 31.16 52.6162 29.0058 52.6162 26.8731ZM13.3431 60.827C15.1436 60.827 16.9442 60.827 18.7187 60.827C19.084 60.827 19.4494 60.8483 19.4233 60.4004C19.3972 59.462 19.4494 58.5236 19.3972 57.5851C19.345 56.796 18.7448 56.3481 17.7793 56.3481C14.7783 56.3481 11.8035 56.3268 8.80253 56.3481C7.78482 56.3481 7.23683 56.8173 7.21073 57.6491C7.18464 58.5022 7.23683 59.3554 7.18464 60.2085C7.15855 60.6563 7.36732 60.827 7.91532 60.8056C9.74198 60.827 11.5425 60.827 13.3431 60.827ZM66.4989 3.34847C66.264 3.30581 66.1857 3.28449 66.0813 3.28449C62.6368 3.28449 59.1922 3.28449 55.7477 3.28449C55.2257 3.28449 55.0692 3.47644 55.0692 3.88167C55.0953 5.24665 55.0953 6.61163 55.0692 7.97661C55.0431 8.59512 55.2779 8.78707 56.0347 8.78707C59.2444 8.76574 62.4802 8.76574 65.6899 8.76574C65.9247 8.76574 66.1857 8.85105 66.3945 8.63777C65.8204 8.23254 65.2724 7.82731 64.6983 7.42209C63.2892 6.41968 63.2892 5.63055 64.6983 4.64947C65.2724 4.24424 65.8465 3.81768 66.4989 3.34847ZM39.7252 31.9704C39.7774 31.7358 39.4643 31.7998 39.1512 31.9064C37.9769 32.2903 36.8026 32.7169 35.6022 33.0795C34.9238 33.2714 34.6889 33.5913 34.6889 34.1672C34.6106 36.0654 34.5062 37.9635 34.3757 39.8404C34.3236 40.4589 34.1409 41.0347 33.8017 41.6106C33.2015 42.5703 32.6535 43.5514 32.0794 44.5325C31.3226 45.8122 30.592 47.1132 29.8352 48.4142C29.7569 48.5421 29.6003 48.6914 29.783 48.7981C29.9657 48.9047 30.0962 48.7554 30.2266 48.6488C30.3571 48.5208 30.4615 48.3928 30.5919 48.2649C32.523 46.1748 34.3758 44.0633 36.3851 42.0158C37.4811 40.9068 38.1596 39.7337 38.3422 38.3261C38.3683 38.1342 38.4205 37.9635 38.4466 37.7929C38.838 35.8947 39.2555 34.0392 39.7252 31.9704ZM42.0999 32.333C41.8912 33.2501 41.8129 33.9966 41.5519 34.7217C41.317 35.4255 41.6041 35.7881 42.3348 36.0867C43.3264 36.4706 43.77 37.1531 43.8744 38.0489C44.0048 39.4991 44.2136 40.9281 44.4224 42.3571C44.4485 42.5703 44.318 42.9116 44.7877 42.9329C45.2313 42.9543 45.153 42.5917 45.1791 42.3784C45.4662 40.5869 45.7271 38.774 46.0142 36.9825C46.0664 36.5772 45.9881 36.2147 45.6749 35.8947C44.5268 34.7217 43.3786 33.5913 42.0999 32.333ZM41.1344 17.6808C40.6908 16.6997 40.2211 15.6973 39.3599 14.8868C39.0468 14.5882 38.5249 14.6309 38.0813 14.7802C37.7681 14.8868 37.455 15.0148 37.1418 15.1641C36.4634 15.484 36.2285 15.9959 36.5416 16.5717C36.9331 17.2755 37.3767 17.958 37.8464 18.6405C38.1335 19.0671 38.6293 19.2804 39.2555 19.1097C39.7253 18.9604 40.1689 18.7685 40.5864 18.5552C40.9778 18.3633 41.1083 18.0647 41.1344 17.6808ZM41.9433 42.2931C41.7868 40.9708 41.6563 39.6271 41.4997 38.2835C41.4736 38.0702 41.4214 37.8356 41.1083 37.8142C40.7691 37.7929 40.8734 38.0702 40.8213 38.2195C40.4298 39.7551 40.3516 41.3973 38.838 42.613C38.5771 42.8263 38.7858 42.9329 39.0729 42.9329C39.8035 42.9329 40.5342 42.9116 41.2388 42.9329C41.839 42.9756 42.0477 42.7836 41.9433 42.2931Z" fill="#003B72"/>
</g>
</svg>
