<svg width="71" height="61" viewBox="0 0 71 61" fill="none" xmlns="http://www.w3.org/2000/svg">
<path d="M0.17627 45.6404C0.719213 42.8352 3.19262 42.1716 5.3644 41.0254C3.88639 40.3316 2.64967 39.5172 1.7146 38.2805C1.3828 37.8582 1.20182 37.4058 1.41297 36.8629C2.10673 35.2039 2.16705 33.4544 2.25754 31.7049C2.34803 30.0157 2.28771 28.3266 2.67984 26.6676C3.52442 22.9876 6.57093 20.1221 10.0699 19.6998C14.3833 19.187 18.2442 21.7509 19.5714 25.9437C20.0239 27.3915 20.0842 28.8997 20.1143 30.3777C20.1747 31.9764 20.235 33.5449 20.5065 35.1134C20.597 35.596 20.6875 36.0786 20.8986 36.5009C21.2304 37.1946 21.0796 37.7678 20.597 38.3409C19.6619 39.4871 18.4855 40.2713 17.1282 40.9048C17.6108 41.327 17.9727 41.4477 18.576 41.1461C20.416 40.2412 22.4068 39.6982 24.3071 38.9441C24.9707 38.6727 25.6041 38.5218 25.9661 37.7376C26.2677 37.074 26.9916 36.5612 27.5346 36.0183C27.7759 35.777 27.8965 35.5055 27.8664 35.1435C27.8664 35.053 27.8664 34.9625 27.8664 34.8721C28.0775 33.1527 27.5949 31.7954 26.328 30.4682C24.2468 28.2964 23.4323 25.461 23.4323 22.4749C23.4323 20.9667 23.1005 19.5792 22.7687 18.1615C22.0448 14.934 21.8337 11.6462 23.3418 8.53932C25.0612 5.07051 27.9569 3.10988 31.8178 2.98923C37.0662 2.83841 42.3449 2.9289 47.5933 2.9289C48.4077 2.9289 48.83 3.35119 48.83 4.16561C48.83 7.87572 48.8602 11.5858 48.83 15.2959C48.83 16.774 48.5284 18.2218 47.9251 19.6093C47.714 20.0618 47.7441 20.5142 47.7441 20.9667C47.7743 23.0178 47.714 25.0689 46.9599 27.0295C46.2359 28.8997 45.1802 30.4983 43.7022 31.8557C43.4307 32.097 43.2498 32.3685 43.3101 32.7305C43.3101 32.7908 43.3101 32.8813 43.3101 32.9416C43.0386 34.7816 43.4609 36.3501 45.0294 37.4661C45.0897 37.4963 45.1501 37.5566 45.1802 37.6169C45.4517 38.6727 46.4169 38.7631 47.2313 39.0648C48.4077 39.4871 49.5841 39.8792 50.7303 40.3618C51.3034 40.6031 51.8162 40.6634 52.3893 40.4221C52.6608 40.3015 52.9624 40.2412 53.2339 40.1507C54.5912 39.7585 54.6817 39.5776 54.5007 38.19C54.4706 37.9487 54.3198 37.8281 54.169 37.7074C52.1178 35.9881 51.1224 33.756 51.1828 31.1016C51.2129 30.2269 51.0319 29.4426 50.6398 28.6584C48.7998 24.7974 51.6051 19.9713 55.8883 19.6696C59.4174 19.4283 62.9465 19.6093 66.4757 19.5792C67.1996 19.5792 67.652 19.9411 67.652 20.6047C67.652 22.8067 67.8028 24.9784 67.5615 27.1804C67.5012 27.6931 67.3806 28.2059 67.1091 28.6282C66.6265 29.4728 66.536 30.3475 66.5662 31.2826C66.6265 33.937 65.6914 36.1389 63.58 37.7979C62.9465 38.2805 63.2783 38.9441 63.2783 39.5172C63.2783 39.9395 63.7308 39.9697 64.0626 40.0602C65.2691 40.4221 66.5058 40.7539 67.7124 41.1159C69.8238 41.7493 71.0002 43.348 71.0002 45.5198C71.0002 48.2043 71.0002 50.8587 71.0002 53.5433C71.0002 54.4482 70.6081 54.961 69.9445 54.961C69.2809 54.961 68.9189 54.4482 68.9189 53.5131C68.9189 50.9492 68.9189 48.3853 68.9189 45.8214C68.9189 44.1926 68.376 43.4687 66.8376 43.0162C65.5406 42.6241 64.2134 42.2621 62.9164 41.87C62.6449 41.7795 62.4338 41.7795 62.2528 42.0208C62.2226 42.051 62.1924 42.0811 62.1623 42.1113C61.4384 42.8654 60.443 43.4687 60.0508 44.3736C59.6889 45.2483 59.9302 46.3644 59.9302 47.3899C59.9302 49.4109 59.9302 51.462 59.9302 53.4829C59.9302 53.7544 59.9302 54.0259 59.8397 54.2974C59.6587 54.7498 59.2967 54.9911 58.8141 54.961C58.3315 54.9308 57.9997 54.6292 57.9092 54.1465C57.8489 53.9052 57.8791 53.6338 57.8791 53.3925C57.8791 50.5872 57.8791 47.7519 57.8791 44.9467C57.8791 44.5545 57.7886 44.2529 57.4869 43.9814C56.9742 43.529 56.4915 43.0162 56.0089 42.5336C55.1945 41.7192 55.1945 41.7192 54.0181 42.2018C55.466 43.71 55.5866 45.5499 55.5565 47.4804C55.5263 49.441 55.5565 51.4017 55.5565 53.3623C55.5565 53.5734 55.5565 53.7846 55.5565 53.9957C55.466 54.599 55.0437 54.9911 54.5007 54.9911C53.9578 54.961 53.5355 54.5688 53.5054 53.9354C53.4752 52.7289 53.5054 51.5223 53.5054 50.3459C53.5054 48.9283 53.5054 47.5407 53.5054 46.1231C53.5054 44.4942 52.6909 43.3178 51.1526 42.7447C49.1015 41.9907 47.0504 41.2366 44.9992 40.4825C44.6674 40.3618 44.4865 40.4221 44.2753 40.7238C43.4911 41.9303 42.7068 43.1067 41.8924 44.2831C40.897 45.7611 39.4793 45.8817 38.2125 44.645C37.76 44.1926 37.3377 43.7401 36.8551 43.2274C36.6439 43.5592 36.7043 43.8306 36.7043 44.0719C36.7043 47.1184 36.7043 50.165 36.7043 53.2115C36.7043 54.4482 36.3725 54.9911 35.6486 54.961C34.9246 54.961 34.623 54.4482 34.623 53.2416C34.623 50.1951 34.623 47.1486 34.623 44.1021C34.623 43.8608 34.623 43.5893 34.623 43.2575C34.0197 43.6195 33.6276 44.1323 33.2053 44.5244C31.8178 45.8817 30.4303 45.7611 29.3444 44.1323C28.5601 42.986 27.806 41.8398 27.052 40.6635C26.8408 40.3618 26.6598 40.3015 26.328 40.4221C24.2769 41.1762 22.2258 41.9002 20.1747 42.6844C18.6062 43.2575 17.8219 44.4339 17.8219 46.1532C17.8219 48.5663 17.8219 50.9492 17.8219 53.3623C17.8219 53.6036 17.8219 53.8147 17.7917 54.0561C17.7013 54.6292 17.3393 54.9308 16.8265 54.961C16.3138 54.9911 15.9518 54.6895 15.8311 54.1767C15.7708 53.9354 15.7708 53.6639 15.7708 53.4226C15.7708 51.0397 15.7708 48.6568 15.7708 46.304C15.7708 45.3388 15.9216 44.4339 16.3439 43.5592C16.4344 43.3782 16.7964 43.1067 16.3741 42.9559C16.0121 42.8051 15.7105 42.2923 15.2279 42.7447C14.8357 43.1369 14.4436 43.529 13.9912 43.8608C12.3322 45.1578 10.1906 45.1277 8.56172 43.8608C8.44107 43.7703 8.35058 43.6798 8.22993 43.5893C7.80764 43.2575 7.506 42.5638 6.99322 42.5939C6.48044 42.5939 5.99783 43.0162 5.51521 43.2575C4.97227 43.529 4.39916 43.8306 3.85622 44.1021C2.8005 44.6149 2.34805 45.4293 2.34805 46.6057C2.37821 48.8981 2.34805 51.2207 2.34805 53.5131C2.34805 54.0862 2.2877 54.6292 1.65427 54.8705C0.990673 55.1118 0.628719 54.7197 0.266756 54.2672C0.176266 51.462 0.17627 48.5361 0.17627 45.6404ZM39.0269 5.10067C36.7344 5.10067 34.4722 5.07051 32.1797 5.10067C28.53 5.19116 25.4231 7.66457 24.6992 11.2239C24.2166 13.5766 24.1864 15.9897 25.031 18.252C25.4834 19.549 25.6041 20.7857 25.5739 22.1129C25.5739 23.8624 25.8756 25.5515 26.5995 27.1502C28.4395 31.1016 32.3306 33.3036 36.7948 32.9114C40.716 32.5796 44.2753 29.4728 45.3311 25.4912C45.7533 23.8624 45.6628 22.2034 45.693 20.5444C45.693 20.0316 45.7533 19.549 45.9645 19.0664C46.5376 17.7995 46.7789 16.4422 46.7789 15.0245C46.8091 11.9176 46.7789 8.81079 46.8091 5.67378C46.8091 5.19117 46.6884 5.04035 46.1756 5.07051C43.8229 5.10068 41.4098 5.10067 39.0269 5.10067ZM65.6612 24.164C65.6612 23.5607 65.6311 22.9575 65.6612 22.3542C65.6914 21.8414 65.5104 21.6906 64.9976 21.6906C62.3433 21.7208 59.6889 21.6906 57.0345 21.7208C56.5217 21.7208 56.0089 21.7811 55.5263 21.9017C52.8418 22.5653 51.3034 25.7325 52.7211 28.1758C53.1736 28.96 53.3545 29.7744 53.2942 30.6793C53.264 31.5842 53.3244 32.459 53.5657 33.3337C54.2293 35.5357 56.1296 37.074 58.5125 37.3455C60.5334 37.5868 62.7354 36.3501 63.7911 34.4498C64.334 33.4845 64.4849 32.4288 64.515 31.3128C64.5452 30.5285 64.2737 29.6839 64.6659 28.9902C65.5708 27.5122 65.7819 25.8833 65.6612 24.164ZM18.0029 30.619C18.0632 27.5423 17.5203 25.7627 16.1026 24.0132C13.6895 21.0572 8.8332 21.0572 6.35979 23.983C4.97227 25.6119 4.45949 27.5122 4.45949 29.6236C4.45949 30.1967 4.21817 30.8301 5.12307 30.981C5.27389 31.0111 5.39455 31.2223 5.48504 31.3731C5.69618 31.7351 5.66603 32.1875 5.69619 32.5796C5.96766 34.9324 8.04895 37.2248 10.9446 37.4058C13.2672 37.5566 15.7105 35.9881 16.5249 33.6957C16.7662 33.0019 16.736 32.3987 16.2836 31.7652C14.6547 29.5331 12.3322 28.6885 9.70793 28.4774C9.43646 28.4472 9.28565 28.598 9.13484 28.779C8.71255 29.2315 8.29025 29.6839 7.80763 30.1062C7.47584 30.4079 7.05355 30.438 6.66142 30.2269C6.2693 30.0157 6.11848 29.6839 6.14864 29.2616C6.20897 28.5679 8.4109 26.3659 9.10466 26.3961C11.1256 26.4263 13.0863 26.8787 14.8659 27.844C16.0724 28.4472 17.098 29.322 18.0029 30.619ZM41.1986 33.7258C40.9875 33.8163 40.8367 33.8465 40.716 33.9068C38.6951 34.8419 36.5535 35.1737 34.3214 34.9626C32.9942 34.8117 31.7575 34.4799 30.5509 33.9068C30.4001 33.8465 30.2191 33.575 30.0381 33.8465C29.7667 34.2688 30.0985 35.6261 30.5208 35.8976C32.0893 36.9533 33.6276 38.0091 35.1961 39.0949C35.5279 39.3363 35.7692 39.3363 36.101 39.0949C37.398 38.19 38.6649 37.1947 40.0524 36.4406C41.1685 35.8071 41.5003 35.0229 41.2891 33.8767C41.2288 33.8767 41.2288 33.8465 41.1986 33.7258ZM37.2472 40.8444C38.0616 41.6589 38.8157 42.3828 39.5698 43.1369C39.8714 43.4687 40.0223 43.3782 40.2334 43.0464C41.0177 41.8398 41.8321 40.6333 42.6465 39.4268C43.2498 38.4917 43.2498 38.5218 42.4655 37.7678C42.2544 37.5868 42.1337 37.5264 41.8924 37.7074C40.3541 38.733 38.8459 39.7586 37.2472 40.8444ZM31.3653 43.4385C31.4558 43.348 31.5463 43.3178 31.6067 43.2575C32.3306 42.5336 33.0243 41.8097 33.7483 41.1159C34.0197 40.8444 33.8689 40.7539 33.6578 40.6031C32.2702 39.6681 30.8827 38.7028 29.4952 37.7678C29.2237 37.5566 28.9824 37.5566 28.8316 37.8582C28.6506 38.2202 27.8965 38.3107 28.3188 38.9441C29.2539 40.3618 30.2191 41.7795 31.1542 43.1972C31.2145 43.2575 31.2748 43.3178 31.3653 43.4385ZM11.2463 42.8051C12.3322 42.8352 12.9656 42.051 13.6594 41.3572C13.7499 41.2667 13.6895 41.1461 13.6594 41.0254C13.5085 40.573 13.4482 40.1205 13.5085 39.6681C13.5387 39.2156 13.3577 39.1854 12.9958 39.2759C12.0004 39.5474 11.005 39.5474 9.97941 39.3966C8.98401 39.2458 8.98401 39.2458 8.92369 40.2713C8.92369 40.4825 8.86335 40.7238 8.80303 40.9349C8.77286 41.0556 8.68237 41.2064 8.80303 41.327C9.46662 42.051 10.1001 42.8051 11.2463 42.8051ZM61.2272 39.7585C61.3479 39.1553 61.0161 39.1854 60.5636 39.2759C59.4777 39.5474 58.3617 39.5776 57.306 39.2759C56.7932 39.1251 56.6122 39.2156 56.6122 39.7585C56.6122 40.0602 56.6725 40.2713 56.8837 40.4825C57.4568 41.0556 58.0299 41.5985 58.603 42.2018C58.8443 42.4431 58.9951 42.5034 59.2666 42.232C59.8397 41.6287 60.4128 41.0556 61.0161 40.4825C61.1971 40.2713 61.2875 40.0602 61.2272 39.7585ZM4.12768 34.8721C3.9467 35.6261 3.79588 36.2596 3.6149 36.8629C3.52441 37.1946 3.58474 37.3756 3.82605 37.5868C4.58013 38.3107 5.45488 38.8235 6.45028 39.2156C6.57093 39.2759 6.81224 39.3966 6.81224 39.1553C6.81224 38.7632 7.02338 38.3107 6.63125 38.0091C5.57553 37.1645 4.76112 36.1389 4.12768 34.8721ZM18.2744 34.9022C17.6409 36.1993 16.8567 37.1946 15.801 38.0091C15.3787 38.3107 15.5898 38.7632 15.62 39.1553C15.62 39.3363 15.8311 39.2759 15.9518 39.2156C16.9773 38.7933 17.9124 38.2805 18.6665 37.4963C18.7872 37.3756 18.9078 37.2248 18.8475 37.0137C18.6665 36.3501 18.4855 35.6865 18.2744 34.9022Z" fill="#003B72"/>
<path d="M64.5452 50.6175C64.5452 49.592 64.5452 48.5362 64.5452 47.5107C64.5452 46.7566 64.9675 46.3041 65.6009 46.3343C66.2042 46.3343 66.6265 46.7868 66.6265 47.4805C66.6566 49.592 66.6265 51.7336 66.6265 53.845C66.6265 54.5689 66.174 55.0516 65.5707 55.0516C64.9675 55.0516 64.5753 54.5689 64.5452 53.8149C64.5452 52.729 64.5452 51.6733 64.5452 50.6175Z" fill="#003B72"/>
<path d="M6.69178 51.3716C6.69178 52.2162 6.69178 53.0306 6.69178 53.8752C6.69178 54.5689 6.26951 55.0214 5.66624 55.0515C5.09313 55.0515 4.61051 54.5991 4.61051 53.9053C4.58035 52.2162 4.58035 50.527 4.61051 48.868C4.61051 48.1743 5.03279 47.7218 5.63606 47.7218C6.2695 47.7218 6.66162 48.1743 6.69178 48.9283C6.72195 49.7126 6.69178 50.5572 6.69178 51.3716Z" fill="#003B72"/>
<path d="M46.8098 51.7335C46.8098 51.0398 46.8098 50.346 46.8098 49.6522C46.84 48.9886 47.2019 48.5664 47.7751 48.506C48.3783 48.4759 48.8609 48.8982 48.8911 49.5618C48.9213 51.0096 48.9213 52.4575 48.8911 53.9053C48.8911 54.5387 48.4085 54.9912 47.8655 54.9912C47.2924 54.9912 46.8702 54.5387 46.84 53.845C46.8098 53.1814 46.8098 52.4574 46.8098 51.7335Z" fill="#003B72"/>
<path d="M24.4587 51.7636C24.4587 52.4875 24.4889 53.1813 24.4587 53.9052C24.4286 54.5688 24.0365 54.9911 23.4935 55.0213C22.9204 55.0515 22.4378 54.599 22.4076 53.9354C22.3775 52.5177 22.3775 51.0699 22.4076 49.6522C22.4378 48.9584 22.8601 48.5361 23.4634 48.5361C24.0666 48.5361 24.4587 48.9584 24.4587 49.6823C24.4587 50.3761 24.4587 51.0699 24.4587 51.7636Z" fill="#003B72"/>
<path d="M33.929 12.4308C36.5834 12.5213 39.5093 12.7023 42.1938 14.1199C42.8876 14.4819 43.521 14.9344 44.0941 15.5075C44.5164 15.9599 44.5466 16.5029 44.1846 16.9553C43.8227 17.3776 43.2194 17.4681 42.7669 17.076C40.0522 14.693 36.7041 14.6026 33.3861 14.5724C32.089 14.5724 30.7619 14.6931 29.4648 14.874C29.0124 14.9344 28.8917 15.1153 28.9219 15.5376C28.952 16.1409 28.952 16.7442 28.9219 17.3474C28.8917 18.0412 28.4996 18.4333 27.9265 18.4333C27.3232 18.4333 26.9009 18.0714 26.8708 17.3776C26.8406 16.5632 26.8104 15.7186 26.8708 14.9042C26.9311 13.7881 27.7153 13.0341 28.8012 12.8832C30.3999 12.6118 32.0287 12.4911 33.929 12.4308Z" fill="#003B72"/>
<path d="M56.7926 25.2498C58.6628 25.3705 60.5027 25.5514 62.2824 26.2452C62.403 26.3055 62.5539 26.3357 62.6745 26.396C63.2175 26.6977 63.4286 27.1803 63.2476 27.7232C63.0063 28.3265 62.5237 28.5376 61.9506 28.3265C59.9598 27.5422 57.8785 27.4216 55.7972 27.3009C55.013 27.2708 54.6208 26.8485 54.6208 26.215C54.651 25.5514 55.1035 25.1895 55.9179 25.2196C56.1893 25.2196 56.491 25.2498 56.7926 25.2498Z" fill="#003B72"/>
<mask id="mask0_2551_16002" style="mask-type:alpha" maskUnits="userSpaceOnUse" x="12" y="0" width="44" height="61">
<path d="M55.6968 54.2018V56.7993C44.1165 57.8815 20.2416 60.0461 17.3844 60.0461C13.8129 60.0461 14.1376 57.7733 14.1376 57.1239C14.1376 56.6045 13.2718 51.2797 12.8389 48.6822L16.4104 43.4873L18.3585 41.5392L21.6053 39.2664C22.0382 38.7253 22.904 37.4482 22.904 36.669C22.904 35.6949 23.2287 31.7988 22.904 30.5C22.5793 29.2013 19.6572 18.4868 19.0078 14.9153C18.4883 12.0581 20.0901 4.41725 20.9559 0.953979H48.2292C49.6361 4.41725 52.45 11.4737 52.45 11.9932C52.45 12.6425 48.2292 24.9804 48.2292 25.6298V35.0456L51.476 39.9158L55.6968 44.1367V54.2018Z" fill="#D9D9D9"/>
</mask>
<g mask="url(#mask0_2551_16002)">
<path d="M0.17627 45.6404C0.719213 42.8352 3.19262 42.1716 5.3644 41.0254C3.88639 40.3316 2.64967 39.5172 1.7146 38.2805C1.3828 37.8582 1.20182 37.4058 1.41297 36.8629C2.10673 35.2039 2.16705 33.4544 2.25754 31.7049C2.34803 30.0157 2.28771 28.3266 2.67984 26.6676C3.52442 22.9876 6.57093 20.1221 10.0699 19.6998C14.3833 19.187 18.2442 21.7509 19.5714 25.9437C20.0239 27.3915 20.0842 28.8997 20.1143 30.3777C20.1747 31.9764 20.235 33.5449 20.5065 35.1134C20.597 35.596 20.6875 36.0786 20.8986 36.5009C21.2304 37.1946 21.0796 37.7678 20.597 38.3409C19.6619 39.4871 18.4855 40.2713 17.1282 40.9048C17.6108 41.327 17.9727 41.4477 18.576 41.1461C20.416 40.2412 22.4068 39.6982 24.3071 38.9441C24.9707 38.6727 25.6041 38.5218 25.9661 37.7376C26.2677 37.074 26.9916 36.5612 27.5346 36.0183C27.7759 35.777 27.8965 35.5055 27.8664 35.1435C27.8664 35.053 27.8664 34.9625 27.8664 34.8721C28.0775 33.1527 27.5949 31.7954 26.328 30.4682C24.2468 28.2964 23.4323 25.461 23.4323 22.4749C23.4323 20.9667 23.1005 19.5792 22.7687 18.1615C22.0448 14.934 21.8337 11.6462 23.3418 8.53932C25.0612 5.07051 27.9569 3.10988 31.8178 2.98923C37.0662 2.83841 42.3449 2.9289 47.5933 2.9289C48.4077 2.9289 48.83 3.35119 48.83 4.16561C48.83 7.87572 48.8602 11.5858 48.83 15.2959C48.83 16.774 48.5284 18.2218 47.9251 19.6093C47.714 20.0618 47.7441 20.5142 47.7441 20.9667C47.7743 23.0178 47.714 25.0689 46.9599 27.0295C46.2359 28.8997 45.1802 30.4983 43.7022 31.8557C43.4307 32.097 43.2498 32.3685 43.3101 32.7305C43.3101 32.7908 43.3101 32.8813 43.3101 32.9416C43.0386 34.7816 43.4609 36.3501 45.0294 37.4661C45.0897 37.4963 45.1501 37.5566 45.1802 37.6169C45.4517 38.6727 46.4169 38.7631 47.2313 39.0648C48.4077 39.4871 49.5841 39.8792 50.7303 40.3618C51.3034 40.6031 51.8162 40.6634 52.3893 40.4221C52.6608 40.3015 52.9624 40.2412 53.2339 40.1507C54.5912 39.7585 54.6817 39.5776 54.5007 38.19C54.4706 37.9487 54.3198 37.8281 54.169 37.7074C52.1178 35.9881 51.1224 33.756 51.1828 31.1016C51.2129 30.2269 51.0319 29.4426 50.6398 28.6584C48.7998 24.7974 51.6051 19.9713 55.8883 19.6696C59.4174 19.4283 62.9465 19.6093 66.4757 19.5792C67.1996 19.5792 67.652 19.9411 67.652 20.6047C67.652 22.8067 67.8028 24.9784 67.5615 27.1804C67.5012 27.6931 67.3806 28.2059 67.1091 28.6282C66.6265 29.4728 66.536 30.3475 66.5662 31.2826C66.6265 33.937 65.6914 36.1389 63.58 37.7979C62.9465 38.2805 63.2783 38.9441 63.2783 39.5172C63.2783 39.9395 63.7308 39.9697 64.0626 40.0602C65.2691 40.4221 66.5058 40.7539 67.7124 41.1159C69.8238 41.7493 71.0002 43.348 71.0002 45.5198C71.0002 48.2043 71.0002 50.8587 71.0002 53.5433C71.0002 54.4482 70.6081 54.961 69.9445 54.961C69.2809 54.961 68.9189 54.4482 68.9189 53.5131C68.9189 50.9492 68.9189 48.3853 68.9189 45.8214C68.9189 44.1926 68.376 43.4687 66.8376 43.0162C65.5406 42.6241 64.2134 42.2621 62.9164 41.87C62.6449 41.7795 62.4338 41.7795 62.2528 42.0208C62.2226 42.051 62.1924 42.0811 62.1623 42.1113C61.4384 42.8654 60.443 43.4687 60.0508 44.3736C59.6889 45.2483 59.9302 46.3644 59.9302 47.3899C59.9302 49.4109 59.9302 51.462 59.9302 53.4829C59.9302 53.7544 59.9302 54.0259 59.8397 54.2974C59.6587 54.7498 59.2967 54.9911 58.8141 54.961C58.3315 54.9308 57.9997 54.6292 57.9092 54.1465C57.8489 53.9052 57.8791 53.6338 57.8791 53.3925C57.8791 50.5872 57.8791 47.7519 57.8791 44.9467C57.8791 44.5545 57.7886 44.2529 57.4869 43.9814C56.9742 43.529 56.4915 43.0162 56.0089 42.5336C55.1945 41.7192 55.1945 41.7192 54.0181 42.2018C55.466 43.71 55.5866 45.5499 55.5565 47.4804C55.5263 49.441 55.5565 51.4017 55.5565 53.3623C55.5565 53.5734 55.5565 53.7846 55.5565 53.9957C55.466 54.599 55.0437 54.9911 54.5007 54.9911C53.9578 54.961 53.5355 54.5688 53.5054 53.9354C53.4752 52.7289 53.5054 51.5223 53.5054 50.3459C53.5054 48.9283 53.5054 47.5407 53.5054 46.1231C53.5054 44.4942 52.6909 43.3178 51.1526 42.7447C49.1015 41.9907 47.0504 41.2366 44.9992 40.4825C44.6674 40.3618 44.4865 40.4221 44.2753 40.7238C43.4911 41.9303 42.7068 43.1067 41.8924 44.2831C40.897 45.7611 39.4793 45.8817 38.2125 44.645C37.76 44.1926 37.3377 43.7401 36.8551 43.2274C36.6439 43.5592 36.7043 43.8306 36.7043 44.0719C36.7043 47.1184 36.7043 50.165 36.7043 53.2115C36.7043 54.4482 36.3725 54.9911 35.6486 54.961C34.9246 54.961 34.623 54.4482 34.623 53.2416C34.623 50.1951 34.623 47.1486 34.623 44.1021C34.623 43.8608 34.623 43.5893 34.623 43.2575C34.0197 43.6195 33.6276 44.1323 33.2053 44.5244C31.8178 45.8817 30.4303 45.7611 29.3444 44.1323C28.5601 42.986 27.806 41.8398 27.052 40.6635C26.8408 40.3618 26.6598 40.3015 26.328 40.4221C24.2769 41.1762 22.2258 41.9002 20.1747 42.6844C18.6062 43.2575 17.8219 44.4339 17.8219 46.1532C17.8219 48.5663 17.8219 50.9492 17.8219 53.3623C17.8219 53.6036 17.8219 53.8147 17.7917 54.0561C17.7013 54.6292 17.3393 54.9308 16.8265 54.961C16.3138 54.9911 15.9518 54.6895 15.8311 54.1767C15.7708 53.9354 15.7708 53.6639 15.7708 53.4226C15.7708 51.0397 15.7708 48.6568 15.7708 46.304C15.7708 45.3388 15.9216 44.4339 16.3439 43.5592C16.4344 43.3782 16.7964 43.1067 16.3741 42.9559C16.0121 42.8051 15.7105 42.2923 15.2279 42.7447C14.8357 43.1369 14.4436 43.529 13.9912 43.8608C12.3322 45.1578 10.1906 45.1277 8.56172 43.8608C8.44107 43.7703 8.35058 43.6798 8.22993 43.5893C7.80764 43.2575 7.506 42.5638 6.99322 42.5939C6.48044 42.5939 5.99783 43.0162 5.51521 43.2575C4.97227 43.529 4.39916 43.8306 3.85622 44.1021C2.8005 44.6149 2.34805 45.4293 2.34805 46.6057C2.37821 48.8981 2.34805 51.2207 2.34805 53.5131C2.34805 54.0862 2.2877 54.6292 1.65427 54.8705C0.990673 55.1118 0.628719 54.7197 0.266756 54.2672C0.176266 51.462 0.17627 48.5361 0.17627 45.6404ZM39.0269 5.10067C36.7344 5.10067 34.4722 5.07051 32.1797 5.10067C28.53 5.19116 25.4231 7.66457 24.6992 11.2239C24.2166 13.5766 24.1864 15.9897 25.031 18.252C25.4834 19.549 25.6041 20.7857 25.5739 22.1129C25.5739 23.8624 25.8756 25.5515 26.5995 27.1502C28.4395 31.1016 32.3306 33.3036 36.7948 32.9114C40.716 32.5796 44.2753 29.4728 45.3311 25.4912C45.7533 23.8624 45.6628 22.2034 45.693 20.5444C45.693 20.0316 45.7533 19.549 45.9645 19.0664C46.5376 17.7995 46.7789 16.4422 46.7789 15.0245C46.8091 11.9176 46.7789 8.81079 46.8091 5.67378C46.8091 5.19117 46.6884 5.04035 46.1756 5.07051C43.8229 5.10068 41.4098 5.10067 39.0269 5.10067ZM65.6612 24.164C65.6612 23.5607 65.6311 22.9575 65.6612 22.3542C65.6914 21.8414 65.5104 21.6906 64.9976 21.6906C62.3433 21.7208 59.6889 21.6906 57.0345 21.7208C56.5217 21.7208 56.0089 21.7811 55.5263 21.9017C52.8418 22.5653 51.3034 25.7325 52.7211 28.1758C53.1736 28.96 53.3545 29.7744 53.2942 30.6793C53.264 31.5842 53.3244 32.459 53.5657 33.3337C54.2293 35.5357 56.1296 37.074 58.5125 37.3455C60.5334 37.5868 62.7354 36.3501 63.7911 34.4498C64.334 33.4845 64.4849 32.4288 64.515 31.3128C64.5452 30.5285 64.2737 29.6839 64.6659 28.9902C65.5708 27.5122 65.7819 25.8833 65.6612 24.164ZM18.0029 30.619C18.0632 27.5423 17.5203 25.7627 16.1026 24.0132C13.6895 21.0572 8.8332 21.0572 6.35979 23.983C4.97227 25.6119 4.45949 27.5122 4.45949 29.6236C4.45949 30.1967 4.21817 30.8301 5.12307 30.981C5.27389 31.0111 5.39455 31.2223 5.48504 31.3731C5.69618 31.7351 5.66603 32.1875 5.69619 32.5796C5.96766 34.9324 8.04895 37.2248 10.9446 37.4058C13.2672 37.5566 15.7105 35.9881 16.5249 33.6957C16.7662 33.0019 16.736 32.3987 16.2836 31.7652C14.6547 29.5331 12.3322 28.6885 9.70793 28.4774C9.43646 28.4472 9.28565 28.598 9.13484 28.779C8.71255 29.2315 8.29025 29.6839 7.80763 30.1062C7.47584 30.4079 7.05355 30.438 6.66142 30.2269C6.2693 30.0157 6.11848 29.6839 6.14864 29.2616C6.20897 28.5679 8.4109 26.3659 9.10466 26.3961C11.1256 26.4263 13.0863 26.8787 14.8659 27.844C16.0724 28.4472 17.098 29.322 18.0029 30.619ZM41.1986 33.7258C40.9875 33.8163 40.8367 33.8465 40.716 33.9068C38.6951 34.8419 36.5535 35.1737 34.3214 34.9626C32.9942 34.8117 31.7575 34.4799 30.5509 33.9068C30.4001 33.8465 30.2191 33.575 30.0381 33.8465C29.7667 34.2688 30.0985 35.6261 30.5208 35.8976C32.0893 36.9533 33.6276 38.0091 35.1961 39.0949C35.5279 39.3363 35.7692 39.3363 36.101 39.0949C37.398 38.19 38.6649 37.1947 40.0524 36.4406C41.1685 35.8071 41.5003 35.0229 41.2891 33.8767C41.2288 33.8767 41.2288 33.8465 41.1986 33.7258ZM37.2472 40.8444C38.0616 41.6589 38.8157 42.3828 39.5698 43.1369C39.8714 43.4687 40.0223 43.3782 40.2334 43.0464C41.0177 41.8398 41.8321 40.6333 42.6465 39.4268C43.2498 38.4917 43.2498 38.5218 42.4655 37.7678C42.2544 37.5868 42.1337 37.5264 41.8924 37.7074C40.3541 38.733 38.8459 39.7586 37.2472 40.8444ZM31.3653 43.4385C31.4558 43.348 31.5463 43.3178 31.6067 43.2575C32.3306 42.5336 33.0243 41.8097 33.7483 41.1159C34.0197 40.8444 33.8689 40.7539 33.6578 40.6031C32.2702 39.6681 30.8827 38.7028 29.4952 37.7678C29.2237 37.5566 28.9824 37.5566 28.8316 37.8582C28.6506 38.2202 27.8965 38.3107 28.3188 38.9441C29.2539 40.3618 30.2191 41.7795 31.1542 43.1972C31.2145 43.2575 31.2748 43.3178 31.3653 43.4385ZM11.2463 42.8051C12.3322 42.8352 12.9656 42.051 13.6594 41.3572C13.7499 41.2667 13.6895 41.1461 13.6594 41.0254C13.5085 40.573 13.4482 40.1205 13.5085 39.6681C13.5387 39.2156 13.3577 39.1854 12.9958 39.2759C12.0004 39.5474 11.005 39.5474 9.97941 39.3966C8.98401 39.2458 8.98401 39.2458 8.92369 40.2713C8.92369 40.4825 8.86335 40.7238 8.80303 40.9349C8.77286 41.0556 8.68237 41.2064 8.80303 41.327C9.46662 42.051 10.1001 42.8051 11.2463 42.8051ZM61.2272 39.7585C61.3479 39.1553 61.0161 39.1854 60.5636 39.2759C59.4777 39.5474 58.3617 39.5776 57.306 39.2759C56.7932 39.1251 56.6122 39.2156 56.6122 39.7585C56.6122 40.0602 56.6725 40.2713 56.8837 40.4825C57.4568 41.0556 58.0299 41.5985 58.603 42.2018C58.8443 42.4431 58.9951 42.5034 59.2666 42.232C59.8397 41.6287 60.4128 41.0556 61.0161 40.4825C61.1971 40.2713 61.2875 40.0602 61.2272 39.7585ZM4.12768 34.8721C3.9467 35.6261 3.79588 36.2596 3.6149 36.8629C3.52441 37.1946 3.58474 37.3756 3.82605 37.5868C4.58013 38.3107 5.45488 38.8235 6.45028 39.2156C6.57093 39.2759 6.81224 39.3966 6.81224 39.1553C6.81224 38.7632 7.02338 38.3107 6.63125 38.0091C5.57553 37.1645 4.76112 36.1389 4.12768 34.8721ZM18.2744 34.9022C17.6409 36.1993 16.8567 37.1946 15.801 38.0091C15.3787 38.3107 15.5898 38.7632 15.62 39.1553C15.62 39.3363 15.8311 39.2759 15.9518 39.2156C16.9773 38.7933 17.9124 38.2805 18.6665 37.4963C18.7872 37.3756 18.9078 37.2248 18.8475 37.0137C18.6665 36.3501 18.4855 35.6865 18.2744 34.9022Z" fill="#003B72"/>
<path d="M46.8098 51.7335C46.8098 51.0398 46.8098 50.346 46.8098 49.6522C46.84 48.9886 47.2019 48.5664 47.7751 48.506C48.3783 48.4759 48.8609 48.8982 48.8911 49.5618C48.9213 51.0096 48.9213 52.4575 48.8911 53.9053C48.8911 54.5387 48.4085 54.9912 47.8655 54.9912C47.2924 54.9912 46.8702 54.5387 46.84 53.845C46.8098 53.1814 46.8098 52.4574 46.8098 51.7335Z" fill="#003B72"/>
<path d="M24.4587 51.7636C24.4587 52.4875 24.4889 53.1813 24.4587 53.9052C24.4286 54.5688 24.0365 54.9911 23.4935 55.0213C22.9204 55.0515 22.4378 54.599 22.4076 53.9354C22.3775 52.5177 22.3775 51.0699 22.4076 49.6522C22.4378 48.9584 22.8601 48.5361 23.4634 48.5361C24.0666 48.5361 24.4587 48.9584 24.4587 49.6823C24.4587 50.3761 24.4587 51.0699 24.4587 51.7636Z" fill="#003B72"/>
<path d="M33.929 12.4308C36.5834 12.5213 39.5093 12.7023 42.1938 14.1199C42.8876 14.4819 43.521 14.9344 44.0941 15.5075C44.5164 15.9599 44.5466 16.5029 44.1846 16.9553C43.8227 17.3776 43.2194 17.4681 42.7669 17.076C40.0522 14.693 36.7041 14.6026 33.3861 14.5724C32.089 14.5724 30.7619 14.6931 29.4648 14.874C29.0124 14.9344 28.8917 15.1153 28.9219 15.5376C28.952 16.1409 28.952 16.7442 28.9219 17.3474C28.8917 18.0412 28.4996 18.4333 27.9265 18.4333C27.3232 18.4333 26.9009 18.0714 26.8708 17.3776C26.8406 16.5632 26.8104 15.7186 26.8708 14.9042C26.9311 13.7881 27.7153 13.0341 28.8012 12.8832C30.3999 12.6118 32.0287 12.4911 33.929 12.4308Z" fill="#003B72"/>
<path d="M56.7926 25.2498C58.6628 25.3705 60.5027 25.5514 62.2824 26.2452C62.403 26.3055 62.5539 26.3357 62.6745 26.396C63.2175 26.6977 63.4286 27.1803 63.2476 27.7232C63.0063 28.3265 62.5237 28.5376 61.9506 28.3265C59.9598 27.5422 57.8785 27.4216 55.7972 27.3009C55.013 27.2708 54.6208 26.8485 54.6208 26.215C54.651 25.5514 55.1035 25.1895 55.9179 25.2196C56.1893 25.2196 56.491 25.2498 56.7926 25.2498Z" fill="#003B72"/>
</g>
</svg>
