<svg width="219" height="72" viewBox="0 0 219 72" fill="none" xmlns="http://www.w3.org/2000/svg">
<path d="M54.0413 5.32077L52.3367 11.1448L51.4913 10.6949C40.288 4.06023 42.2836 5.43368 37.5364 2.49316H55.8379L55.8208 2.55537C54.9742 3.28478 54.3561 4.24535 54.0413 5.32077V5.32077Z" fill="#003B72"/>
<path d="M19.6299 5.88856V9.50671C19.6263 9.988 19.4328 10.4482 19.0918 10.786C18.7508 11.1238 18.2904 11.3116 17.8117 11.308H2.53254V3.66978C2.53256 3.35773 2.65586 3.05847 2.8753 2.83781C3.09474 2.61716 3.39236 2.49318 3.7027 2.49316H26.3997L23.7697 5.88856H19.6299ZM8.44302 4.07588C7.94507 3.60038 7.29916 3.31227 6.6144 3.2602C5.92964 3.20813 5.24798 3.3953 4.68458 3.79009C4.12117 4.18489 3.71052 4.7631 3.52202 5.42709C3.33352 6.09107 3.37869 6.80012 3.64993 7.43449C3.92116 8.06886 4.40184 8.58965 5.01074 8.90892C5.61965 9.22819 6.31946 9.32635 6.99202 9.18684C7.66457 9.04733 8.26865 8.67869 8.70219 8.14319C9.13572 7.60768 9.37217 6.93813 9.37158 6.24763C9.37184 5.84116 9.28961 5.43892 9.12995 5.0655C8.97029 4.69208 8.73656 4.35534 8.44302 4.07588V4.07588Z" fill="#003B72"/>
<path d="M52.1472 15.2876L46.0556 11.9242C45.9491 11.8654 45.8293 11.8355 45.708 11.8375C45.5866 11.8394 45.4678 11.8731 45.3633 11.9353C45.2588 11.9975 45.1722 12.0859 45.1121 12.192C45.052 12.298 45.0203 12.418 45.0203 12.5401V15.3625C45.0203 15.4874 45.0535 15.6101 45.1163 15.7179C45.1792 15.8256 45.2695 15.9146 45.3779 15.9757L51.8376 19.6111C51.9327 19.6636 52.0388 19.6927 52.1472 19.696V30.3871H44.4187C43.5231 30.3871 42.6445 30.1417 41.8772 29.6774C41.1098 29.2131 40.4828 28.5473 40.0634 27.7517L31.3673 11.7034L28.6357 6.66233C28.5137 6.43847 28.3342 6.25162 28.1159 6.12126C27.8976 5.99089 27.6486 5.9218 27.3947 5.92118H24.3865L28.1853 1.15088H33.8349L52.1472 11.7652V15.2876ZM34.3357 4.32144C33.9569 4.32143 33.5865 4.43438 33.2715 4.64603C32.9564 4.85767 32.7109 5.1585 32.5659 5.51047C32.4209 5.86244 32.3829 6.24974 32.4568 6.62339C32.5307 6.99704 32.7132 7.34027 32.9811 7.60966C33.249 7.87905 33.5903 8.06251 33.9619 8.13684C34.3335 8.21117 34.7187 8.17303 35.0687 8.02724C35.4188 7.88146 35.718 7.63457 35.9285 7.3178C36.139 7.00104 36.2513 6.62862 36.2513 6.24765C36.2513 5.7368 36.0495 5.24688 35.6903 4.88564C35.331 4.52441 34.8438 4.32146 34.3357 4.32144V4.32144Z" fill="#003B72"/>
<path d="M119.725 16.5368C119.618 16.0333 119.361 15.5746 118.988 15.2213C118.616 14.8681 118.145 14.6369 117.639 14.5585C117.133 14.4801 116.615 14.5581 116.154 14.7823C115.693 15.0064 115.311 15.3661 115.058 15.8136L109.042 16.4874L109.052 16.5772H108.836L108.813 16.3688C108.799 16.2452 108.762 16.1255 108.702 16.0165C108.642 15.9076 108.562 15.8116 108.465 15.7339C108.369 15.6563 108.258 15.5985 108.139 15.564C108.02 15.5295 107.896 15.5189 107.773 15.5328L98.4502 16.5772H91.1721V14.8675C91.1721 14.7134 91.1453 14.5605 91.0929 14.4156L87.6787 4.97552C87.3286 4.00756 86.7285 3.1508 85.9401 2.49333H123.938C123.222 3.17686 122.727 4.06034 122.516 5.02968C122.305 5.99902 122.388 7.00971 122.754 7.93123C123.12 8.85275 123.752 9.64279 124.569 10.1993C125.386 10.7559 126.351 11.0533 127.338 11.0533C128.324 11.0533 129.289 10.7559 130.106 10.1993C130.923 9.64279 131.555 8.85275 131.921 7.93123C132.287 7.00971 132.37 5.99902 132.159 5.02968C131.948 4.06034 131.453 3.17686 130.737 2.49333H201.641V1.9082H203.711V17.1195H201.641V16.5772H119.732C119.729 16.5638 119.728 16.55 119.725 16.5368ZM202.778 9.9267C202.868 9.92669 202.956 9.89988 203.03 9.84965C203.105 9.79942 203.163 9.72803 203.198 9.64451C203.232 9.56099 203.241 9.46909 203.224 9.38043C203.206 9.29177 203.163 9.21033 203.099 9.14641C203.036 9.0825 202.955 9.03897 202.866 9.02135C202.778 9.00372 202.687 9.01278 202.604 9.04738C202.521 9.08198 202.45 9.14057 202.4 9.21574C202.35 9.2909 202.323 9.37927 202.323 9.46967C202.323 9.5297 202.335 9.58913 202.358 9.64459C202.381 9.70004 202.414 9.75043 202.456 9.79287C202.499 9.83531 202.549 9.86897 202.604 9.89194C202.659 9.9149 202.718 9.92671 202.778 9.9267ZM132.1 9.70985H201.112V15.6022C201.112 15.6541 201.133 15.7039 201.169 15.7407C201.206 15.7774 201.255 15.798 201.307 15.798C201.359 15.798 201.408 15.7774 201.445 15.7407C201.481 15.7039 201.502 15.6541 201.502 15.6022V3.42571C201.502 3.37376 201.481 3.32394 201.445 3.2872C201.408 3.25047 201.359 3.22983 201.307 3.22983C201.255 3.22983 201.206 3.25047 201.169 3.2872C201.133 3.32394 201.112 3.37376 201.112 3.42571V9.31802H132.1C132.048 9.31802 131.999 9.33866 131.962 9.3754C131.926 9.41214 131.905 9.46197 131.905 9.51393C131.905 9.56589 131.926 9.61572 131.962 9.65246C131.999 9.6892 132.048 9.70985 132.1 9.70985V9.70985ZM122.798 9.51393C122.798 9.4882 122.793 9.46272 122.783 9.43895C122.773 9.41517 122.759 9.39357 122.741 9.37538C122.723 9.35718 122.701 9.34275 122.677 9.33291C122.654 9.32307 122.628 9.31801 122.603 9.31802H90.5726C90.5209 9.31802 90.4713 9.33866 90.4348 9.3754C90.3983 9.41214 90.3777 9.46197 90.3777 9.51393C90.3777 9.56589 90.3983 9.61572 90.4348 9.65246C90.4713 9.6892 90.5209 9.70985 90.5726 9.70985H122.603C122.628 9.70986 122.654 9.7048 122.677 9.69496C122.701 9.68512 122.723 9.67069 122.741 9.65249C122.759 9.6343 122.773 9.6127 122.783 9.58892C122.793 9.56515 122.798 9.53966 122.798 9.51393V9.51393Z" fill="#003B72"/>
<path d="M69.5724 44.1182L75.1611 53.6325V62.3483H73.5715C73.8983 60.5491 73.8279 58.6997 73.3652 56.9309C72.9025 55.1621 72.0588 53.5172 70.8939 52.1125C69.729 50.7079 68.2713 49.5778 66.624 48.8023C64.9767 48.0268 63.18 47.6249 61.3611 47.6249C59.5421 47.6249 57.7454 48.0268 56.0981 48.8023C54.4508 49.5778 52.9931 50.7079 51.8282 52.1125C50.6633 53.5172 49.8196 55.1621 49.357 56.9309C48.8943 58.6997 48.8238 60.5491 49.1506 62.3483H47.486C47.8129 60.5491 47.7425 58.6997 47.2799 56.9308C46.8172 55.162 45.9736 53.5171 44.8087 52.1124C43.6438 50.7077 42.1861 49.5776 40.5388 48.8021C38.8915 48.0266 37.0948 47.6246 35.2758 47.6246C33.4569 47.6246 31.6602 48.0266 30.0129 48.8021C28.3655 49.5776 26.9078 50.7077 25.7429 52.1124C24.578 53.5171 23.7344 55.162 23.2718 56.9308C22.8091 58.6997 22.7388 60.5491 23.0656 62.3483H21.2773V53.6325L26.8656 44.1182H69.5724Z" fill="#003B72"/>
<path d="M140.678 44.1182L146.266 53.6325V62.3483H144.483C144.81 60.5491 144.74 58.6996 144.277 56.9308C143.814 55.1619 142.971 53.5169 141.806 52.1122C140.641 50.7075 139.183 49.5774 137.536 48.8019C135.888 48.0264 134.092 47.6244 132.273 47.6244C130.454 47.6244 128.657 48.0264 127.01 48.8019C125.362 49.5774 123.905 50.7075 122.74 52.1122C121.575 53.5169 120.731 55.1619 120.269 56.9308C119.806 58.6996 119.736 60.5491 120.062 62.3483H118.398C118.725 60.5491 118.654 58.6997 118.192 56.9308C117.729 55.162 116.885 53.5171 115.72 52.1124C114.555 50.7077 113.098 49.5776 111.45 48.8021C109.803 48.0266 108.006 47.6246 106.187 47.6246C104.369 47.6246 102.572 48.0266 100.925 48.8021C99.2772 49.5776 97.8195 50.7077 96.6546 52.1124C95.4897 53.5171 94.6461 55.162 94.1834 56.9308C93.7208 58.6997 93.6504 60.5491 93.9773 62.3483H92.4758V53.6325L98.0645 44.1182H140.678Z" fill="#003B72"/>
<path d="M61.3612 57.2788C61.9176 57.2788 62.4615 57.4447 62.9241 57.7556C63.3867 58.0664 63.7473 58.5082 63.9602 59.0251C64.1731 59.5419 64.2288 60.1107 64.1203 60.6594C64.0117 61.2081 63.7438 61.7122 63.3503 62.1078C62.9569 62.5034 62.4556 62.7728 61.9099 62.8819C61.3642 62.991 60.7986 62.935 60.2845 62.7209C59.7705 62.5068 59.3311 62.1442 59.022 61.679C58.7129 61.2139 58.5479 60.667 58.5479 60.1075C58.5479 59.736 58.6207 59.3682 58.7621 59.025C58.9035 58.6818 59.1107 58.37 59.3719 58.1073C59.6331 57.8446 59.9433 57.6363 60.2846 57.4941C60.6259 57.352 60.9917 57.2788 61.3612 57.2788V57.2788Z" fill="#003B72"/>
<path d="M35.2758 57.2788C35.8322 57.2788 36.3761 57.4448 36.8387 57.7556C37.3013 58.0664 37.6619 58.5082 37.8748 59.0251C38.0877 59.542 38.1434 60.1107 38.0348 60.6595C37.9262 61.2082 37.6583 61.7122 37.2648 62.1078C36.8714 62.5034 36.3701 62.7728 35.8244 62.8819C35.2787 62.991 34.7131 62.935 34.1991 62.7209C33.685 62.5068 33.2457 62.1442 32.9366 61.679C32.6275 61.2138 32.4625 60.6669 32.4625 60.1075C32.4625 59.736 32.5352 59.3682 32.6766 59.025C32.818 58.6818 33.0252 58.3699 33.2865 58.1073C33.5477 57.8446 33.8579 57.6362 34.1992 57.4941C34.5405 57.3519 34.9064 57.2788 35.2758 57.2788V57.2788Z" fill="#003B72"/>
<path d="M35.2759 48.2144C37.0685 48.2143 38.8377 48.624 40.4497 49.4125C42.0618 50.2009 43.4745 51.3475 44.5811 52.7656C45.6877 54.1837 46.4593 55.8361 46.8375 57.5981C47.2157 59.36 47.1907 61.1854 46.7643 62.9362C46.7162 63.1343 46.6615 63.3299 46.6037 63.524C45.8733 65.974 44.3767 68.1219 42.3361 69.6489C40.2954 71.1759 37.8195 72.0006 35.2759 72.0006C32.7322 72.0006 30.2563 71.1759 28.2156 69.6489C26.175 68.1219 24.6784 65.974 23.948 63.524C23.8902 63.3299 23.8355 63.1343 23.7874 62.9362C23.361 61.1854 23.3361 59.3601 23.7143 57.5982C24.0926 55.8362 24.8641 54.1838 25.9708 52.7657C27.0774 51.3477 28.4901 50.2011 30.1021 49.4126C31.7141 48.6241 33.4832 48.2144 35.2759 48.2144V48.2144ZM29.7815 62.9362C30.4711 64.2838 31.6282 65.3304 33.0337 65.8778C34.4392 66.4252 35.9956 66.4353 37.408 65.9062C38.8204 65.3772 39.9909 64.3457 40.6978 63.0072C41.4046 61.6686 41.5988 60.1159 41.2435 58.643C40.8882 57.1702 40.0081 55.8794 38.7699 55.0153C37.5316 54.1511 36.0213 53.7735 34.5248 53.954C33.0282 54.1344 31.6495 54.8604 30.6495 55.9945C29.6496 57.1285 29.098 58.5919 29.0991 60.1074C29.1003 61.0914 29.3342 62.061 29.7815 62.9362H29.7815Z" fill="#003B72"/>
<path d="M61.3611 48.2144C63.1538 48.2144 64.9229 48.6241 66.5349 49.4126C68.147 50.201 69.5596 51.3476 70.6663 52.7657C71.7729 54.1838 72.5444 55.8362 72.9227 57.5981C73.3009 59.3601 73.2759 61.1854 72.8496 62.9362C72.8014 63.1343 72.7469 63.3299 72.689 63.524C71.9586 65.974 70.462 68.1219 68.4214 69.6489C66.3807 71.1759 63.9048 72.0006 61.3611 72.0006C58.8175 72.0006 56.3416 71.1759 54.3009 69.6489C52.2603 68.1219 50.7637 65.974 50.0333 63.524C49.9755 63.3299 49.9208 63.1343 49.8726 62.9362C49.4464 61.1854 49.4214 59.3601 49.7997 57.5982C50.178 55.8363 50.9496 54.1839 52.0562 52.7658C53.1628 51.3478 54.5754 50.2012 56.1874 49.4127C57.7994 48.6242 59.5685 48.2144 61.3611 48.2144V48.2144ZM55.8668 62.9362C56.5564 64.2838 57.7135 65.3304 59.119 65.8778C60.5245 66.4252 62.0809 66.4353 63.4933 65.9062C64.9057 65.3772 66.0762 64.3457 66.7831 63.0072C67.4899 61.6686 67.6841 60.1159 67.3288 58.643C66.9735 57.1702 66.0934 55.8794 64.8552 55.0153C63.6169 54.1511 62.1066 53.7735 60.61 53.954C59.1135 54.1344 57.7347 54.8604 56.7348 55.9945C55.7349 57.1285 55.1833 58.5919 55.1844 60.1074C55.1856 61.0914 55.4195 62.061 55.8668 62.9362V62.9362Z" fill="#003B72"/>
<path d="M132.273 57.2788C132.829 57.2788 133.373 57.4448 133.836 57.7556C134.298 58.0664 134.659 58.5082 134.872 59.0251C135.085 59.542 135.14 60.1107 135.032 60.6595C134.923 61.2082 134.655 61.7122 134.262 62.1078C133.868 62.5034 133.367 62.7728 132.822 62.8819C132.276 62.991 131.71 62.935 131.196 62.7209C130.682 62.5068 130.243 62.1442 129.934 61.679C129.625 61.2138 129.46 60.6669 129.46 60.1075C129.46 59.736 129.532 59.3682 129.674 59.025C129.815 58.6818 130.022 58.3699 130.284 58.1073C130.545 57.8446 130.855 57.6362 131.196 57.4941C131.538 57.352 131.903 57.2788 132.273 57.2788V57.2788Z" fill="#003B72"/>
<path d="M106.187 57.2788C106.744 57.2788 107.288 57.4447 107.75 57.7555C108.213 58.0663 108.574 58.5081 108.787 59.025C109 59.5419 109.055 60.1106 108.947 60.6594C108.838 61.2081 108.57 61.7121 108.177 62.1077C107.783 62.5033 107.282 62.7727 106.736 62.8819C106.191 62.991 105.625 62.935 105.111 62.7209C104.597 62.5068 104.158 62.1442 103.848 61.679C103.539 61.2139 103.374 60.667 103.374 60.1075C103.374 59.3573 103.671 58.6378 104.198 58.1073C104.726 57.5769 105.441 57.2788 106.187 57.2788V57.2788Z" fill="#003B72"/>
<path d="M106.187 48.2144C107.98 48.2144 109.749 48.6241 111.361 49.4125C112.973 50.201 114.386 51.3476 115.493 52.7657C116.599 54.1837 117.371 55.8362 117.749 57.5981C118.127 59.3601 118.102 61.1854 117.676 62.9362C117.628 63.1343 117.573 63.3299 117.515 63.524C116.785 65.974 115.288 68.1219 113.248 69.6489C111.207 71.1759 108.731 72.0006 106.187 72.0006C103.644 72.0006 101.168 71.1759 99.1273 69.6489C97.0866 68.1219 95.5901 65.974 94.8596 63.524C94.8018 63.3299 94.7471 63.1343 94.699 62.9362C94.2727 61.1854 94.2477 59.3601 94.626 57.5982C95.0043 55.8363 95.7758 54.1838 96.8824 52.7658C97.9891 51.3477 99.4017 50.2011 101.014 49.4127C102.626 48.6242 104.395 48.2144 106.187 48.2144V48.2144ZM100.693 62.9362C101.383 64.2839 102.54 65.3307 103.945 65.8781C105.351 66.4256 106.907 66.4357 108.32 65.9067C109.733 65.3777 110.903 64.3462 111.61 63.0075C112.317 61.6689 112.511 60.1161 112.156 58.6431C111.801 57.1702 110.921 55.8794 109.682 55.0151C108.444 54.1509 106.933 53.7732 105.437 53.9537C103.94 54.1341 102.561 54.8601 101.561 55.9942C100.561 57.1283 100.01 58.5918 100.011 60.1074C100.012 61.0914 100.246 62.061 100.693 62.9362Z" fill="#003B72"/>
<path d="M132.273 48.2144C134.065 48.2144 135.835 48.6241 137.447 49.4126C139.059 50.2011 140.471 51.3477 141.578 52.7657C142.685 54.1838 143.456 55.8362 143.834 57.5982C144.213 59.3601 144.188 61.1854 143.761 62.9362C143.713 63.1343 143.659 63.3299 143.601 63.524C142.87 65.974 141.374 68.1219 139.333 69.6489C137.292 71.1759 134.816 72.0006 132.273 72.0006C129.729 72.0006 127.253 71.1759 125.213 69.6489C123.172 68.1219 121.675 65.974 120.945 63.524C120.887 63.3299 120.832 63.1343 120.784 62.9362C120.358 61.1854 120.333 59.3601 120.711 57.5982C121.09 55.8363 121.861 54.1839 122.968 52.7658C124.074 51.3478 125.487 50.2012 127.099 49.4127C128.711 48.6242 130.48 48.2144 132.273 48.2144V48.2144ZM126.779 62.9362C127.468 64.2839 128.625 65.3305 130.031 65.8779C131.436 66.4252 132.993 66.4354 134.405 65.9063C135.818 65.3773 136.988 64.3458 137.695 63.0072C138.402 61.6686 138.596 60.1158 138.241 58.6429C137.885 57.1701 137.005 55.8793 135.767 55.0151C134.529 54.151 133.018 53.7734 131.522 53.9538C130.025 54.1343 128.646 54.8603 127.647 55.9944C126.647 57.1284 126.095 58.5918 126.096 60.1074C126.097 61.0914 126.331 62.061 126.779 62.9362V62.9362Z" fill="#003B72"/>
<path d="M80.1536 49.8877H87.3901V53.0161H80.1536V49.8877Z" fill="#003B72"/>
<path d="M80.1536 45.8511H87.3901V48.7104H80.1536V45.8511Z" fill="#003B72"/>
<path d="M15.4952 43.5311V38.438H152.048V62.9362H146.851V53.4723L141.012 43.5311H97.7308L91.8916 53.4723V62.9362H75.7456V53.4723L69.9064 43.5311H26.5319L20.6927 53.4723V62.9362H15.4952V43.5311ZM79.007 61.4565H80.1535V58.2302H87.39V61.4565H88.5366V41.4953H87.39V44.674H80.1535V41.4953H79.007V61.4565Z" fill="#003B72"/>
<path d="M80.1536 54.1934H87.3901V57.0526H80.1536V54.1934Z" fill="#003B72"/>
<path d="M6.62329 38.438V62.9362H5.76564e-05V45.4706L6.62329 38.438Z" fill="#003B72"/>
<path d="M161.045 38.438L167.669 45.4706V62.9362H161.045V38.438Z" fill="#003B72"/>
<path d="M101.627 36.7047V32.5911L105.719 26.1129L123.802 26.1267L127.082 19.1729H161.045V36.7047H101.627V36.7047ZM149.243 33.9949C149.244 34.3584 149.388 34.7069 149.643 34.9639C149.899 35.221 150.246 35.3656 150.607 35.366H158.205C158.566 35.3656 158.913 35.221 159.169 34.964C159.424 34.7069 159.568 34.3584 159.569 33.9949V30.7C159.568 30.3364 159.424 29.9879 159.169 29.7308C158.913 29.4738 158.566 29.3292 158.205 29.3287H150.607C150.246 29.3292 149.899 29.4738 149.643 29.7309C149.388 29.9879 149.244 30.3364 149.243 30.7L149.243 33.9949Z" fill="#003B72"/>
<path d="M158.205 29.7202H150.607C150.349 29.7202 150.101 29.8234 149.918 30.0071C149.736 30.1908 149.633 30.4399 149.633 30.6997V33.9946C149.633 34.2544 149.736 34.5035 149.918 34.6871C150.101 34.8708 150.349 34.974 150.607 34.974H158.205C158.463 34.974 158.711 34.8708 158.894 34.6871C159.076 34.5035 159.179 34.2544 159.179 33.9946V30.6996C159.179 30.571 159.154 30.4436 159.105 30.3248C159.056 30.206 158.984 30.098 158.894 30.0071C158.803 29.9161 158.696 29.844 158.578 29.7948C158.459 29.7455 158.333 29.7202 158.205 29.7202V29.7202Z" fill="#003B72"/>
<path d="M163.064 36.7046H166.374L177.077 49.8291H192.063L190.66 52.3429H190.67L187.196 58.546H185.575V60.9787C185.575 61.2037 185.486 61.4195 185.328 61.5786C185.17 61.7377 184.955 61.8271 184.731 61.8272H176.435C176.211 61.8271 175.996 61.7378 175.838 61.5786C175.68 61.4195 175.591 61.2037 175.591 60.9787V58.546H169.077V45.0608L162.262 36.7046H163.064ZM176.808 60.1216C176.808 60.3467 176.897 60.5625 177.055 60.7216C177.214 60.8807 177.428 60.9701 177.652 60.9701H183.514C183.624 60.9701 183.734 60.9482 183.836 60.9055C183.939 60.8629 184.032 60.8004 184.11 60.7216C184.189 60.6428 184.251 60.5493 184.293 60.4463C184.336 60.3434 184.357 60.2331 184.357 60.1216V58.546H176.808V60.1216ZM175.601 56.93H186.316L188.482 53.0611H175.601V56.93Z" fill="#003B72"/>
<path d="M167.076 35.66H162.262V19.1729H184.477C185.231 19.1729 185.969 19.3861 186.609 19.7882C187.248 20.1904 187.762 20.7652 188.092 21.447L195.921 37.6352L195.87 37.6238L195.87 37.6241L195.921 37.6352L195.916 37.7423C195.918 37.7642 195.917 37.7864 195.913 37.808L195.637 43.4234L192.964 48.2144H177.15L167.076 35.66ZM172.733 39.2774C172.733 39.3854 172.755 39.4924 172.796 39.5922C172.837 39.692 172.897 39.7827 172.973 39.8591C173.049 39.9355 173.139 39.9961 173.239 40.0375C173.338 40.0788 173.444 40.1001 173.552 40.1001H175.389C175.497 40.1001 175.603 40.0788 175.703 40.0375C175.802 39.9961 175.892 39.9355 175.968 39.8591C176.044 39.7827 176.104 39.692 176.145 39.5922C176.187 39.4924 176.208 39.3854 176.208 39.2774V39.2608C176.208 39.1527 176.187 39.0458 176.145 38.9459C176.104 38.8461 176.044 38.7554 175.968 38.679C175.892 38.6026 175.802 38.542 175.703 38.5006C175.603 38.4593 175.497 38.438 175.389 38.438H173.552C173.444 38.438 173.338 38.4593 173.239 38.5006C173.139 38.542 173.049 38.6026 172.973 38.679C172.897 38.7554 172.837 38.8461 172.796 38.9459C172.755 39.0457 172.733 39.1527 172.733 39.2608V39.2774ZM191.402 35.6146L191.418 33.1861C191.419 33.0154 191.38 32.8468 191.305 32.6938L186.021 21.9152C185.931 21.7315 185.792 21.5768 185.619 21.4686C185.446 21.3604 185.246 21.3031 185.042 21.3031H168.76C168.616 21.3031 168.474 21.3315 168.342 21.3866C168.21 21.4418 168.089 21.5226 167.988 21.6245C167.887 21.7264 167.806 21.8473 167.751 21.9804C167.697 22.1136 167.668 22.2562 167.668 22.4003V31.3258C167.668 31.5679 167.748 31.8032 167.895 31.9951L171.172 36.2767C171.274 36.4098 171.405 36.5177 171.555 36.5919C171.705 36.6661 171.87 36.7047 172.037 36.7047H190.311C190.599 36.7047 190.875 36.5901 191.08 36.3859C191.284 36.1816 191.4 35.9044 191.402 35.6146V35.6146Z" fill="#003B72"/>
<path d="M153.09 53.8965H160.103V62.936H153.09V53.8965Z" fill="#003B72"/>
<path d="M152.647 66.3178H154.697V63.5898H158.522V66.3178H160.546C160.795 66.3178 161.042 66.3671 161.271 66.4628C161.501 66.5586 161.71 66.6989 161.886 66.8758C162.062 67.0527 162.201 67.2627 162.297 67.4938C162.392 67.7249 162.441 67.9727 162.441 68.2228V68.2422H150.752V68.2228C150.752 67.7176 150.952 67.2331 151.307 66.8758C151.662 66.5186 152.144 66.3178 152.647 66.3178V66.3178Z" fill="#003B72"/>
<path d="M156.574 38.438H156.619C156.907 38.438 157.192 38.4951 157.459 38.606C157.725 38.7169 157.967 38.8795 158.171 39.0845C158.375 39.2895 158.537 39.5328 158.647 39.8007C158.757 40.0685 158.814 40.3555 158.814 40.6454V53.2336H154.379V40.6454C154.379 40.06 154.61 39.4985 155.022 39.0845C155.434 38.6706 155.992 38.438 156.574 38.438V38.438ZM156.597 41.7488C156.828 41.7489 157.054 41.6799 157.246 41.5508C157.438 41.4216 157.588 41.2381 157.676 41.0233C157.765 40.8086 157.788 40.5722 157.743 40.3442C157.698 40.1162 157.587 39.9068 157.423 39.7424C157.26 39.578 157.051 39.4661 156.825 39.4207C156.598 39.3754 156.363 39.3986 156.149 39.4876C155.936 39.5765 155.753 39.7272 155.625 39.9205C155.496 40.1138 155.428 40.341 155.428 40.5735C155.428 40.7278 155.458 40.8806 155.517 41.0233C155.575 41.1659 155.661 41.2954 155.77 41.4046C155.879 41.5137 156.007 41.6003 156.149 41.6594C156.291 41.7184 156.443 41.7488 156.597 41.7488V41.7488Z" fill="#003B72"/>
<path d="M7.55581 53.79H14.5691V62.8294H7.55581V53.79Z" fill="#003B72"/>
<path d="M7.11257 66.2114H9.16295V63.4834H12.9876V66.2114H15.0122C15.5146 66.2114 15.9965 66.4121 16.3518 66.7693C16.7071 67.1266 16.9067 67.6111 16.9067 68.1164V68.1357H5.218V68.1164C5.218 67.6112 5.41762 67.1266 5.77292 66.7693C6.12822 66.4121 6.6101 66.2114 7.11257 66.2114Z" fill="#003B72"/>
<path d="M11.0402 38.3311H11.0845C11.3728 38.331 11.6583 38.3881 11.9246 38.4991C12.191 38.61 12.433 38.7726 12.6368 38.9776C12.8407 39.1825 13.0024 39.4259 13.1127 39.6937C13.223 39.9615 13.2798 40.2485 13.2798 40.5384V53.1267H8.84498V40.5384C8.84497 40.2485 8.90177 39.9615 9.01209 39.6937C9.12241 39.4259 9.28411 39.1825 9.48795 38.9776C9.6918 38.7726 9.9338 38.61 10.2001 38.4991C10.4665 38.3881 10.7519 38.331 11.0402 38.3311V38.3311ZM11.0623 41.6418C11.2935 41.6418 11.5195 41.5729 11.7117 41.4438C11.904 41.3146 12.0538 41.1311 12.1422 40.9163C12.2307 40.7015 12.2538 40.4652 12.2087 40.2372C12.1636 40.0092 12.0523 39.7998 11.8889 39.6355C11.7254 39.4711 11.5171 39.3591 11.2904 39.3138C11.0636 39.2684 10.8286 39.2917 10.615 39.3807C10.4014 39.4696 10.2189 39.6203 10.0905 39.8136C9.96203 40.0068 9.89348 40.2341 9.89348 40.4665C9.89348 40.6209 9.9237 40.7737 9.98244 40.9163C10.0412 41.0589 10.1273 41.1885 10.2358 41.2976C10.3444 41.4067 10.4732 41.4933 10.615 41.5524C10.7568 41.6114 10.9088 41.6418 11.0623 41.6418V41.6418Z" fill="#003B72"/>
<path d="M57.2097 33.6357H82.2107V36.7047H57.2097V33.6357Z" fill="#003B72"/>
<path d="M65.3026 25.0493H56.2438C55.979 25.0493 55.7251 25.1551 55.5379 25.3433C55.3506 25.5316 55.2455 25.7869 55.2455 26.0532V29.3834C55.2455 29.6496 55.3506 29.905 55.5379 30.0932C55.7251 30.2815 55.979 30.3873 56.2438 30.3873H65.3026C65.5674 30.3873 65.8213 30.2815 66.0086 30.0932C66.1958 29.9049 66.301 29.6496 66.301 29.3833V26.0533C66.301 25.787 66.1958 25.5316 66.0086 25.3434C65.8213 25.1551 65.5674 25.0493 65.3026 25.0493Z" fill="#003B72"/>
<path d="M127.338 10.2611C126.517 10.2603 125.715 10.0151 125.033 9.55633C124.351 9.09754 123.82 8.44581 123.506 7.68348C123.193 6.92116 123.111 6.08245 123.271 5.27335C123.431 4.46425 123.827 3.72106 124.407 3.1377C124.987 2.55435 125.726 2.157 126.531 1.99588C127.335 1.83476 128.169 1.91709 128.928 2.23248C129.686 2.54786 130.334 3.08213 130.79 3.76779C131.246 4.45345 131.49 5.25971 131.491 6.0847C131.491 7.19234 131.053 8.25461 130.274 9.03783C129.496 9.82105 128.439 10.2611 127.338 10.2611V10.2611ZM127.338 4.68087C127.061 4.68087 126.791 4.7632 126.562 4.91745C126.332 5.07171 126.153 5.29096 126.048 5.54749C125.942 5.80401 125.914 6.08629 125.968 6.35861C126.022 6.63094 126.155 6.88109 126.35 7.07743C126.546 7.27376 126.794 7.40747 127.065 7.46164C127.336 7.5158 127.617 7.488 127.872 7.38174C128.127 7.27548 128.345 7.09554 128.498 6.86466C128.652 6.63379 128.734 6.36237 128.734 6.0847C128.734 5.90035 128.698 5.71779 128.627 5.54747C128.557 5.37714 128.454 5.22238 128.325 5.09202C128.195 4.96166 128.041 4.85826 127.872 4.78771C127.702 4.71717 127.521 4.68086 127.338 4.68087V4.68087Z" fill="#003B72"/>
<path d="M6.38699 8.661C5.91287 8.66059 5.4495 8.51887 5.05546 8.25376C4.66141 7.98864 4.35436 7.61202 4.17311 7.1715C3.99186 6.73098 3.94456 6.24631 4.03715 5.77876C4.12975 5.3112 4.35809 4.88174 4.69335 4.54464C5.0286 4.20753 5.4557 3.97792 5.92069 3.88481C6.38568 3.79171 6.86768 3.83928 7.30579 4.02153C7.7439 4.20378 8.11845 4.51253 8.38211 4.90875C8.64578 5.30497 8.7867 5.77088 8.78711 6.24762C8.78711 6.56455 8.72504 6.87837 8.60442 7.17118C8.48381 7.46398 8.30702 7.73003 8.08414 7.95414C7.63403 8.40673 7.02354 8.661 6.38699 8.661V8.661ZM6.38699 5.43643C6.22742 5.43644 6.07143 5.48402 5.93876 5.57317C5.80609 5.66231 5.7027 5.78901 5.64165 5.93725C5.58059 6.08548 5.56463 6.24859 5.59576 6.40595C5.6269 6.56332 5.70375 6.70786 5.81658 6.8213C5.92942 6.93475 6.07315 7.01201 6.22965 7.0433C6.38615 7.07459 6.54837 7.05852 6.69579 6.99711C6.8432 6.93571 6.96921 6.83172 7.05785 6.69832C7.14649 6.56491 7.19379 6.40806 7.19379 6.24762C7.19377 6.03247 7.10877 5.82614 6.95746 5.67401C6.80616 5.52189 6.60096 5.43643 6.38699 5.43643V5.43643Z" fill="#003B72"/>
<path d="M89.924 14.4155C89.9764 14.5603 90.0032 14.7133 90.0032 14.8674V15.8135H89.9988V16.8909H90.0032V23.6653H89.9988V24.0985C89.9892 24.3325 89.9178 24.5596 89.792 24.7567L85.5152 31.3994C85.3959 31.5847 85.2324 31.737 85.0396 31.8425C84.8468 31.9479 84.6308 32.0031 84.4113 32.0031H54.3687C54.02 32.0031 53.6855 31.8638 53.4389 31.6158C53.1923 31.3679 53.0538 31.0316 53.0538 30.6809V12.2133C53.0538 12.0869 53.0718 11.9612 53.1073 11.84L53.3108 11.1448L55.0153 5.32079C55.3689 4.11785 56.0996 3.06199 57.0985 2.31057C58.0974 1.55914 59.3111 1.15237 60.5586 1.15088H81.0793C82.2652 1.15178 83.4221 1.51915 84.3935 2.20323C85.3648 2.88731 86.1036 3.85505 86.5098 4.97538L89.924 14.4155ZM68.7361 20.4219C68.7362 20.6534 68.8276 20.8754 68.9904 21.039C69.1531 21.2026 69.3739 21.2946 69.6041 21.2946H72.0081C72.2382 21.2946 72.459 21.2026 72.6217 21.039C72.7845 20.8753 72.8759 20.6534 72.8759 20.4219V20.4043C72.8759 20.1729 72.7845 19.9509 72.6217 19.7872C72.459 19.6236 72.2383 19.5316 72.0081 19.5316H69.6041C69.3739 19.5316 69.1531 19.6236 68.9904 19.7872C68.8276 19.9509 68.7361 20.1728 68.7361 20.4043V20.4219ZM56.2438 24.6574C55.8758 24.6577 55.5229 24.8049 55.2627 25.0666C55.0025 25.3282 54.8561 25.683 54.8557 26.0531V29.3832C54.8561 29.7532 55.0025 30.108 55.2627 30.3696C55.5229 30.6313 55.8758 30.7784 56.2438 30.7788H65.3025C65.6706 30.7784 66.0234 30.6313 66.2836 30.3696C66.5438 30.108 66.6902 29.7532 66.6906 29.3832V26.0531C66.6902 25.683 66.5439 25.3282 66.2836 25.0666C66.0234 24.8049 65.6706 24.6577 65.3025 24.6574H56.2438ZM66.8854 5.21555C66.8854 5.04191 66.8514 4.86998 66.7853 4.70956C66.7192 4.54914 66.6224 4.40338 66.5003 4.2806C66.3782 4.15782 66.2332 4.06042 66.0737 3.99398C65.9141 3.92753 65.7431 3.89333 65.5705 3.89334H61.7394C61.4198 3.89612 61.1094 4.00159 60.8536 4.19436C60.5978 4.38713 60.4101 4.65708 60.3177 4.96479L58.6803 10.2214C58.5925 10.503 58.5478 10.7963 58.5479 11.0914V13.2936C58.5472 13.5201 58.5954 13.7441 58.6893 13.9501C58.7832 14.156 58.9204 14.339 59.0916 14.4864L62.5266 17.4158C62.7917 17.643 63.1285 17.768 63.4768 17.7686H65.5705C65.7431 17.7686 65.9141 17.7344 66.0737 17.668C66.2332 17.6015 66.3782 17.5041 66.5003 17.3814C66.6224 17.2586 66.7192 17.1128 66.7853 16.9524C66.8514 16.792 66.8854 16.62 66.8854 16.4464V5.21555ZM84.7879 4.88133C84.6834 4.59356 84.494 4.34474 84.245 4.16817C83.9961 3.9916 83.6994 3.89571 83.3947 3.89334H70.0511C69.7023 3.89334 69.3679 4.03265 69.1213 4.28061C68.8747 4.52857 68.7361 4.86488 68.7361 5.21555V16.4464C68.7361 16.7971 68.8747 17.1334 69.1213 17.3813C69.3679 17.6293 69.7023 17.7686 70.0511 17.7686H86.9184C87.2587 17.7647 87.5877 17.6447 87.8512 17.4282C88.1148 17.2117 88.2974 16.9116 88.3691 16.577C88.3967 16.4611 88.4112 16.3423 88.4122 16.223V15.1058C88.4122 14.7561 88.3495 14.4093 88.2271 14.082L84.7879 4.88133Z" fill="#003B72"/>
<path d="M91.1721 17.7867L107.816 15.9224C107.837 15.9201 107.857 15.919 107.878 15.9189C108.014 15.919 108.145 15.9693 108.246 16.0604C108.347 16.1515 108.411 16.2768 108.426 16.4125L108.803 19.8156C108.819 19.9619 108.776 20.1086 108.685 20.2235C108.594 20.3384 108.461 20.4122 108.315 20.4285L91.1721 22.3491V17.7867Z" fill="#003B72"/>
<path d="M117.49 19.2066C117.14 19.2465 116.785 19.1983 116.458 19.0663C116.131 18.9343 115.841 18.7226 115.615 18.4502L115.548 18.3699L109.715 19.023L109.473 16.833L115.306 16.1795L115.354 16.0866C115.523 15.7561 115.774 15.4755 116.083 15.272C116.393 15.0684 116.749 14.949 117.118 14.9253C117.487 14.9016 117.855 14.9744 118.188 15.1367C118.52 15.299 118.805 15.5452 119.015 15.8513C119.224 16.1573 119.351 16.5128 119.384 16.883C119.416 17.2532 119.352 17.6255 119.199 17.9635C119.045 18.3015 118.807 18.5937 118.508 18.8116C118.208 19.0295 117.858 19.1656 117.49 19.2066V19.2066ZM118.923 16.8832C118.888 16.5656 118.762 16.265 118.561 16.0177C118.359 15.7705 118.091 15.587 117.789 15.4896C117.486 15.3922 117.162 15.3849 116.855 15.4686C116.548 15.5524 116.272 15.7236 116.06 15.9616C115.848 16.1996 115.709 16.4942 115.66 16.8099C115.61 17.1256 115.653 17.4489 115.783 17.7407C115.912 18.0326 116.123 18.2806 116.389 18.4547C116.655 18.6289 116.966 18.7218 117.284 18.7222C117.346 18.7222 117.407 18.7187 117.469 18.712C117.903 18.6632 118.3 18.4432 118.572 18.1003C118.845 17.7573 118.971 17.3196 118.923 16.8832V16.8832Z" fill="#003B72"/>
<path d="M5.09881 16.3318C4.76179 16.3318 4.42807 16.2651 4.1167 16.1354C3.80534 16.0057 3.52242 15.8156 3.28411 15.576C3.0458 15.3364 2.85676 15.0519 2.72779 14.7388C2.59882 14.4258 2.53244 14.0902 2.53244 13.7513V11.961H18.5097C18.7484 11.961 18.9849 11.9137 19.2055 11.8219C19.4261 11.73 19.6265 11.5953 19.7954 11.4255C19.9642 11.2557 20.0981 11.0542 20.1895 10.8324C20.2809 10.6105 20.3279 10.3728 20.3279 10.1327V6.7373H27.6218C27.7143 6.8314 27.7933 6.93804 27.8564 7.05411L30.588 12.0952V12.1164L32.8035 16.2048V16.3318H5.09881Z" fill="#003B72"/>
<path d="M205.603 16.5479H204.044V2.54199H205.603V16.5479ZM204.823 9.01229C204.733 9.01229 204.645 9.03909 204.571 9.0893C204.496 9.13952 204.438 9.2109 204.403 9.29441C204.369 9.37793 204.36 9.46982 204.377 9.55849C204.395 9.64715 204.438 9.7286 204.502 9.79252C204.565 9.85645 204.646 9.89999 204.735 9.91763C204.823 9.93527 204.914 9.92623 204.997 9.89164C205.08 9.85706 205.151 9.79848 205.201 9.72332C205.251 9.64816 205.278 9.55979 205.278 9.46939C205.278 9.40937 205.266 9.34994 205.243 9.29448C205.22 9.23902 205.187 9.18863 205.145 9.14618C205.102 9.10374 205.052 9.07007 204.997 9.04709C204.942 9.02412 204.883 9.0123 204.823 9.01229V9.01229Z" fill="#003B72"/>
<path d="M207.615 16.1564H206.057V2.93408H207.615V16.1564ZM206.836 9.01256C206.746 9.01258 206.658 9.03941 206.584 9.08964C206.509 9.13988 206.451 9.21127 206.416 9.29478C206.382 9.3783 206.373 9.4702 206.391 9.55885C206.408 9.6475 206.451 9.72893 206.515 9.79284C206.579 9.85675 206.659 9.90028 206.748 9.91791C206.836 9.93554 206.927 9.92649 207.01 9.89189C207.093 9.8573 207.164 9.79873 207.214 9.72357C207.264 9.64841 207.291 9.56005 207.291 9.46966C207.291 9.40962 207.279 9.35017 207.256 9.2947C207.233 9.23923 207.2 9.18883 207.158 9.14638C207.116 9.10393 207.065 9.07026 207.01 9.0473C206.955 9.02434 206.896 9.01253 206.836 9.01256V9.01256Z" fill="#003B72"/>
<path d="M209.596 15.7485H208.038V3.34229H209.596V15.7485ZM208.817 9.01268C208.727 9.01265 208.639 9.03944 208.564 9.08965C208.49 9.13986 208.431 9.21123 208.397 9.29474C208.363 9.37826 208.354 9.47016 208.371 9.55883C208.389 9.64749 208.432 9.72895 208.495 9.79288C208.559 9.85681 208.64 9.90036 208.728 9.91801C208.816 9.93566 208.908 9.92662 208.991 9.89203C209.074 9.85745 209.145 9.79887 209.195 9.72371C209.245 9.64855 209.271 9.56018 209.271 9.46978C209.271 9.34858 209.224 9.23233 209.138 9.14662C209.053 9.0609 208.938 9.01272 208.817 9.01268V9.01268Z" fill="#003B72"/>
<path d="M211.569 15.3074H210.01V3.78271H211.569V15.3074ZM210.789 9.01234C210.7 9.01232 210.612 9.03911 210.537 9.08932C210.462 9.13952 210.404 9.2109 210.369 9.29441C210.335 9.37792 210.326 9.46982 210.343 9.55849C210.361 9.64716 210.404 9.72861 210.468 9.79255C210.531 9.85648 210.612 9.90003 210.701 9.91768C210.789 9.93533 210.88 9.92629 210.963 9.8917C211.046 9.85712 211.117 9.79854 211.167 9.72338C211.217 9.64822 211.244 9.55985 211.244 9.46945C211.244 9.34824 211.196 9.232 211.111 9.14628C211.026 9.06056 210.91 9.01239 210.789 9.01234V9.01234Z" fill="#003B72"/>
<path d="M212.468 2.93428C212.471 3.11174 212.489 3.28864 212.521 3.46318C212.605 3.98563 212.814 4.47948 213.132 4.90144C213.45 5.3234 213.865 5.6606 214.343 5.88348C214.82 6.10636 215.344 6.20812 215.87 6.17984C216.395 6.15157 216.906 5.99412 217.357 5.7213V14.3414C217.25 14.2751 217.14 14.2151 217.026 14.1617C216.544 13.9407 216.016 13.8425 215.488 13.8759C214.96 13.9092 214.448 14.0732 213.997 14.3531C213.547 14.633 213.173 15.0203 212.907 15.4806C212.641 15.9408 212.493 16.4599 212.474 16.9918L212.054 16.8495V2.93129L212.477 2.75049C212.474 2.8117 212.468 2.87222 212.468 2.93428Z" fill="#003B72"/>
<path d="M212.809 17.1194C212.809 17.0807 212.813 17.0432 212.815 17.0049C212.831 16.5292 212.964 16.0648 213.202 15.6531C213.439 15.2413 213.774 14.8949 214.177 14.6445C214.58 14.3941 215.038 14.2475 215.51 14.2176C215.983 14.1877 216.455 14.2756 216.886 14.4733C216.988 14.5211 217.087 14.5747 217.182 14.6341C217.602 14.8983 217.946 15.2676 218.181 15.7058C218.416 16.144 218.534 16.6361 218.522 17.1338C218.511 17.6315 218.372 18.1178 218.117 18.5449C217.863 18.9721 217.503 19.3255 217.072 19.5704C216.641 19.8154 216.154 19.9435 215.659 19.9422C215.164 19.941 214.677 19.8104 214.247 19.5633C213.818 19.3161 213.459 18.961 213.207 18.5325C212.955 18.1041 212.818 17.6172 212.809 17.1194V17.1194ZM215.7 18.0042C215.874 18.0042 216.044 17.9523 216.189 17.8551C216.334 17.7579 216.447 17.6197 216.513 17.458C216.58 17.2963 216.597 17.1184 216.563 16.9467C216.529 16.7751 216.446 16.6174 216.323 16.4937C216.2 16.3699 216.043 16.2856 215.872 16.2515C215.701 16.2173 215.524 16.2349 215.364 16.3019C215.203 16.3688 215.065 16.4823 214.969 16.6278C214.872 16.7733 214.82 16.9444 214.82 17.1194C214.82 17.3541 214.913 17.5791 215.078 17.7451C215.243 17.911 215.467 18.0042 215.7 18.0042Z" fill="#003B72"/>
<path d="M217.196 5.4496C216.789 5.69582 216.328 5.83791 215.853 5.86341C215.379 5.88892 214.906 5.79706 214.475 5.59588C214.044 5.39471 213.669 5.09037 213.382 4.70952C213.096 4.32867 212.906 3.88294 212.831 3.4114C212.802 3.25387 212.786 3.09421 212.783 2.93404C212.783 2.87805 212.788 2.82335 212.791 2.76812C212.819 2.26299 212.977 1.77375 213.249 1.34799C213.52 0.922239 213.897 0.574456 214.342 0.338468C214.787 0.10248 215.286 -0.0136808 215.788 0.00128283C216.291 0.0162465 216.782 0.161825 217.212 0.423861C217.643 0.685897 217.998 1.05547 218.245 1.49664C218.491 1.93781 218.619 2.43556 218.618 2.94148C218.616 3.44741 218.484 3.94428 218.235 4.38378C217.986 4.82329 217.628 5.19046 217.196 5.4496V5.4496ZM215.7 2.04116C215.525 2.04116 215.353 2.09353 215.207 2.19164C215.061 2.28975 214.947 2.4292 214.88 2.59235C214.813 2.7555 214.795 2.93503 214.829 3.10823C214.864 3.28144 214.948 3.44053 215.072 3.5654C215.197 3.69027 215.355 3.77531 215.527 3.80976C215.699 3.84422 215.878 3.82653 216.04 3.75895C216.202 3.69138 216.341 3.57693 216.439 3.4301C216.536 3.28327 216.588 3.11064 216.588 2.93404C216.588 2.81679 216.565 2.70068 216.521 2.59234C216.476 2.48401 216.411 2.38558 216.328 2.30267C216.246 2.21975 216.148 2.15398 216.04 2.10912C215.932 2.06425 215.817 2.04116 215.7 2.04116V2.04116Z" fill="#003B72"/>
<path d="M213.433 27.7803H217.967C218.103 27.7803 218.237 27.8071 218.362 27.8593C218.488 27.9115 218.602 27.988 218.697 28.0845C218.793 28.1809 218.869 28.2954 218.921 28.4214C218.973 28.5473 219 28.6824 219 28.8187V35.061C219 35.1689 218.983 35.2761 218.95 35.3788L217.911 38.6292C217.844 38.8385 217.713 39.0211 217.536 39.1506C217.36 39.2801 217.147 39.3499 216.928 39.3499H214.472C214.254 39.3499 214.041 39.2801 213.864 39.1506C213.687 39.0211 213.556 38.8385 213.489 38.6292L212.45 35.3788C212.417 35.2761 212.401 35.1689 212.401 35.061V28.8187C212.401 28.5433 212.509 28.2792 212.703 28.0844C212.897 27.8897 213.159 27.7803 213.433 27.7803V27.7803ZM217.941 29.3062C218.022 29.3062 218.102 29.2818 218.171 29.2361C218.239 29.1904 218.292 29.1254 218.323 29.0493C218.354 28.9732 218.363 28.8895 218.347 28.8088C218.331 28.728 218.291 28.6539 218.233 28.5957C218.175 28.5374 218.102 28.4978 218.021 28.4817C217.941 28.4656 217.858 28.4739 217.782 28.5054C217.707 28.5369 217.642 28.5902 217.596 28.6587C217.551 28.7271 217.527 28.8076 217.527 28.8899C217.527 29.0003 217.57 29.1062 217.648 29.1843C217.725 29.2623 217.831 29.3062 217.941 29.3062V29.3062ZM215.7 38.8557C215.801 38.8557 215.9 38.8256 215.984 38.7691C216.068 38.7125 216.134 38.6322 216.173 38.5383C216.211 38.4443 216.221 38.3409 216.202 38.2412C216.182 38.1414 216.133 38.0498 216.062 37.9779C215.99 37.906 215.899 37.857 215.8 37.8372C215.701 37.8173 215.598 37.8275 215.505 37.8664C215.411 37.9054 215.331 37.9713 215.275 38.0558C215.219 38.1404 215.189 38.2398 215.189 38.3415C215.189 38.409 215.202 38.4759 215.228 38.5383C215.253 38.6007 215.291 38.6574 215.339 38.7051C215.386 38.7529 215.442 38.7908 215.505 38.8166C215.567 38.8424 215.633 38.8557 215.7 38.8557V38.8557ZM215.7 34.5594C215.906 34.5594 216.107 34.4982 216.278 34.3834C216.448 34.2686 216.582 34.1054 216.66 33.9145C216.739 33.7236 216.759 33.5135 216.719 33.3108C216.679 33.1082 216.58 32.922 216.435 32.7759C216.29 32.6298 216.105 32.5303 215.903 32.49C215.701 32.4496 215.493 32.4703 215.303 32.5494C215.113 32.6285 214.951 32.7624 214.836 32.9343C214.722 33.1061 214.661 33.3081 214.661 33.5147C214.661 33.7918 214.771 34.0575 214.966 34.2534C215.16 34.4493 215.425 34.5594 215.7 34.5594V34.5594ZM213.46 29.3062C213.542 29.3062 213.622 29.2818 213.69 29.2361C213.758 29.1903 213.811 29.1253 213.842 29.0492C213.874 28.9732 213.882 28.8895 213.866 28.8087C213.85 28.728 213.81 28.6538 213.753 28.5956C213.695 28.5374 213.621 28.4978 213.541 28.4817C213.46 28.4656 213.377 28.4739 213.301 28.5054C213.226 28.5369 213.161 28.5902 213.116 28.6587C213.07 28.7271 213.046 28.8076 213.046 28.8899C213.046 28.9446 213.057 28.9987 213.077 29.0493C213.098 29.0998 213.129 29.1457 213.167 29.1843C213.206 29.223 213.251 29.2536 213.301 29.2746C213.352 29.2955 213.406 29.3062 213.46 29.3062V29.3062Z" fill="#003B72"/>
<path d="M214.079 41.9139L214.325 41.6447C214.489 41.4656 214.604 41.2477 214.661 41.0114C214.761 40.4221 215.138 39.9824 215.591 39.9824C216.12 39.9824 216.548 40.5817 216.548 41.321C216.556 41.5344 216.519 41.747 216.438 41.9445C216.357 42.142 216.235 42.3198 216.08 42.4658C216.028 42.5229 215.968 42.5733 215.903 42.6157C215.701 42.7451 215.513 42.8961 215.343 43.066C214.623 43.7815 214.339 44.6654 214.708 45.0405C215.076 45.4156 215.959 45.1396 216.678 44.4243C216.807 44.2948 216.925 44.155 217.032 44.0064C217.036 44.0799 217.04 44.1537 217.04 44.2287C217.04 45.7061 216.173 46.9038 215.104 46.9038C214.034 46.9038 213.168 45.7061 213.168 44.2287C213.173 43.3697 213.498 42.5439 214.079 41.9139H214.079ZM215.607 40.9129C215.655 40.9129 215.702 40.8985 215.742 40.8716C215.782 40.8447 215.813 40.8065 215.832 40.7617C215.85 40.717 215.855 40.6678 215.846 40.6203C215.836 40.5728 215.813 40.5291 215.779 40.4949C215.745 40.4607 215.702 40.4373 215.654 40.4279C215.607 40.4184 215.558 40.4233 215.514 40.4418C215.469 40.4604 215.431 40.4917 215.404 40.532C215.378 40.5723 215.363 40.6196 215.363 40.668C215.363 40.7002 215.37 40.732 215.382 40.7617C215.394 40.7914 215.412 40.8184 215.435 40.8412C215.457 40.8639 215.484 40.882 215.514 40.8943C215.543 40.9066 215.575 40.9129 215.607 40.9129V40.9129Z" fill="#003B72"/>
<path d="M218.291 19.5353V27.3463C218.291 27.372 218.286 27.3975 218.276 27.4212C218.266 27.445 218.252 27.4666 218.234 27.4848C218.216 27.503 218.194 27.5174 218.171 27.5273C218.147 27.5371 218.122 27.5422 218.096 27.5422C218.07 27.5422 218.045 27.5371 218.021 27.5273C217.998 27.5174 217.976 27.503 217.958 27.4848C217.94 27.4666 217.926 27.445 217.916 27.4212C217.906 27.3975 217.901 27.372 217.901 27.3463V19.5353C217.901 19.4833 217.922 19.4335 217.958 19.3967C217.995 19.36 218.044 19.3394 218.096 19.3394C218.148 19.3394 218.197 19.36 218.234 19.3967C218.27 19.4335 218.291 19.4833 218.291 19.5353V19.5353Z" fill="#003B72"/>
<path d="M213.499 19.5352V27.3462C213.499 27.372 213.494 27.3974 213.485 27.4212C213.475 27.445 213.46 27.4665 213.442 27.4847C213.424 27.5029 213.403 27.5173 213.379 27.5272C213.356 27.537 213.33 27.5421 213.305 27.5421C213.279 27.5421 213.254 27.537 213.23 27.5272C213.206 27.5173 213.185 27.5029 213.167 27.4847C213.149 27.4665 213.134 27.445 213.125 27.4212C213.115 27.3974 213.11 27.372 213.11 27.3462V19.5352C213.11 19.5095 213.115 19.484 213.125 19.4603C213.134 19.4365 213.149 19.4149 213.167 19.3967C213.185 19.3785 213.206 19.3641 213.23 19.3543C213.254 19.3444 213.279 19.3394 213.305 19.3394C213.33 19.3394 213.356 19.3444 213.379 19.3543C213.403 19.3641 213.424 19.3785 213.442 19.3967C213.46 19.4149 213.475 19.4365 213.485 19.4603C213.494 19.484 213.499 19.5095 213.499 19.5352V19.5352Z" fill="#003B72"/>
</svg>
