<svg width="150" height="150" viewBox="0 0 150 150" fill="none" xmlns="http://www.w3.org/2000/svg">
<path d="M96.4017 65.0975C90.2218 65.0975 84.202 62.9197 79.4536 58.9653L77.0905 56.9931C76.4598 56.4662 75.5435 56.4662 74.9128 56.9931L72.5497 58.9635C67.7997 62.9195 61.7797 65.0973 55.6 65.0973C54.6617 65.0973 53.9 65.859 53.9 66.7973V78.6978C53.9 92.8135 62.3188 105.44 75.3465 110.868C75.5557 110.957 75.7782 110.999 76.001 110.999C76.2237 110.999 76.4464 110.957 76.6554 110.868C89.6831 105.44 98.1019 92.8135 98.1019 78.6978V66.7973C98.1017 65.8592 97.3418 65.0975 96.4017 65.0975ZM94.7017 78.698C94.7017 91.1969 87.3846 102.405 76.0008 107.45C64.6171 102.406 57.2998 91.1987 57.2998 78.698V68.4483C63.67 68.0827 69.8022 65.6755 74.7257 61.575L76.0008 60.5125L77.2758 61.5767C82.1993 65.6757 88.3314 68.0829 94.7017 68.4485V78.698Z" fill="#003771"/>
<path d="M111.702 93.9986V121.2C111.702 123.075 110.177 124.6 108.302 124.6H43.6993C41.8242 124.6 40.2991 123.075 40.2991 121.2V42.9963C40.2991 41.1212 41.824 39.5961 43.6993 39.5961H69.2004V36.196H43.6993C39.9488 36.196 36.899 39.246 36.899 42.9963V121.2C36.899 124.95 39.949 128 43.6993 128H108.302C112.053 128 115.103 124.95 115.103 121.2V93.9986H111.702Z" fill="#003771"/>
<path d="M108.302 36.196H82.8009V39.5963H108.302C110.177 39.5963 111.702 41.1212 111.702 42.9965V83.7983H115.103V42.9965C115.103 39.246 112.053 36.196 108.302 36.196Z" fill="#003771"/>
<path d="M94.1252 40.5857L84.3174 36.672L83.6154 32.5408C83.039 28.7479 79.836 25.9956 76.0007 25.9956C72.1653 25.9956 68.9623 28.7479 68.3912 32.5119L67.6839 36.672L57.8727 40.5857C53.3897 42.3843 50.4961 46.6685 50.4995 51.4984C50.4995 52.4367 51.2612 53.1968 52.1995 53.1968H99.8016C100.74 53.1968 101.502 52.4369 101.503 51.5001C101.507 46.6703 98.6134 42.3861 94.1252 40.5857ZM54.0697 49.7967C54.6239 47.0851 56.4905 44.8037 59.1376 43.741L69.8312 39.4738C70.3803 39.2544 70.7765 38.7649 70.8767 38.18L71.7489 33.0509C72.0703 30.9325 73.8588 29.3956 76.0009 29.3956C78.143 29.3956 79.9314 30.9325 80.2578 33.0813L81.1248 38.1816C81.2234 38.7663 81.6213 39.256 82.1721 39.4754L92.8623 43.7408C95.5093 44.8033 97.3776 47.0849 97.9303 49.7966H54.0697V49.7967Z" fill="#003771"/>
<path d="M106.602 42.9963H98.1017V46.3966H104.902V90.5986H108.302V44.6965C108.302 43.758 107.542 42.9963 106.602 42.9963Z" fill="#003771"/>
<path d="M104.902 102.499V117.8H47.0994V46.3966H55.8887V42.9963H45.3994C44.461 42.9963 43.6993 43.758 43.6993 44.6963V119.5C43.6993 120.44 44.461 121.2 45.3994 121.2H106.602C107.542 121.2 108.302 120.44 108.302 119.5V102.499H104.902Z" fill="#003771"/>
<path d="M60.7 56.597H50.4995V59.9973H60.7V56.597Z" fill="#003771"/>
<path d="M57.2998 104.199H50.4995V107.599H57.2998V104.199Z" fill="#003771"/>
<path d="M60.7 111H50.4995V114.4H60.7V111Z" fill="#003771"/>
<path d="M88.3313 75.8672L75.9276 89.8215L70.4024 84.2963L67.9985 86.7002L74.7988 93.5004C75.1167 93.82 75.5503 93.9985 76.0007 93.9985C76.0177 93.9985 76.0348 93.9985 76.0499 93.9985C76.5191 93.9832 76.9594 93.7776 77.2706 93.4273L90.8713 78.1266L88.3313 75.8672Z" fill="#003771"/>
<path d="M126.505 80.8963L121.405 75.796C121.079 75.4713 120.63 75.2996 120.177 75.298C119.718 75.3032 119.281 75.4968 118.967 75.8301L90.0655 106.431C89.7681 106.748 89.6013 107.166 89.6013 107.599V112.7C89.6013 113.64 90.3612 114.4 91.3013 114.4H96.4016C96.8691 114.4 97.3162 114.208 97.6376 113.867L126.539 83.2661C127.171 82.5963 127.156 81.5473 126.505 80.8963ZM95.669 111H93.0015V108.274L120.237 79.4377L122.931 82.1323L95.669 111Z" fill="#003771"/>
<path d="M116.304 80.8964L113.9 83.3007L119 88.4013L121.405 85.997L116.304 80.8964Z" fill="#003771"/>
<path d="M33.4989 25.9956H30.0986V39.5963H33.4989V25.9956Z" fill="#003771"/>
<path d="M38.5991 31.0958H24.9984V34.496H38.5991V31.0958Z" fill="#003771"/>
</svg>
